<svg xmlns="http://www.w3.org/2000/svg" xmlns:xlink="http://www.w3.org/1999/xlink" width="512" height="512" viewBox="0 0 135.467 135.467"><defs><linearGradient id="a"><stop offset="0" stop-color="#570083"/><stop offset=".423" stop-color="#33005b"/><stop offset=".633" stop-color="#8767d2"/><stop offset="1" stop-color="#520096"/></linearGradient><linearGradient id="b"><stop offset="0" stop-color="#fff"/><stop offset=".5" stop-color="#fff"/><stop offset=".75" stop-color="#d8dadb"/><stop offset="1" stop-color="#e9e9e7"/></linearGradient><linearGradient id="c"><stop offset="0" stop-color="#563a9d"/><stop offset=".5" stop-color="#4f3392"/><stop offset="1" stop-color="#694eb9"/></linearGradient><linearGradient xlink:href="#a" id="g" x1="54.733" x2="50.131" y1="82.725" y2="90.694" gradientUnits="userSpaceOnUse"/><linearGradient xlink:href="#b" id="f" x1="120.284" x2="120.284" y1="117.928" y2="171.041" gradientUnits="userSpaceOnUse"/><linearGradient xlink:href="#c" id="d" x1="339.672" x2="422.53" y1=".687" y2="125.811" gradientTransform="translate(-203.294 48.544)" gradientUnits="userSpaceOnUse"/><filter id="e" width="1.026" height="1.031" x="-.013" y="-.015" color-interpolation-filters="sRGB"><feGaussianBlur stdDeviation=".493"/></filter></defs><g transform="translate(-47.779 -80.505)"><rect width="135.101" height="135.101" x="47.962" y="80.688" fill="url(#d)" stroke="#452882" stroke-linecap="round" stroke-linejoin="bevel" stroke-miterlimit=".1" stroke-width=".365" rx="42.044" ry="42.044"/><path d="m108.984 111.098-10.268 20.224h20.224l3.013-5.934h10.407c3.825 0 6.309.927 7.456 2.77 1.147 1.845.856 4.472-.878 7.888-1.734 3.415-4.119 6.06-7.156 7.938-3.02 1.844-6.445 2.77-10.27 2.77H110.6l.01-.017H90.883l-20.735 40.842 24.9-10.198 8.295-16.336h13.01c9.733 0 18.288-2.153 25.664-6.456 7.427-4.337 13.179-10.518 17.254-18.543 4.057-7.992 4.57-14.143 1.53-18.446-2.99-4.337-9.357-6.502-19.09-6.502z" filter="url(#e)" opacity=".17" transform="translate(-17.263 -22.087) scale(1.1405)"/><path fill="url(#f)" d="M108.284 109.998h32.727c9.734 0 16.1 2.165 19.09 6.502 3.04 4.303 2.527 10.454-1.53 18.445-4.075 8.026-9.826 14.206-17.254 18.544-7.375 4.303-15.93 6.455-25.664 6.455h-13.01l-8.295 16.336-24.9 10.199 20.736-40.842h19.725l-.009.017h10.912c3.825 0 7.25-.926 10.27-2.77 3.037-1.879 5.422-4.524 7.156-7.939s2.025-6.042.878-7.887c-1.147-1.844-3.632-2.77-7.457-2.77h-10.911l-.01.018h-5.15z" transform="translate(-17.895 -22.101) scale(1.1405)"/><path fill="url(#g)" d="m52.828 82.696-.888 1.748h1.748l.26-.513h-.043v.002h-.446z" font-family="Bitstream Vera Sans" font-size="38.1" font-weight="700" letter-spacing="0" style="line-height:1.25;-inkscape-font-specification:&quot;Bitstream Vera Sans Bold&quot;" transform="translate(-591.446 -987.806) scale(13.1948)" word-spacing="0"/></g></svg>
