<svg xmlns="http://www.w3.org/2000/svg" width="682.667" height="682.667" version="1.0" viewBox="0 0 512 512"><path d="M159.784 1.19C71.923 1.19 1.19 71.923 1.19 159.784v192.432c0 87.861 70.733 158.594 158.594 158.594h192.432c87.861 0 158.594-70.733 158.594-158.594V159.784c0-87.861-70.733-158.594-158.594-158.594Zm58.847 85.503h140.804c41.874 0 69.266 9.314 82.126 27.974 13.08 18.513 10.875 44.975-6.58 79.356-17.53 34.529-42.277 61.118-74.23 79.779-31.733 18.513-68.539 27.773-110.413 27.773h-55.97l-35.693 70.282-107.123 43.878 89.208-175.716h84.864l-.04.076h46.948c16.456 0 31.193-3.985 44.184-11.919 13.065-8.081 23.326-19.46 30.785-34.153 7.46-14.693 8.712-25.997 3.778-33.931-4.935-7.935-15.623-11.918-32.079-11.918h-46.944l-.04.074h-22.162zm-2.25 2.25 31.42 61.554h22.163l.04-.075h2.172l-12.961 25.53h-87.01z"/></svg>
