<?xml version="1.0" encoding="UTF-8" standalone="no"?>
<!-- Created with Inkscape (http://www.inkscape.org/) -->

<svg
   xml:space="preserve"
   sodipodi:docname="feature-bg-1.svg"
   inkscape:version="1.2.2 (b0a8486541, 2022-12-01)"
   id="svg42420"
   version="1.1"
   viewBox="0 0 12.649015 49.324009"
   height="49.324009mm"
   width="12.649014mm"
   xmlns:inkscape="http://www.inkscape.org/namespaces/inkscape"
   xmlns:sodipodi="http://sodipodi.sourceforge.net/DTD/sodipodi-0.dtd"
   xmlns:xlink="http://www.w3.org/1999/xlink"
   xmlns="http://www.w3.org/2000/svg"
   xmlns:svg="http://www.w3.org/2000/svg"><sodipodi:namedview
     id="namedview42422"
     pagecolor="#ffffff"
     bordercolor="#666666"
     borderopacity="1.0"
     inkscape:showpageshadow="2"
     inkscape:pageopacity="0.0"
     inkscape:pagecheckerboard="0"
     inkscape:deskcolor="#d1d1d1"
     inkscape:document-units="mm"
     showgrid="false"
     inkscape:zoom="3.1429292"
     inkscape:cx="46.612568"
     inkscape:cy="127.4289"
     inkscape:window-width="1920"
     inkscape:window-height="1045"
     inkscape:window-x="0"
     inkscape:window-y="0"
     inkscape:window-maximized="1"
     inkscape:current-layer="layer1" /><defs
     id="defs42417"><linearGradient
       inkscape:collect="always"
       id="linearGradient9600"><stop
         style="stop-color:#6f0291;stop-opacity:1;"
         offset="0"
         id="stop9596" /><stop
         style="stop-color:#dd008d;stop-opacity:0;"
         offset="1"
         id="stop9598" /></linearGradient><linearGradient
       id="linearGradient2921"
       inkscape:swatch="solid"><stop
         style="stop-color:#d32422;stop-opacity:1;"
         offset="0"
         id="stop2919" /></linearGradient><radialGradient
       inkscape:collect="always"
       xlink:href="#linearGradient9600"
       id="radialGradient9602"
       cx="-21.709824"
       cy="238.32381"
       fx="-21.709824"
       fy="238.32381"
       r="7.0434976"
       gradientTransform="matrix(1.7021432,0,0,4.0054611,13.867332,-716.27293)"
       gradientUnits="userSpaceOnUse" /></defs><g
     inkscape:label="Layer 1"
     inkscape:groupmode="layer"
     id="layer1"
     transform="translate(25.355522,-213.66181)"><path
       id="path8509"
       style="fill:url(#radialGradient9602);fill-opacity:1;fill-rule:nonzero;stroke-width:0.155931;stroke-linecap:round;stroke-linejoin:bevel;stroke-miterlimit:0.1;opacity:0.67114688"
       d="m -25.967197,215.42936 c -0.456375,-4e-5 -0.82635,0.36993 -0.826306,0.82631 -3.26e-4,0.45657 0.369731,0.82686 0.826306,0.82682 0.456573,4e-5 0.826632,-0.37025 0.826306,-0.82682 4.4e-5,-0.45638 -0.369932,-0.82635 -0.826306,-0.82631 z m 2.518709,0.45682 c -0.07517,0.10899 -0.117656,0.23718 -0.122473,0.36949 -9.7e-5,0.38419 0.311376,0.69566 0.695565,0.69556 0.18829,-2.9e-4 0.368413,-0.0769 0.499194,-0.21239 -0.350177,-0.29322 -0.70772,-0.57753 -1.072286,-0.85266 z m -1.359607,2.04019 c -0.45617,5.3e-4 -0.825599,0.37065 -0.825273,0.82682 2.43e-4,0.45577 0.369505,0.82526 0.825273,0.82579 0.456374,3.3e-4 0.82658,-0.36942 0.826823,-0.82579 3.26e-4,-0.45678 -0.370047,-0.82715 -0.826823,-0.82682 z m 3.073714,0.13126 c -0.375895,0.009 -0.677578,0.31737 -0.677478,0.69556 1.85e-4,0.38399 0.311575,0.69515 0.695565,0.69505 0.38399,1e-4 0.69538,-0.31106 0.695565,-0.69505 1.02e-4,-0.38419 -0.311372,-0.69566 -0.695565,-0.69556 -0.006,-1e-5 -0.01212,-1.5e-4 -0.01809,0 z m 2.033985,1.13481 c -0.09493,0.0923 -0.161268,0.20963 -0.19172,0.33848 -0.0748,0.37684 0.170379,0.74291 0.547254,0.81752 0.184753,0.0363 0.376087,-0.004 0.530716,-0.1111 -0.286477,-0.35571 -0.582141,-0.70413 -0.88625,-1.0449 z m -6.266801,1.23145 c -0.456371,-4e-5 -0.826344,0.36994 -0.826306,0.82631 -4.4e-5,0.45637 0.369931,0.82634 0.826306,0.8263 0.456374,4e-5 0.82635,-0.36993 0.826306,-0.8263 3.8e-5,-0.45637 -0.369936,-0.82635 -0.826306,-0.82631 z m 3.091801,0.13074 c -0.384189,-1e-4 -0.695662,0.31138 -0.695565,0.69557 -1.02e-4,0.38418 0.311372,0.69566 0.695565,0.69556 0.38399,-1.9e-4 0.69515,-0.31158 0.695048,-0.69556 9.7e-5,-0.38399 -0.311062,-0.69538 -0.695048,-0.69557 z m 2.690792,0.2589 c -0.236002,0.006 -0.425411,0.19922 -0.425298,0.43667 -1.21e-4,0.2412 0.195452,0.43678 0.436666,0.43666 0.241013,-1.7e-4 0.43627,-0.19566 0.436149,-0.43666 1.15e-4,-0.24101 -0.19514,-0.4365 -0.436149,-0.43667 -0.0038,0 -0.0076,-9e-5 -0.01137,0 z m 1.931148,0.24184 c -0.03219,0.06 -0.04989,0.12675 -0.05168,0.19483 -1.21e-4,0.2412 0.195451,0.43678 0.436666,0.43666 0.0262,-3.2e-4 0.05231,-0.003 0.07803,-0.008 -0.151348,-0.21012 -0.305705,-0.41805 -0.463021,-0.62374 z m -6.554639,1.86552 c -0.455971,5.3e-4 -0.825317,0.37034 -0.825273,0.82631 -3.9e-5,0.45597 0.369306,0.82578 0.825273,0.82631 0.456573,3.3e-4 0.826861,-0.36974 0.826823,-0.82631 4.4e-5,-0.45658 -0.370246,-0.82664 -0.826823,-0.82631 z m 3.091801,0.13126 c -0.38399,-1e-4 -0.69538,0.31106 -0.695565,0.69505 -9.7e-5,0.38419 0.311376,0.69566 0.695565,0.69556 0.384189,1e-4 0.695662,-0.31137 0.695565,-0.69556 -1.85e-4,-0.38399 -0.311575,-0.69515 -0.695565,-0.69505 z m 4.95422,0.16692 c -0.160168,0.12908 -0.254963,0.32246 -0.258899,0.52813 -9.7e-5,0.38419 0.311376,0.69566 0.695564,0.69556 0.08617,-4.7e-4 0.171513,-0.017 0.251665,-0.0486 -0.219551,-0.39742 -0.449068,-0.78925 -0.68833,-1.17512 z m -2.277381,0.092 c -0.235607,0.006 -0.424617,0.1991 -0.42478,0.43615 -1.15e-4,0.24101 0.19514,0.4365 0.436149,0.43667 0.0034,-1.3e-4 0.0069,-3.1e-4 0.01033,-5.2e-4 l 0.0036,5.2e-4 c 0.24121,1.2e-4 0.436781,-0.19546 0.436666,-0.43667 -1.67e-4,-0.24101 -0.195655,-0.43627 -0.436666,-0.43615 -0.0022,6.5e-4 -0.0045,0.001 -0.0067,0.002 -0.0024,-6.9e-4 -0.0048,-0.001 -0.0072,-0.002 -0.0038,0 -0.0076,-1e-4 -0.01137,0 z m -6.927742,2.10685 c -0.456371,-4e-5 -0.826344,0.36994 -0.826306,0.82631 -3.31e-4,0.45657 0.369727,0.82686 0.826306,0.82682 0.456577,4e-5 0.826637,-0.37025 0.826306,-0.82682 3.8e-5,-0.45637 -0.369936,-0.82635 -0.826306,-0.82631 z m 3.091801,0.13126 c -0.383986,-1e-4 -0.695375,0.31106 -0.695565,0.69505 -1.02e-4,0.38419 0.311372,0.69566 0.695565,0.69556 0.38399,-1.9e-4 0.69515,-0.31157 0.695048,-0.69556 -1.9e-4,-0.38378 -0.311265,-0.69486 -0.695048,-0.69505 z m 7.433654,0.0599 c -0.253607,0.10955 -0.418314,0.35885 -0.419612,0.63511 -1.02e-4,0.38399 0.311057,0.69537 0.695048,0.69556 0.104041,-5.1e-4 0.206642,-0.0244 0.30024,-0.0698 -0.181097,-0.42515 -0.373051,-0.84559 -0.575676,-1.26091 z m -4.742862,0.19896 c -0.23581,0.006 -0.425133,0.1989 -0.425298,0.43615 -1.21e-4,0.24121 0.195452,0.43678 0.436666,0.43666 0.241013,-1.7e-4 0.43627,-0.19565 0.436149,-0.43666 -1.66e-4,-0.24081 -0.195339,-0.43598 -0.436149,-0.43615 -0.0038,-1e-5 -0.0076,-1e-4 -0.01137,0 z m 2.304768,0 c -0.235809,0.006 -0.425132,0.1989 -0.425297,0.43615 -1.21e-4,0.24121 0.195451,0.43678 0.436666,0.43666 0.241215,1.2e-4 0.436787,-0.19545 0.436666,-0.43666 -1.67e-4,-0.24101 -0.195654,-0.43627 -0.436666,-0.43615 -0.0038,-1e-5 -0.0076,-1e-4 -0.01137,0 z m 3.31246,1.8774 c -0.182209,0.0955 -0.312716,0.2667 -0.356568,0.46767 -0.0748,0.37684 0.170378,0.74291 0.547254,0.81752 0.08462,0.0163 0.171548,0.0167 0.256315,0.001 -0.138085,-0.43253 -0.287335,-0.8612 -0.447001,-1.28623 z m -10.240719,0.22996 c -0.455971,5.3e-4 -0.825317,0.37034 -0.825273,0.82631 -3.9e-5,0.45597 0.369306,0.82577 0.825273,0.8263 0.456573,3.3e-4 0.826861,-0.36973 0.826823,-0.8263 4.4e-5,-0.45658 -0.370246,-0.82664 -0.826823,-0.82631 z m 3.073714,0.13074 c -0.375895,0.009 -0.677578,0.31738 -0.677478,0.69557 -9.7e-5,0.38419 0.311376,0.69566 0.695565,0.69556 0.384189,10e-5 0.695662,-0.31137 0.695565,-0.69556 1.02e-4,-0.38419 -0.311372,-0.69567 -0.695565,-0.69557 -0.006,0 -0.01212,-1.5e-4 -0.01809,0 z m 5.390886,0 c -0.375896,0.009 -0.677579,0.31738 -0.677478,0.69557 -9.7e-5,0.38419 0.311376,0.69566 0.695564,0.69556 0.383987,-1.9e-4 0.695145,-0.31157 0.695048,-0.69556 1.02e-4,-0.38399 -0.311057,-0.69538 -0.695048,-0.69557 -0.006,0 -0.01212,-1.5e-4 -0.01809,0 z m -2.69596,0.2589 c -0.235803,0.006 -0.424899,0.19942 -0.42478,0.43667 1.72e-4,0.24081 0.195343,0.43598 0.436149,0.43615 0.0034,-1.3e-4 0.0069,-3.1e-4 0.01033,-5.2e-4 l 0.0036,5.2e-4 c 0.241007,1.2e-4 0.436494,-0.19514 0.436666,-0.43615 1.21e-4,-0.24121 -0.195452,-0.43679 -0.436666,-0.43667 -0.0012,1.7e-4 -0.0024,3.4e-4 -0.0036,5.2e-4 -0.0034,-2.1e-4 -0.0069,-3.9e-4 -0.01033,-5.2e-4 -0.0038,0 -0.0076,-1e-4 -0.01137,0 z m 5.302519,1.98179 c -0.270069,0.0582 -0.479861,0.27032 -0.534851,0.54105 -0.07476,0.37664 0.169595,0.74268 0.54622,0.81753 0.102155,0.0197 0.207869,0.0165 0.308508,-0.01 -0.09497,-0.45225 -0.201875,-0.90197 -0.319877,-1.34876 z m -12.230261,0.12558 c -0.456375,-4e-5 -0.82635,0.36992 -0.826306,0.8263 -4.4e-5,0.45638 0.369931,0.82635 0.826306,0.82631 0.456374,4e-5 0.82635,-0.36993 0.826306,-0.82631 4.4e-5,-0.45638 -0.369932,-0.82634 -0.826306,-0.8263 z m 3.073714,0.13074 c -0.375891,0.009 -0.677574,0.31738 -0.677478,0.69556 -1.02e-4,0.38419 0.311372,0.69567 0.695565,0.69557 0.38399,-1.9e-4 0.69515,-0.31158 0.695048,-0.69557 9.7e-5,-0.38399 -0.311062,-0.69537 -0.695048,-0.69556 -0.006,0 -0.01212,-1.5e-4 -0.01809,0 z m 7.70909,0 c -0.375689,0.01 -0.677057,0.31757 -0.676961,0.69556 -1.02e-4,0.38399 0.311057,0.69538 0.695048,0.69557 0.384192,1e-4 0.695667,-0.31138 0.695565,-0.69557 9.7e-5,-0.38419 -0.311377,-0.69566 -0.695565,-0.69556 -0.006,0 -0.01212,-1.6e-4 -0.01809,0 z m -5.000211,0.2589 c -0.236006,0.006 -0.425417,0.19922 -0.425298,0.43666 -1.21e-4,0.24121 0.195452,0.43679 0.436666,0.43667 0.241013,-1.7e-4 0.43627,-0.19566 0.436149,-0.43667 1.21e-4,-0.24101 -0.195136,-0.43649 -0.436149,-0.43666 -0.0038,-1e-5 -0.0076,-1e-4 -0.01137,0 z m 2.304768,0 c -0.236005,0.006 -0.425416,0.19922 -0.425297,0.43666 -1.21e-4,0.24121 0.195451,0.43679 0.436666,0.43667 0.241215,1.2e-4 0.436787,-0.19546 0.436666,-0.43667 1.21e-4,-0.24121 -0.195451,-0.43678 -0.436666,-0.43666 -0.0038,-1e-5 -0.0076,-1e-4 -0.01137,0 z m -6.928259,2.10736 c -0.455971,5.3e-4 -0.825317,0.37034 -0.825273,0.82631 -3.26e-4,0.45617 0.369103,0.82629 0.825273,0.82682 0.456776,3.3e-4 0.827149,-0.37004 0.826823,-0.82682 4.4e-5,-0.45658 -0.370246,-0.82664 -0.826823,-0.82631 z m 11.574487,0 c -0.456576,-3.3e-4 -0.826866,0.36973 -0.826823,0.82631 -3.25e-4,0.45678 0.370048,0.82715 0.826823,0.82682 0.127793,-4.5e-4 0.25374,-0.0305 0.367937,-0.0879 -0.05824,-0.51877 -0.131482,-1.03575 -0.219625,-1.55029 -0.04888,-0.009 -0.09852,-0.0145 -0.148312,-0.015 z m -8.500773,0.13126 c -0.375699,0.009 -0.677296,0.31706 -0.677478,0.69505 -9.7e-5,0.38419 0.311376,0.69566 0.695565,0.69556 0.384189,1e-4 0.695662,-0.31137 0.695565,-0.69556 -1.85e-4,-0.38399 -0.311575,-0.69515 -0.695565,-0.69505 -0.006,0 -0.01212,-1.5e-4 -0.01809,0 z m 5.390886,0 c -0.375699,0.009 -0.677296,0.31706 -0.677478,0.69505 -9.7e-5,0.38419 0.311376,0.69566 0.695564,0.69556 0.383987,-1.9e-4 0.695145,-0.31157 0.695048,-0.69556 -1.85e-4,-0.38379 -0.31126,-0.69486 -0.695048,-0.69505 -0.006,0 -0.01212,-1.5e-4 -0.01809,0 z m -2.69596,0.2589 c -0.235607,0.006 -0.424617,0.1991 -0.42478,0.43615 -1.15e-4,0.24101 0.19514,0.43649 0.436149,0.43666 0.0034,-1.3e-4 0.0069,-3e-4 0.01033,-5.1e-4 l 0.0036,5.1e-4 c 0.24121,1.2e-4 0.436781,-0.19545 0.436666,-0.43666 -1.67e-4,-0.24101 -0.195655,-0.43627 -0.436666,-0.43615 l -0.0036,5.2e-4 c -0.0034,-2.1e-4 -0.0069,-3.9e-4 -0.01033,-5.2e-4 -0.0038,0 -0.0076,-10e-5 -0.01137,0 z m -6.927742,2.10736 c -0.456375,-4e-5 -0.82635,0.36993 -0.826306,0.82631 -3.8e-5,0.45637 0.369935,0.82635 0.826306,0.82631 0.45637,4e-5 0.826344,-0.36994 0.826306,-0.82631 4.4e-5,-0.45638 -0.369932,-0.82635 -0.826306,-0.82631 z m 3.073714,0.13075 c -0.375895,0.009 -0.677579,0.31737 -0.677478,0.69556 1.85e-4,0.38399 0.311575,0.69515 0.695565,0.69505 0.383787,-1.9e-4 0.694863,-0.31126 0.695048,-0.69505 1.02e-4,-0.38399 -0.311058,-0.69538 -0.695048,-0.69556 -0.006,-1e-5 -0.01212,-1.5e-4 -0.01809,0 z m 7.70909,0 c -0.375693,0.01 -0.677062,0.31757 -0.676961,0.69556 1.85e-4,0.38379 0.31126,0.69486 0.695048,0.69505 0.383989,1e-4 0.69538,-0.31106 0.695565,-0.69505 1.02e-4,-0.38419 -0.311373,-0.69566 -0.695565,-0.69556 -0.006,0 -0.01212,-1.6e-4 -0.01809,0 z m 2.431376,0.22996 c -0.09507,0.13675 -0.146585,0.29905 -0.147794,0.4656 0.0024,0.19122 0.07109,0.37568 0.194303,0.52193 -0.0095,-0.32944 -0.025,-0.65867 -0.04651,-0.98753 z m -7.431587,0.0289 c -0.236006,0.006 -0.425417,0.19923 -0.425298,0.43667 1.67e-4,0.24101 0.195655,0.43627 0.436666,0.43615 0.24081,-1.7e-4 0.435983,-0.19534 0.436149,-0.43615 1.21e-4,-0.24101 -0.195136,-0.4365 -0.436149,-0.43667 -0.0038,0 -0.0076,-9e-5 -0.01137,0 z m 2.304768,0 c -0.236005,0.006 -0.425416,0.19923 -0.425297,0.43667 1.67e-4,0.24101 0.195654,0.43627 0.436666,0.43615 0.241012,1.2e-4 0.436499,-0.19514 0.436666,-0.43615 1.21e-4,-0.24121 -0.195451,-0.43679 -0.436666,-0.43667 -0.0038,0 -0.0076,-9e-5 -0.01137,0 z m -6.928259,2.10737 c -0.455967,5.3e-4 -0.825312,0.37034 -0.825273,0.8263 -4.4e-5,0.45597 0.369302,0.82578 0.825273,0.82631 0.456577,3.3e-4 0.826867,-0.36973 0.826823,-0.82631 3.8e-5,-0.45656 -0.37025,-0.82663 -0.826823,-0.8263 z m 11.552783,0 c -0.446716,0.011 -0.805156,0.37687 -0.805119,0.8263 -4.3e-5,0.45658 0.370247,0.82664 0.826823,0.82631 0.165993,-2.5e-4 0.328062,-0.0505 0.465088,-0.14418 0.0272,-0.44154 0.04357,-0.88367 0.04909,-1.32601 -0.145796,-0.11727 -0.327077,-0.18159 -0.514181,-0.18242 -0.0071,-1e-5 -0.01461,-1.8e-4 -0.0217,0 z m -8.479069,0.13074 c -0.375891,0.009 -0.677573,0.31738 -0.677478,0.69556 -1.02e-4,0.38419 0.311372,0.69567 0.695565,0.69557 0.384193,1e-4 0.695667,-0.31138 0.695565,-0.69557 9.7e-5,-0.38418 -0.311376,-0.69566 -0.695565,-0.69556 -0.006,0 -0.01212,-1.5e-4 -0.01809,0 z m 5.390886,0 c -0.375892,0.009 -0.677574,0.31738 -0.677478,0.69556 -1.02e-4,0.38419 0.311372,0.69567 0.695564,0.69557 0.383991,-1.9e-4 0.69515,-0.31158 0.695048,-0.69557 9.7e-5,-0.38398 -0.311061,-0.69537 -0.695048,-0.69556 -0.006,0 -0.01212,-1.5e-4 -0.01809,0 z m -2.69596,0.2589 c -0.235799,0.006 -0.424893,0.19942 -0.42478,0.43666 -1.21e-4,0.24101 0.195136,0.4365 0.436149,0.43667 0.0033,-3e-4 0.0065,-6.6e-4 0.0098,-0.001 0.0014,3.4e-4 0.0027,7e-4 0.0041,0.001 0.241214,1.2e-4 0.436787,-0.19546 0.436666,-0.43667 1.15e-4,-0.2412 -0.195456,-0.43678 -0.436666,-0.43666 -0.0014,3.3e-4 -0.0027,6.9e-4 -0.0041,10e-4 -0.0033,-3.7e-4 -0.0065,-7.3e-4 -0.0098,-10e-4 -0.0038,0 -0.0076,-1e-4 -0.01137,0 z m -6.949446,2.10736 c -0.446518,0.0113 -0.804646,0.37706 -0.804602,0.82631 -3.8e-5,0.45637 0.369935,0.82635 0.826306,0.82631 0.45637,4e-5 0.826344,-0.36994 0.826306,-0.82631 4.4e-5,-0.45638 -0.369932,-0.82635 -0.826306,-0.82631 -0.0071,0 -0.01462,-1.7e-4 -0.0217,0 z m 3.095418,0.13126 c -0.375699,0.009 -0.677296,0.31706 -0.677478,0.69505 -9.7e-5,0.38419 0.311376,0.69566 0.695565,0.69556 0.383986,-1.9e-4 0.695145,-0.31157 0.695048,-0.69556 -1.85e-4,-0.38379 -0.311261,-0.69486 -0.695048,-0.69505 -0.006,0 -0.01212,-1.5e-4 -0.01809,0 z m 7.70909,0 c -0.375497,0.01 -0.676779,0.31726 -0.676961,0.69505 -9.7e-5,0.38399 0.311061,0.69537 0.695048,0.69556 0.384188,1e-4 0.695662,-0.31137 0.695565,-0.69556 -1.85e-4,-0.38399 -0.311576,-0.69515 -0.695565,-0.69505 -0.006,1e-5 -0.01213,-1.5e-4 -0.01809,0 z m 2.109949,0.24185 c -0.119848,0.11566 -0.202074,0.26475 -0.235645,0.42788 -0.03483,0.18804 -0.0035,0.38242 0.08888,0.54984 0.05474,-0.325 0.103912,-0.65095 0.146761,-0.97772 z m -7.11016,0.0171 c -0.23581,0.006 -0.425133,0.19891 -0.425298,0.43615 -1.15e-4,0.24121 0.195456,0.43679 0.436666,0.43667 0.241009,-1.7e-4 0.436264,-0.19566 0.436149,-0.43667 -1.66e-4,-0.24081 -0.195339,-0.43598 -0.436149,-0.43615 -0.0038,0 -0.0076,-9e-5 -0.01137,0 z m 2.304768,0 c -0.235809,0.006 -0.425132,0.19891 -0.425297,0.43615 -1.15e-4,0.24121 0.195455,0.43679 0.436666,0.43667 0.241211,1.2e-4 0.436781,-0.19546 0.436666,-0.43667 -1.67e-4,-0.24101 -0.195654,-0.43627 -0.436666,-0.43615 -0.0038,0 -0.0076,-9e-5 -0.01137,0 z m -6.928259,2.10685 c -0.45617,5.3e-4 -0.825599,0.37065 -0.825273,0.82682 -4.4e-5,0.45597 0.369302,0.82578 0.825273,0.82631 0.456577,3.3e-4 0.826867,-0.36973 0.826823,-0.82631 3.26e-4,-0.45678 -0.370047,-0.82715 -0.826823,-0.82682 z m 11.546582,0.004 c -0.444243,0.0147 -0.797256,0.37821 -0.798918,0.82269 0.004,0.29983 0.170141,0.57395 0.434083,0.71624 0.136576,-0.50931 0.25824,-1.02251 0.364835,-1.53893 z m -8.472868,0.12713 c -0.375891,0.009 -0.677573,0.31738 -0.677478,0.69556 1.85e-4,0.38399 0.311575,0.69515 0.695565,0.69505 0.38399,1e-4 0.69538,-0.31106 0.695565,-0.69505 9.7e-5,-0.38419 -0.311376,-0.69566 -0.695565,-0.69556 -0.006,0 -0.01212,-1.5e-4 -0.01809,0 z m 5.390886,0 c -0.375892,0.009 -0.677574,0.31738 -0.677478,0.69556 1.85e-4,0.38399 0.311575,0.69515 0.695564,0.69505 0.383788,-1.9e-4 0.694863,-0.31126 0.695048,-0.69505 9.7e-5,-0.38399 -0.311061,-0.69537 -0.695048,-0.69556 -0.006,0 -0.01212,-1.5e-4 -0.01809,0 z m -2.69596,0.2589 c -0.235803,0.006 -0.424899,0.19942 -0.42478,0.43666 1.66e-4,0.24081 0.195339,0.43598 0.436149,0.43615 0.0034,-1.3e-4 0.0069,-3.1e-4 0.01033,-5.2e-4 0.0012,1.8e-4 0.0024,3.5e-4 0.0036,5.2e-4 0.241011,1.2e-4 0.436499,-0.19514 0.436666,-0.43615 1.21e-4,-0.24121 -0.195452,-0.43678 -0.436666,-0.43666 -0.0014,3.3e-4 -0.0027,6.9e-4 -0.0041,10e-4 -0.0033,-3.7e-4 -0.0065,-7.3e-4 -0.0098,-10e-4 -0.0038,0 -0.0076,-1e-4 -0.01137,0 z m -6.949446,2.10736 c -0.446518,0.0113 -0.804646,0.37706 -0.804602,0.82631 -3.8e-5,0.45637 0.369935,0.82634 0.826306,0.8263 0.45637,4e-5 0.826344,-0.36993 0.826306,-0.8263 4.4e-5,-0.45638 -0.369932,-0.82635 -0.826306,-0.82631 -0.0071,0 -0.01462,-1.8e-4 -0.0217,0 z m 3.095418,0.13074 c -0.375895,0.009 -0.677579,0.31738 -0.677478,0.69557 -9.7e-5,0.38419 0.311376,0.69566 0.695565,0.69556 0.383986,-1.9e-4 0.695145,-0.31157 0.695048,-0.69556 1.02e-4,-0.38399 -0.311058,-0.69538 -0.695048,-0.69557 -0.006,0 -0.01212,-1.5e-4 -0.01809,0 z m 7.70909,0 c -0.375693,0.01 -0.677062,0.31758 -0.676961,0.69557 -9.7e-5,0.38399 0.311061,0.69537 0.695048,0.69556 0.384188,1e-4 0.695662,-0.31137 0.695565,-0.69556 1.02e-4,-0.38419 -0.311373,-0.69567 -0.695565,-0.69557 -0.006,10e-6 -0.01212,-1.5e-4 -0.01809,0 z m -5.000211,0.25942 c -0.23581,0.006 -0.425133,0.1989 -0.425298,0.43615 -1.15e-4,0.24121 0.195456,0.43678 0.436666,0.43666 0.241009,-1.7e-4 0.436264,-0.19565 0.436149,-0.43666 -1.66e-4,-0.24081 -0.195339,-0.43598 -0.436149,-0.43615 -0.0038,0 -0.0076,-9e-5 -0.01137,0 z m 2.304768,0 c -0.235809,0.006 -0.425132,0.1989 -0.425297,0.43615 -1.15e-4,0.24121 0.195455,0.43678 0.436666,0.43666 0.241211,1.2e-4 0.436781,-0.19545 0.436666,-0.43666 -1.67e-4,-0.24101 -0.195654,-0.43627 -0.436666,-0.43615 -0.0038,0 -0.0076,-9e-5 -0.01137,0 z m 3.096969,1.5782 c -0.0065,0 -0.01314,3.3e-4 -0.01964,5.1e-4 -0.383763,0.0132 -0.68389,0.33505 -0.67076,0.71882 0.01067,0.27606 0.183622,0.51976 0.4408,0.62064 0.188417,-0.42196 0.365699,-0.84898 0.532267,-1.28003 -0.08914,-0.0396 -0.185276,-0.06 -0.28267,-0.0599 z m -10.046932,0.52865 c -0.446114,0.0118 -0.803612,0.37746 -0.803569,0.8263 -4.4e-5,0.45597 0.369302,0.82578 0.825273,0.82631 0.456577,3.3e-4 0.826867,-0.36973 0.826823,-0.82631 4.4e-5,-0.45658 -0.370246,-0.82663 -0.826823,-0.8263 -0.0071,0 -0.01462,-1.9e-4 -0.0217,0 z m 3.095418,0.13074 c -0.375891,0.009 -0.677573,0.31738 -0.677478,0.69556 -1.02e-4,0.38419 0.311372,0.69567 0.695565,0.69557 0.384193,1e-4 0.695667,-0.31138 0.695565,-0.69557 9.7e-5,-0.38419 -0.311376,-0.69566 -0.695565,-0.69556 -0.006,0 -0.01212,-1.5e-4 -0.01809,0 z m 5.390886,0 c -0.375892,0.009 -0.677574,0.31738 -0.677478,0.69556 -1.02e-4,0.38419 0.311372,0.69567 0.695564,0.69557 0.383991,-1.9e-4 0.69515,-0.31158 0.695048,-0.69557 9.7e-5,-0.38399 -0.311061,-0.69537 -0.695048,-0.69556 -0.006,0 -0.01212,-1.5e-4 -0.01809,0 z m -2.69596,0.2589 c -0.235803,0.006 -0.424899,0.19942 -0.42478,0.43666 -1.21e-4,0.24101 0.195136,0.4365 0.436149,0.43667 0.0034,-1.3e-4 0.0069,-3.1e-4 0.01033,-5.2e-4 0.0012,1.8e-4 0.0024,3.5e-4 0.0036,5.2e-4 0.241214,1.2e-4 0.436787,-0.19546 0.436666,-0.43667 1.21e-4,-0.24121 -0.195452,-0.43678 -0.436666,-0.43666 -0.0022,6.5e-4 -0.0045,10e-4 -0.0067,0.002 -0.0024,-6.9e-4 -0.0048,-0.001 -0.0072,-0.002 -0.0038,0 -0.0076,-1e-4 -0.01137,0 z m 3.163115,1.61695 c -0.383971,0.0129 -0.684407,0.33485 -0.671277,0.71882 0.01091,0.20541 0.112014,0.39578 0.276469,0.51935 0.226034,-0.39377 0.44208,-0.79322 0.648022,-1.19786 -0.08118,-0.0288 -0.167074,-0.0423 -0.253214,-0.0403 z m -10.112561,0.49106 c -0.446322,0.0113 -0.804363,0.37675 -0.804602,0.82579 -3.26e-4,0.45657 0.369731,0.82686 0.826306,0.82682 0.456573,4e-5 0.826632,-0.37025 0.826306,-0.82682 -2.43e-4,-0.45617 -0.370135,-0.82583 -0.826306,-0.82579 -0.0071,0 -0.01462,-1.8e-4 -0.0217,0 z m 3.095418,0.13074 c -0.375699,0.009 -0.677296,0.31706 -0.677478,0.69505 -9.7e-5,0.38419 0.311376,0.69566 0.695565,0.69556 0.383986,-1.9e-4 0.695145,-0.31157 0.695048,-0.69556 -1.85e-4,-0.38379 -0.311261,-0.69486 -0.695048,-0.69505 -0.006,0 -0.01212,-1.5e-4 -0.01809,0 z m 2.708879,0.2589 c -0.23581,0.006 -0.425133,0.1989 -0.425298,0.43615 -1.15e-4,0.24121 0.195456,0.43678 0.436666,0.43666 0.241009,-1.7e-4 0.436264,-0.19565 0.436149,-0.43666 -1.66e-4,-0.24081 -0.195339,-0.43598 -0.436149,-0.43615 -0.0038,0 -0.0076,-9e-5 -0.01137,0 z m 2.304768,0 c -0.235809,0.006 -0.425132,0.1989 -0.425297,0.43615 -1.15e-4,0.24121 0.195455,0.43678 0.436666,0.43666 0.241211,1.2e-4 0.436781,-0.19545 0.436666,-0.43666 -1.67e-4,-0.24101 -0.195654,-0.43627 -0.436666,-0.43615 -0.0038,0 -0.0076,-9e-5 -0.01137,0 z m 0.564824,1.92598 c -0.0033,0 -0.0065,4.4e-4 -0.0098,5.2e-4 -0.24108,0.008 -0.429979,0.21006 -0.421679,0.45113 0.0041,0.068 0.02418,0.13385 0.05839,0.19275 0.150247,-0.21091 0.297185,-0.4241 0.441317,-0.63923 -0.02265,-0.004 -0.0453,-0.005 -0.06821,-0.005 z m -7.514787,0.18138 c -0.446114,0.0118 -0.803612,0.37746 -0.803569,0.82631 -3.9e-5,0.45597 0.369306,0.82578 0.825273,0.82631 0.456573,3.3e-4 0.826861,-0.36974 0.826823,-0.82631 4.4e-5,-0.45658 -0.370246,-0.82664 -0.826823,-0.82631 -0.0071,1e-5 -0.01462,-1.8e-4 -0.0217,0 z m 3.095418,0.13074 c -0.375895,0.009 -0.677578,0.31738 -0.677478,0.69557 1.85e-4,0.38399 0.311575,0.69515 0.695565,0.69505 0.38399,1e-4 0.69538,-0.31106 0.695565,-0.69505 1.02e-4,-0.38419 -0.311372,-0.69567 -0.695565,-0.69557 -0.006,0 -0.01212,-1.4e-4 -0.01809,0 z m 2.694926,0.2589 c -0.235803,0.006 -0.424899,0.19943 -0.42478,0.43667 1.66e-4,0.24081 0.195339,0.43598 0.436149,0.43615 0.0034,-1.3e-4 0.0069,-3.1e-4 0.01033,-5.2e-4 0.0012,1.8e-4 0.0024,3.5e-4 0.0036,5.2e-4 0.241011,1.2e-4 0.436499,-0.19514 0.436666,-0.43615 1.21e-4,-0.24121 -0.195452,-0.43679 -0.436666,-0.43667 -0.0014,3.3e-4 -0.0027,7e-4 -0.0041,0.001 -0.0033,-3.7e-4 -0.0065,-7.4e-4 -0.0098,-0.001 -0.0038,1e-5 -0.0076,-9e-5 -0.01137,0 z m -6.949446,2.10737 c -0.446514,0.0113 -0.80464,0.37707 -0.804602,0.8263 -3.31e-4,0.45658 0.369727,0.82687 0.826306,0.82683 0.456577,4e-5 0.826637,-0.37025 0.826306,-0.82683 3.8e-5,-0.45636 -0.369936,-0.82634 -0.826306,-0.8263 -0.0071,0 -0.01462,-1.8e-4 -0.0217,0 z m 3.095418,0.13074 c -0.375891,0.009 -0.677574,0.31738 -0.677478,0.69556 -1.02e-4,0.38419 0.311372,0.69567 0.695565,0.69557 0.38399,-1.9e-4 0.69515,-0.31158 0.695048,-0.69557 9.7e-5,-0.38398 -0.311062,-0.69537 -0.695048,-0.69556 -0.006,0 -0.01212,-1.5e-4 -0.01809,0 z m 2.708879,0.2589 c -0.236002,0.006 -0.425411,0.19922 -0.425298,0.43666 0.0025,0.0982 0.03796,0.1927 0.10077,0.26821 0.205439,-0.19986 0.407692,-0.40298 0.606681,-0.60927 -0.07689,-0.0615 -0.172324,-0.0952 -0.270785,-0.0956 -0.0038,0 -0.0076,-9e-5 -0.01137,0 z m -1.965772,1.83451 c -0.0059,4e-5 -0.01221,3.3e-4 -0.01809,5.2e-4 -0.38397,0.0129 -0.684407,0.33486 -0.671277,0.71882 0.0093,0.13207 0.05606,0.25845 0.134876,0.36483 0.355022,-0.28734 0.702804,-0.58338 1.04283,-0.88831 -0.131073,-0.12694 -0.306407,-0.19707 -0.488342,-0.19586 z m -2.679423,0.27337 c -0.445918,0.0118 -0.803329,0.37714 -0.803569,0.82579 -3.9e-5,0.45597 0.369306,0.82578 0.825273,0.82631 0.456573,3.3e-4 0.826861,-0.36974 0.826823,-0.82631 -2.43e-4,-0.45637 -0.370449,-0.82612 -0.826823,-0.82579 -0.0071,10e-6 -0.01463,-1.9e-4 -0.0217,0 z m -1.159102,2.49649 c -0.446711,0.0113 -0.804923,0.37739 -0.804602,0.82682 6.63e-4,0.004 0.0014,0.009 0.0021,0.0134 0.420798,-0.23061 0.83539,-0.47237 1.243335,-0.72502 -0.12691,-0.0751 -0.271616,-0.11492 -0.419096,-0.11524 -0.0071,0 -0.01461,-1.8e-4 -0.0217,0 z" /></g></svg>
