<svg xmlns="http://www.w3.org/2000/svg" xmlns:xlink="http://www.w3.org/1999/xlink" xml:space="preserve" width="47.807" height="186.421" viewBox="0 0 12.649 49.324"><defs><radialGradient xlink:href="#a" id="b" cx="-21.71" cy="238.324" r="7.043" fx="-21.71" fy="238.324" gradientTransform="matrix(1.7021 0 0 4.0055 13.867 -716.273)" gradientUnits="userSpaceOnUse"/><linearGradient id="a"><stop offset="0" stop-color="#6f0291"/><stop offset="1" stop-color="#dd008d" stop-opacity="0"/></linearGradient></defs><path fill="url(#b)" d="M-25.967 215.43a.826.826 0 1 0 0 1.652.826.826 0 0 0 0-1.653zm2.519.456a.695.695 0 0 0-.123.37.695.695 0 0 0 1.195.483 27.07 27.07 0 0 0-1.072-.853zm-1.36 2.04a.826.826 0 1 0 .002 1.653.826.826 0 0 0-.002-1.653zm3.074.132a.695.695 0 1 0 .018 0h-.018zm2.034 1.134a.694.694 0 0 0-.192.339.696.696 0 0 0 1.078.706 27.081 27.081 0 0 0-.886-1.045zm-6.267 1.232a.826.826 0 1 0 0 1.652.826.826 0 0 0 0-1.652zm3.092.13a.695.695 0 1 0 0 1.391.695.695 0 0 0 0-1.39zm2.69.26a.437.437 0 1 0 .012 0h-.012zm1.932.241a.436.436 0 0 0-.052.195.436.436 0 0 0 .515.429c-.152-.21-.306-.418-.463-.624zm-6.555 1.866a.826.826 0 1 0 .002 1.652.826.826 0 0 0-.002-1.652zm3.092.131a.695.695 0 1 0 0 1.39.695.695 0 0 0 0-1.39zm4.954.167a.695.695 0 0 0-.259.528.695.695 0 0 0 .947.647 27.52 27.52 0 0 0-.688-1.175zm-2.277.092a.436.436 0 0 0 .021.872h.004a.436.436 0 1 0 0-.872l-.007.002c-.002 0-.005 0-.007-.002h-.011zm-6.928 2.107a.826.826 0 1 0 0 1.652.826.826 0 0 0 0-1.652zm3.092.131a.695.695 0 1 0 0 1.391.695.695 0 0 0 0-1.39zm7.433.06a.695.695 0 0 0-.42.635.695.695 0 0 0 .996.626 27.066 27.066 0 0 0-.576-1.261zm-4.743.199a.437.437 0 1 0 .012 0h-.012zm2.305 0a.437.437 0 1 0 .012 0h-.012zm3.313 1.877a.695.695 0 0 0-.357.468.696.696 0 0 0 .804.819 27.057 27.057 0 0 0-.447-1.287zm-10.241.23a.826.826 0 1 0 .002 1.653.826.826 0 0 0-.002-1.653zm3.074.131a.695.695 0 1 0 .018 0h-.018zm5.39 0a.695.695 0 1 0 .019 0h-.018zm-2.695.259a.436.436 0 0 0 .021.872h.004a.436.436 0 1 0 0-.872h-.025zm5.302 1.982a.695.695 0 0 0 .011 1.358c.103.02.208.017.309-.01a27.063 27.063 0 0 0-.32-1.348zm-12.23.125a.826.826 0 1 0 0 1.653.826.826 0 0 0 0-1.653zm3.074.131a.695.695 0 1 0 .018 0h-.018zm7.709 0a.696.696 0 1 0 .018 0h-.018zm-5 .26a.437.437 0 1 0 .01 0h-.01zm2.304 0a.437.437 0 1 0 .012 0h-.012zm-6.928 2.106a.826.826 0 1 0 .002 1.653.826.826 0 0 0-.002-1.653zm11.574 0a.826.826 0 1 0 .368 1.566 27.065 27.065 0 0 0-.22-1.55.868.868 0 0 0-.148-.016zm-8.5.132a.695.695 0 1 0 .018 0h-.018zm5.39 0a.695.695 0 1 0 .019 0h-.018zm-2.695.259a.436.436 0 0 0 .021.872h.004a.436.436 0 1 0 0-.872h-.025zm-6.928 2.107a.826.826 0 1 0 0 1.652.826.826 0 0 0 0-1.652zm3.074.13a.695.695 0 1 0 .018 0h-.018zm7.709 0a.696.696 0 1 0 .018 0h-.018zm2.431.23a.826.826 0 0 0-.148.466.826.826 0 0 0 .194.522c-.009-.33-.025-.658-.046-.987zm-7.432.03a.437.437 0 1 0 .012 0h-.012zm2.305 0a.437.437 0 1 0 .012 0h-.012zm-6.928 2.107a.826.826 0 1 0 .002 1.652.826.826 0 0 0-.002-1.652zm11.553 0a.826.826 0 1 0 .486 1.508c.028-.441.044-.883.05-1.326a.826.826 0 0 0-.515-.182h-.021zm-8.48.13a.695.695 0 1 0 .019 0h-.018zm5.392 0a.695.695 0 1 0 .018 0h-.018zm-2.696.26a.436.436 0 0 0 .01.873l.01-.001h.005a.436.436 0 1 0 0-.872h-.025zm-6.95 2.107a.826.826 0 1 0 .022 0h-.022zm3.096.131a.695.695 0 1 0 .018 0h-.018zm7.709 0a.696.696 0 1 0 .018 0h-.018zm2.11.242a.826.826 0 0 0-.236.428.827.827 0 0 0 .089.55c.055-.325.104-.651.147-.978zm-7.11.017a.437.437 0 1 0 .01 0h-.01zm2.304 0a.437.437 0 1 0 .012 0h-.012zm-6.928 2.107a.826.826 0 1 0 .002 1.652.826.826 0 0 0-.002-1.652zm11.546.004a.826.826 0 0 0-.798.823c.004.3.17.574.434.716.136-.51.258-1.023.364-1.539zm-8.472.127a.695.695 0 1 0 .018 0h-.018zm5.39 0a.695.695 0 1 0 .019 0h-.018zm-2.695.259a.436.436 0 1 0 .025.873.436.436 0 1 0 0-.873l-.004.001-.01-.001h-.011zm-6.95 2.107a.826.826 0 1 0 .022 0h-.022zm3.096.131a.695.695 0 1 0 .018 0h-.018zm7.709 0a.696.696 0 1 0 .018 0h-.018zm-5 .26a.437.437 0 1 0 .01 0h-.01zm2.304 0a.437.437 0 1 0 .012 0h-.012zm3.097 1.578h-.02a.695.695 0 0 0-.23 1.34c.189-.422.366-.85.533-1.28a.694.694 0 0 0-.283-.06zm-10.047.528a.826.826 0 1 0 .022 0h-.022zm3.096.131a.695.695 0 1 0 .018 0h-.018zm5.39 0a.695.695 0 1 0 .019 0h-.018zm-2.695.259a.436.436 0 1 0 .025.873.436.436 0 1 0 0-.873l-.007.002-.007-.002h-.011zm3.163 1.617a.695.695 0 0 0-.672.719.698.698 0 0 0 .277.52c.226-.395.442-.794.648-1.199a.708.708 0 0 0-.253-.04zm-10.113.491a.826.826 0 1 0 .022 0h-.022zm3.096.13a.695.695 0 1 0 .018 0h-.018zm2.708.26a.437.437 0 1 0 .012 0h-.012zm2.305 0a.437.437 0 1 0 .012 0h-.012zm.565 1.926h-.01a.436.436 0 0 0-.421.451.436.436 0 0 0 .058.193c.15-.21.297-.424.441-.64a.39.39 0 0 0-.068-.004zm-7.515.181a.826.826 0 1 0 .022 0h-.022zm3.096.13a.695.695 0 1 0 .018 0h-.018zm2.695.26a.436.436 0 1 0 .025.872.436.436 0 1 0 0-.872h-.025zm-6.95 2.107a.826.826 0 1 0 .022 0h-.022zm3.096.13a.695.695 0 1 0 .018 0h-.018zm2.708.26a.437.437 0 0 0-.425.436.437.437 0 0 0 .1.269c.206-.2.409-.403.608-.61a.436.436 0 0 0-.271-.095h-.012zm-1.965 1.834h-.018a.695.695 0 0 0-.672.72c.01.132.056.258.135.364a26.7 26.7 0 0 0 1.043-.888.695.695 0 0 0-.488-.196zm-2.68.274a.826.826 0 1 0 .022 0h-.022zm-1.159 2.496a.826.826 0 0 0-.805.827l.003.013c.42-.23.835-.472 1.243-.725a.827.827 0 0 0-.42-.115h-.02z" opacity=".671" transform="translate(25.356 -213.662)"/></svg>
