<svg xmlns="http://www.w3.org/2000/svg" xmlns:xlink="http://www.w3.org/1999/xlink" xml:space="preserve" width="69.367" height="69.367" viewBox="0 0 18.353 18.353"><defs><linearGradient id="a"><stop offset="0" stop-color="#ff19a1"/><stop offset="1" stop-color="#ffaf55"/></linearGradient><linearGradient xlink:href="#a" id="b" x1="100.784" x2="108.933" y1="196.574" y2="196.574" gradientTransform="rotate(-15 -542.732 604.782) scale(1.8997)" gradientUnits="userSpaceOnUse"/></defs><path fill="url(#b)" d="m111.922 194.41 6.724-1.801q.219-.059.273-.295.054-.235-.168-.384l-2.39-1.831q-.136-.12-.306-.074-.17.045-.228.217l-1.505 3.317-1.69-1.16q-.185-.107-.34-.052-.154.055-.212.226l-.581 1.326q-.07.227.068.398.137.172.355.113zm-2.048 4.01q-.534.142-1.026-.142-.493-.284-.636-.818l-3.304-12.332q-.143-.534.141-1.026.284-.493.819-.636l12.331-3.304q.534-.143 1.027.141.492.284.635.818l3.305 12.332q.143.534-.142 1.027-.284.492-.818.635zm-.143-.535 12.332-3.304q.291-.078.469-.386t.1-.599l-3.305-12.332q-.078-.29-.386-.469-.307-.177-.599-.1L106.011 184q-.292.078-.47.386-.177.308-.1.599l3.305 12.332q.078.291.386.469.308.177.6.1zm-4.497-13.677 3.72 13.885z" transform="translate(-104.86 -180.114)"/></svg>
