<?xml version="1.0" encoding="UTF-8" standalone="no"?>
<!-- Created with Inkscape (http://www.inkscape.org/) -->

<svg
   width="18.353453mm"
   height="18.353453mm"
   viewBox="0 0 18.353452 18.353454"
   version="1.1"
   id="svg42420"
   inkscape:version="1.2.2 (b0a8486541, 2022-12-01)"
   sodipodi:docname="seo-half-cycle.svg"
   xml:space="preserve"
   xmlns:inkscape="http://www.inkscape.org/namespaces/inkscape"
   xmlns:sodipodi="http://sodipodi.sourceforge.net/DTD/sodipodi-0.dtd"
   xmlns:xlink="http://www.w3.org/1999/xlink"
   xmlns="http://www.w3.org/2000/svg"
   xmlns:svg="http://www.w3.org/2000/svg"><sodipodi:namedview
     id="namedview42422"
     pagecolor="#ffffff"
     bordercolor="#666666"
     borderopacity="1.0"
     inkscape:showpageshadow="2"
     inkscape:pageopacity="0.0"
     inkscape:pagecheckerboard="0"
     inkscape:deskcolor="#d1d1d1"
     inkscape:document-units="mm"
     showgrid="false"
     inkscape:zoom="2.2223866"
     inkscape:cx="-108.44198"
     inkscape:cy="84.818726"
     inkscape:window-width="1920"
     inkscape:window-height="1045"
     inkscape:window-x="0"
     inkscape:window-y="0"
     inkscape:window-maximized="1"
     inkscape:current-layer="layer1" /><defs
     id="defs42417"><linearGradient
       inkscape:collect="always"
       id="linearGradient9234"><stop
         style="stop-color:#ff19a1;stop-opacity:1;"
         offset="0"
         id="stop9230" /><stop
         style="stop-color:#ffaf55;stop-opacity:1;"
         offset="1"
         id="stop9232" /></linearGradient><linearGradient
       inkscape:collect="always"
       xlink:href="#linearGradient9234"
       id="linearGradient39386"
       x1="100.78362"
       y1="196.57373"
       x2="108.93278"
       y2="196.57373"
       gradientUnits="userSpaceOnUse"
       gradientTransform="matrix(1.8349591,-0.49167582,0.49167582,1.8349591,-175.0243,-119.85794)" /></defs><g
     inkscape:label="Layer 1"
     inkscape:groupmode="layer"
     id="layer1"
     transform="translate(-104.86004,-180.11384)"><text
       xml:space="preserve"
       style="font-size:38.1px;line-height:1.25;font-family:'Special Elite';-inkscape-font-specification:'Special Elite';letter-spacing:0px;word-spacing:0px;stroke-width:0.264583"
       x="138.23076"
       y="171.15738"
       id="text1935"><tspan
         sodipodi:role="line"
         id="tspan1933"
         style="stroke-width:0.264583"
         x="138.23076"
         y="171.15738" /></text><path
       d="m 111.9222,194.41028 6.72416,-1.80173 q 0.21848,-0.0585 0.27243,-0.29414 0.0539,-0.23559 -0.16809,-0.38428 l -2.39,-1.83129 q -0.1361,-0.11968 -0.30605,-0.0741 -0.16992,0.0455 -0.22799,0.21724 l -1.50479,3.31721 -1.68987,-1.16031 q -0.18473,-0.10666 -0.33922,-0.0523 -0.15436,0.0551 -0.2126,0.22611 l -0.5812,1.32652 q -0.0693,0.22671 0.0678,0.39814 0.13704,0.17142 0.35547,0.11289 z m -2.04791,4.0091 q -0.53404,0.1431 -1.02652,-0.1412 -0.49246,-0.28434 -0.63556,-0.8184 l -3.30426,-12.33169 q -0.1431,-0.53404 0.14121,-1.02652 0.28434,-0.49246 0.81839,-0.63556 l 12.33169,-3.30426 q 0.53405,-0.1431 1.02653,0.14121 0.49245,0.28434 0.63555,0.81839 l 3.30426,12.33169 q 0.1431,0.53405 -0.1412,1.02653 -0.28434,0.49245 -0.8184,0.63555 z m -0.1431,-0.53404 12.3317,-3.30426 q 0.2913,-0.0781 0.46901,-0.38585 0.1777,-0.30779 0.0996,-0.59909 l -3.30426,-12.3317 q -0.0781,-0.29129 -0.38585,-0.469 -0.30779,-0.1777 -0.59909,-0.0996 l -12.3317,3.30426 q -0.29129,0.0781 -0.46899,0.38585 -0.17771,0.30779 -0.0997,0.59908 l 3.30426,12.3317 q 0.0781,0.2913 0.38585,0.469 0.30779,0.17771 0.59908,0.0997 z m -4.49733,-13.67714 3.72055,13.88528 z"
       id="path38985"
       style="fill:url(#linearGradient39386);fill-opacity:1;stroke-width:0.502626" /></g></svg>
