<?xml version="1.0" encoding="UTF-8" standalone="no"?>
<!-- Created with Inkscape (http://www.inkscape.org/) -->

<svg
   width="12.768763mm"
   height="15.656759mm"
   viewBox="0 0 12.768762 15.65676"
   version="1.1"
   id="svg42420"
   inkscape:version="1.2.2 (b0a8486541, 2022-12-01)"
   sodipodi:docname="yellow-triangle.svg"
   xml:space="preserve"
   xmlns:inkscape="http://www.inkscape.org/namespaces/inkscape"
   xmlns:sodipodi="http://sodipodi.sourceforge.net/DTD/sodipodi-0.dtd"
   xmlns:xlink="http://www.w3.org/1999/xlink"
   xmlns="http://www.w3.org/2000/svg"
   xmlns:svg="http://www.w3.org/2000/svg"><sodipodi:namedview
     id="namedview42422"
     pagecolor="#ffffff"
     bordercolor="#666666"
     borderopacity="1.0"
     inkscape:showpageshadow="2"
     inkscape:pageopacity="0.0"
     inkscape:pagecheckerboard="0"
     inkscape:deskcolor="#d1d1d1"
     inkscape:document-units="mm"
     showgrid="false"
     inkscape:zoom="4.4447732"
     inkscape:cx="55.683381"
     inkscape:cy="84.706234"
     inkscape:window-width="1920"
     inkscape:window-height="1045"
     inkscape:window-x="0"
     inkscape:window-y="0"
     inkscape:window-maximized="1"
     inkscape:current-layer="layer1" /><defs
     id="defs42417"><linearGradient
       inkscape:collect="always"
       id="linearGradient46699"><stop
         style="stop-color:#ff1bff;stop-opacity:1;"
         offset="0"
         id="stop46695" /><stop
         style="stop-color:#8f3fff;stop-opacity:1;"
         offset="1"
         id="stop46697" /></linearGradient><linearGradient
       inkscape:collect="always"
       xlink:href="#linearGradient46699"
       id="linearGradient46701"
       x1="107.53068"
       y1="189.19817"
       x2="120.29944"
       y2="189.19817"
       gradientUnits="userSpaceOnUse" /></defs><g
     inkscape:label="Layer 1"
     inkscape:groupmode="layer"
     id="layer1"
     transform="translate(-107.53068,-181.36979)"><text
       xml:space="preserve"
       style="font-size:38.1px;line-height:1.25;font-family:'Special Elite';-inkscape-font-specification:'Special Elite';letter-spacing:0px;word-spacing:0px;stroke-width:0.264583"
       x="138.23076"
       y="171.15738"
       id="text1935"><tspan
         sodipodi:role="line"
         id="tspan1933"
         style="stroke-width:0.264583"
         x="138.23076"
         y="171.15738" /></text><path
       d="m 111.88859,194.0287 q 0.63423,0.16994 1.16522,-0.12036 0.53098,-0.29032 0.70607,-0.94378 l 0.91667,-3.42107 1.55678,0.41714 q 0.17296,0.0463 0.3506,-0.04 0.17759,-0.0863 0.23424,-0.29773 0.0515,-0.19219 -0.0514,-0.38457 -0.10292,-0.19237 -0.27593,-0.23872 l -1.57599,-0.42229 q -0.23064,-0.0618 -0.41855,0.0629 -0.1879,0.12475 -0.2394,0.31695 l -0.77248,2.88292 q -0.11632,-0.25776 -0.32309,-0.44706 -0.20676,-0.18933 -0.49505,-0.26657 -0.61503,-0.1648 -1.14413,0.15693 -0.52907,0.32173 -0.68872,0.91752 -0.16479,0.61503 0.13769,1.13897 0.3025,0.52394 0.91752,0.68874 z m -3.56022,0.75579 q -0.42282,-0.11329 -0.64795,-0.50321 -0.22511,-0.38991 -0.11181,-0.81274 l 3.02811,-11.30106 q 0.1133,-0.42284 0.5032,-0.64793 0.38992,-0.22512 0.81275,-0.11183 l 5.84272,1.56556 q 0.21142,0.0567 0.3734,0.18246 0.16201,0.12571 0.31298,0.33105 l 1.71651,2.97305 q 0.10739,0.21417 0.13277,0.42697 0.0254,0.2128 -0.0261,0.40499 l -2.39468,8.93706 q -0.1133,0.42285 -0.50321,0.64795 -0.38991,0.22511 -0.81275,0.11181 z m 9.52514,-11.33174 -6.05414,-1.6222 q -0.23062,-0.0618 -0.47432,0.0789 -0.24371,0.14069 -0.30551,0.37133 l -3.02811,11.30107 q -0.0618,0.23062 0.0789,0.47433 0.1407,0.2437 0.37133,0.3055 l 8.22594,2.20413 q 0.23063,0.0618 0.47433,-0.0789 0.2437,-0.14071 0.3055,-0.37133 l 2.45133,-9.14848 -2.26792,-0.60769 q -0.21141,-0.0566 -0.32397,-0.2516 -0.11255,-0.19495 -0.0559,-0.40637 z m -6.66917,-1.787 -0.74158,2.76761 0.74158,-2.76761 -3.35771,12.53112 z"
       id="path45960"
       style="stroke-width:0.397949;fill-opacity:1;fill:url(#linearGradient46701)" /></g></svg>
