<svg xmlns="http://www.w3.org/2000/svg" xml:space="preserve" width="388.019" height="289.785" viewBox="0 0 102.663 76.672"><g stroke-width=".79"><path fill="none" stroke="#168345" stroke-linecap="round" stroke-opacity=".718" stroke-width=".153" d="m94.6.076 5.941 22.176m0 0-2.713 1.578m2.713-1.578 2.046.94m-10.7-21.537 5.941 22.175m0 0 2.047.94"/><path fill="#35b190" fill-opacity=".25" d="m99.875 24.77-2.047-.94 2.713-1.578zm2.712-1.579-2.712 1.579.666-2.518z"/><path fill="none" stroke="#168345" stroke-linecap="round" stroke-opacity=".718" stroke-width=".153" d="m99.875 24.77 2.712-1.579M96.645 1.016l5.942 22.175M93.933 2.594l5.942 22.176M84.24 4.773l6.558 24.477m0 0-2.712 1.578m2.712-1.578 2.046.94"/><path fill="#35b190" fill-opacity=".25" d="m102.587 23.191-2.046-.94L94.599.077Zm-2.046-.94-2.713 1.58-5.941-22.176Z"/><path fill="none" stroke="#168345" stroke-linecap="round" stroke-opacity=".718" stroke-width=".153" d="m81.528 6.352 6.559 24.476m0 0 2.046.94"/><path fill="#35b190" fill-opacity=".25" d="m90.133 31.768-2.046-.94 2.712-1.578zm2.712-1.578-2.712 1.578.666-2.518zm7.03-5.42 2.712-1.579-5.942-22.175Zm-2.047-.94 2.047.94-5.942-22.176Z"/><path fill="none" stroke="#168345" stroke-linecap="round" stroke-opacity=".718" stroke-width=".153" d="m90.133 31.768 2.712-1.578M86.287 5.713l6.558 24.477"/><path fill="#35b190" fill-opacity=".25" d="m94.6.076 5.941 22.176-8.654-20.597Z"/><path fill="none" stroke="#168345" stroke-linecap="round" stroke-opacity=".718" stroke-width=".153" d="m83.574 7.291 6.559 24.477"/><path fill="#168345" fill-opacity=".718" d="m92.179 14.93 1.125 1.327-.358-1.337z"/><path fill="#35b190" fill-opacity=".25" d="m96.645 1.016 5.942 22.175L94.599.076Z"/><path fill="#168345" fill-opacity=".718" d="m92.113 13.589.066 1.341.767-.01z"/><path fill="#35b190" fill-opacity=".25" d="m92.845 30.19-2.046-.94-6.558-24.477Zm-2.046-.94-2.712 1.578-6.559-24.476Z"/><path fill="#168345" fill-opacity=".718" d="m92.113 13.589 1.085.498 2.193-.59z"/><path fill="none" stroke="#168345" stroke-linecap="round" stroke-opacity=".718" stroke-width=".153" d="m74.19 10.62 6.56 24.478m0 0-2.713 1.578m2.712-1.578 2.046.94"/><path fill="#35b190" fill-opacity=".25" d="m91.887 1.655 5.941 22.175-3.895-21.236z"/><path fill="none" stroke="#168345" stroke-linecap="round" stroke-opacity=".718" stroke-width=".153" d="m89.032 17.197 3.914-2.277"/><path fill="#168345" fill-opacity=".718" d="m93.304 16.257.63-.52-.988-.817zm-.106-2.17.736 1.65 1.457-2.24zm0 0-1.085-.498.833 1.33zm.736 1.65-.736-1.65-.252.833z"/><path fill="#35b190" fill-opacity=".25" d="m93.933 2.594 5.942 22.176-3.23-23.754Z"/><path fill="none" stroke="#168345" stroke-linecap="round" stroke-opacity=".718" stroke-width=".153" d="m71.478 12.2 6.559 24.476m0 0 2.046.94M94.599.075l-2.712 1.579M94.599.076l2.046.94"/><path fill="#35b190" fill-opacity=".25" d="m80.083 37.615-2.046-.94 2.712-1.577zm10.05-5.847 2.712-1.578-6.558-24.477Zm-2.046-.94 2.046.94L83.574 7.29Zm-5.292 5.21-2.712 1.577.666-2.517z"/><path fill="none" stroke="#168345" stroke-linecap="round" stroke-opacity=".718" stroke-width=".153" d="m80.083 37.615 2.712-1.578M76.237 11.56l6.558 24.477"/><path fill="#35b190" fill-opacity=".25" d="M96.645 1.016 94.6.076l-2.712 1.579z"/><path fill="none" stroke="#168345" stroke-linecap="round" stroke-opacity=".718" stroke-width=".153" d="m91.887 1.655 2.046.94"/><path fill="#35b190" fill-opacity=".25" d="M84.24 4.773 90.8 29.25 81.527 6.352Z"/><path fill="none" stroke="#168345" stroke-linecap="round" stroke-opacity=".718" stroke-width=".153" d="m73.524 13.139 6.559 24.476m13.85-35.02 2.712-1.579"/><path fill="#35b190" fill-opacity=".25" d="m93.933 2.594 2.712-1.578-4.758.639z"/><path fill="#168345" fill-opacity=".718" d="m82.129 20.778 1.125 1.327-.359-1.338zm-.066-1.342.066 1.342.766-.01z"/><path fill="#35b190" fill-opacity=".25" d="m86.287 5.713 6.558 24.477-8.604-25.417Zm-3.492 30.324-2.046-.94-6.558-24.476Zm-2.046-.94-2.712 1.579-6.559-24.477Z"/><path fill="#168345" fill-opacity=".718" d="m82.063 19.436 1.085.498 2.193-.59z"/><path fill="none" stroke="#168345" stroke-linecap="round" stroke-opacity=".718" stroke-width=".153" d="m78.982 23.044 3.913-2.277"/><path fill="#168345" fill-opacity=".718" d="m83.254 22.105.63-.521-.989-.817z"/><path fill="#35b190" fill-opacity=".25" d="m81.528 6.352 6.559 24.476-4.513-23.537z"/><path fill="#168345" fill-opacity=".718" d="m83.148 19.934.736 1.65 1.457-2.24zm0 0-1.085-.498.832 1.331zm.736 1.65-.736-1.65-.253.833z"/><path fill="none" stroke="#168345" stroke-linecap="round" stroke-opacity=".718" stroke-width=".153" d="m61.83 22.738 2.942 10.979m0 0-3.225 1.876m3.225-1.876 7.571 3.477"/><path fill="#35b190" fill-opacity=".25" d="m83.574 7.291 6.559 24.477-3.846-26.055Zm-3.491 30.324 2.712-1.578-6.558-24.477Zm-2.046-.94 2.046.94-6.559-24.476Z"/><path fill="none" stroke="#168345" stroke-linecap="round" stroke-opacity=".718" stroke-width=".153" d="m84.24 4.773-2.712 1.579m2.713-1.579 2.046.94M58.606 24.614l2.941 10.979m0 0 7.572 3.477"/><path fill="#35b190" fill-opacity=".25" d="m86.287 5.713-2.046-.94-2.713 1.579z"/><path fill="none" stroke="#168345" stroke-linecap="round" stroke-opacity=".718" stroke-width=".153" d="m81.528 6.352 2.046.94"/><path fill="#35b190" fill-opacity=".25" d="m74.19 10.62 6.56 24.478-9.272-22.899Zm-9.418 23.097-3.225 1.876-2.941-10.979z"/><path fill="#168345" fill-opacity=".718" d="m72.079 26.625 1.125 1.328-.359-1.338z"/><path fill="none" stroke="#168345" stroke-linecap="round" stroke-opacity=".718" stroke-width=".153" d="m83.574 7.291 2.713-1.578"/><path fill="#35b190" fill-opacity=".25" d="m83.574 7.291 2.713-1.578-4.759.639z"/><path fill="#168345" fill-opacity=".718" d="m72.013 25.284.066 1.341.766-.01z"/><path fill="#35b190" fill-opacity=".25" d="m76.237 11.56 6.558 24.477-8.604-25.416Zm-7.118 27.51-7.572-3.477 3.225-1.876z"/><path fill="none" stroke="#168345" stroke-linecap="round" stroke-opacity=".718" stroke-width=".153" d="m53.45 36.387 8.744-2.334m-7.957 5.273 7.957-5.273m-5.93 6.204 5.93-6.204m-6.718 3.265 6.718-3.265"/><path fill="#35b190" fill-opacity=".25" d="m61.83 22.738 2.942 10.979-6.166-9.103z"/><path fill="#168345" fill-opacity=".718" d="m72.013 25.284 1.085.498 2.193-.59z"/><path fill="none" stroke="#168345" stroke-linecap="round" stroke-opacity=".718" stroke-width=".153" d="m68.932 28.892 3.913-2.277"/><path fill="#168345" fill-opacity=".718" d="m73.204 27.953.63-.522-.989-.816z"/><path fill="#35b190" fill-opacity=".25" d="m71.478 12.2 6.559 24.476-4.513-23.537z"/><path fill="#168345" fill-opacity=".718" d="m73.098 25.782.735 1.65 1.458-2.24zm0 0-1.085-.498.832 1.331z"/><path fill="#35b190" fill-opacity=".25" d="m72.343 37.194-7.571-3.477-2.942-10.98Z"/><path fill="#168345" fill-opacity=".718" d="m73.833 27.431-.735-1.65-.253.834z"/><path fill="none" stroke="#168345" stroke-linecap="round" stroke-opacity=".718" stroke-width=".153" d="m51.268 28.883 2.942 10.979m0 0-3.225 1.876m3.225-1.876 7.571 3.477m.05-20.601-3.225 1.876m3.224-1.876 7.571 3.477"/><path fill="#35b190" fill-opacity=".25" d="m73.524 13.139 6.559 24.476-3.846-26.055Z"/><path fill="#00f" fill-opacity=".45" d="m54.237 39.326-.788-2.939 8.745-2.334z"/><path fill="none" stroke="#168345" stroke-linecap="round" stroke-opacity=".718" stroke-width=".153" d="m53.45 36.387.787 2.94m0 0 2.026.93m-2.814-3.87.788 2.94m0 0-3.225 1.875m3.225-1.876 2.026.931"/><path fill="#00f" fill-opacity=".45" d="m56.263 40.257-2.026-.93 7.957-5.274z"/><path fill="none" stroke="#168345" stroke-linecap="round" stroke-opacity=".718" stroke-width=".153" d="m74.19 10.62-2.712 1.58m2.713-1.58 2.046.94"/><path fill="#35b190" fill-opacity=".25" d="M72.343 37.194 69.12 39.07l-4.347-5.353z"/><path fill="none" stroke="#168345" stroke-linecap="round" stroke-opacity=".718" stroke-width=".153" d="m48.044 30.76 2.941 10.978m0 0 7.572 3.477"/><path fill="#00f" fill-opacity=".45" d="m53.45 36.387 2.026.931 6.718-3.265z"/><path fill="none" stroke="#168345" stroke-linecap="round" stroke-opacity=".718" stroke-width=".153" d="m58.606 24.614 7.571 3.477"/><path fill="#a0f000" fill-opacity=".45" d="m56.263 40.257-2.026-.93-.788-2.94z"/><path fill="#00f" fill-opacity=".45" d="m53.45 36.387.787 2.94 2.026.93z"/><path fill="none" stroke="#168345" stroke-linecap="round" stroke-opacity=".718" stroke-width=".153" d="m53.45 36.387 2.026.931m-2.027-.93-3.224 1.875m3.224-1.876 2.027.931"/><path fill="#00f" fill-opacity=".45" d="m55.476 37.318.787 2.939 5.93-6.204z"/><path fill="#a0f000" fill-opacity=".45" d="m53.45 36.387.787 2.94-4.012-1.064zm.787 2.94-3.225 1.875-.787-2.939z"/><path fill="none" stroke="#168345" stroke-linecap="round" stroke-opacity=".718" stroke-width=".153" d="m50.225 38.263.787 2.94m0 0 2.027.93"/><path fill="#35b190" fill-opacity=".25" d="m76.237 11.56-2.046-.94-2.713 1.58z"/><path fill="none" stroke="#168345" stroke-linecap="round" stroke-opacity=".718" stroke-width=".153" d="m71.478 12.2 2.046.939"/><path fill="#a0f000" fill-opacity=".45" d="m53.039 42.133-2.027-.93 3.225-1.877zm3.224-1.876-3.224 1.876 1.198-2.807z"/><path fill="none" stroke="#168345" stroke-linecap="round" stroke-opacity=".718" stroke-width=".153" d="m56.263 40.257-.787-2.939m-2.437 4.815 3.224-1.876m-.787-2.939.787 2.939"/><path fill="#35b190" fill-opacity=".25" d="m58.606 24.614 2.941 10.979 4.63-7.502zM54.21 39.862l-3.225 1.876-2.941-10.979z"/><path fill="#a0f000" fill-opacity=".45" d="m55.476 37.318.787 2.939-2.814-3.87z"/><path fill="#00f" fill-opacity=".45" d="m53.45 36.387 2.813 3.87-.787-2.939z"/><path fill="#a0f000" fill-opacity=".45" d="m55.476 37.318-2.027-.93-3.224 1.875z"/><path fill="none" stroke="#168345" stroke-linecap="round" stroke-opacity=".718" stroke-width=".153" d="m73.524 13.139 2.713-1.579m-7.118 27.51 3.224-1.876m-2.942-10.98 2.942 10.98"/><path fill="#35b190" fill-opacity=".25" d="m73.524 13.139 2.713-1.579-4.759.64z"/><path fill="none" stroke="#168345" stroke-linecap="round" stroke-opacity=".718" stroke-width=".153" d="m50.225 38.263 2.026.931"/><path fill="#35b190" fill-opacity=".25" d="m69.401 26.215-7.57-3.477-3.225 1.876z"/><path fill="#a0f000" fill-opacity=".45" d="m50.225 38.263.787 2.94 1.24-2.009zm2.814 3.87 3.224-1.876-.787-2.939z"/><path fill="#35b190" fill-opacity=".25" d="m61.547 35.593 7.572 3.477-2.942-10.98Zm-2.99 9.622-7.572-3.477 3.225-1.876zm-7.289-16.332 2.942 10.979-6.166-9.103zm18.133-2.668 2.942 10.979L61.83 22.738z"/><path fill="#a0f000" fill-opacity=".45" d="m51.012 41.202 2.027.931-.788-2.939z"/><path fill="none" stroke="#168345" stroke-linecap="round" stroke-opacity=".718" stroke-width=".153" d="m52.251 39.194 3.225-1.876m-3.225 1.876.788 2.94"/><path fill="#a0f000" fill-opacity=".45" d="m52.251 39.194 3.225-1.876-5.251.945z"/><path fill="#35b190" fill-opacity=".25" d="m61.781 43.339-7.571-3.477-2.942-10.979z"/><path fill="#a0f000" fill-opacity=".45" d="m52.251 39.194.788 2.94 2.437-4.816z"/><path fill="none" stroke="#168345" stroke-linecap="round" stroke-opacity=".718" stroke-width=".153" d="m66.177 28.09 2.942 10.98m-28.413-4.041 2.942 10.978m0 0-4.069 2.368m4.069-2.368 7.571 3.477m.05-20.6-3.225 1.875m3.224-1.876 7.571 3.477"/><path fill="#35b190" fill-opacity=".25" d="m69.119 39.07 3.224-1.876-2.942-10.98Zm-7.338 4.269-3.224 1.876-4.347-5.353Z"/><path fill="none" stroke="#168345" stroke-linecap="round" stroke-opacity=".718" stroke-width=".153" d="m48.044 30.76 7.571 3.476"/><path fill="#35b190" fill-opacity=".25" d="m66.177 28.09 3.224-1.875-10.795-1.601z"/><path fill="none" stroke="#168345" stroke-linecap="round" stroke-opacity=".718" stroke-width=".153" d="m36.637 37.396 2.942 10.979m0 0 7.571 3.477"/><path fill="#35b190" fill-opacity=".25" d="m48.044 30.76 2.941 10.978 4.63-7.502zm18.133-2.67 2.942 10.98.282-12.855zM43.648 46.008l-4.069 2.368-2.942-10.979z"/><path fill="none" stroke="#168345" stroke-linecap="round" stroke-opacity=".718" stroke-width=".153" d="m58.557 45.215 3.224-1.876M58.84 32.36l2.942 10.979"/><path fill="#35b190" fill-opacity=".25" d="m58.84 32.36-7.572-3.477-3.224 1.876z"/><path fill="none" stroke="#168345" stroke-linecap="round" stroke-opacity=".718" stroke-width=".153" d="m66.177 28.09 3.224-1.875m-41.599 13.39 3.78 14.108m0 0-4.069 2.367m4.069-2.367 9.729 4.468"/><path fill="#35b190" fill-opacity=".25" d="m50.985 41.738 7.572 3.477-2.942-10.979Zm7.854-9.378 2.942 10.979-10.513-14.456ZM47.15 51.852l-7.57-3.477 4.068-2.368Zm-6.444-16.823 2.942 10.978-7.01-8.61Z"/><path fill="none" stroke="#168345" stroke-linecap="round" stroke-opacity=".718" stroke-width=".153" d="m42.883 36.09 8.745-2.335m-7.958 5.273 7.958-5.273m-5.93 6.204 5.93-6.204M44.91 37.02l6.718-3.265"/><path fill="#35b190" fill-opacity=".25" d="m51.22 49.484-7.572-3.477-2.942-10.978Z"/><path fill="none" stroke="#168345" stroke-linecap="round" stroke-opacity=".718" stroke-width=".153" d="m55.615 34.236 2.942 10.98m-17.85-10.187-4.07 2.367m4.07-2.367 7.57 3.477m-24.544 3.467 3.78 14.107m0 0 9.729 4.468"/><path fill="#35b190" fill-opacity=".25" d="m58.557 45.215 3.224-1.876L58.84 32.36Z"/><path fill="#00f" fill-opacity=".45" d="m43.67 39.028-.787-2.939 8.745-2.334z"/><path fill="none" stroke="#168345" stroke-linecap="round" stroke-opacity=".718" stroke-width=".153" d="m42.883 36.09.787 2.938m0 0 2.027.93m-2.814-3.869.787 2.94m0 0-4.068 2.366m4.068-2.367 2.027.93"/><path fill="#35b190" fill-opacity=".25" d="m51.22 49.484-4.07 2.368-3.502-5.845Z"/><path fill="#00f" fill-opacity=".45" d="m45.697 39.959-2.027-.93 7.958-5.274z"/><path fill="#35b190" fill-opacity=".25" d="m55.615 34.236 3.224-1.876-10.795-1.6zM31.582 53.713l-4.069 2.367-3.78-14.107Z"/><path fill="none" stroke="#168345" stroke-linecap="round" stroke-opacity=".718" stroke-width=".153" d="m14.938 44.237 4.596 17.153m0 0-4.07 2.367m4.07-2.367 11.829 5.432m5.274-29.426 7.572 3.477"/><path fill="#00f" fill-opacity=".45" d="m42.883 36.09 2.027.93 6.718-3.265z"/><path fill="#a0f000" fill-opacity=".45" d="m45.697 39.959-2.027-.93-.787-2.94z"/><path fill="#00f" fill-opacity=".45" d="m42.883 36.09.787 2.938 2.027.93z"/><path fill="none" stroke="#168345" stroke-linecap="round" stroke-opacity=".718" stroke-width=".153" d="m42.883 36.09 2.027.93m-2.027-.93-4.069 2.366m4.069-2.367 2.027.93"/><path fill="#00f" fill-opacity=".45" d="m44.91 37.02.787 2.939 5.93-6.204z"/><path fill="#a0f000" fill-opacity=".45" d="m42.883 36.09.787 2.938-4.856-.572z"/><path fill="#35b190" fill-opacity=".25" d="m55.615 34.236 2.942 10.98.282-12.856z"/><path fill="#a0f000" fill-opacity=".45" d="m43.67 39.028-4.068 2.367-.788-2.939z"/><path fill="none" stroke="#168345" stroke-linecap="round" stroke-opacity=".718" stroke-width=".153" d="m38.814 38.456.788 2.94m0 0 2.027.93"/><path fill="#35b190" fill-opacity=".25" d="m36.637 37.396 2.942 10.979 4.63-7.502Z"/><path fill="#a0f000" fill-opacity=".45" d="m41.629 42.326-2.027-.93 4.068-2.368zm4.068-2.367-4.068 2.367 2.041-3.298z"/><path fill="none" stroke="#168345" stroke-linecap="round" stroke-opacity=".718" stroke-width=".153" d="m47.15 51.852 4.07-2.368m-2.942-10.978 2.941 10.978"/><path fill="#35b190" fill-opacity=".25" d="m37.242 60.548-9.729-4.468 4.069-2.367Z"/><path fill="none" stroke="#168345" stroke-linecap="round" stroke-opacity=".718" stroke-width=".153" d="m45.697 39.959-.787-2.94m-3.281 5.307 4.068-2.367m-.787-2.94.787 2.94m9.918-5.723 3.224-1.876"/><path fill="#00f" fill-opacity=".45" d="m42.883 36.09 2.814 3.869-.787-2.94z"/><path fill="#a0f000" fill-opacity=".45" d="m44.91 37.02.787 2.939-2.814-3.87z"/><path fill="#35b190" fill-opacity=".25" d="m27.802 39.606 3.78 14.107-7.849-11.74Zm20.476-1.1-7.572-3.477-4.069 2.367Z"/><path fill="#a0f000" fill-opacity=".45" d="m44.91 37.02-2.027-.93-4.069 2.366z"/><path fill="none" stroke="#168345" stroke-linecap="round" stroke-opacity=".718" stroke-width=".153" d="m10.869 46.605 4.596 17.152m0 0 11.829 5.433"/><path fill="#35b190" fill-opacity=".25" d="m48.278 38.506 2.941 10.978L40.706 35.03Zm-8.699 9.869 7.571 3.477-2.941-10.979Zm1.732 9.806-9.729-4.468-3.78-14.107z"/><path fill="none" stroke="#168345" stroke-linecap="round" stroke-opacity=".718" stroke-width=".153" d="m38.814 38.456 2.027.931"/><path fill="#a0f000" fill-opacity=".45" d="m41.629 42.326 4.068-2.367-.787-2.94zm-2.815-3.87.788 2.94 1.239-2.009z"/><path fill="none" stroke="#168345" stroke-linecap="round" stroke-opacity=".718" stroke-width=".153" d="m40.841 39.387 4.069-2.367"/><path fill="#a0f000" fill-opacity=".45" d="m39.602 41.395 2.027.931-.788-2.939z"/><path fill="none" stroke="#168345" stroke-linecap="round" stroke-opacity=".718" stroke-width=".153" d="m27.802 39.606-4.069 2.367m4.069-2.367 9.729 4.467m6.678-3.2 2.941 10.979"/><path fill="#a0f000" fill-opacity=".45" d="m40.841 39.387 4.069-2.367-6.096 1.436z"/><path fill="none" stroke="#168345" stroke-linecap="round" stroke-opacity=".718" stroke-width=".153" d="m40.841 39.387.788 2.94"/><path fill="#a0f000" fill-opacity=".45" d="m40.841 39.387.788 2.94 3.28-5.307z"/><path fill="none" stroke="#168345" stroke-linecap="round" stroke-opacity=".718" stroke-width=".153" d="m2.11 48.92 5.392 20.12m0 0-2.035 1.184m2.035-1.184 13.875 6.372"/><path fill="#35b190" fill-opacity=".25" d="m47.15 51.852 4.07-2.368-2.942-10.978ZM19.534 61.39l-4.07 2.367-4.595-17.152Zm21.777-3.21-4.069 2.368-5.66-6.835Z"/><path fill="none" stroke="#168345" stroke-linecap="round" stroke-opacity=".718" stroke-width=".153" d="m6.076 62.247 1.72 6.414m0 0L5.76 69.845m2.034-1.184 4.424 2.032m-6.143-8.446 1.72 6.414m0 0 4.423 2.032M7.795 68.66l9.073-7.095M.076 50.105l5.391 20.12m0 0 13.875 6.37"/><path fill="#35b190" fill-opacity=".25" d="m44.209 40.873 4.069-2.367-11.64-1.11z"/><path fill="none" stroke="#168345" stroke-linecap="round" stroke-opacity=".718" stroke-width=".153" d="m23.733 41.973 9.729 4.468M4.042 63.43l1.719 6.414m0 0 4.424 2.032"/><path fill="#35b190" fill-opacity=".25" d="m27.294 69.19-11.83-5.433 4.07-2.367Z"/><path fill="none" stroke="#168345" stroke-linecap="round" stroke-opacity=".718" stroke-width=".153" d="m35.622 45.07 8.196-1.915M36.41 48.01l7.41-4.855m-5.383 5.785 5.382-5.785M37.648 46l6.17-2.846"/><path fill="#00f" fill-opacity=".45" d="m7.795 68.661-1.719-6.414 10.792-.681z"/><path fill="none" stroke="#168345" stroke-linecap="round" stroke-opacity=".718" stroke-width=".153" d="m6.076 62.247 10.792-.681m-4.649 9.127 4.649-9.127M10.5 64.278l6.368-2.712"/><path fill="#a0f000" fill-opacity=".45" d="m7.795 68.661-2.034 1.184-1.72-6.415Z"/><path fill="#35b190" fill-opacity=".25" d="m44.209 40.873 2.941 10.979 1.128-13.346zm-29.271 3.364 4.596 17.153-8.665-14.785zm8.795-2.264 3.78 14.107 5.949-9.64Z"/><path fill="none" stroke="#168345" stroke-linecap="round" stroke-opacity=".718" stroke-width=".153" d="m44.209 40.873 4.069-2.367"/><path fill="#00f" fill-opacity=".45" d="M12.219 70.693 7.795 68.66l9.073-7.095z"/><path fill="#a0f000" fill-opacity=".45" d="M10.185 71.877 5.76 69.845l2.034-1.184zm-4.109-9.63 1.72 6.414-3.754-5.23z"/><path fill="#00f" fill-opacity=".45" d="m6.076 62.247 1.72 6.414 4.423 2.032z"/><path fill="#a0f000" fill-opacity=".45" d="M12.219 70.693 7.795 68.66l-1.719-6.414Z"/><path fill="#35b190" fill-opacity=".25" d="m31.363 66.822-11.83-5.432-4.595-17.153z"/><path fill="none" stroke="#168345" stroke-linecap="round" stroke-opacity=".718" stroke-width=".153" d="m37.242 60.548 4.069-2.367m-3.78-14.108 3.78 14.108"/><path fill="#35b190" fill-opacity=".25" d="m37.53 44.073-9.728-4.467-4.069 2.367Z"/><path fill="none" stroke="#168345" stroke-linecap="round" stroke-opacity=".718" stroke-width=".153" d="M6.076 62.247 4.042 63.43m2.034-1.183 4.424 2.031m-4.424-2.031 4.424 2.031"/><path fill="#35b190" fill-opacity=".25" d="m7.502 69.04-2.035 1.184-5.39-20.12Zm20.011-12.96 9.729 4.468-3.78-14.107z"/><path fill="#a0f000" fill-opacity=".45" d="m12.219 70.693-2.034 1.184-2.39-3.216z"/><path fill="#35b190" fill-opacity=".25" d="m37.53 44.073 3.78 14.108-13.508-18.575Z"/><path fill="none" stroke="#168345" stroke-linecap="round" stroke-opacity=".718" stroke-width=".153" d="m14.938 44.237-4.07 2.368m4.07-2.368 11.829 5.433"/><path fill="#00f" fill-opacity=".45" d="m36.41 48.01-.788-2.94 8.196-1.915z"/><path fill="none" stroke="#168345" stroke-linecap="round" stroke-opacity=".718" stroke-width=".153" d="m4.042 63.43 4.424 2.032"/><path fill="#00f" fill-opacity=".45" d="m38.436 48.94-2.027-.93 7.41-4.855ZM6.076 62.247l4.424 2.031 6.368-2.712z"/><path fill="none" stroke="#168345" stroke-linecap="round" stroke-opacity=".718" stroke-width=".153" d="m35.622 45.07.787 2.94m0 0 2.027.93m-2.814-3.87.787 2.94m0 0-4.068 2.367m4.068-2.367 2.027.93"/><path fill="#a0f000" fill-opacity=".45" d="m4.042 63.43 1.719 6.415 2.705-4.383z"/><path fill="none" stroke="#168345" stroke-linecap="round" stroke-opacity=".718" stroke-width=".153" d="m33.462 46.44 3.78 14.108"/><path fill="#00f" fill-opacity=".45" d="m10.5 64.278 1.719 6.415 4.649-9.127z"/><path fill="none" stroke="#168345" stroke-linecap="round" stroke-opacity=".718" stroke-width=".153" d="m10.185 71.877 2.034-1.184M10.5 64.278l1.719 6.415m0 0L10.5 64.278"/><path fill="#35b190" fill-opacity=".25" d="m31.363 66.822-4.07 2.368-7.76-7.8zm-12.02 9.774L5.466 70.224l2.035-1.184z"/><path fill="#a0f000" fill-opacity=".45" d="m10.5 64.278-4.424-2.031-2.034 1.183z"/><path fill="#00f" fill-opacity=".45" d="m35.622 45.07 2.027.931 6.17-2.846z"/><path fill="#a0f000" fill-opacity=".45" d="m5.76 69.845 4.425 2.032-1.72-6.415Zm4.74-5.567 1.719 6.415-6.143-8.446z"/><path fill="#00f" fill-opacity=".45" d="m6.076 62.247 6.143 8.446-1.719-6.415ZM37.65 46l.787 2.94 5.382-5.786Z"/><path fill="#a0f000" fill-opacity=".45" d="m38.436 48.94-2.027-.93-.787-2.94Z"/><path fill="#00f" fill-opacity=".45" d="m35.622 45.07.787 2.94 2.027.93z"/><path fill="none" stroke="#168345" stroke-linecap="round" stroke-opacity=".718" stroke-width=".153" d="m22.688 51.395 9.115-1.204m-7.961 5.51 7.961-5.51m-4.992 6.873 4.992-6.873m-6.146 2.567 6.146-2.567M10.87 46.605l11.829 5.432"/><path fill="#35b190" fill-opacity=".25" d="m37.242 60.548 4.069-2.367-3.78-14.108Z"/><path fill="none" stroke="#168345" stroke-linecap="round" stroke-opacity=".718" stroke-width=".153" d="m35.622 45.07-4.069 2.368m4.069-2.367 2.027.93m-2.027-.93 2.027.93M8.466 65.461l1.719 6.416"/><path fill="#35b190" fill-opacity=".25" d="m2.11 48.92 5.392 20.12L.076 50.105z"/><path fill="#a0f000" fill-opacity=".45" d="m35.622 45.07.787 2.94-4.856-.572Zm.787 2.94-4.068 2.367-.788-2.94ZM10.185 71.877l2.034-1.184-1.719-6.415Z"/><path fill="none" stroke="#168345" stroke-linecap="round" stroke-opacity=".718" stroke-width=".153" d="m31.553 47.438.788 2.939m0 0 2.026.93"/><path fill="#a0f000" fill-opacity=".45" d="m34.367 51.308-2.026-.931 4.068-2.367zm4.07-2.368-4.07 2.368 2.042-3.298Z"/><path fill="none" stroke="#168345" stroke-linecap="round" stroke-opacity=".718" stroke-width=".153" d="m38.436 48.94-.787-2.939m-3.282 5.307 4.07-2.368m-.788-2.939.787 2.94"/><path fill="#00f" fill-opacity=".45" d="m35.622 45.07 2.814 3.87-.787-2.939Z"/><path fill="#a0f000" fill-opacity=".45" d="m37.649 46.001.787 2.94-2.814-3.87ZM8.466 65.461l2.034-1.183-6.458-.848z"/><path fill="none" stroke="#168345" stroke-linecap="round" stroke-opacity=".718" stroke-width=".153" d="m22.688 51.395 1.154 4.305m0 0 2.97 1.364m-4.124-5.67 1.154 4.306m0 0-4.069 2.368m4.069-2.368 2.97 1.364"/><path fill="#a0f000" fill-opacity=".45" d="m37.649 46.001-2.027-.93-4.069 2.367z"/><path fill="#35b190" fill-opacity=".25" d="m33.462 46.44 4.069-2.367-13.798-2.1Z"/><path fill="#00f" fill-opacity=".45" d="m23.842 55.7-1.154-4.305 9.115-1.204z"/><path fill="#35b190" fill-opacity=".25" d="m10.869 46.605 4.596 17.152 7.233-11.72Zm10.508 28.807L7.502 69.04 2.11 48.92Z"/><path fill="#a0f000" fill-opacity=".45" d="m8.466 65.462 1.719 6.415.315-7.599z"/><path fill="none" stroke="#168345" stroke-linecap="round" stroke-opacity=".718" stroke-width=".153" d="m31.553 47.438 2.027.93"/><path fill="#a0f000" fill-opacity=".45" d="m34.367 51.308 4.07-2.368-.788-2.939Z"/><path fill="#00f" fill-opacity=".45" d="m26.811 57.064-2.97-1.364 7.962-5.51Z"/><path fill="none" stroke="#168345" stroke-linecap="round" stroke-opacity=".718" stroke-width=".153" d="m8.466 65.462 2.034-1.184"/><path fill="#a0f000" fill-opacity=".45" d="m31.553 47.438.788 2.939 1.239-2.008z"/><path fill="none" stroke="#168345" stroke-linecap="round" stroke-opacity=".718" stroke-width=".153" d="M33.58 48.369 37.649 46"/><path fill="#a0f000" fill-opacity=".45" d="m32.34 50.377 2.027.93-.787-2.938Zm1.24-2.008L37.649 46l-6.096 1.437z"/><path fill="none" stroke="#168345" stroke-linecap="round" stroke-opacity=".718" stroke-width=".153" d="m33.58 48.369.787 2.939"/><path fill="#35b190" fill-opacity=".25" d="m33.462 46.44 3.78 14.108.289-16.475z"/><path fill="none" stroke="#168345" stroke-linecap="round" stroke-opacity=".718" stroke-width=".153" d="m27.294 69.19 4.069-2.368M26.767 49.67l4.596 17.152"/><path fill="#35b190" fill-opacity=".25" d="m26.767 49.67-11.83-5.433-4.068 2.368z"/><path fill="none" stroke="#168345" stroke-linecap="round" stroke-opacity=".718" stroke-width=".153" d="M2.11 48.92.077 50.106m2.035-1.184 13.875 6.372"/><path fill="#a0f000" fill-opacity=".45" d="m33.58 48.369.787 2.939L37.65 46Zm-6.769 8.695-2.97-1.364-1.153-4.305z"/><path fill="#00f" fill-opacity=".45" d="m22.688 51.395 1.154 4.305 2.97 1.364z"/><path fill="#35b190" fill-opacity=".25" d="m15.465 63.757 11.829 5.433-4.596-17.153Z"/><path fill="none" stroke="#168345" stroke-linecap="round" stroke-opacity=".718" stroke-width=".153" d="m18.62 53.762 1.153 4.306m0 0 2.97 1.363"/><path fill="#00f" fill-opacity=".45" d="m22.688 51.395 2.97 1.363 6.145-2.567Z"/><path fill="#a0f000" fill-opacity=".45" d="m23.842 55.7-4.069 2.368-1.154-4.306Zm-1.154-4.305 1.154 4.305-5.223-1.938Z"/><path fill="none" stroke="#168345" stroke-linecap="round" stroke-opacity=".718" stroke-width=".153" d="m22.688 51.395 2.97 1.363m-2.97-1.363-4.069 2.367m4.07-2.367 2.968 1.363"/><path fill="#00f" fill-opacity=".45" d="m25.657 52.758 1.154 4.306 4.992-6.873Z"/><path fill="none" stroke="#168345" stroke-linecap="round" stroke-opacity=".718" stroke-width=".153" d="m33.462 46.44 4.069-2.367"/><path fill="#a0f000" fill-opacity=".45" d="m22.742 59.431-2.969-1.363 4.069-2.368Z"/><path fill="none" stroke="#168345" stroke-linecap="round" stroke-opacity=".718" stroke-width=".153" d="m.076 50.105 13.875 6.371"/><path fill="#35b190" fill-opacity=".25" d="m26.767 49.67 4.596 17.152-16.425-22.585Zm-5.39 25.742-2.035 1.184-11.84-7.556z"/><path fill="#a0f000" fill-opacity=".45" d="m26.811 57.064-4.069 2.367 1.1-3.73z"/><path fill="none" stroke="#168345" stroke-linecap="round" stroke-opacity=".718" stroke-width=".153" d="m26.811 57.064-1.154-4.306m-2.915 6.673 4.07-2.367m-1.155-4.306 1.154 4.306m-4.113-5.027 4.596 17.153"/><path fill="#00f" fill-opacity=".45" d="m22.688 51.395 4.123 5.669-1.154-4.306Z"/><path fill="#a0f000" fill-opacity=".45" d="m25.657 52.758 1.154 4.306-4.123-5.67zm0 0-2.969-1.363-4.069 2.367z"/><path fill="none" stroke="#168345" stroke-linecap="round" stroke-opacity=".718" stroke-width=".153" d="m18.62 53.762 2.969 1.364"/><path fill="#a0f000" fill-opacity=".45" d="m18.62 53.762 1.153 4.306 1.816-2.942Z"/><path fill="#35b190" fill-opacity=".25" d="m.076 50.105 5.391 20.12 8.484-13.749Z"/><path fill="#a0f000" fill-opacity=".45" d="m22.742 59.431 4.07-2.367-1.155-4.306Zm-2.969-1.363 2.97 1.363-1.154-4.305Z"/><path fill="#35b190" fill-opacity=".25" d="m27.294 69.19 4.069-2.368-4.596-17.152Z"/><path fill="none" stroke="#168345" stroke-linecap="round" stroke-opacity=".718" stroke-width=".153" d="m21.589 55.126 1.153 4.305m-1.153-4.305 4.068-2.368"/><path fill="#a0f000" fill-opacity=".45" d="m21.589 55.126 4.068-2.368-7.038 1.004Zm0 0 1.153 4.305 2.915-6.673Z"/><path fill="#35b190" fill-opacity=".25" d="m5.467 70.224 13.875 6.372-5.39-20.12Zm17.23-18.187 4.07-2.367-15.898-3.065Zm-6.711 3.256L2.11 48.92.076 50.105z"/><path fill="none" stroke="#168345" stroke-linecap="round" stroke-opacity=".718" stroke-width=".153" d="m19.342 76.596 2.035-1.184m-5.391-20.12 5.39 20.12"/><path fill="#35b190" fill-opacity=".25" d="m22.698 52.037 4.596 17.153-.527-19.52z"/><path fill="none" stroke="#168345" stroke-linecap="round" stroke-opacity=".718" stroke-width=".153" d="m13.951 56.476 5.391 20.12"/><path fill="#35b190" fill-opacity=".25" d="m15.986 55.293 5.39 20.12L2.112 48.92Z"/><path fill="none" stroke="#168345" stroke-linecap="round" stroke-opacity=".718" stroke-width=".153" d="m22.698 52.037 4.069-2.367"/><path fill="#35b190" fill-opacity=".25" d="m19.342 76.596 2.035-1.184-5.391-20.12Zm-5.39-20.12 2.034-1.183-15.91-5.188zm0 0 5.39 20.12-3.356-21.303Z"/><path fill="none" stroke="#168345" stroke-linecap="round" stroke-opacity=".718" stroke-width=".153" d="m13.951 56.476 2.035-1.183"/></g></svg>
