<svg xmlns="http://www.w3.org/2000/svg" xmlns:xlink="http://www.w3.org/1999/xlink" width="396.169" height="483.465" viewBox="0 0 104.82 127.917"><defs><linearGradient xlink:href="#a" id="f" x1="604" x2="633" y1="342" y2="342" gradientUnits="userSpaceOnUse"/><linearGradient id="a"><stop offset="0" stop-color="#e151ec"/><stop offset="1" stop-color="#42175d"/></linearGradient><linearGradient xlink:href="#b" id="l" x1="668" x2="889" y1="342" y2="342" gradientUnits="userSpaceOnUse"/><linearGradient id="b"><stop offset="0" stop-color="#c40077"/><stop offset=".5" stop-color="#ffc000"/><stop offset=".75" stop-color="#4ab800"/><stop offset=".875" stop-color="#00a48f"/><stop offset="1" stop-color="#00f0b7"/></linearGradient><linearGradient id="d"><stop offset="0" stop-color="#ff823c"/><stop offset="1" stop-color="#decc01"/></linearGradient><linearGradient xlink:href="#c" id="J" x1="1052" x2="1081" y1="342" y2="342" gradientUnits="userSpaceOnUse"/><linearGradient id="c"><stop offset="0" stop-color="#ff7200"/><stop offset="1" stop-color="#ff0301"/></linearGradient><linearGradient xlink:href="#a" id="g" x1="604" x2="633" y1="342" y2="342" gradientUnits="userSpaceOnUse"/><linearGradient xlink:href="#a" id="h" x1="604" x2="633" y1="342" y2="342" gradientUnits="userSpaceOnUse"/><linearGradient xlink:href="#a" id="i" x1="604" x2="633" y1="342" y2="342" gradientUnits="userSpaceOnUse"/><linearGradient xlink:href="#a" id="j" x1="604" x2="633" y1="342" y2="342" gradientUnits="userSpaceOnUse"/><linearGradient xlink:href="#a" id="k" x1="604" x2="633" y1="342" y2="342" gradientUnits="userSpaceOnUse"/><linearGradient xlink:href="#b" id="m" x1="668" x2="889" y1="342" y2="342" gradientUnits="userSpaceOnUse"/><linearGradient xlink:href="#b" id="n" x1="668" x2="889" y1="342" y2="342" gradientUnits="userSpaceOnUse"/><linearGradient xlink:href="#b" id="o" x1="668" x2="889" y1="342" y2="342" gradientUnits="userSpaceOnUse"/><linearGradient xlink:href="#b" id="p" x1="668" x2="889" y1="342" y2="342" gradientUnits="userSpaceOnUse"/><linearGradient xlink:href="#b" id="q" x1="668" x2="889" y1="342" y2="342" gradientUnits="userSpaceOnUse"/><linearGradient xlink:href="#b" id="r" x1="668" x2="889" y1="342" y2="342" gradientUnits="userSpaceOnUse"/><linearGradient xlink:href="#b" id="s" x1="668" x2="889" y1="342" y2="342" gradientUnits="userSpaceOnUse"/><linearGradient xlink:href="#b" id="t" x1="668" x2="889" y1="342" y2="342" gradientUnits="userSpaceOnUse"/><linearGradient xlink:href="#b" id="u" x1="668" x2="889" y1="342" y2="342" gradientUnits="userSpaceOnUse"/><linearGradient xlink:href="#b" id="v" x1="668" x2="889" y1="342" y2="342" gradientUnits="userSpaceOnUse"/><linearGradient xlink:href="#b" id="w" x1="668" x2="889" y1="342" y2="342" gradientUnits="userSpaceOnUse"/><linearGradient xlink:href="#b" id="x" x1="668" x2="889" y1="342" y2="342" gradientUnits="userSpaceOnUse"/><linearGradient xlink:href="#b" id="y" x1="668" x2="889" y1="342" y2="342" gradientUnits="userSpaceOnUse"/><linearGradient xlink:href="#b" id="z" x1="668" x2="889" y1="342" y2="342" gradientUnits="userSpaceOnUse"/><linearGradient xlink:href="#c" id="K" x1="1052" x2="1081" y1="342" y2="342" gradientUnits="userSpaceOnUse"/><linearGradient xlink:href="#c" id="L" x1="1052" x2="1081" y1="342" y2="342" gradientUnits="userSpaceOnUse"/><linearGradient xlink:href="#c" id="M" x1="1052" x2="1081" y1="342" y2="342" gradientUnits="userSpaceOnUse"/><radialGradient xlink:href="#d" id="A" cx="970.5" cy="342" r="46.5" fx="970.5" fy="342" gradientTransform="matrix(2.5256 0 0 2.76 -1480.64 -601.942)" gradientUnits="userSpaceOnUse"/><radialGradient xlink:href="#d" id="B" cx="970.5" cy="342" r="46.5" fx="970.5" fy="342" gradientTransform="matrix(2.5256 0 0 2.76 -1480.64 -601.942)" gradientUnits="userSpaceOnUse"/><radialGradient xlink:href="#d" id="C" cx="970.5" cy="342" r="46.5" fx="970.5" fy="342" gradientTransform="matrix(2.5256 0 0 2.76 -1480.64 -601.942)" gradientUnits="userSpaceOnUse"/><radialGradient xlink:href="#d" id="D" cx="970.5" cy="342" r="46.5" fx="970.5" fy="342" gradientTransform="matrix(2.5256 0 0 2.76 -1480.64 -601.942)" gradientUnits="userSpaceOnUse"/><radialGradient xlink:href="#d" id="E" cx="970.5" cy="342" r="46.5" fx="970.5" fy="342" gradientTransform="matrix(2.5256 0 0 2.76 -1480.64 -601.942)" gradientUnits="userSpaceOnUse"/><radialGradient xlink:href="#d" id="F" cx="970.5" cy="342" r="46.5" fx="970.5" fy="342" gradientTransform="matrix(2.5256 0 0 2.76 -1480.64 -601.942)" gradientUnits="userSpaceOnUse"/><radialGradient xlink:href="#d" id="G" cx="970.5" cy="342" r="46.5" fx="970.5" fy="342" gradientTransform="matrix(2.5256 0 0 2.76 -1480.64 -601.942)" gradientUnits="userSpaceOnUse"/><radialGradient xlink:href="#d" id="H" cx="970.5" cy="342" r="46.5" fx="970.5" fy="342" gradientTransform="matrix(2.5256 0 0 2.76 -1480.64 -601.942)" gradientUnits="userSpaceOnUse"/><radialGradient xlink:href="#d" id="I" cx="970.5" cy="342" r="46.5" fx="970.5" fy="342" gradientTransform="matrix(2.5256 0 0 2.76 -1480.64 -601.942)" gradientUnits="userSpaceOnUse"/><filter id="e" width="1.008" height="1.018" x="-.004" y="-.009" color-interpolation-filters="sRGB"><feGaussianBlur stdDeviation=".691"/></filter></defs><g fill="#debce5" stroke="#debce5" filter="url(#e)" style="mix-blend-mode:normal;-webkit-tap-highlight-color:transparent" transform="rotate(-60 109.561 186.231) scale(.2194)"><path stroke-width="2.213" d="M603.984 240.538h70.804m-70.804 0 70.804 51.997m-70.804 0 70.804-51.997m-70.804 51.997h70.804m-70.804 51.995 70.804-103.992M603.984 344.53l70.804-51.995m-70.804 103.992 70.804-155.989m-70.804 155.989 70.804-103.992m0-51.997 70.804 37.615m-70.804-37.615 70.804 81.867m-70.804-29.87 70.804-14.382m-70.804 14.382 70.804 29.87m0-44.252 70.803 24.338m-70.803 19.914 70.803-19.914m-70.803-24.338 70.803 66.378m-70.803-22.126 70.803 22.126M674.788 240.538l70.804 126.119m-70.804-74.122 70.804 74.122m0 0 70.803-64.166m-70.803 64.166 70.803-22.126M603.984 448.524l70.804-207.986m-70.804 207.986 70.804-155.99m-70.804-51.996 70.804 103.993m-70.804-51.996 70.804 51.996m-70.804-.001h70.804m-70.804 51.997 70.804-51.996m-70.804 103.993 70.804-103.993m0-.001 70.804-66.377m-70.804 66.377 70.804-22.125m-70.804 22.125 70.804 22.127M603.984 240.538l70.804 155.99m-70.804-103.993 70.804 103.992m-70.804-51.997 70.804 51.997m-70.804 0h70.804m-70.804 51.997 70.804-51.997m0 0 70.804-118.374m-70.804 118.374 70.804-74.122m-70.804 74.122 70.804-29.87m0-88.504 70.803 108.418m-70.803-64.166 70.803 64.166m-70.803-19.914 70.803 19.914m0-84.08 70.804 21.02m-70.804 21.019 70.804-21.019m-70.804 63.059 70.804-63.059m-283.215-82.973 70.804 207.986m-70.804-155.989 70.804 155.989M603.984 344.53l70.804 103.994m-70.804-51.997 70.804 51.997m-70.804 0h70.804m0 0 70.804-170.371m-70.804 170.371 70.804-126.12m-70.804 126.12 70.804-81.867m-70.804-126.119 70.804 170.371m-70.804-118.374 70.804 118.374m-70.804-66.379 70.804 66.38m-70.804-14.383 70.804 14.382m-70.804 37.615 70.804-37.615m0 .001 70.803-108.419M745.592 410.91l70.803-66.38m-70.803 66.38 70.803-24.34m0-84.079 70.804 63.06m-70.804-21.021 70.804 21.02m-70.804 21.02 70.804-21.02m0-42.039 70.803-51.996m-70.803 51.996 70.803-3.319m-70.803 3.319 70.803 45.359m-70.803-45.359 70.803 94.036m-70.803-51.997 70.803-94.035m-70.803 94.035 70.803-45.358m-70.803 45.358 70.803 3.32m-70.803-3.32 70.803 51.997m0-146.032h70.804m-70.804 0 70.804 48.677m-70.804-48.677 70.804 97.355m-70.804-97.355 70.804 146.032m-70.804-97.355 70.804-48.677m-70.804 48.677h70.804m-70.804 0 70.804 48.678m-70.804-48.678 70.804 97.355m-70.804-48.677 70.804-97.355m-70.804 97.355 70.804-48.678m-70.804 48.678h70.804m-70.804 0 70.804 48.677m-70.804 0 70.804-146.032m-70.804 146.032 70.804-97.355m-70.804 97.355 70.804-48.677m-70.804 48.677h70.804m0-146.032 70.803 25.445m-70.803-25.445 70.803 73.016m-70.803-73.016 70.803 120.587m-70.803-71.91 70.803-23.232m-70.803 23.232 70.803 24.339m-70.803-24.339 70.803 71.91m-70.803-23.232 70.803-71.91m-70.803 71.91 70.803-24.34m-70.803 24.34 70.803 23.232m-70.803 25.445 70.803-120.587m-70.803 120.587 70.803-73.016m-70.803 73.016 70.803-25.445" class="link"/><g transform="translate(-80.266 -33.826) scale(1.1063)"><circle cx="618.5" cy="248" r="14.5" class="node"/><circle cx="618.5" cy="295" r="14.5" class="node"/><circle cx="618.5" cy="342" r="14.5" class="node"/><circle cx="618.5" cy="389" r="14.5" class="node"/><circle cx="618.5" cy="436" r="14.5" class="node"/></g><g transform="translate(-80.266 -33.826) scale(1.1063)"><circle cx="682.5" cy="248" r="14.5" class="node"/><circle cx="682.5" cy="295" r="14.5" class="node"/><circle cx="682.5" cy="342" r="14.5" class="node"/><circle cx="682.5" cy="389" r="14.5" class="node"/><circle cx="682.5" cy="436" r="14.5" class="node"/><circle cx="746.5" cy="282" r="14.5" class="node"/><circle cx="746.5" cy="322" r="14.5" class="node"/><circle cx="746.5" cy="362" r="14.5" class="node"/><circle cx="746.5" cy="402" r="14.5" class="node"/><circle cx="810.5" cy="304" r="14.5" class="node"/><circle cx="810.5" cy="342" r="14.5" class="node"/><circle cx="810.5" cy="380" r="14.5" class="node"/><circle cx="874.5" cy="323" r="14.5" class="node"/><circle cx="874.5" cy="361" r="14.5" class="node"/></g><g transform="translate(-80.266 -33.826) scale(1.1063)"><circle cx="938.5" cy="276" r="14.5" class="node"/><circle cx="938.5" cy="320" r="14.5" class="node"/><circle cx="938.5" cy="364" r="14.5" class="node"/><circle cx="938.5" cy="408" r="14.5" class="node"/><circle cx="1002.5" cy="276" r="14.5" class="node"/><circle cx="1002.5" cy="320" r="14.5" class="node"/><circle cx="1002.5" cy="364" r="14.5" class="node"/><circle cx="1002.5" cy="408" r="14.5" class="node"/></g><g transform="translate(-80.266 -33.826) scale(1.1063)"><circle cx="1066.5" cy="299" r="14.5" class="node"/><circle cx="1066.5" cy="342" r="14.5" class="node"/><circle cx="1066.5" cy="385" r="14.5" class="node"/></g></g><path stroke="#9d9dcf" stroke-width=".485" d="m5.221 100.064 7.767-13.452" class="link"/><path stroke="#e7b3b3" stroke-width=".485" d="m5.221 100.064 17.645-7.749" class="link"/><path stroke="#f9ebeb" stroke-width=".485" d="m15.1 105.767-2.112-19.155" class="link"/><path stroke="#d67b7b" stroke-width=".485" d="m15.1 105.767 7.766-13.452" class="link"/><path stroke="#9595ca" stroke-width=".485" d="M24.979 111.47 12.988 86.613" class="link"/><path stroke="#ececf5" stroke-width=".485" d="m24.979 111.47-2.113-19.155" class="link"/><path stroke="#faefef" stroke-width=".485" d="m34.857 117.174-21.87-30.562" class="link"/><path stroke="#2e2e97" stroke-width=".485" d="m34.857 117.174-11.99-24.859" class="link"/><path stroke="#f4f4fa" stroke-width=".485" d="M12.988 86.612 27.9 77.286" class="link"/><path stroke="#b8b8dc" stroke-width=".485" d="m12.988 86.612 23.32-4.472" class="link"/><path stroke="#2a2a96" stroke-width=".485" d="m22.866 92.315 5.034-15.03" class="link"/><path stroke="#e3a5a5" stroke-width=".485" d="M22.866 92.315 36.308 82.14" class="link"/><path stroke="#a0a0d0" stroke-width=".485" d="m27.9 77.286 12.39-10.782" class="link"/><path stroke="#b20909" stroke-width=".485" d="m36.308 82.14 3.983-15.636" class="link"/><path stroke="#de9494" stroke-width=".485" d="m27.9 77.286 20.378-6.17" class="link"/><path stroke="#7d7dbe" stroke-width=".485" d="m36.308 82.14 11.97-11.025" class="link"/><path stroke="#ecc1c1" stroke-width=".485" d="m12.988 86.612 31.727.382" class="link"/><path stroke="#eabbbb" stroke-width=".485" d="m22.866 92.315 21.85-5.321" class="link"/><path stroke="#6868b4" stroke-width=".485" d="m44.715 86.994-4.424-20.49" class="link"/><path stroke="#f1d3d3" stroke-width=".485" d="m44.715 86.994 3.563-15.879" class="link"/><path stroke="#f0cfcf" stroke-width=".485" d="M44.736 122.878 12.988 86.612" class="link"/><path stroke="#4141a1" stroke-width=".485" d="m44.736 122.878-21.87-30.563" class="link"/><path stroke="#262693" stroke-width=".485" d="m5.221 100.064 27.524-2.045" class="link"/><path stroke="#2d2d97" stroke-width=".485" d="m15.1 105.767 17.645-7.748" class="link"/><path stroke="#bdbdde" stroke-width=".485" d="m24.979 111.47 7.766-13.451" class="link"/><path stroke="#2c2c96" stroke-width=".485" d="M34.857 117.174 32.745 98.02" class="link"/><path stroke="#9191c8" stroke-width=".485" d="m44.736 122.878-11.991-24.86" class="link"/><path stroke="#de9696" stroke-width=".485" d="M32.745 98.019 27.9 77.286" class="link"/><path stroke="#d16d6d" stroke-width=".485" d="m32.745 98.019 3.563-15.88" class="link"/><path stroke="#323299" stroke-width=".485" d="m32.745 98.019 11.97-11.025" class="link"/><path stroke="#6565b3" stroke-width=".485" d="m5.221 100.064 37.403 3.658" class="link"/><path stroke="#ca5757" stroke-width=".485" d="m15.1 105.767 27.524-2.045" class="link"/><path stroke="#c95252" stroke-width=".485" d="m24.979 111.47 17.645-7.748" class="link"/><path stroke="#cecee6" stroke-width=".485" d="m34.857 117.174 7.767-13.452" class="link"/><path stroke="#9f9fcf" stroke-width=".485" d="m44.736 122.878-2.112-19.156" class="link"/><path stroke="#6767b4" stroke-width=".485" d="M42.624 103.722 27.9 77.286" class="link"/><path stroke="#8888c4" stroke-width=".485" d="M42.624 103.722 36.308 82.14" class="link"/><path stroke="#dc9191" stroke-width=".485" d="m42.624 103.722 2.091-16.728" class="link"/><path stroke="#e8b5b5" stroke-width=".485" d="m27.9 77.286 28.365-1.56" class="link"/><path stroke="#8f8fc8" stroke-width=".485" d="m36.308 82.14 19.957-6.414" class="link"/><path stroke="#f4dbdb" stroke-width=".485" d="m44.715 86.994 11.55-11.268" class="link"/><path stroke="#f6f6fa" stroke-width=".485" d="m40.29 66.504 11.76-11.146" class="link"/><path stroke="#1c1c8f" stroke-width=".485" d="m48.278 71.115 3.773-15.757" class="link"/><path stroke="#9a9acd" stroke-width=".485" d="M56.265 75.726 52.05 55.358" class="link"/><path stroke="#c03737" stroke-width=".485" d="m5.221 100.064 47.281 9.362" class="link"/><path stroke="#c64949" stroke-width=".485" d="m15.1 105.767 37.402 3.659" class="link"/><path stroke="#b6b6db" stroke-width=".485" d="m24.979 111.47 27.523-2.044" class="link"/><path stroke="#edc4c4" stroke-width=".485" d="m34.857 117.174 17.645-7.748" class="link"/><path stroke="#99c" stroke-width=".485" d="m44.736 122.878 7.766-13.452" class="link"/><path stroke="#b20a0a" stroke-width=".485" d="M52.502 109.426 27.9 77.286" class="link"/><path stroke="#9f9fd0" stroke-width=".485" d="M52.502 109.426 36.308 82.14" class="link"/><path stroke="#fafafd" stroke-width=".485" d="m52.502 109.426-7.787-22.432" class="link"/><path stroke="#d98585" stroke-width=".485" d="m12.988 86.612 40.135 5.236" class="link"/><path stroke="#6565b3" stroke-width=".485" d="m22.866 92.315 30.257-.467" class="link"/><path stroke="#f1d4d4" stroke-width=".485" d="m32.745 98.019 20.378-6.171" class="link"/><path stroke="#d6d6ea" stroke-width=".485" d="m42.624 103.722 10.499-11.874" class="link"/><path stroke="#b30c0c" stroke-width=".485" d="m52.502 109.426.62-17.578" class="link"/><path stroke="#16168c" stroke-width=".485" d="M53.123 91.848 40.29 66.504" class="link"/><path stroke="#4343a2" stroke-width=".485" d="m53.123 91.848-4.845-20.733" class="link"/><path stroke="#e2e2f1" stroke-width=".485" d="m53.123 91.848 3.142-16.122" class="link"/><path stroke="#cb5858" stroke-width=".485" d="m40.29 66.504 19.748-6.535" class="link"/><path stroke="#edc4c4" stroke-width=".485" d="m48.278 71.115 11.76-11.146" class="link"/><path stroke="#dd9191" stroke-width=".485" d="m56.265 75.726 3.773-15.757" class="link"/><path stroke="#c34040" stroke-width=".485" d="m52.05 55.358-2.11-19.156" class="link"/><path stroke="#d37373" stroke-width=".485" d="m52.05 55.358 7.137-13.816" class="link"/><path stroke="#9898cc" stroke-width=".485" d="m52.05 55.358 16.385-8.477" class="link"/><path stroke="#6565b3" stroke-width=".485" d="m52.05 55.358 25.633-3.137" class="link"/><path stroke="#cb5858" stroke-width=".485" d="m60.038 59.969-10.1-23.767" class="link"/><path stroke="#2c2c97" stroke-width=".485" d="m60.038 59.969-.851-18.427" class="link"/><path stroke="#272794" stroke-width=".485" d="m60.038 59.969 8.397-13.088" class="link"/><path stroke="#b61515" stroke-width=".485" d="m60.038 59.969 17.645-7.748" class="link"/><path stroke="#ba2323" stroke-width=".485" d="m49.939 36.202 7.766-13.452" class="link"/><path stroke="#8a8ac5" stroke-width=".485" d="m49.939 36.202 17.014-8.112" class="link"/><path stroke="#fbf2f2" stroke-width=".485" d="M49.939 36.202 76.2 33.43" class="link"/><path stroke="#b61717" stroke-width=".485" d="m49.939 36.202 35.51 2.567" class="link"/><path stroke="#bd2b2b" stroke-width=".485" d="M59.187 41.542 57.705 22.75" class="link"/><path stroke="#13138a" stroke-width=".485" d="m59.187 41.542 7.766-13.452" class="link"/><path stroke="#b71a1a" stroke-width=".485" d="M59.187 41.542 76.2 33.429" class="link"/><path stroke="#f2d5d5" stroke-width=".485" d="m59.187 41.542 26.262-2.773" class="link"/><path stroke="#f8e9e9" stroke-width=".485" d="m68.435 46.881-10.73-24.13" class="link"/><path stroke="#aaaad5" stroke-width=".485" d="M68.435 46.881 66.953 28.09" class="link"/><path stroke="#c54747" stroke-width=".485" d="M68.435 46.881 76.2 33.43" class="link"/><path stroke="#a2a2d1" stroke-width=".485" d="m68.435 46.881 17.014-8.112" class="link"/><path stroke="#d88383" stroke-width=".485" d="M77.683 52.22 57.705 22.75" class="link"/><path stroke="#7d7dbe" stroke-width=".485" d="m77.683 52.22-10.73-24.13" class="link"/><path stroke="#d16c6c" stroke-width=".485" d="M77.683 52.22 76.2 33.43" class="link"/><path stroke="#6363b2" stroke-width=".485" d="m77.683 52.22 7.766-13.451" class="link"/><path stroke="#eaeaf5" stroke-width=".485" d="m57.705 22.75 12.6-10.66" class="link"/><path stroke="#d98787" stroke-width=".485" d="m57.705 22.75 21.639-5.442" class="link"/><path stroke="#f9eaea" stroke-width=".485" d="m57.705 22.75 30.676-.224" class="link"/><path stroke="#d98787" stroke-width=".485" d="m66.953 28.09 3.353-16" class="link"/><path stroke="#df9999" stroke-width=".485" d="m66.953 28.09 12.39-10.782" class="link"/><path stroke="#ce6464" stroke-width=".485" d="m66.953 28.09 21.428-5.564" class="link"/><path stroke="#eabdbd" stroke-width=".485" d="m76.201 33.43-5.895-21.34" class="link"/><path stroke="#df9999" stroke-width=".485" d="m76.201 33.43 3.143-16.122" class="link"/><path stroke="#fffefe" stroke-width=".485" d="m76.201 33.43 12.18-10.904" class="link"/><path stroke="#f2d6d6" stroke-width=".485" d="m85.45 38.769-15.144-26.68" class="link"/><path stroke="#c74c4c" stroke-width=".485" d="m85.45 38.769-6.106-21.461" class="link"/><path stroke="#5b5bae" stroke-width=".485" d="m85.45 38.769 2.931-16.243" class="link"/><g fill="url(#f)" transform="rotate(-60 112.198 205.604) scale(.2427)"><circle cx="618.5" cy="248" r="14.5" fill="url(#g)" class="node"/><circle cx="618.5" cy="295" r="14.5" fill="url(#h)" class="node"/><circle cx="618.5" cy="342" r="14.5" fill="url(#i)" class="node"/><circle cx="618.5" cy="389" r="14.5" fill="url(#j)" class="node"/><circle cx="618.5" cy="436" r="14.5" fill="url(#k)" class="node"/></g><g fill="url(#l)" transform="rotate(-60 112.198 205.604) scale(.2427)"><circle cx="682.5" cy="248" r="14.5" fill="url(#m)" class="node"/><circle cx="682.5" cy="295" r="14.5" fill="url(#n)" class="node"/><circle cx="682.5" cy="342" r="14.5" fill="url(#o)" class="node"/><circle cx="682.5" cy="389" r="14.5" fill="url(#p)" class="node"/><circle cx="682.5" cy="436" r="14.5" fill="url(#q)" class="node"/><circle cx="746.5" cy="282" r="14.5" fill="url(#r)" class="node"/><circle cx="746.5" cy="322" r="14.5" fill="url(#s)" class="node"/><circle cx="746.5" cy="362" r="14.5" fill="url(#t)" class="node"/><circle cx="746.5" cy="402" r="14.5" fill="url(#u)" class="node"/><circle cx="810.5" cy="304" r="14.5" fill="url(#v)" class="node"/><circle cx="810.5" cy="342" r="14.5" fill="url(#w)" class="node"/><circle cx="810.5" cy="380" r="14.5" fill="url(#x)" class="node"/><circle cx="874.5" cy="323" r="14.5" fill="url(#y)" class="node"/><circle cx="874.5" cy="361" r="14.5" fill="url(#z)" class="node"/></g><g fill="url(#A)" transform="rotate(-60 112.198 205.604) scale(.2427)"><circle cx="938.5" cy="276" r="14.5" fill="url(#B)" class="node"/><circle cx="938.5" cy="320" r="14.5" fill="url(#C)" class="node"/><circle cx="938.5" cy="364" r="14.5" fill="url(#D)" class="node"/><circle cx="938.5" cy="408" r="14.5" fill="url(#E)" class="node"/><circle cx="1002.5" cy="276" r="14.5" fill="url(#F)" class="node"/><circle cx="1002.5" cy="320" r="14.5" fill="url(#G)" class="node"/><circle cx="1002.5" cy="364" r="14.5" fill="url(#H)" class="node"/><circle cx="1002.5" cy="408" r="14.5" fill="url(#I)" class="node"/></g><g fill="url(#J)" transform="rotate(-60 112.198 205.604) scale(.2427)"><circle cx="1066.5" cy="299" r="14.5" fill="url(#K)" class="node"/><circle cx="1066.5" cy="342" r="14.5" fill="url(#L)" class="node"/><circle cx="1066.5" cy="385" r="14.5" fill="url(#M)" class="node"/></g></svg>
