<svg xmlns="http://www.w3.org/2000/svg" xmlns:xlink="http://www.w3.org/1999/xlink" xml:space="preserve" width="145.351" height="145.351" viewBox="0 0 38.458 38.458"><defs><linearGradient id="a"><stop offset="0" stop-color="#23e3ec"/><stop offset="1" stop-color="#ff1793"/></linearGradient><linearGradient xlink:href="#a" id="c" x1="650" x2="819" y1="308" y2="308" gradientUnits="userSpaceOnUse"/><linearGradient xlink:href="#a" id="d" x1="650" x2="819" y1="308" y2="308" gradientUnits="userSpaceOnUse"/><linearGradient xlink:href="#a" id="e" x1="650" x2="819" y1="308" y2="308" gradientUnits="userSpaceOnUse"/><linearGradient xlink:href="#a" id="f" x1="650" x2="819" y1="308" y2="308" gradientUnits="userSpaceOnUse"/><linearGradient xlink:href="#a" id="g" x1="650" x2="819" y1="308" y2="308" gradientUnits="userSpaceOnUse"/><linearGradient xlink:href="#a" id="h" x1="650" x2="819" y1="308" y2="308" gradientUnits="userSpaceOnUse"/><linearGradient xlink:href="#a" id="i" x1="650" x2="819" y1="308" y2="308" gradientUnits="userSpaceOnUse"/><linearGradient xlink:href="#a" id="j" x1="650" x2="819" y1="308" y2="308" gradientUnits="userSpaceOnUse"/><linearGradient xlink:href="#a" id="k" x1="650" x2="819" y1="308" y2="308" gradientUnits="userSpaceOnUse"/><filter id="b" width="1.061" height="1.046" x="-.03" y="-.023" color-interpolation-filters="sRGB"><feGaussianBlur stdDeviation="1.911"/></filter></defs><g fill="#dff9ec" stroke="#dff9ec" filter="url(#b)" style="mix-blend-mode:normal;-webkit-tap-highlight-color:transparent" transform="translate(-59.538 -13.8) scale(.1072)"><path stroke-width="2" d="m734.5 215 66 65m-66-3 66 3m-66 59 66-59m-66 121 66-121m-66-65 66 121m-66-59 66 59m-66 3 66-3m-66 65 66-65m-132-55.5 66-65.5m-66 65.5 66-3.5m-66 3.5 66 58.5m-66-58.5 66 120.5m-66-65.5 66-120.5m-66 120.5 66-58.5m-66 58.5 66 3.5m-66-3.5 66 65.5" class="link"/><circle cx="668.5" cy="280.5" r="18" class="node"/><circle cx="668.5" cy="335.5" r="18" class="node"/><circle cx="734.5" cy="215" r="18" class="node"/><circle cx="734.5" cy="277" r="18" class="node"/><circle cx="734.5" cy="339" r="18" class="node"/><circle cx="734.5" cy="401" r="18" class="node"/><circle cx="800.5" cy="280" r="18" class="node"/><circle cx="800.5" cy="336" r="18" class="node"/></g><g style="-webkit-tap-highlight-color:transparent"><path stroke="#db7070" stroke-width=".214" d="m19.229 8.801 7.078 6.97" class="link"/><path stroke="#ca2a2a" stroke-width=".214" d="m19.229 15.45 7.078.321" class="link"/><path stroke="#9494c6" stroke-width=".214" d="m19.229 22.099 7.078-6.328" class="link"/><path stroke="#6161ab" stroke-width=".214" d="m19.229 28.747 7.078-12.976" class="link"/><path stroke="#b2b2d6" stroke-width=".214" d="m19.229 8.801 7.078 12.976" class="link"/><path stroke="#e9a8a8" stroke-width=".214" d="m19.229 15.45 7.078 6.327" class="link"/><path stroke="#dc7272" stroke-width=".214" d="m19.229 22.099 7.078-.322" class="link"/><path stroke="#ca2c2c" stroke-width=".214" d="m19.229 28.747 7.078-6.97" class="link"/><path stroke="#8e8ec3" stroke-width=".214" d="m12.151 15.825 7.078-7.024" class="link"/><path stroke="#de7b7b" stroke-width=".214" d="m12.151 15.825 7.078-.375" class="link"/><path stroke="#6565ad" stroke-width=".214" d="M12.151 15.825 19.23 22.1" class="link"/><path stroke="#a7a7d0" stroke-width=".214" d="m12.151 15.825 7.078 12.922" class="link"/><path stroke="#ebadad" stroke-width=".214" d="M12.151 21.723 19.23 8.801" class="link"/><path stroke="#edb6b6" stroke-width=".214" d="m12.151 21.723 7.078-6.273" class="link"/><path stroke="#d24b4b" stroke-width=".214" d="m12.151 21.723 7.078.376" class="link"/><path stroke="#a7a7d1" stroke-width=".214" d="m12.151 21.723 7.078 7.024" class="link"/><g fill="url(#c)" transform="translate(-59.538 -14.255) scale(.1072)"><circle cx="668.5" cy="280.5" r="18" fill="url(#d)" class="node"/><circle cx="668.5" cy="335.5" r="18" fill="url(#e)" class="node"/><circle cx="734.5" cy="215" r="18" fill="url(#f)" class="node"/><circle cx="734.5" cy="277" r="18" fill="url(#g)" class="node"/><circle cx="734.5" cy="339" r="18" fill="url(#h)" class="node"/><circle cx="734.5" cy="401" r="18" fill="url(#i)" class="node"/><circle cx="800.5" cy="280" r="18" fill="url(#j)" class="node"/><circle cx="800.5" cy="336" r="18" fill="url(#k)" class="node"/></g></g></svg>
