<svg xmlns="http://www.w3.org/2000/svg" xmlns:xlink="http://www.w3.org/1999/xlink" xml:space="preserve" width="109.591" height="117.602" viewBox="0 0 28.996 31.116"><defs><linearGradient id="c"><stop offset="0" stop-color="#ff19a1"/><stop offset="1" stop-color="#ffaf55"/></linearGradient><linearGradient id="b"><stop offset="0" stop-color="#803f80"/><stop offset="1" stop-color="#dd3f9e"/></linearGradient><linearGradient id="a"><stop offset="0" stop-color="#ffccb3"/><stop offset="1" stop-color="#d13e17"/></linearGradient><linearGradient xlink:href="#a" id="f" x1="716.5" x2="752.5" y1="308" y2="308" gradientUnits="userSpaceOnUse"/><linearGradient xlink:href="#b" id="g" x1="772.034" x2="809.882" y1="308" y2="308" gradientUnits="userSpaceOnUse"/><linearGradient xlink:href="#c" id="e" x1="650.5" x2="686.5" y1="308" y2="308" gradientUnits="userSpaceOnUse"/><filter id="d" width="1.008" height="1.006" x="-.004" y="-.003" color-interpolation-filters="sRGB"><feGaussianBlur stdDeviation=".084"/></filter></defs><g fill="gray" stroke="gray" filter="url(#d)" opacity=".609" style="mix-blend-mode:normal;-webkit-tap-highlight-color:transparent" transform="rotate(30 79.206 -95.599) scale(.1072)"><path stroke-width="2" d="m734.5 215 66 65m-66-3 66 3m-66 59 66-59m-66 121 66-121m-66-65 66 121m-66-59 66 59m-66 3 66-3m-66 65 66-65m-132-55.5 66-65.5m-66 65.5 66-3.5m-66 3.5 66 58.5m-66-58.5 66 120.5m-66-65.5 66-120.5m-66 120.5 66-58.5m-66 58.5 66 3.5m-66-3.5 66 65.5" class="link"/><circle cx="668.5" cy="280.5" r="18" class="node"/><circle cx="668.5" cy="335.5" r="18" class="node"/><circle cx="734.5" cy="215" r="18" class="node"/><circle cx="734.5" cy="277" r="18" class="node"/><circle cx="734.5" cy="339" r="18" class="node"/><circle cx="734.5" cy="401" r="18" class="node"/><circle cx="800.5" cy="280" r="18" class="node"/><circle cx="800.5" cy="336" r="18" class="node"/></g><path stroke="#db7070" stroke-width=".214" d="m19.455 6.84 2.644 9.576" class="link"/><path stroke="#ca2a2a" stroke-width=".214" d="m16.13 12.598 5.969 3.818" class="link"/><path stroke="#9494c6" stroke-width=".214" d="m12.806 18.356 9.293-1.94" class="link"/><path stroke="#6161ab" stroke-width=".214" d="M9.481 24.114 22.1 16.416" class="link"/><path stroke="#b2b2d6" stroke-width=".214" d="m19.455 6.84-.359 14.777" class="link"/><path stroke="#e9a8a8" stroke-width=".214" d="m16.13 12.598 2.966 9.019" class="link"/><path stroke="#dc7272" stroke-width=".214" d="m12.806 18.356 6.29 3.26" class="link"/><path stroke="#ca2c2c" stroke-width=".214" d="m9.481 24.114 9.615-2.497" class="link"/><path stroke="#8e8ec3" stroke-width=".214" d="m9.813 9.385 9.642-2.545" class="link"/><path stroke="#de7b7b" stroke-width=".214" d="m9.813 9.385 6.317 3.213" class="link"/><path stroke="#6565ad" stroke-width=".214" d="m9.813 9.385 2.993 8.971" class="link"/><path stroke="#a7a7d0" stroke-width=".214" d="m9.813 9.385-.332 14.73" class="link"/><path stroke="#ebadad" stroke-width=".214" d="m6.864 14.493 12.59-7.653" class="link"/><path stroke="#edb6b6" stroke-width=".214" d="m6.864 14.493 9.266-1.895" class="link"/><path stroke="#d24b4b" stroke-width=".214" d="m6.864 14.493 5.942 3.863" class="link"/><path stroke="#a7a7d1" stroke-width=".214" d="m6.864 14.493 2.617 9.621" class="link"/><g fill="url(#e)" transform="rotate(30 79.341 -95.695) scale(.1072)"><circle cx="668.5" cy="280.5" r="18" class="node"/><circle cx="668.5" cy="335.5" r="18" class="node"/></g><g fill="url(#f)" transform="rotate(30 79.341 -95.695) scale(.1072)"><circle cx="734.5" cy="215" r="18" class="node"/><circle cx="734.5" cy="277" r="18" class="node"/><circle cx="734.5" cy="339" r="18" class="node"/><circle cx="734.5" cy="401" r="18" class="node"/></g><g fill="url(#g)" transform="rotate(30 79.341 -95.695) scale(.1072)"><circle cx="800.5" cy="280" r="18" class="node"/><circle cx="800.5" cy="336" r="18" class="node"/></g></svg>
