<svg xmlns="http://www.w3.org/2000/svg" xmlns:xlink="http://www.w3.org/1999/xlink" xml:space="preserve" width="49.659" height="58.039" viewBox="0 0 13.139 15.356"><defs><linearGradient id="a"><stop offset=".414" stop-color="#a04bb2"/><stop offset="1" stop-color="#5fd0cb"/></linearGradient><linearGradient xlink:href="#a" id="b" x1="114.47" x2="121.913" y1="200.24" y2="200.24" gradientTransform="translate(-23.606 -42.606) scale(1.2062)" gradientUnits="userSpaceOnUse" spreadMethod="reflect"/></defs><path fill="url(#b)" d="m117.69 201.167 3.952 2.282q.064.037.14.017.075-.02.121-.1t.026-.156q-.02-.076-.084-.113l-3.953-2.282q-.08-.046-.152-.013t-.11.097q-.045.08-.033.151.012.071.092.117zm1.505-2.608 3.952 2.282q.064.037.14.017.076-.02.122-.1t.026-.156q-.02-.076-.084-.113l-3.953-2.282q-.08-.046-.152-.013t-.11.097q-.045.08-.033.15.012.072.092.118zm-4.228 3.96q-.352-.203-.46-.607-.108-.404.095-.756l5.432-9.409q.204-.352.608-.46.403-.108.755.095l4.865 2.809q.192.11.302.27.11.16.19.355l.825 3.08q.045.217.021.406-.024.19-.125.365l-4.296 7.44q-.203.353-.607.461-.404.108-.756-.095zm10.187-6.003 1.08-1.872-5.04-2.91q-.192-.11-.444-.043-.253.068-.364.26l-5.432 9.408q-.11.192-.043.445.068.252.26.363l6.848 3.954q.192.11.445.043.252-.068.363-.26l4.397-7.616-1.888-1.09q-.176-.102-.23-.304-.054-.202.048-.378zm-4.472-5.078-1.33 2.305 1.33-2.305-6.023 10.433z" transform="translate(-114.47 -191.25)"/></svg>
