<?xml version="1.0" encoding="UTF-8" standalone="no"?>
<!-- Created with Inkscape (http://www.inkscape.org/) -->

<svg
   width="13.138848mm"
   height="15.356219mm"
   viewBox="0 0 13.138848 15.35622"
   version="1.1"
   id="svg42420"
   inkscape:version="1.2.2 (b0a8486541, 2022-12-01)"
   sodipodi:docname="txt.svg"
   xml:space="preserve"
   xmlns:inkscape="http://www.inkscape.org/namespaces/inkscape"
   xmlns:sodipodi="http://sodipodi.sourceforge.net/DTD/sodipodi-0.dtd"
   xmlns:xlink="http://www.w3.org/1999/xlink"
   xmlns="http://www.w3.org/2000/svg"
   xmlns:svg="http://www.w3.org/2000/svg"><sodipodi:namedview
     id="namedview42422"
     pagecolor="#ffffff"
     bordercolor="#666666"
     borderopacity="1.0"
     inkscape:showpageshadow="2"
     inkscape:pageopacity="0.0"
     inkscape:pagecheckerboard="0"
     inkscape:deskcolor="#d1d1d1"
     inkscape:document-units="mm"
     showgrid="false"
     inkscape:zoom="4.4447732"
     inkscape:cx="3.2622587"
     inkscape:cy="47.58398"
     inkscape:window-width="1920"
     inkscape:window-height="1045"
     inkscape:window-x="0"
     inkscape:window-y="0"
     inkscape:window-maximized="1"
     inkscape:current-layer="layer1" /><defs
     id="defs42417"><linearGradient
       inkscape:collect="always"
       id="linearGradient53343"><stop
         style="stop-color:#a04bb2;stop-opacity:1;"
         offset="0.41357997"
         id="stop53339" /><stop
         style="stop-color:#5fd0cb;stop-opacity:1;"
         offset="1"
         id="stop53341" /></linearGradient><linearGradient
       inkscape:collect="always"
       xlink:href="#linearGradient53343"
       id="linearGradient53345"
       x1="114.4696"
       y1="200.24013"
       x2="121.91297"
       y2="200.24013"
       gradientUnits="userSpaceOnUse"
       gradientTransform="matrix(1.2062188,0,0,1.2062188,-23.605786,-42.605951)"
       spreadMethod="reflect" /></defs><g
     inkscape:label="Layer 1"
     inkscape:groupmode="layer"
     id="layer1"
     transform="translate(-114.46961,-191.24937)"><text
       xml:space="preserve"
       style="font-size:38.1px;line-height:1.25;font-family:'Special Elite';-inkscape-font-specification:'Special Elite';letter-spacing:0px;word-spacing:0px;stroke-width:0.264583"
       x="138.23076"
       y="171.15738"
       id="text1935"><tspan
         sodipodi:role="line"
         id="tspan1933"
         style="stroke-width:0.264583"
         x="138.23076"
         y="171.15738" /></text><path
       d="m 117.68919,201.1674 3.95233,2.28189 q 0.064,0.037 0.13976,0.0166 0.0757,-0.0203 0.12196,-0.10023 0.0462,-0.0798 0.0258,-0.15575 -0.0203,-0.0757 -0.0843,-0.11266 l -3.95234,-2.28188 q -0.0798,-0.0462 -0.15231,-0.0133 -0.0724,0.0329 -0.10928,0.0968 -0.0461,0.0799 -0.0339,0.15112 0.0123,0.0712 0.0923,0.11736 z m 1.50585,-2.60821 3.95233,2.28189 q 0.0641,0.037 0.13975,0.0166 0.0757,-0.0203 0.12196,-0.10024 0.0462,-0.0801 0.0258,-0.15575 -0.0203,-0.0757 -0.0843,-0.11266 l -3.95233,-2.28189 q -0.0799,-0.0461 -0.15231,-0.0133 -0.0724,0.0329 -0.10929,0.0969 -0.0461,0.0799 -0.0339,0.15111 0.0123,0.0712 0.0923,0.11737 z m -4.22762,3.95971 q -0.35202,-0.20324 -0.46023,-0.60708 -0.1082,-0.40383 0.0951,-0.75587 l 5.43215,-9.40878 q 0.20324,-0.35202 0.60708,-0.46022 0.40383,-0.1082 0.75587,0.0951 l 4.8644,2.80846 q 0.19202,0.11085 0.30246,0.27059 0.11049,0.15974 0.18979,0.35493 l 0.82507,3.07923 q 0.0449,0.21792 0.0211,0.40689 -0.0238,0.18899 -0.12536,0.365 l -4.29583,7.4406 q -0.20326,0.35205 -0.60709,0.46024 -0.40384,0.1082 -0.75586,-0.095 z m 10.18619,-6.00266 1.08088,-1.87213 -5.04041,-2.91009 q -0.19202,-0.11085 -0.44441,-0.0432 -0.25241,0.0677 -0.36326,0.25964 l -5.43216,9.40877 q -0.11085,0.19202 -0.0432,0.44443 0.0677,0.25239 0.25966,0.36325 l 6.84854,3.95401 q 0.19203,0.11085 0.44441,0.0432 0.25243,-0.0677 0.36328,-0.25964 l 4.39746,-7.61662 -1.88817,-1.09014 q -0.17601,-0.10156 -0.23011,-0.30353 -0.0541,-0.20192 0.0475,-0.37794 z m -4.47158,-5.07785 -1.33033,2.30418 1.33033,-2.30418 -6.02342,10.43285 z"
       id="path51878"
       style="fill:url(#linearGradient53345);fill-opacity:1;stroke-width:0.369534" /></g></svg>
