<?xml version="1.0" encoding="UTF-8" standalone="no"?>
<!-- Created with Inkscape (http://www.inkscape.org/) -->

<svg
   width="12.261017mm"
   height="12.260843mm"
   viewBox="0 0 12.261017 12.260843"
   version="1.1"
   id="svg42420"
   inkscape:version="1.2.2 (b0a8486541, 2022-12-01)"
   sodipodi:docname="unbiased.svg"
   xml:space="preserve"
   xmlns:inkscape="http://www.inkscape.org/namespaces/inkscape"
   xmlns:sodipodi="http://sodipodi.sourceforge.net/DTD/sodipodi-0.dtd"
   xmlns:xlink="http://www.w3.org/1999/xlink"
   xmlns="http://www.w3.org/2000/svg"
   xmlns:svg="http://www.w3.org/2000/svg"><sodipodi:namedview
     id="namedview42422"
     pagecolor="#ffffff"
     bordercolor="#666666"
     borderopacity="1.0"
     inkscape:showpageshadow="2"
     inkscape:pageopacity="0.0"
     inkscape:pagecheckerboard="0"
     inkscape:deskcolor="#ffffff"
     inkscape:document-units="mm"
     showgrid="false"
     inkscape:zoom="3.1429292"
     inkscape:cx="-23.22674"
     inkscape:cy="34.203761"
     inkscape:window-width="1920"
     inkscape:window-height="1045"
     inkscape:window-x="0"
     inkscape:window-y="0"
     inkscape:window-maximized="1"
     inkscape:current-layer="layer1" /><defs
     id="defs42417"><linearGradient
       id="linearGradient20995"><stop
         style="stop-color:#23e3ec;stop-opacity:1;"
         offset="0"
         id="stop23105" /><stop
         style="stop-color:#ff1793;stop-opacity:1;"
         offset="1"
         id="stop23107" /></linearGradient><radialGradient
       inkscape:collect="always"
       xlink:href="#linearGradient20995"
       id="radialGradient24456"
       cx="248.0795"
       cy="248.07899"
       fx="248.0795"
       fy="248.07899"
       r="248.0795"
       gradientTransform="matrix(3.4676361,0,0,2.4753382,-612.16992,-366.00038)"
       gradientUnits="userSpaceOnUse" /></defs><g
     inkscape:label="Layer 1"
     inkscape:groupmode="layer"
     id="layer1"
     transform="translate(-135.95632,-158.62615)"><text
       class="text"
       dy="1.229382"
       x="171.12706"
       y="224.32503"
       style="font-size:3.51252px;stroke-width:0.29271"
       id="text14130" /><text
       class="text"
       dy="1.229382"
       x="189.8605"
       y="224.32503"
       style="font-size:3.51252px;stroke-width:0.29271"
       id="text14132" /><text
       class="text"
       dy="1.229382"
       x="208.59395"
       y="224.32503"
       style="font-size:3.51252px;stroke-width:0.29271"
       id="text14134" /><text
       class="text"
       dy="1.229382"
       x="227.32739"
       y="224.32503"
       style="font-size:3.51252px;stroke-width:0.29271"
       id="text14136" /><text
       class="text"
       dy="1.229382"
       x="246.06084"
       y="224.32503"
       style="font-size:3.51252px;stroke-width:0.29271"
       id="text14141" /><text
       class="text"
       dy="1.229382"
       x="264.79428"
       y="224.32503"
       style="font-size:3.51252px;stroke-width:0.29271"
       id="text14148" /><text
       class="text"
       dy="1.229382"
       x="283.52771"
       y="224.32503"
       style="font-size:3.51252px;stroke-width:0.29271"
       id="text14154" /><text
       class="text"
       dy="1.229382"
       x="302.26114"
       y="224.32503"
       style="font-size:3.51252px;stroke-width:0.29271"
       id="text14159" /><g
       id="SVGRepo_bgCarrier"
       stroke-width="0"
       transform="matrix(0.26458333,0,0,0.26458333,171.20427,96.665651)" /><g
       id="SVGRepo_tracerCarrier"
       stroke-linecap="round"
       stroke-linejoin="round"
       transform="matrix(0.26458333,0,0,0.26458333,171.20427,96.665651)" /><g
       id="SVGRepo_iconCarrier"
       transform="matrix(0.02471187,0,0,0.02471187,135.95632,158.62608)"> <path
   style="fill:url(#radialGradient24456);fill-opacity:1"
   d="M 248.083,0.003 C 111.071,0.003 0,111.063 0,248.085 c 0,137.001 111.07,248.07 248.083,248.07 137.006,0 248.076,-111.069 248.076,-248.07 0,-137.023 -111.07,-248.082 -248.076,-248.082 z"
   id="path23996" /> <g
   id="g24004"> <path
   id="rect23998"
   style="fill:#ffffff;fill-opacity:1"
   d="m 248.50222,103.35396 c -4.22031,0 -9.72113,8.18967 -10.66004,26.25054 -36.63563,-1.24778 -62.94436,-8.58347 -76.43044,-8.58347 -18.58796,0 -29.58524,6.59389 -34.77422,6.59389 -3.519,0 -6.80289,-0.9914 -9.61089,-2.6854 0.164,0.005 0.32868,0.0217 0.49468,0.0217 6.854,0 12.41044,-4.81203 12.41044,-10.74701 0,-5.934 -5.55744,-10.74702 -12.41044,-10.74702 -3.78698,0 -7.1728,1.47835 -9.4478,3.79435 0.003,-0.035 -0.004,-0.0747 0,-0.10872 -4.214,4.18998 -6.82221,9.99392 -6.82221,16.4059 0,6.23319 3.59033,11.05443 8.19209,14.06842 L 64.536424,248.21846 h -1.288337 c 0,0 -0.0034,39.97106 56.371533,39.97106 56.37594,0 57.21954,-39.97106 57.21954,-39.97106 h -1.15243 l -44.7167,-110.14464 c 7.06422,-2.55324 16.91525,-5.20759 37.45417,-4.56626 13.54919,0.42322 40.49297,8.53332 70.65196,9.99141 0.95553,2.54117 2.33735,4.47819 3.95198,5.8111 v 174.02875 c -5.69525,3.67625 -13.45958,14.02394 -13.45958,43.38488 0,0 -61.55881,-3.22103 -78.25695,17.66706 -1.75147,2.19096 0,8.41496 0,8.41496 h 195.21292 c 0,0 1.75146,-6.22399 0,-8.41496 -16.69687,-20.88684 -78.25151,-17.66706 -78.25151,-17.66706 0,-30.93345 -8.57352,-40.66239 -14.3076,-43.81432 V 149.94609 c 1.99506,-1.3321 3.71422,-3.51623 4.83262,-6.53953 29.46401,-1.67347 55.6471,-9.4838 68.9396,-9.899 20.53894,-0.64133 30.38996,2.01302 37.45418,4.56626 l -44.72213,110.14464 h -1.147 c 0,0 0.83816,39.97106 57.21411,39.97106 56.37494,0 56.37696,-39.97106 56.37696,-39.97106 h -1.29377 L 386.71846,137.62263 c 4.60189,-3.014 8.19208,-7.84006 8.19208,-14.07386 -0.001,-6.41098 -2.61364,-12.21492 -6.82764,-16.4059 0.004,0.034 0.002,0.0683 0.005,0.10328 -2.276,-2.316 -5.66082,-3.78891 -9.4478,-3.78891 -6.854,0 -12.41044,4.81402 -12.41044,10.74702 0,5.93598 5.55644,10.74701 12.41044,10.74701 0.166,0 0.32524,-0.0167 0.48924,-0.0217 -2.809,1.693 -6.08745,2.6854 -9.60545,2.6854 -5.18898,0 -16.19168,-6.59389 -34.77966,-6.59389 -13.28459,0 -38.98396,7.13314 -74.76702,8.53998 -1.06953,-18.03043 -7.25853,-26.20705 -11.47543,-26.20705 z m -132.90526,36.99212 c 3.15735,0.86778 6.30012,1.02873 8.79548,0.16851 0.0825,-0.0284 0.17836,-0.069 0.26093,-0.0978 L 168.4242,248.21846 H 71.804383 Z m 264.96249,0.005 43.79802,107.86695 h -96.62526 l 43.77083,-107.80171 c 0.0841,0.0294 0.18235,0.0689 0.26637,0.0978 2.49365,0.85994 5.63487,0.7029 8.79004,-0.16308 z" />   </g> <g
   id="g24010">   </g>   <g
   id="g24020">   </g>   </g></g></svg>
