<svg xmlns="http://www.w3.org/2000/svg" xmlns:xlink="http://www.w3.org/1999/xlink" xml:space="preserve" width="46.341" height="46.34" viewBox="0 0 12.261 12.261"><defs><radialGradient xlink:href="#a" id="b" cx="248.079" cy="248.079" r="248.079" fx="248.079" fy="248.079" gradientTransform="matrix(3.4676 0 0 2.4753 -612.17 -366)" gradientUnits="userSpaceOnUse"/><linearGradient id="a"><stop offset="0" stop-color="#23e3ec"/><stop offset="1" stop-color="#ff1793"/></linearGradient></defs><path fill="url(#b)" d="M248.083.003C111.071.003 0 111.063 0 248.085c0 137.001 111.07 248.07 248.083 248.07 137.006 0 248.076-111.069 248.076-248.07C496.159 111.062 385.089.003 248.083.003z" transform="scale(.0247)"/><path fill="#fff" d="M6.141 2.554c-.104 0-.24.202-.263.649-.906-.031-1.556-.212-1.89-.212-.459 0-.73.163-.859.163a.458.458 0 0 1-.237-.067h.012c.17 0 .307-.118.307-.265 0-.147-.137-.265-.307-.265a.327.327 0 0 0-.233.093v-.002a.57.57 0 0 0-.169.405c0 .154.089.273.203.348l-1.11 2.733h-.032s0 .988 1.393.988 1.414-.988 1.414-.988h-.028L3.237 3.412c.174-.063.418-.129.925-.113.335.01 1 .211 1.746.247.024.063.058.11.098.144v4.3c-.141.091-.333.347-.333 1.072 0 0-1.521-.08-1.934.437-.043.054 0 .208 0 .208h4.824s.044-.154 0-.208c-.412-.516-1.933-.437-1.933-.437 0-.764-.212-1.004-.354-1.082V3.705a.325.325 0 0 0 .12-.161c.727-.042 1.375-.235 1.703-.245.508-.016.751.05.926.113L7.919 6.134h-.028s.02.988 1.414.988c1.393 0 1.393-.988 1.393-.988h-.032L9.556 3.4a.416.416 0 0 0 .203-.348.57.57 0 0 0-.169-.405v.002a.327.327 0 0 0-.233-.093c-.17 0-.307.119-.307.265 0 .147.138.266.307.266h.012a.458.458 0 0 1-.237.066c-.129 0-.4-.163-.86-.163-.328 0-.963.176-1.847.21-.027-.445-.18-.647-.284-.647zm-3.284.914a.378.378 0 0 0 .217.004l.006-.002 1.082 2.664H1.774Zm6.547 0 1.083 2.666H8.099L9.18 3.47l.006.002c.062.022.14.018.217-.004z"/></svg>
