<?xml version="1.0" encoding="UTF-8" standalone="no"?>
<!-- Created with Inkscape (http://www.inkscape.org/) -->

<svg
   width="12.165681mm"
   height="13.629138mm"
   viewBox="0 0 12.16568 13.629139"
   version="1.1"
   id="svg42420"
   inkscape:version="1.2.2 (b0a8486541, 2022-12-01)"
   sodipodi:docname="video.svg"
   xml:space="preserve"
   xmlns:inkscape="http://www.inkscape.org/namespaces/inkscape"
   xmlns:sodipodi="http://sodipodi.sourceforge.net/DTD/sodipodi-0.dtd"
   xmlns:xlink="http://www.w3.org/1999/xlink"
   xmlns="http://www.w3.org/2000/svg"
   xmlns:svg="http://www.w3.org/2000/svg"><sodipodi:namedview
     id="namedview42422"
     pagecolor="#ffffff"
     bordercolor="#666666"
     borderopacity="1.0"
     inkscape:showpageshadow="2"
     inkscape:pageopacity="0.0"
     inkscape:pagecheckerboard="0"
     inkscape:deskcolor="#d1d1d1"
     inkscape:document-units="mm"
     showgrid="false"
     inkscape:zoom="35.558186"
     inkscape:cx="39.386149"
     inkscape:cy="31.427363"
     inkscape:window-width="1920"
     inkscape:window-height="1045"
     inkscape:window-x="0"
     inkscape:window-y="0"
     inkscape:window-maximized="1"
     inkscape:current-layer="layer1" /><defs
     id="defs42417"><linearGradient
       inkscape:collect="always"
       id="linearGradient49658"><stop
         style="stop-color:#d60083;stop-opacity:1;"
         offset="0"
         id="stop49654" /><stop
         style="stop-color:#ff6300;stop-opacity:1;"
         offset="1"
         id="stop49656" /></linearGradient><linearGradient
       inkscape:collect="always"
       xlink:href="#linearGradient49658"
       id="linearGradient49660"
       x1="113.55165"
       y1="199.99571"
       x2="119.45307"
       y2="201.577"
       gradientUnits="userSpaceOnUse" /></defs><g
     inkscape:label="Layer 1"
     inkscape:groupmode="layer"
     id="layer1"
     transform="translate(-113.55165,-193.18114)"><text
       xml:space="preserve"
       style="font-size:38.1px;line-height:1.25;font-family:'Special Elite';-inkscape-font-specification:'Special Elite';letter-spacing:0px;word-spacing:0px;stroke-width:0.264583"
       x="138.23076"
       y="171.15738"
       id="text1935"><tspan
         sodipodi:role="line"
         id="tspan1933"
         style="stroke-width:0.264583"
         x="138.23076"
         y="171.15738" /></text><path
       d="m 118.63944,204.0853 2.86046,-0.76646 q 0.15698,-0.0421 0.22084,-0.15255 0.0637,-0.11067 0.0217,-0.26753 l -0.3178,-1.18604 1.01573,0.23257 q 0.14077,0.037 0.24418,-0.0654 0.10341,-0.10245 0.0567,-0.2769 l -0.25238,-0.94186 q -0.0327,-0.1221 -0.17817,-0.1766 -0.14543,-0.0544 -0.23611,0.0258 l -0.77145,0.74885 -0.32248,-1.20349 q -0.0374,-0.13954 -0.14788,-0.2034 -0.11066,-0.0637 -0.26753,-0.0217 l -2.86046,0.76646 q -0.15699,0.0421 -0.22085,0.15255 -0.0638,0.11047 -0.0264,0.25009 l 0.76179,2.84302 q 0.0421,0.15697 0.15255,0.22084 0.11048,0.0638 0.26754,0.0217 z m -1.11109,2.69056 q -0.38372,0.10282 -0.73757,-0.10148 -0.35385,-0.20428 -0.45667,-0.58801 l -2.74804,-10.25581 q -0.10281,-0.38372 0.10149,-0.73756 0.2043,-0.35384 0.58801,-0.45666 l 5.30233,-1.42075 q 0.19186,-0.0514 0.37624,-0.0261 0.18438,0.0253 0.3962,0.11817 l 2.69807,1.55773 q 0.1816,0.11959 0.2981,0.27531 0.11648,0.15573 0.16321,0.33015 l 2.17319,8.11046 q 0.10282,0.38373 -0.10147,0.73756 -0.2043,0.35385 -0.58802,0.45667 z m 2.34422,-13.22797 -5.49418,1.47216 q -0.2093,0.0561 -0.33698,0.27724 -0.12768,0.22115 -0.0716,0.43045 l 2.74803,10.25581 q 0.0561,0.2093 0.27724,0.337 0.22115,0.12768 0.43045,0.0716 l 7.46511,-2.00027 q 0.20931,-0.0561 0.33698,-0.27723 0.1277,-0.22118 0.0716,-0.43048 l -2.2246,-8.30231 -2.05816,0.55148 q -0.19185,0.0514 -0.36878,-0.0507 -0.17692,-0.10217 -0.22832,-0.29403 z m -6.05231,1.62171 0.67299,2.51163 -0.67299,-2.51163 3.04714,11.3721 z"
       id="path48919"
       style="stroke-width:0.361142;fill-opacity:1;fill:url(#linearGradient49660)" /></g></svg>
