<svg xmlns="http://www.w3.org/2000/svg" xmlns:xlink="http://www.w3.org/1999/xlink" xml:space="preserve" width="45.981" height="51.512" viewBox="0 0 12.166 13.629"><defs><linearGradient id="a"><stop offset="0" stop-color="#d60083"/><stop offset="1" stop-color="#ff6300"/></linearGradient><linearGradient xlink:href="#a" id="b" x1="113.552" x2="119.453" y1="199.996" y2="201.577" gradientUnits="userSpaceOnUse"/></defs><path fill="url(#b)" d="m118.64 204.085 2.86-.766q.157-.042.22-.153.064-.11.022-.267l-.317-1.186 1.015.232q.141.037.245-.065.103-.103.056-.277l-.252-.942q-.033-.122-.178-.176-.146-.055-.236.025l-.772.75-.322-1.204q-.038-.14-.148-.204-.11-.063-.268-.021l-2.86.766q-.157.042-.221.153-.064.11-.026.25l.761 2.843q.042.157.153.22.11.064.267.022zm-1.112 2.69q-.383.104-.737-.1-.354-.205-.457-.589l-2.748-10.255q-.103-.384.102-.738.204-.354.588-.457l5.302-1.42q.192-.052.376-.027.185.026.396.119l2.698 1.557q.182.12.299.276.116.155.163.33l2.173 8.11q.103.384-.102.738-.204.354-.588.457zm2.345-13.227-5.495 1.472q-.209.056-.337.277-.127.221-.071.43l2.748 10.257q.056.209.277.337.221.127.43.071l7.466-2q.209-.056.337-.277.127-.222.071-.43l-2.224-8.303-2.059.551q-.191.052-.368-.05-.177-.103-.229-.294zm-6.053 1.622.673 2.511-.673-2.511 3.047 11.372z" transform="translate(-113.552 -193.181)"/></svg>
