<svg xmlns="http://www.w3.org/2000/svg" width="600" height="600"><path fill="#1e3595" fill-opacity=".9" d="M600 325v-1l-15 9c-10 6-18 12-24 19-6 6-13 10-23 14l-5 2-4 2c-10 3-15 6-19 10-5 4-10 6-17 8l-7 2-6 2c-5 1-8 2-10 4l-13 5a384 384 0 0 1-5 1l-5 1a110 110 0 0 0-11 5c-3 1-6 3-9 8a158 158 0 0 0-6 9l-10 15a51 51 0 0 1-5 4l-12 9a15 15 0 0 0-3 4c-2 2-2 4-3 9-2 10-4 14-8 22a78 78 0 0 1-12 14l-3 4-5 5a42 42 0 0 0-10 17c-3 8-3 15-2 27l1 8a391 391 0 0 0 1 37h1a333 333 0 0 1-2-45c-1-12-1-19 2-27a41 41 0 0 1 9-17l5-5 4-3a72 72 0 0 0 1-2c4-3 6-6 10-13 5-7 7-11 9-22l2-9 4-4 12-8 4-5 11-14a157 157 0 0 1 6-9c3-5 6-7 8-9l11-4a234 234 0 0 1 8-2h2l13-6 11-3 6-2 6-2c7-2 13-5 17-9 4-3 9-6 19-10l5-1 5-2c10-4 17-9 22-15 6-6 14-12 25-19l14-8v-64c-4 8-9 14-13 17l-9 7a1064 1064 0 0 0-6 5l-1 1a2309 2309 0 0 1-5 4l-18 13-8 8c-6 6-11 8-29 10-11 2-20 5-31 12a653 653 0 0 0-13 7c-6 3-11 4-16 4-17 0-41 12-52 23a99 99 0 0 1-45 31c-7 2-12 8-14 15a47 47 0 0 0-1 18l-1 13c-2 6-5 12-11 19-13 17-22 47-22 72v9l-1 22c0 11-2 20-5 29h-1c3-9 5-18 5-29l1-22v-9c0-25 9-55 23-72 5-7 9-13 10-19l1-13v-4l1-14c2-8 7-14 15-15 13-4 33-18 45-31 10-12 35-23 52-23 5 0 10-2 15-5l7-3 7-4c11-7 19-10 31-12 17-2 23-4 29-10 4-5 5-5 8-7l17-14a1113 1113 0 0 0 5-3l1-1a4669 4669 0 0 1 7-5c3-3 6-6 9-7 4-4 9-11 13-20v67zm0-116h-2c-6 1-14 3-22 7-3 2-8 3-14 3a84 84 0 0 1-19-2 32 32 0 0 0-4-1 273 273 0 0 0-17-1c-10 0-17 1-18 3 0 1 1 3 4 5l4 4a1746 1746 0 0 0 4 4l6 2 2 1c4 0 6 1 7 2 1 2 1 5-1 9-2 7-5 10-10 10-3 1-7-1-14-5-5-2-7-7-9-15v-5c-2-7-2-10-4-11l-3-1h-21c-21 2-29 6-38 15a133 133 0 0 0-4 6l-2 3-3 3a59 59 0 0 1-12 13l-4 3a107 107 0 0 0-5 4l-17 15c-8 9-11 14-11 16s1 2 6 3h3l7 2c8 4 12 7 14 11 3 6 1 13-9 20-8 7-11 11-11 15v5c1 6 0 10-3 17a44 44 0 0 1-4 8c-3 4-5 5-10 7l-5 2a62 62 0 0 0-18 10c-8 7-13 15-16 25l-2 16-5 16c-2 4-11 27-13 29a383 383 0 0 1-6 14l-11 17c-5 7-9 15-13 29a810 810 0 0 0-2 5l-5 12c-6 16-25 26-46 26-11 0-21-2-31-8-6-3-5-2-22-15-15-9-18-10-21-6l-2 2a52 52 0 0 1-5 6l-6 8c-3 2-5 4-6 7a46 46 0 0 0-6 7l-2 11a998 998 0 0 1-1 3h-1l1-3c1-6 1-9 3-11a47 47 0 0 1 5-8l6-7 7-8a52 52 0 0 0 5-5s1-3 1-3c4-5 8-4 22 7l22 14c11 6 20 8 31 8 21 0 40-10 46-25a220 220 0 0 0 4-12 6752 6752 0 0 0 2-6c4-14 8-22 14-28l10-18 7-13c1-3 10-25 13-29l4-16 2-16c3-10 8-19 17-25a73 73 0 0 1 13-9l5-2 4-2c5-1 8-3 10-7l5-7c3-7 3-11 2-17a27 27 0 0 1 0-5c0-5 3-9 12-15 9-8 11-14 8-19-2-4-6-8-13-12l-7-1h-3c-5-1-7-1-7-4 0-2 3-8 12-16a192 192 0 0 1 21-20l4-3 2-1 11-11a383 383 0 0 0 2-4l2-3 5-5c8-10 17-14 37-15a758 758 0 0 1 23 0l2 1c2 1 3 3 4 10l1 3v3c2 8 4 12 8 15 7 3 11 5 14 4 4 0 7-3 10-9v-8c-1-1-2-2-6-2a56 56 0 0 1-2-1c-3-1-5-1-6-3a253 253 0 0 0-5-4 84 84 0 0 1-4-3c-3-3-4-5-3-6 1-3 7-4 18-4a231 231 0 0 1 17 1l4 1 4 1a83 83 0 0 0 15 1l14-2a70 70 0 0 1 24-8v1zm0-101v1c-9 16-17 30-24 36-3 4-7 5-13 6h-40a84 84 0 0 1-15 3h-2c-13 0-20 2-33 5l-14 4a246 246 0 0 1-33 4l-20 1c-5 0-12 1-18 5-8 5-15 13-20 24a69 69 0 0 1-4 10c-4 6-7 9-13 12l-4 2a64 64 0 0 0-16 10c-8 8-13 17-22 36l-2 4c-8 16-12 24-18 30-7 9-20 15-40 20a1954 1954 0 0 1-35 10c-10 5-19 11-36 27l-2 2a236 236 0 0 1-32 24l-12 8c-12 8-19 13-25 20a62 62 0 0 0-6 9c-4 7-6 13-9 25l-2 7-2 6c-2 11-6 17-14 27l-4 5a149 149 0 0 0-5 5 24 24 0 0 0-3 7c-1 3-2 5-2 12 0 10-1 15-5 22l-6 16a73 73 0 0 1-4 7c-2 6-6 11-13 17-6 7-8 11-10 16a57 57 0 0 0-2 5v2h-1v-2l2-5c2-5 5-10 11-16l13-17a73 73 0 0 0 3-7l7-16c3-8 4-13 4-23l2-12a25 25 0 0 1 4-6l4-6 4-5a65 65 0 0 0 16-33l2-6c3-12 5-18 9-25l7-9c6-7 13-13 24-21l13-8a258 258 0 0 0 31-24l2-2c18-16 26-22 37-26 4-2 9-4 16-5l19-6c20-5 32-11 40-19 5-7 10-14 17-30l2-4c9-20 14-29 23-36a65 65 0 0 1 15-11l4-2c6-3 10-6 13-12a68 68 0 0 0 5-9c4-12 11-20 20-25 6-4 12-5 18-5l20-1a245 245 0 0 0 33-4l14-3c13-4 20-5 33-6h2l15-2c5-2 11-2 22-1h18c5-1 10-2 13-5 6-7 15-21 24-37zm0 450-3-20-1-2v-2c-2-16-3-22-5-25-3-2-3-5-3-8l1-2v-7c-1-3-4-5-8-7-5-2-7-4-5-8l3-5 6-6c6-6 9-11 9-16a15 15 0 0 1 6-13v1a14 14 0 0 0-5 12c0 5-3 10-10 17a435 435 0 0 0-8 10c-2 3 0 6 4 8 5 1 8 4 9 6v8l-1 2c0 3 0 5 2 8 3 2 4 9 6 25v2l1 2 2 16v4zm0-62-5-11-1-5 2-6a71 71 0 0 0 4-11v4a63 63 0 0 1-3 8l-2 5 1 4 4 10v2zm0-85-6 4-21 8c-9 5-16 6-23 6l-15-6-3-2a77 77 0 0 0-5-4c-4-2-3-5 1-10l19-14 4-3 23-14c11-9 19-14 26-15v1c-6 1-15 6-26 14-4 4-4 4-22 15a652 652 0 0 0-5 3l-18 14c-4 4-5 7-2 9l6 3 3 2c6 4 9 5 14 6 6 0 14-1 23-5l20-9 7-5v2zm0-41v1c-7 0-12 3-20 9l-4 3a52 52 0 0 1-5 3l-6 4-9 6a113 113 0 0 0-8 6c-5 3-7 7-8 9-1 3 2 5 7 6 11 1 21-1 31-5a62 62 0 0 0 17-12 42 42 0 0 0 5-8v2a39 39 0 0 1-5 6 63 63 0 0 1-17 13c-10 4-20 6-31 4-6-1-9-3-8-6s4-6 8-10a111 111 0 0 1 18-12l6-3 4-4 5-3c7-6 13-9 20-9zm0-155v1l-8 1a339 339 0 0 1-30 10 1550 1550 0 0 0-2 0c-8 1-12 2-12 6l8 26a57 57 0 0 1 3 7 258 258 0 0 1 1 4c1 7 3 11 5 12l8-1c3-2 7-5 11-10l4-5 4-4 8-21v4a67 67 0 0 1-11 21l-4 6c-4 5-8 8-12 10h-8c-3-1-4-4-6-12a2097 2097 0 0 1-1-3l-2-8c-6-13-8-21-8-26 0-4 3-6 12-7a161 161 0 0 1 2 0 33 33 0 0 0 11-3 334 334 0 0 0 27-8zM0 292c10-11 18-23 23-35l11-31 1-5 15-39c6-13 13-22 21-26 6-4 10-8 12-13a47 47 0 0 0 2-7l4-10c2-4 6-7 12-9l18-9v-8a94 94 0 0 1 0-6c0-10 0-11 2-13l2-1 3-2a68 68 0 0 0 9-6l8-8 9-8c4-2 8-3 11-2l19 2 22 1c5 0 9 0 15 2l13 1c4 0 7-1 10-3 6-3 9-5 12-5 3-1 4-1 16 2 17 4 31 1 41-10 5-5 6-9 4-14l-1-5c-1-2 0-4 2-7 3-2 5-9 7-18h2c-2 10-4 17-7 20-2 1-3 3-2 5l1 4c2 6 1 11-4 17-11 11-25 14-43 10-12-2-13-3-16-2-3 0-6 2-10 5a21 21 0 0 1-12 3l-13-1c-6-2-10-2-15-2a360 360 0 0 1-41-3c-6-2-10 1-18 10l-8 8a70 70 0 0 1-10 6l-3 1-1 1c-2 2-2 3-2 12v9c1 3 0 5-1 6-1 3-2 3-19 10-5 2-9 5-11 8s-2 5-3 10l-2 7c-3 5-6 10-14 14-7 4-13 12-19 25-5 9-8 19-15 39l-1 5-11 30c-5 13-14 26-25 38v-3zm0 78 1-1c6 0 7 6 5 14a60 60 0 0 1-6 11v-2a58 58 0 0 0 5-9c2-8 1-13-4-13l-1 1v-47a341 341 0 0 0 14-8c13-10 30-38 30-54 0-18 21-73 32-79 12-9 32-28 36-38 1-5 5-7 14-10 6-1 9-2 11-4l4-11 2-8c4-12 8-19 14-20l10-4c7-3 12-5 17-5 6-1 13 1 19 5 6 3 12 4 20 4l20-3 9-2 5-1a314 314 0 0 0 37-2l22-4c19-7 32-19 33-28l3-11c3-8 4-13 3-18l-1-7-4-16h1l3 16a25 25 0 0 1 2 7c1 5 0 10-3 18l-2 11c-2 10-16 22-35 28a252 252 0 0 1-64 8l-9 2c-7 2-13 3-20 3-8 0-15-1-20-5-6-3-13-5-19-4-5 0-10 2-17 5l-10 3c-6 2-9 8-13 20l-2 9-5 10c-2 3-4 4-12 6-7 1-11 3-13 8-3 10-23 30-36 38-10 7-31 61-31 79 0 16-17 45-31 54l-14 9v-1 46zm0-174v-1c7-4 15-10 22-19l16-20 7-7 6-4c9-7 14-12 16-19l2-12 3-16c2-17 5-27 10-32 10-14 20-28 20-33 0-3 0-3 6-16a272 272 0 0 0 5-17h1c0 3-1 8-4 14l-2 4-6 15c0 5-9 20-20 33-4 5-7 15-9 32l-3 16-3 12c-2 8-6 13-16 20l-5 4-8 6-15 21c-8 9-15 15-23 19zm0 362v-4l2 6c2 6 4 8 8 7 19-9 34-25 34-40a78 78 0 0 1 22-52l2-2 2-2c4-2 6-5 8-12l4-13v-2c4-10 5-15 5-19-1-4-4-5-12-2a81 81 0 0 1-9 4c-14 5-27 6-43 6h-3a40 40 0 0 0-15 2 22 22 0 0 0-5 3v-1a24 24 0 0 1 5-2 41 41 0 0 1 16-3h2c16 0 29-1 43-6a80 80 0 0 0 9-3c8-4 12-3 13 2 0 4-1 9-5 19v2l-5 13c-1 8-3 10-7 13l-2 2-2 1a35 35 0 0 0-6 6 77 77 0 0 0-16 46c0 16-15 31-35 40-4 2-7 0-9-7l-1-2zm0-62v-2l1 3c3 5 4 10 5 17l1 18 1 15c2 3 4 2 9-1 17-15 22-23 22-39 0-7 1-12 3-18l14-19a70 70 0 0 1 7-9 45 45 0 0 1 4-3l1-1a10 10 0 0 0 2-3 36 36 0 0 0 3-6v-3a96 96 0 0 0 2-5l-1-4c-2-2-9-1-24 4-9 4-16 5-28 5-7 0-10 0-13 2s-6 6-8 14l-1 6v-4l1-2c1-8 4-13 8-15 3-2 5-2 13-2 12 0 18-1 28-4 15-6 22-7 25-5l1 5a34 34 0 0 1-1 4l-1 2v1l-1 1a37 37 0 0 1-2 6l-3 4-1 1h-1l-2 3a69 69 0 0 0-8 8c-9 13-11 15-13 20s-3 10-3 17c0 16-5 25-23 39-5 5-8 5-10 2l-1-16-1-18-4-17-1-1zM379 0h1l2 5c3 12 5 20 5 28 1 11-1 21-7 31-7 15-20 27-36 34-12 6-26 10-36 10l-37 4h-3l-37 5-20-2-9-2c-20-3-31-1-31 8l-1 3v3l-4 20c-3 5-8 8-16 8-10 0-13 0-15 3l-9 8-15 14a341 341 0 0 0-7 6 92 92 0 0 0-26 40c-2 9 3 10 19 2a626 626 0 0 1 44-22l16-7 11-5 2-2 2-1 5-2c18-9 34-11 50-1 23 13 39 37 39 56s-1 25-6 33a45 45 0 0 1-5 7c-6 8-11 17-12 22-2 6 4 7 20 0 13-7 22-15 28-27a81 81 0 0 0 6-15l4-12a29 29 0 0 1 2-5c7-15 21-31 36-37 7-4 13-10 19-21l5-9c4-7 7-10 10-12 10-8 28-11 50-11 8 0 17-2 28-4a420 420 0 0 0 14-4l20-4c14-4 41-5 64-5 17 0 28-10 39-39 6-18 6-27 2-35l-1-2a13 13 0 0 1-1-6l2-25a722 722 0 0 0 3-30l-1-3h1l1 3a201 201 0 0 1-3 31l-2 24 1 6 1 2c4 8 4 17-3 35-10 30-21 40-39 40a340 340 0 0 0-83 9 421 421 0 0 1-15 4c-11 2-20 4-28 4-21 0-40 3-50 10l-9 12-5 9c-6 12-12 18-20 21-15 7-28 22-36 37a28 28 0 0 0-1 5l-4 12a81 81 0 0 1-6 16c-6 11-15 20-29 26-16 8-23 7-21-1 1-5 6-13 13-21a44 44 0 0 0 4-7c5-8 6-14 6-33s-16-42-38-56c-16-9-32-7-50 2a133 133 0 0 0-7 3l-2 1a159 159 0 0 1-11 6l-15 7a625 625 0 0 0-45 21c-16 9-22 8-20-2a84 84 0 0 1 26-41l7-6 16-13 8-9c3-3 6-3 16-3 8 0 12-3 15-8 2-4 3-9 4-20v-2l1-3c0-5 4-9 11-10 5-1 12 0 22 1a326 326 0 0 1 28 5l37-5 3-1 37-4c10 0 24-4 36-10 15-7 28-18 36-33 5-10 7-20 6-31 0-8-2-16-5-27l-2-6zm14 0h1l3 15c4 14 4 27 0 39a61 61 0 0 1-12 20 138 138 0 0 1-19 19c-11 9-23 16-36 18a259 259 0 0 1-22 5l-11 1-9 1c-12 1-18 3-22 4a144 144 0 0 1-53 6l-9-2-13-3c-4 1-7 3-9 7l-3 15c-1 9-3 12-10 14a40 40 0 0 0-7 3l-1 1-2 1c-2 1-4 2-9 2l-10-1-7 6-6 6-8 6-11 9c-5 5-7 9-6 13 2 4 5 4 9 3a56 56 0 0 0 8-4l10-5a117 117 0 0 1 12-5 162 162 0 0 0 11-5l13-7 12-5c17-7 29-10 37-6l6 2 6 2a151 151 0 0 1 13 6c18 10 30 22 34 40 7 28 4 45-8 62-4 6-3 9 0 9 5 0 11-5 16-12 3-5 5-11 8-22l1-6 2-7c5-16 11-27 22-34l25-17c7-5 11-10 15-18 7-18 21-24 44-24 9 0 18-2 30-4a625 625 0 0 0 6-1 232 232 0 0 1 15-2l31-6 3-1a170 170 0 0 1 56-6c16-1 26-5 30-14a87 87 0 0 1 3-9l3-6c5-13 6-22-1-40a86 86 0 0 1-6-21V2l1-2h1l-1 2v40a85 85 0 0 0 5 21c8 18 7 27 2 40l-3 6a86 86 0 0 0-4 9c-3 10-13 14-30 15a195 195 0 0 1-24 1c-6 0-15 1-31 5h-3a172 172 0 0 1-41 8l-6 1a4894 4894 0 0 0-6 1c-12 2-21 4-30 4-23 0-36 6-44 23-3 9-7 14-14 19l-26 16c-10 8-16 18-21 35l-2 6-1 6c-3 12-5 17-9 22-5 8-11 13-15 13-5 1-6-4-1-10 11-17 14-34 8-62-5-17-17-30-35-39a152 152 0 0 0-19-8l-5-3c-8-3-20 0-37 7l-12 5-13 7-11 4a116 116 0 0 0-12 6l-9 5a57 57 0 0 1-8 4c-6 1-9 0-10-4-2-4 0-8 5-14l11-9 8-6a67 67 0 0 0 7-5l7-7 10 1c5 0 7-1 9-2l1-1 2-1a41 41 0 0 1 7-2c6-3 8-5 9-14l4-15c2-5 5-7 9-8l13 3a64 64 0 0 0 9 2l4 1c21 0 40-2 49-6 4-2 10-4 22-5l9-1a623 623 0 0 0 33-5c12-3 24-10 35-19a137 137 0 0 0 20-18 60 60 0 0 0 11-21c4-11 4-24 1-38a285 285 0 0 1-4-15zm114 0h1a58 58 0 0 1-11 11 10 10 0 0 1-5 2c-2 0-4 0-7 2l-2 1c-5 3-8 5-14 5s-10-2-16-5a203 203 0 0 1-2-1l-3-1-4-1a13 13 0 0 0-3-1c-2 0-4 0-11-3h-2l-10-3c-3 0-4 2-4 6 0 21-6 50-13 57a224 224 0 0 1-78 54 107 107 0 0 1-13 4l-11 3-12 2-14 2c-21 5-25 6-38 6l-14-2-6-1c-8-2-14-2-18-1-4 2-6 5-4 11 2 5 5 8 9 11l14 3 16 3a78 78 0 0 1 18 8c9 4 15 11 20 20l11 22c3 5 6 6 11 2 5-5 10-9 21-14l2-2 16-9c5-4 8-8 11-13 8-20 20-33 32-33h6l24-1c14 0 24-2 30-4a232 232 0 0 1 37-14l15-4a1059 1059 0 0 1 11-4l8-3a60 60 0 0 0 7-3l6-3c3-3 6-4 12-5h1c6-1 9-2 13-5 7-7 8-24 4-45-2-8-3-19-2-35a837 837 0 0 1 1-19h1v3a892 892 0 0 0 0 51c5 22 5 38-4 45-4 4-7 5-13 6h-1l-12 4a64 64 0 0 1-6 4 61 61 0 0 1-6 3l-9 3a5398 5398 0 0 1-11 3 1126 1126 0 0 1-82 23l-25 1h-5c-11 0-23 12-32 32-2 5-5 10-11 14l-16 9-2 1-21 14c-5 6-8 5-12-2l-11-21c-5-9-11-16-19-21a77 77 0 0 0-19-7l-15-3c-7-1-11-2-14-4-4-2-7-5-9-11-3-6-1-10 4-12a241 241 0 0 1 24 1l14 3c13 0 17-1 38-5a383 383 0 0 1 37-7l13-4a223 223 0 0 0 78-54c6-7 12-37 12-57 0-5 1-7 5-7l11 3h1c7 3 9 3 11 3l4 1 4 1a91 91 0 0 1 3 2l1 1c6 2 11 4 16 4s9-2 13-4l3-2c2-2 4-3 7-3 1 1 3 0 4-1 3-1 6-4 10-9l1-1zM325 600h-2a171 171 0 0 0 1-29 112 112 0 0 1-2-40 61 61 0 0 1 5-18 71 71 0 0 1 13-19l12-10 7-8 1-3-1-9v-9c-1-12 1-20 8-22 16-5 26-12 33-25 10-17 26-32 36-32 12 0 20-2 29-9 7-5 10-6 13-7l9-1 6-3 5-5c6-6 12-9 21-9h7l12-1c3-1 5-3 14-11a130 130 0 0 1 27-19 69 69 0 0 0 9-7l12-12v3a202 202 0 0 1-10 10 71 71 0 0 1-14 10c-12 8-14 10-22 17-10 8-12 10-16 11l-12 1h-7c-8 0-14 3-19 8l-6 6c-2 2-5 3-7 3l-9 1c-2 0-5 2-11 7-10 7-18 9-31 9-9 0-25 14-34 30-8 14-18 22-35 27-5 2-7 8-6 20v9l1 9-1 4-8 8-12 11a69 69 0 0 0-12 17 59 59 0 0 0-5 18 107 107 0 0 0 2 39l1 4a249 249 0 0 1-1 17l-1 9zm-14 0h-1c3-7 5-12 5-19l-1-16-1-28a118 118 0 0 1 11-43c3-7 6-13 10-17a59 59 0 0 1 4-4l4-4c6-5 8-11 8-29 0-19 2-24 15-28l3-1a51 51 0 0 0 6-3c5-3 10-6 15-11 25-28 37-35 56-35 8 0 15-2 22-7l18-11 9-4c8-4 14-5 26-5 8 0 11-1 15-2s8-4 11-8c2-4 6-7 14-12a301 301 0 0 1 21-13c5-4 9-9 13-15a204 204 0 0 0 6-9v2l-5 7c-4 7-8 11-14 15l-15 10a375 375 0 0 0-5 4c-8 4-12 8-15 11-3 5-6 8-11 9-4 1-7 2-15 2-12 0-18 1-26 4a111 111 0 0 0-8 5l-19 11c-7 5-14 7-22 7-19 0-30 7-56 34a54 54 0 0 1-26 17c-5 1-7 3-9 6-2 4-3 10-3 20 0 18-2 24-8 30l-4 3a58 58 0 0 0-4 5c-4 4-7 9-11 16a95 95 0 0 0-4 11c-3 10-5 21-6 32a230 230 0 0 0 2 44c0 6-2 11-5 19zm25 0h-1l1-15-3-24v-2c-2-13-3-20-2-27 1-9 4-16 12-22 22-19 29-31 29-45v-8c-1-5-2-6-1-8l3-6c3-3 7-5 14-7 10-4 15-10 24-22l2-3 10-12c5-4 9-7 15-8l25-8a50 50 0 0 0 5-3l5-2c2-2 5-3 11-3l11-1a21 21 0 0 0 10-6c4-6 10-8 17-9l4-1 14-3 23-20 3-3c10-9 16-14 22-16l11-9v1c-3 4-7 6-11 8l-21 17-3 3c-17 15-19 17-24 19-3 2-7 3-14 4l-3 1c-8 1-13 3-18 8a22 22 0 0 1-10 7l-11 1c-6 0-8 1-11 2a144 144 0 0 1-4 3 50 50 0 0 1-5 3l-26 7c-10 3-15 8-24 21l-2 3c-9 12-15 18-25 21l-13 7-3 6v8l1 8c0 15-7 27-30 45-7 6-10 13-11 22-1 7 0 14 2 27v1c2 13 3 19 2 25v15zm-240 0h-2a154 154 0 0 0 2-22c1-17 4-27 11-33 5-4 8-9 9-16l1-9 3-10c1-3 3-5 7-5 14 0 38 9 54 20 8 7 21 14 31 17 13 5 22 5 25-1l3-6c3-7 4-12 5-18v-6c0-3-1-4-4-7l-1-2a31 31 0 0 1-3-2 30 30 0 0 1-2-4l-1-3-5-5c-5-4-14-6-28-7a272 272 0 0 0-9-1h-2c-10-1-15-1-19-3-14-6-35-26-35-37 0-5 2-10 5-14l13-14 18-14 17-12a51 51 0 0 0 7-5l7-8c7-7 13-11 20-14l17-5a9577 9577 0 0 1 12-4 603 603 0 0 0 13-3c20-7 34-12 40-19 9-8 12-14 16-26l5-12c10-18 29-40 44-46 14-6 19-12 19-18 0-3 3-8 7-14 5-6 10-11 17-14 12-6 33-10 47-10 5 0 10-1 16-5 10-5 11-5 14-5 10 0 32-3 46-6l4-1 3-1a182 182 0 0 1 16-2l8 1c5 1 14-1 23-6a68 68 0 0 0 10-6v3c-11 8-26 13-33 11a30 30 0 0 0-8-1l-10 1a238 238 0 0 0-9 2l-4 1c-14 3-35 6-46 6-3 0-4 0-13 5-7 3-11 5-17 5-14 0-34 4-47 10l-16 13-6 13c0 7-6 14-21 20-14 6-33 27-42 44l-5 13c-4 12-7 18-16 27-7 6-21 12-42 19a605 605 0 0 1-13 3 1495 1495 0 0 1-11 4l-18 5c-6 3-12 7-19 14l-7 7a52 52 0 0 1-6 6l-18 11c-7 5-13 10-17 15l-13 13c-3 4-5 8-5 13 0 9 20 29 33 35 4 2 9 2 19 3a586 586 0 0 0 4 0l7 1c14 1 24 3 30 7l4 6 1 3a29 29 0 0 0 3 3l2 3 1 1c3 3 5 6 5 9v7c-1 5-2 11-5 18l-3 5c-4 8-13 8-27 3-11-4-24-11-33-17-14-11-38-20-52-20-5 0-6 3-8 13a99 99 0 0 1-1 10c-2 7-4 13-9 17-7 5-10 15-11 32l-1 5-1 16zm8 0h-1l1-5 1-5c2-14 4-20 7-24 1-3 3-6 8-11 8-11 10-15 10-19v-5c1-6 2-9 5-10 4-1 11 1 20 7l26 15 18 11a714 714 0 0 1 6 4c14 8 39 5 47-8l7-18a82 82 0 0 1 2-3 42 42 0 0 1 4-7c9-14 14-26 14-37 0-4 1-7 4-15l1-4c4-12 3-19-4-24a23 23 0 0 0-10-3c-7-1-15 1-24 6l-8 3a63 63 0 0 0-4 3l-4 2c-12 7-21 10-33 6l-13-2c-13-3-19-4-24-7-6-3-7-9-2-16a93 93 0 0 1 14-19 157 157 0 0 1 8-7l8-7a85 85 0 0 0 7-6 98 98 0 0 1 55-34c37-9 51-13 59-18 8-6 21-25 37-55 5-10 12-19 21-26l17-12 12-8a21 21 0 0 0 3-5 535 535 0 0 0 7-15c6-11 16-18 31-20a119 119 0 0 1 35-3l17-3a152 152 0 0 1 69-12h28a50 50 0 0 0 14-6v1a51 51 0 0 1-14 5c-7 2-13 2-25 1h-13c-20 0-38 3-59 11a45 45 0 0 1-22 4c-10 0-17 0-30 3-15 2-24 9-31 20a73 73 0 0 0-4 7l-3 7a22 22 0 0 1-3 5l-11 9-18 12c-8 7-15 15-21 25-15 30-28 50-37 55-8 6-22 10-59 18a96 96 0 0 0-55 34 86 86 0 0 1-6 7l-8 7-8 7a92 92 0 0 0-15 18c-4 7-3 12 3 16 4 2 10 4 23 6a186 186 0 0 1 13 3c12 3 21 0 32-6l5-3 4-2 7-4c10-5 17-7 25-6a24 24 0 0 1 10 4c8 5 9 12 5 25l-1 3c-3 9-3 11-3 15 0 11-6 23-16 37a41 41 0 0 0-4 8l-1 3c-3 9-4 11-8 17-7 14-33 17-47 8a578 578 0 0 0-7-3l-17-11-26-16c-10-5-16-7-19-6s-4 4-4 9a61 61 0 0 0-1 3l1 2c0 5-3 9-12 20l-8 10c-2 4-4 11-6 24l-1 6-1 4zm10 0h-1v-1c0-12 9-34 20-43a26 26 0 0 0 3-5 36 36 0 0 0 3-4l2-5c4-6 7-6 17 1l7 4a686 686 0 0 0 20 13c14 9 25 14 34 14 17 0 33-6 40-15l5-10 2-7 3-7c5-12 8-19 12-23 8-9 14-36 14-53l2-8v-5c1-6 0-10-1-13-5-7-20-9-39-5a101 101 0 0 0-19 7l-16 9c-7 4-13 4-25 1-30-7-31-8-15-26 17-21 47-46 56-46 10 0 54-12 66-18 9-5 24-22 37-38l19-30c9-13 18-22 27-27 7-5 13-11 19-19l12-21c2-1 3-3 5-3 14-7 24-9 39-9h29l23-3 4-1a177 177 0 0 1 28-1c19 0 29-1 45-4l9-4v1a38 38 0 0 1-9 3 174 174 0 0 1-51 5l-22 1-4 1-23 3h-29c-15 0-25 2-39 8l-4 4-13 20c-5 9-11 15-19 19-8 5-17 15-26 28l-20 29c-12 17-27 34-37 38-12 6-56 19-66 19-9 0-38 25-56 45-14 18-14 19 15 26 12 2 18 2 24-2l17-9c5-3 11-5 19-6 19-5 35-3 39 5 2 3 3 7 2 13a96 96 0 0 1 0 5l-2 8c0 17-7 44-15 53l-11 23-3 8a236 236 0 0 1-8 16c-7 9-23 16-40 16-9 0-20-5-35-14l-13-9a862 862 0 0 1-7-4l-6-5c-10-6-13-6-16 0l-2 4a37 37 0 0 1-3 5l-4 4a70 70 0 0 0-19 43v1zm-29 0h-1l1-8c0-20 5-42 13-49l10-13c2-6 3-12 3-21 0-7 2-12 4-15l9-8a32 32 0 0 0 4-2l7-10c2-4 1-9-1-16a69 69 0 0 0-4-8l-1-2a75 75 0 0 1-3-5c-5-10-4-18 8-29a204 204 0 0 1 26-22l20-12 7-7a962 962 0 0 1 23-18l13-6a868 868 0 0 0 50-16 45 45 0 0 1 7-3c9-3 12-4 17-8 7-6 13-15 20-28 16-35 19-40 32-49l11-7 2-1c12-5 17-9 22-17l3-12c1-6 1-8 3-11 3-3 7-6 15-9l12-3c16-5 25-6 39-6l13-2 4-2c3-3 8-5 13-6l19-2h2l20-4 19-5 4 1 5 1c9 1 17 2 25 0 8-3 14-7 20-15v2c-5 7-12 11-20 14-8 2-16 1-26 0l-5-1-3-1-20 5-19 4h-2l-19 2-13 5a21 21 0 0 1-3 3l-14 2c-14 0-23 1-39 5a126 126 0 0 0-12 4c-7 3-11 6-14 9-2 2-2 5-3 10l-4 12a31 31 0 0 1-9 12l-12 6-2 1-12 6c-13 10-16 15-32 49-6 14-12 23-19 28-5 5-9 6-17 9a45 45 0 0 0-8 2c-6 4-15 7-28 10a867 867 0 0 1-22 6c-4 1-8 4-12 7a137 137 0 0 0-13 10l-10 8a98 98 0 0 1-8 6l-19 13a203 203 0 0 0-27 21c-11 11-12 19-7 29a75 75 0 0 0 2 5l1 2a70 70 0 0 1 4 8c3 7 4 12 2 17-1 3-3 5-8 9l-5 4c-4 2-6 4-7 6-2 4-4 8-4 15 0 9-1 16-4 21-2 5-4 8-10 13-7 7-12 29-12 49l-1 8zm282 0h-1l-1-6c-3-16-4-26-3-37l1-15v-8c1-4 4-9 11-16 9-11 12-16 19-30a143 143 0 0 1 7-11c3-5 7-9 16-17 12-10 16-14 19-19l1-5a206 206 0 0 0 2-4c4-10 8-14 23-17l21-6c16-4 26-7 34-12l27-17 3-1 23-14a149 149 0 0 0 9-7 724 724 0 0 0 6-5 88 88 0 0 1 16-10v1a86 86 0 0 0-15 10l-7 5a150 150 0 0 1-9 6l-23 14-2 2-28 16c-8 6-17 9-34 13l-21 5c-8 3-13 5-16 8-3 2-4 5-6 10l-2 4a51 51 0 0 1-2 4c-2 6-7 10-18 20-10 8-14 12-17 16a77 77 0 0 0-2 5l-4 6c-7 15-10 20-20 30-6 8-9 12-10 16v23c-2 11-1 21 2 37l1 6zm-76 0h-2l1-4 3-11c2-12 3-23 3-41 0-6-2-10-4-10-3 0-7 6-11 17-10 29-23 42-43 42-22 0-29-1-48-10a88 88 0 0 1-10-5l-15-10c-4-2-7-3-9-1l-2 2a58 58 0 0 1-5 4 148 148 0 0 1-3 2l-1 1c-8 6-11 11-11 21v3h-2v-3c0-11 3-16 12-23a266 266 0 0 1 2-1l2-2a56 56 0 0 0 4-4l3-2c3-2 7-1 11 1l15 10a86 86 0 0 0 9 5c19 9 26 10 48 10 19 0 31-13 41-40 4-13 9-19 13-19s6 5 6 12a191 191 0 0 1-7 56zm-149 0v-1a160 160 0 0 0 7-13c2-6 5-10 9-11s7 1 12 5l8 6 9 2 14 6a268 268 0 0 0 17 6h-4l-5-2a281 281 0 0 1-9-3l-13-6-9-3c-2 0-3 0-8-5-5-4-9-6-12-5s-6 4-9 10a161 161 0 0 1-6 14h-1zm112 0a30 30 0 0 0 12-6l5-7 3-5a350 350 0 0 0 3-3v-1l1-2a89 89 0 0 1 4-5l2-2 1 2 1 2-1 16a48 48 0 0 1-3 11h-1a46 46 0 0 0 3-11l1-16-1-2v-1l-2 2a88 88 0 0 0-3 5l-1 1v1a1268 1268 0 0 1-3 4 128 128 0 0 1-9 11 31 31 0 0 1-9 6h-3zm-183 0h-2c4-3 5-8 5-15 0-19 0-17 2-21l3-6 7-11 12-19c3-6 4-12 4-24 0-8 3-14 9-23l2-5a73 73 0 0 0 3-4l3-9c0-4-2-7-5-11-5-5-9-5-12-1-2 2-3 7-5 16v5l-3 9c-1 5-3 8-8 12l-3 4c-7 6-10 11-12 19l-1 6-2 10c-4 13-10 26-23 44-7 11-11 19-11 24h-1c0-5 4-13 12-24a137 137 0 0 0 24-55l1-5c2-8 6-14 12-20l3-3 9-12a82 82 0 0 0 2-10v-4c2-9 3-14 6-17 3-4 7-4 12 2 4 3 6 7 6 11l-3 9a74 74 0 0 1-3 4l-3 5c-5 9-8 15-8 23 0 12-1 18-4 25l-13 18-6 11-4 7-1 20c0 7-1 11-4 15zM310 0h1l-1 3c-4 9-6 15-6 25 1 8-2 12-6 13h-18c-11-2-19-2-28-1-6 3-26 7-32 7-11 1-37-2-54-7a22 22 0 0 0-17 3c-4 2-7 5-14 12-6 6-9 9-14 11-7 4-11 8-13 13-2 4-2 8-2 15 0 4-3 7-10 10l-4 1c-9 5-12 9-12 17 0 13-5 19-18 28l-4 3a178 178 0 0 0-8 5c-7 6-11 15-15 34l-4 17a350 350 0 0 1-6 19l-4 17-3 6-13 18-5 9v-2l5-7a271 271 0 0 1 12-18l3-7 5-16 5-19 4-18c4-19 8-28 16-33a79 79 0 0 1 7-6l5-3c12-8 17-15 17-27 0-9 4-13 13-17l4-2c6-3 8-5 8-9 0-8 1-12 3-16 2-5 6-9 14-12l14-12c6-7 9-10 13-12a23 23 0 0 1 18-2c17 4 43 6 54 6 6 0 26-4 32-7 9-1 17-1 28 1h18c4-1 6-5 6-12 0-10 1-16 6-28zm25 0h1a474 474 0 0 0 1 41c0 10-4 17-13 23-6 5-15 8-24 9l-23 1a466 466 0 0 0-20 1l-5 2a70 70 0 0 1-47-1l-4-2c-12-5-21-5-37 1-11 5-18 10-22 15-3 5-4 8-6 16l-4 12c-1 4-4 6-7 7l-9 3c-9 1-13 3-16 9-3 9-7 14-14 20l-16 13c-8 7-14 18-18 32a259 259 0 0 0-4 11l-3 10a181 181 0 0 1-45 85v-1l9-12 10-11c8-8 17-32 26-61l2-10 4-11c5-15 10-25 19-32l16-14c6-6 10-11 14-19 1-4 4-7 7-8 2-1 4-2 9-2l9-2 7-7 3-12c2-8 3-12 6-16 4-6 11-11 23-15 16-7 25-7 38-2l3 2a74 74 0 0 0 46 1l6-2a23 23 0 0 1 8-1 546 546 0 0 1 35 0c9-2 17-5 24-10 8-5 13-13 13-22a411 411 0 0 0-2-41zM94 0h2l-3 9-5 14a40 40 0 0 1-2 5c-3 4-6 8-13 14-8 6-15 16-20 31l-10 28c-3 8-7 13-16 24l-2 3c-6 8-10 12-12 17s-7 10-13 15v-3c5-4 9-8 11-12 3-6 6-11 12-18l3-3c9-11 12-16 15-23l10-28c6-16 12-26 20-33 7-5 11-9 13-13l2-5c2-8 3-9 5-13a28 28 0 0 0 3-9zm9 0h1c-2 8-3 13-5 15a59 59 0 0 0-4 8l-3 10-3 5a251 251 0 0 0-12 14l-8 9-3 13-5 21c-3 17-6 27-10 32-7 13-10 16-37 41a70 70 0 0 1-14 11v-1a69 69 0 0 0 14-10c26-26 29-29 37-41 3-5 6-16 9-32l5-21c1-7 3-11 4-13a53 53 0 0 1 10-13 238 238 0 0 1 11-11 129 129 0 0 1 4-14 60 60 0 0 1 5-8l4-15zM84 0h1c-2 5-6 9-12 12-7 5-16 8-24 8-9 0-12 7-12 21a204 204 0 0 0 0 12c0 6 0 11-2 17a67 67 0 0 1-2 6 2598 2598 0 0 1-7 16 4271 4271 0 0 1-20 44 55 55 0 0 1-6 11v-2a55 55 0 0 0 6-9 4270 4270 0 0 0 25-56l2-6a69 69 0 0 0 4-21 207 207 0 0 0-1-12l2-15c2-5 6-7 11-7 8 0 17-3 24-8 5-3 9-7 11-11zm282 0h1l3 18a123 123 0 0 1 0 28c-1 9-3 16-7 21-11 17-39 30-66 30h-16a414 414 0 0 0-25 3c-21 4-27 4-36 4-7 1-12-1-22-3l-2-1-4-1c-8-2-14-2-22 0a16 16 0 0 0-9 9l-4 12c-2 7-2 10-4 13a16 16 0 0 1-10 8 105 105 0 0 0-9 4c-7 3-10 5-14 10l-6 8-8 9-13 11c-7 6-13 12-17 19a447 447 0 0 0-14 45l-1 6-1 6a151 151 0 0 1-31 67 68 68 0 0 1-14 11l-14 6-1 1v-1h1l14-7a41 41 0 0 0 3-2l11-8a139 139 0 0 0 30-67l1-6a491 491 0 0 1 4-18c4-15 7-26 12-33 4-7 9-13 16-20l13-10 9-9 5-8c4-5 8-8 14-11l10-3a15 15 0 0 0 9-8c2-3 3-6 4-13 2-7 2-10 4-13a17 17 0 0 1 10-8c8-3 14-3 22-1l4 1 4 1c8 2 13 3 20 3 9 0 15 0 36-4a415 415 0 0 1 25-3l16-1c26 0 54-12 66-28 3-5 5-12 6-21V22a136 136 0 0 0-1-5c1-4 0-7-2-17zM19 0h1l-6 16-2 15 2 16 2 12c1 9 1 17-3 23a463 463 0 0 1-13 27v-2a465 465 0 0 0 13-25c3-7 3-14 2-22l-2-13-2-16c0-6 1-11 3-15l5-16zm280 0a71 71 0 0 1-5 11l-4 12-1 2v1a5 5 0 0 1-1 3l-5 1a581 581 0 0 0-44 2l-24 3a43 43 0 0 1-8-2c-18-4-46-5-55-3l-9 6a112 112 0 0 0-7 6l-11 9-9 8a115 115 0 0 1-4 4c-5 4-9 7-12 7l-5-1c-1 0-2-2-1-3 0-4 4-11 13-25a109 109 0 0 0 14-41h1l-3 15c-2 8-6 17-12 26-8 14-12 21-12 25v2l4 1c4 0 7-3 12-6l5-4 9-8 10-10 7-6c4-3 7-5 10-5 9-3 37-2 55 3l8 1 23-3a176 176 0 0 1 45-2l4-1 1-2v-1l1-2c0-4 2-7 5-12l4-11h1zm-8 0c-6 18-10 22-20 22l-29 2h-1l-29 1-29-3-1-1-29-3c-4 0-7 1-11 3l-2 2-7 2c-3 0-4-1-4-4v-4l1-6 2-11h2l-2 12-1 5a21 21 0 0 0 0 4c0 1 0 2 2 2l6-2 2-1c4-3 7-4 12-4l29 4h1a228 228 0 0 0 58 2h1l29-2c9 0 12-3 18-20h2zM142 0h1l-3 6c0 1 0 2 2 2l11 1a172 172 0 0 1 34 3l27 4c24 0 52-3 61-7 3-2 5-5 6-9h1c-1 4-4 8-7 9-9 5-36 8-61 8l-27-4a444 444 0 0 0-48-7l3-6zm76 0 14 3c10 0 17-1 22-3h3a68 68 0 0 1-43 0h4zM71 0c-3 3-7 5-12 7L46 8a97 97 0 0 0-2 0c-5 0-9-2-10-5a9 9 0 0 1 0-3l1 2c1 3 4 5 9 5h2l12-1c5-1 9-3 11-6h2zM0 208c7 0 12 3 12 11 0 11-6 28-12 42v-3c6-13 11-28 11-39 0-7-4-10-11-10v-1zm0 7 3 1 1 8v1a29 29 0 0 0 0 4l-4 16v-4a55 55 0 0 0 3-16v-1l-1-7-2-1v-1zm0 196v-2a22 22 0 0 0 3-4l5-12c7-24 7-27 0-31H0v-1a13 13 0 0 1 8 1c8 4 8 7 0 31l-4 12a21 21 0 0 1-4 6zm34 41 8-1 2-1c9-1 13-1 15 3 1 2-1 5-5 9a76 76 0 0 1-5 4l-6 5-3 3a19 19 0 0 0-3 5l-7 22c-3 8-6 11-9 9-2-1-4-4-6-11l-4-8c-4-8-4-23 0-32a10 10 0 0 1 7-6l12-1h4zm0 2h-4c-12 0-15 1-17 5-4 9-4 24 0 32l3 7 6 10c2 1 4-1 6-7a683 683 0 0 0 7-23 21 21 0 0 1 3-6l4-3 6-4 5-4c3-4 5-6 4-8s-5-2-12-1l-3 1-8 1zm345 146c-3-12-4-14-4-19v-28c2-5 5-8 10-8h26c4 0 5 2 6 8v1c1 5 3 7 9 7l6 2 1 4c-1 5 0 9 7 14 7 4 12 5 17 3 4-2 7-4 12-10l1-1 1-1a76 76 0 0 1 3-3 36 36 0 0 1 9-7l6-3c6-2 9-4 12-7l6-6c4-2 6-3 14-3 6 0 11-4 18-14l3-5 3-3c7-10 19-11 30 1 6 5 11 19 14 38l4 40h-1c0-10-1-26-4-40-3-19-8-32-13-38-11-11-22-10-30-1l-2 4-3 4c-8 11-13 16-19 16-8 0-10 0-13 2l-7 5c-2 4-5 5-12 8a103 103 0 0 0-5 3 35 35 0 0 0-10 6 75 75 0 0 0-3 4l-1 2c-6 6-9 8-13 10-5 2-11 1-17-4-8-5-9-9-8-14v-3l-6-2c-7 1-9-2-10-8v-1c-1-5-2-6-5-6h-26c-5 0-8 2-9 6v17a177 177 0 0 1 0 11l4 19h-1zm14 0a55 55 0 0 1-1-17v-3l1-11c0-5 1-8 4-8 2-1 5 0 9 3 7 4 14 13 16 19 5 11 15 16 34 16 9 0 14-3 21-8l21-20c7-6 11-8 20-9l12-2 15-11c7-8 13-9 17-5 3 4 6 11 7 21a198 198 0 0 1 1 35h-1a106 106 0 0 0-1-35c-1-10-3-17-7-20-3-4-9-3-16 4-5 6-10 10-15 12l-11 2c-9 1-14 2-21 8l-21 20c-6 6-12 9-21 9-20 0-29-5-34-17-3-6-10-14-17-19-3-2-6-3-8-2-2 0-3 2-3 7l-1 11v5c-1 4 0 8 1 15h-1zm114 0 11-14c5-7 13-13 19-14 7-2 12 1 12 9l-1 19h-1v-19c1-7-3-10-10-8-6 1-13 7-19 13l-10 14h-1zm-10-339 11 8 11 6c11 7 15 13 12 25-1 7-5 11-9 15l-16 6c-12 4-14 4-19 7a60 60 0 0 0-8 4c-11 7-19 7-28 3l-17-11a102 102 0 0 0-5-3c-17-9-35-24-35-32 0-3 2-7 6-10l4-3 4-3 9-9c11-13 27-28 35-32 12-5 19-6 27 0 3 3 6 7 9 14l2 6c2 4 3 6 5 7l2 2zm-4 0-4-8-3-7c-3-6-5-10-8-12-7-6-14-5-26 0-7 3-22 18-33 32l-10 8-4 3a80 80 0 0 0-3 3c-4 4-6 6-6 9 0 7 18 22 33 30l6 3 17 11c8 4 15 4 26-3a62 62 0 0 1 8-4c5-3 7-3 19-7 8-2 12-4 15-6 5-3 8-7 9-13 2-11-1-17-11-23l-11-6a105 105 0 0 1-14-10zM88 242l12-7 3-2 4-1a164 164 0 0 0 18-9 321 321 0 0 1 28-15l21-9c19-9 28-7 49 8 8 5 14 13 17 22s3 17 3 28c0 8 0 13-3 19-4 8-12 16-26 23-24 14-39 28-53 48-8 13-47 45-65 54-21 13-47 23-65 23-10 0-15-5-15-14 0-6 2-14 7-24 2-8 2-13-3-22-3-8-3-10-3-13s1-7 5-11l12-12 11-10c9-12 12-20 18-45 3-15 6-20 15-25l4-3a77 77 0 0 0 6-3zm0 0a78 78 0 0 1-5 4l-5 3c-8 4-11 9-15 24-5 26-8 34-18 45-2 4-5 6-10 11l-12 12c-4 4-6 7-6 10l4 12c5 10 6 15 2 23-4 11-6 18-6 24 0 8 4 13 14 13 18 0 44-10 65-22 17-10 56-42 65-54 14-21 28-35 53-48 13-8 21-15 25-23 3-6 4-11 4-19 0-11-1-19-4-27-3-10-9-17-16-23-21-14-30-16-49-8l-21 10-5 2a320 320 0 0 0-23 12 165 165 0 0 1-18 9l-4 2-3 2a75 75 0 0 0-12 6zm-7 13c7-7 12-9 23-12 6-1 9-3 13-5 3-4 7-5 16-6l5-1c5-2 9-3 13-6 10-9 25-14 36-14 5 0 17 7 26 17 10 11 16 23 12 32-3 9-11 19-23 28-8 7-18 13-25 16-4 2-6 5-10 10l-16 28c-5 9-15 18-30 28a553 553 0 0 1-9 7l-9 6-13 9c-11 11-37 16-43 9-2-2-3-4-2-10 0-10-1-15-5-21a34 34 0 0 0-7-7c-4-3-6-6-7-9-1-7 4-13 14-22l7-6a48 48 0 0 0 6-4c4-5 5-10 7-20a502 502 0 0 0 1-5 245 245 0 0 1 7-31l13-11zm0 0-12 11-1 6-3 10-2 11a340 340 0 0 0-1 7l-1 2c-2 10-3 16-8 20a49 49 0 0 1-5 5l-7 6c-10 8-15 15-14 21l6 9 8 7c4 6 5 11 5 21-1 6 0 8 1 10 6 6 31 1 43-9 2-3 6-6 13-10l8-6 10-7c14-10 24-19 30-27l16-28c3-5 6-8 10-10l25-17c11-9 19-18 23-27 3-9-2-20-13-32-9-9-20-16-25-16-11 0-25 5-36 13-3 3-8 5-13 6l-5 2c-9 1-12 2-16 5-3 3-6 5-12 6-12 3-16 5-24 11zm131-3c0 7-1 11-3 14l-8 11c-6 8-10 11-17 14l-3 2-2 1-6 2c-6 3-9 6-9 11 0 11-19 36-35 45-8 4-21 9-32 12-14 2-23 2-25-3-1-3-4-4-12-6l-10-2c-2-2-4-4-4-7l3-10 3-5 4-6c7-11 10-18 10-27 0-19 11-34 28-43 5-3 9-3 15-2 5 1 6 1 7-2 5-8 7-9 16-9 4 0 7-1 10-3l11-8c10-6 12-7 26-12 7-2 15 1 22 9 7 7 11 17 11 24zm-2 0c0-7-4-16-10-22-7-8-15-11-21-9-13 5-15 6-24 12l-11 7c-4 3-8 4-12 4-8 0-10 1-14 8l-4 3h-6c-5-1-9-1-14 2-15 9-26 23-26 41 0 9-3 17-10 28l-4 6-3 5-3 9c0 4 3 6 12 7h1c8 2 11 4 13 7 3 8 36 0 55-10 14-8 33-33 33-43 0-6 3-10 10-13l6-2 1-1 4-2c7-3 10-5 16-13l9-11c1-3 2-6 2-13zm-37-23a241 241 0 0 1 5-3c3 0 5 0 11 4 15 8 20 22 9 38-4 7-9 9-18 11l-3 1-12 4c-4 2-6 5-8 9-7 25-19 43-36 50-16 7-21 9-28 9-5 1-10 0-15-3a44 44 0 0 1-6-2c-4-2-5-5-4-9l5-21 1-10a464 464 0 0 0 2-9c1-9 2-14 4-18 3-6 6-9 12-11 6-3 10-4 18-4 5 0 7-1 9-2l2-1a31 31 0 0 0 3-4l3-3c3-4 6-5 12-5 4 0 6-1 8-4l4-4a31 31 0 0 1 7-5l5-2a65 65 0 0 0 10-6zm-15 9a30 30 0 0 0-6 5 117 117 0 0 0-4 4c-3 2-5 3-9 3-6 0-8 2-12 6l-2 3a32 32 0 0 1-4 3l-2 2c-2 1-4 2-9 2-7 0-11 1-18 3-5 2-9 6-11 11-2 4-3 9-4 18l-1 5-1 4-2 10-4 21c-1 4 0 6 4 8a45 45 0 0 0 20 5c7 0 11-2 28-8 16-7 28-25 36-50 1-5 4-8 7-10l12-4 3-1c10-2 15-4 19-10 10-16 5-30-9-38-6-3-8-3-10-3l-3 1-3 2a66 66 0 0 1-10 5l-5 3zm-42 33c16-3 26-1 32 6 5 6 2 21-6 35-4 10-10 16-23 25-14 11-35 13-40 4-2-3-3-8-1-15 0-6 1-11 4-23v-1l4-14c1-7 3-12 7-14 3-2 5-2 12-2l11-1zm0 0-11 2c-6 0-9 0-12 2s-5 6-7 13l-3 14v1c-3 12-4 17-4 23-2 7-1 12 0 15 5 7 26 5 40-4 12-9 18-16 23-25 6-14 10-29 6-35-6-6-16-8-32-6zm16 6c7 0 11 3 11 8 1 4 0 8-3 16-2 9-18 26-27 31-7 5-20 6-26 1-4-2-4-12 0-26l2-9a413 413 0 0 1 3-10l1-1c1-5 5-8 10-9 5-2 10-2 18-2h4l7 1zm0 1-7-1h-4c-8 0-13 0-17 2-6 1-9 4-11 8a1278 1278 0 0 1-1 5 285 285 0 0 0-4 15c-4 14-4 23-1 26 6 4 19 3 26-1 8-6 24-23 27-31 2-8 3-12 2-16 0-5-3-7-10-7zm-18 7a31 31 0 0 1 9 1c5 2 9 5 9 10 0 10-10 17-23 21-10 4-13-1-12-16 1-6 4-11 9-14a20 20 0 0 1 8-2zm0 1a19 19 0 0 0-8 2c-4 3-7 7-7 13-2 14 1 19 10 16 12-5 22-12 22-21 0-5-3-7-9-9a28 28 0 0 0-8-1zm80-24c-2 10-14 10-26 3-10-5-14-18-5-22a67 67 0 0 0 4-3l2-1a50 50 0 0 1 4-3c5-2 9-3 14 0 9 3 11 13 7 26zm-20-25a49 49 0 0 0-4 2l-2 2-2 1-3 1c-8 5-4 16 5 22 12 6 23 6 26-3 3-13 1-22-7-26-5-1-9-1-13 1zm18 12c0 6-3 9-7 10-3 1-8 0-11-2h-2l-2-1c-4-3-4-5 1-11 6-9 21-7 21 4zm-1 0c0-5-3-8-8-9-4 0-9 2-12 5-4 6-4 8 0 10l1 1 2 1c4 1 8 2 11 1s6-3 6-9zm196 281c0-13 2-16 18-29a57 57 0 0 1 8-6 79 79 0 0 1 13-6l4-1c9-4 13-7 16-12l3-7a149 149 0 0 0 2-4v-1l1-1c3-8 6-12 13-17a35 35 0 0 0 5-4 46 46 0 0 0 3-4l4-4c3-4 6-6 11-6 3 0 6 0 10-2l9-2c2 0 4 1 7 4l6 6c5 5 10 7 18 7a198 198 0 0 1 12 1c16 1 22 0 25-2 7-6 12-3 12 7 0 11-8 20-19 20-5 0-8 2-9 4s0 6 6 11c13 11 11 20-8 20a22 22 0 0 0-14 6c-4 2-6 5-10 11l-2 3-7 9c-6 6-9 8-13 7h-1a11 11 0 0 0-3-1l-8 7c-5 4-8 6-12 6l-6 4-5 3-5 5a181 181 0 0 1-4 4c-10 7-16 10-21 6-2-2-4-4-4-7v-7c1-6 1-9-2-12-2-3-3-3-3-2l-2 1c-2 3-5 4-9 3-5-1-6-4-5-10v-1l1-6h-6v1c-14 5-16 6-20 6-6 1-9-1-9-8zm2 0c0 5 2 7 7 6 4 0 5-1 19-6l1-1c4-1 6-1 8 1l-1 7v1c-1 6 0 8 3 8 4 1 6 0 7-2l2-2c2-2 4-1 7 3 3 3 3 6 2 13s0 9 4 13c3 2 9 0 17-7l5-4 5-4 4-4 8-4c3 0 6-2 11-6l2-2 2-2 5-3 3 1h1c3 1 6-1 11-6l7-10 2-2 10-12a24 24 0 0 1 16-6c17 0 19-7 6-17-5-5-8-9-6-13 1-3 6-5 11-5 9 0 17-8 17-18 0-9-3-10-8-6-4 3-10 4-27 3h-1l-11-1c-9 0-14-2-19-7l-7-7c-2-2-3-3-5-3l-9 2c-4 2-7 2-10 2-4 0-7 2-10 6l-3 3a48 48 0 0 1-4 5 37 37 0 0 1-5 4c-7 4-9 8-12 16l-1 1v1a532 532 0 0 1-2 4 77 77 0 0 1-3 7c-3 6-8 9-18 13l-4 1-4 2a79 79 0 0 0-8 4 55 55 0 0 0-7 5c-16 13-18 16-18 28zm133-79c3 1 7 2 11 1l9-1 8-2c3 0 5 0 6 2 2 1 2 2 2 4l-5 5c-4 3-6 5-6 7 1 7 2 10 8 16 4 3 6 6 6 9-1 3-5 5-13 5-7 0-13 5-20 15l-5 7a39 39 0 0 1-5 5l-3 2c-3 2-5 2-10 2-7 0-10 2-15 7l-4 6a43 43 0 0 1-9 7l-15 8c-3 3-6 2-8 0l-3-11-2-9c-1-2-2-3-4-3-6 2-9 2-11 1-2-2-3-5-3-11 1-2-1-3-3-3l-10 1h-1c-8 2-11 2-13 1-3-2-1-5 5-12 5-7 10-11 15-14 4-2 6-3 13-4 7-2 10-3 14-9l12-21c3-6 7-9 11-11l9-7 1-1c8-5 13-8 18-8 4 0 6 2 9 5a186 186 0 0 1 5 6 24 24 0 0 0 6 5zm0 0a26 26 0 0 1-10-7l-2-3c-2-3-4-5-8-5-5 0-9 3-17 8l-1 1-10 6c-4 3-7 6-10 11l-13 21c-3 6-7 8-14 10a42 42 0 0 0-28 17c-5 7-6 10-4 11s4 1 12-1h1l10-1c3 0 5 1 5 4-1 6 0 9 2 10 1 1 4 1 10-1 2 0 4 1 5 4l2 9 3 10c1 2 3 3 7 1l15-9a42 42 0 0 0 8-7 48 48 0 0 0 5-5c4-6 7-8 15-8l10-1 3-2a38 38 0 0 0 4-6l5-7c8-10 13-15 21-15 7 0 11-1 12-4 0-2-2-6-5-9-7-5-8-8-8-16 0-3 1-5 5-8l5-5-1-3c-3-1-5-1-14 1l-9 1c-4 1-8 0-11-2zm-28-3c5-3 9-3 13 1l3 3c4 4 8 5 14 5 11 0 14 2 16 9l2 5 2 8c3 5 3 8 2 10s-2 2-5 3l-4 1-5 2-3 4-3 4c-8 9-13 12-20 12-4 0-7 2-11 4l-15 14a73 73 0 0 1-9 5c-4 3-7 4-9 3l-2-6a53 53 0 0 0 0-2c0-4-2-7-7-7-7 0-9-1-10-5-1-5-2-7-6-10-4-2-5-5-2-8l12-7 11-6a39 39 0 0 0 5-7l3-5 2-4 3-5c5-11 10-15 23-21zm-23 21-2 5-2 4a53 53 0 0 1-3 6 40 40 0 0 1-6 6c-2 2-4 4-11 7l-11 7c-2 2-2 4 1 7 5 3 6 5 7 10 1 4 2 4 9 4 5 0 8 3 8 8v2l2 5c1 1 3 0 8-2a72 72 0 0 0 9-6l15-13c4-3 7-5 11-5 7 0 12-3 19-12l3-4a60 60 0 0 1 4-3 12 12 0 0 1 5-3l4-1 4-2c1-2 1-5-1-10a84 84 0 0 1-3-8l-2-5c-2-6-4-8-15-8-6 0-11-1-15-5l-3-3c-4-4-7-4-12-2-12 7-17 11-23 21zm56 12c-3 7-16 15-26 15-6 0-8-3-8-7l4-11 2-2a45 45 0 0 1 2-3c3-5 8-8 13-8 9 0 16 10 13 16zm-1 0c3-6-3-15-12-15-5 0-9 3-12 8l-2 2-2 3c-2 2-3 6-4 10 0 4 2 6 7 6 9 0 23-8 25-14zm-69 20 6 2c2 2 2 4-1 6-5 5-13 5-13-1 0-5 4-7 8-7zm0 1c-4 0-7 2-7 6 1 5 7 5 12 1 2-2 2-4 0-5l-5-2zm29-225 20 9a24 24 0 0 1 7 6 45 45 0 0 1 3 5c3 4 0 7-6 11-5 4-12 7-22 10l-21 7c-6 3-15 1-25-5l-13-9-11-8a81 81 0 0 0-8-5c-5-3-5-7 0-13l18-16a230 230 0 0 0 9-8 95 95 0 0 0 5-4c5-6 9-7 15-4l7 5 8 8 14 11zm0 0c-5-2-9-5-15-10l-8-8c-2-3-5-4-7-5-5-3-9-2-14 3a96 96 0 0 1-4 5l-9 8a79 79 0 0 0-18 16c-5 5-5 8-1 11l9 5 11 8a155 155 0 0 0 13 9c10 6 18 8 24 6l21-8c10-3 17-6 22-9 6-4 8-8 6-11a44 44 0 0 0-4-5 23 23 0 0 0-7-5l-19-10zm-39 8 8 1 9 4 13 6c9 2 11 6 9 9s-8 6-18 9c-8 3-15 3-21 0-5-3-9-7-12-13-3-4-3-8 0-11 2-2 7-4 12-5zm0 1-12 5c-2 2-2 6 0 10l12 12c6 3 13 3 21 1l17-9c2-3 0-6-8-9l-13-5-9-4a18 18 0 0 0-8-1zM203 500c0 5-2 8-5 9-2 1-4 2-11 2l-1-1c-10 1-17-7-17-15s10-11 19-5c3 1 4 2 9 2 4 1 6 3 6 8zm-1 0c0-5-1-6-5-7l-9-3c-9-4-19-2-19 5 1 7 8 15 17 15h1c6 0 9-1 11-2s3-3 3-8zm33-117 16-5 20-5c20-5 32-9 39-13 15-10 37-34 44-48 2-5 4-7 7-6l5 1a51 51 0 0 1 3 1l1 1 13 3c7 0 10 4 8 8-1 4-6 9-11 12-8 5-12 18-12 34 0 4-1 6-3 8l-9 5h-1l-9 4c-5 5-12 7-20 7l-4 4-1 2c-3 4-5 5-9 5-8 0-11 1-22 7-5 3-9 4-14 4h-1l-11 1a73 73 0 0 0-9 4 1279 1279 0 0 0-29 12c-12 4-18 3-27-4-3-1-3-4-1-7 1-3 4-5 8-9l2-2 6-5 5-8 6-7 10-4zm0 0-9 5c-3 2-4 3-6 7s-3 5-6 7l-6 6-1 2-8 8c-2 3-2 5 0 7 9 6 15 7 27 4l19-8 10-5a74 74 0 0 1 9-3c3-2 6-2 11-2h1c5 0 9-1 14-3 11-7 14-7 22-7 3 0 5-2 8-6l1-2c2-2 3-3 5-3 8 0 15-2 20-7 1-2 4-3 9-5h1c8-4 12-6 12-12 0-17 3-29 12-34 5-3 9-8 10-12 2-4 0-6-7-6-4 0-8-2-13-4-8-4-7-3-9-3-2-1-4 1-7 5-7 14-29 38-44 48-7 5-19 9-38 14l-21 5-16 4zm17 5 7-1 9-1c2 1 3 3 3 6 1 4-2 7-6 10l-14 7h-3l-9 6h-1c-8 6-13 9-23 9-5 0-7-3-6-6l8-11 4-5 12-10 1-2c3-2 6-3 14-3h4zm0 1-4-1c-8 0-10 1-13 3l-2 1-11 11a135 135 0 0 0-4 4l-8 11c-1 3 1 4 5 4 9 0 14-2 22-7l1-1 10-5 2-1 14-7c4-2 7-5 7-9 0-3-1-4-3-5l-9 1h-7zm112-46c-1 6-2 7-1 13 2 7-1 16-5 16a17 17 0 0 0-2 1l-7-1c-7-1-10-5-10-13 0-14 2-20 8-26a22 22 0 0 0 2-4l3-5c4-8 8-12 12-10l4 1 1 1a20 20 0 0 0 3 2h11c2 1 2 3-1 5a216 216 0 0 1-4 4l-14 16zm0 0c1-4 3-6 14-17l4-3c2-2 2-3 1-4h-6l-5-1-3-1-2-1a12 12 0 0 0-3-2c-4 0-7 3-11 10l-3 5a23 23 0 0 1-3 4c-5 7-7 12-7 26 0 8 3 11 9 12l7 1a371 371 0 0 0 1 0h1c3 0 6-9 5-16-2-6-1-8 1-13zm-10 12 3 2c2 2 2 3 0 7-4 5-9 3-9-5 0-4 1-6 2-6l4 2zm-1 2-2-2-1 4c0 6 3 7 5 3 2-2 2-2 1-3l-3-2zm223-130 6-3a49 49 0 0 0 9-3c4-3 6-2 7 0l-2 13c-2 14-9 26-21 36-4 4-7 5-9 3s-4-5-5-11l-2-7a114 114 0 0 0-2-9c-3-7-4-11-3-13s3-2 6-2l3-1h4a29 29 0 0 0 9-3zm0 0a38 38 0 0 1-9 4 109 109 0 0 1-4 1h-3c-3 0-4 0-5 2l2 12a115 115 0 0 1 3 9l2 7c1 6 3 9 4 10 2 2 5 1 9-2 12-10 18-23 21-36l1-12c-1-2-2-2-6-1a50 50 0 0 1-9 4 35 35 0 0 0-6 2zm-4 7 4-1a241 241 0 0 1 8-4h6l1 5v1c0 6-5 17-11 23-5 4-8 4-10 2-2-1-4-4-7-13-2-4-2-8-1-10l6-3h4zm-2 2h-2l-4 2c-1 2-1 4 1 9l6 12c2 1 4 0 7-3 7-5 11-16 11-21v-1l-1-3h-4a38 38 0 0 0-4 2l-3 1a20 20 0 0 1-5 2h-2zm-228-89-7 12-3 3a67 67 0 0 0-2 3 46 46 0 0 0-5 7c-3 6-7 11-13 14l-16 8c-11 4-16 1-27-16-3-5-9-9-18-13l-14-6c-5-2-7-4-7-6 1-2 6-4 16-6 16-3 27-4 40-3h12l6-3 3-2c10-6 13-8 18-9 6-3 10-4 14-2 7 4 7 8 3 19zm-2 0c4-11 4-14-2-17-3-2-7-1-13 1l-17 10-2 2a23 23 0 0 1-7 3h-13a138 138 0 0 0-51 6l-3 2 6 3 14 6c10 4 16 8 19 13 10 17 15 20 25 16l15-7c5-4 9-8 12-13l5-8a69 69 0 0 1 3-4l2-3c4-4 6-6 7-10zm-7-1c-8 13-18 22-33 25-8 2-12 0-13-5s2-9 6-9c3 0 6-2 15-10l4-2c4-4 8-6 11-6 5-2 9-3 11-2 3 1 2 4-1 9zm0 0c2-5 3-7 1-8s-6 0-11 1l-10 6-4 3c-10 8-13 10-16 10s-5 4-5 7c1 5 5 7 12 6 14-4 25-13 33-25zM461 34c14 4 21 4 32 0l11-7 11-7c4-2 8-3 11-1 4 1 6 12 7 28 0 14-1 29-3 34-1 5-5 8-11 10a42 42 0 0 1-13 2c-6 0-9 2-12 8l-2 3c-2 2-3 4-5 4l-4 2-2 1-3 2c-6 3-12 5-17 5-6 0-10 2-14 5l-5 5a533 533 0 0 1-17 8l-2 1-3 1c-5 1-11 0-17-4l-6-4-9-1-2-1c-5 0-8-1-10-3-5-3-7-7-6-12s7-11 15-17a169 169 0 0 1 6-5 592 592 0 0 0 18-15l2-2 8-7c3-3 4-6 7-13l1-2c3-7 4-10 7-12l8-8c4-3 8-3 19 2zm0 0c-11-4-15-4-19-1l-8 7-6 12-1 2c-3 7-5 11-8 13a142 142 0 0 0-9 9 97 97 0 0 1-24 21c-9 6-14 11-15 16-1 4 1 8 5 12l10 2 2 1c5 0 7 0 9 2l6 3c7 4 12 5 17 4h3a67 67 0 0 1 2-1l6-2 11-6 4-5c4-4 9-7 15-7 5 0 10-1 17-4l2-1 3-2 4-1c1-1 3-2 4-5l2-3c3-5 7-8 13-8 4 0 9 0 13-2 5-2 9-5 11-9l2-34c-1-16-3-26-6-28-3-1-7 0-11 2l-11 7-11 6c-11 6-18 6-32 0zm14 21 10-1 15-7 6-6 5-5c3-3 7-3 10 1 6 9 5 16 0 27a71 71 0 0 0-3 6l-1 3v1l-4 5c-3 2-5 3-12 4l-3 1c-6 1-10 2-12 6-4 4-8 7-15 10l-2 1-2 1a60 60 0 0 0-7 4l-10 3c-8 2-12 4-17 10-5 5-10 7-17 6-5 0-11-3-23-9-7-3-7-8-2-14 3-4 4-4 19-16 9-6 13-11 17-15l5-8c6-19 13-22 23-16l7 5c3 2 7 3 13 3zm0 2c-7 0-10-1-14-3l-7-5c-9-6-15-3-20 14l-5 9c-4 5-9 9-17 15l-19 17c-5 5-5 8 0 10 13 6 18 9 23 9 6 1 11-1 15-6 6-6 10-7 19-10 4-1 6-1 8-3a62 62 0 0 1 8-4l2-1h2c7-4 11-6 14-11 3-3 7-5 14-6l3-1c6-1 8-2 10-4l4-4v-1l2-3 2-5c5-11 6-17 0-25-2-4-4-4-7-1l-4 4c-4 4-5 6-8 7l-15 7-10 1zm-13 9c6 3 11 3 19 0l7-2c3 0 4 2 5 5 2 5-2 8-12 13l-20 7c-8 3-14 7-19 10-13 10-18 12-23 10a25 25 0 0 1-4-2l-2-1a90 90 0 0 0-2-2c-4-2-3-4 1-7l13-10c7-6 12-11 15-18 3-9 4-12 6-14 2-1 4 0 7 2l4 4 5 5zm0 0-6-4-4-4c-3-2-4-3-5-2-2 1-4 5-7 13-2 7-7 13-14 19l-14 10c-3 3-3 4-1 6l3 1 2 1 3 2c5 2 10 0 23-9l19-11 20-7c9-4 13-8 12-12-1-3-3-4-5-4l-7 2c-8 3-13 4-19-1z"/></svg>