<svg xmlns="http://www.w3.org/2000/svg" xmlns:xlink="http://www.w3.org/1999/xlink" width="319.97" height="112.83" viewBox="0 0 84.66 29.85"><defs><radialGradient xlink:href="#a" id="c" cx="79.26" cy="-78.98" r="128.08" fx="79.26" fy="-78.98" gradientTransform="matrix(1,0,0,0.32878297,0,-53.010543)" gradientUnits="userSpaceOnUse"/><radialGradient xlink:href="#a" id="d" cx="79.26" cy="-78.98" r="128.08" fx="79.26" fy="-78.98" gradientTransform="matrix(1,0,0,0.32878297,0,-53.010543)" gradientUnits="userSpaceOnUse"/><radialGradient xlink:href="#a" id="e" cx="79.26" cy="-78.98" r="128.08" fx="79.26" fy="-78.98" gradientTransform="matrix(1,0,0,0.32878297,0,-53.010543)" gradientUnits="userSpaceOnUse"/><radialGradient xlink:href="#a" id="f" cx="79.26" cy="-78.98" r="128.08" fx="79.26" fy="-78.98" gradientTransform="matrix(1,0,0,0.32878297,0,-53.010543)" gradientUnits="userSpaceOnUse"/><radialGradient xlink:href="#a" id="g" cx="79.26" cy="-78.98" r="128.08" fx="79.26" fy="-78.98" gradientTransform="matrix(1,0,0,0.32878297,0,-53.010543)" gradientUnits="userSpaceOnUse"/><radialGradient xlink:href="#a" id="h" cx="79.26" cy="-78.98" r="128.08" fx="79.26" fy="-78.98" gradientTransform="matrix(1,0,0,0.32878297,0,-53.010543)" gradientUnits="userSpaceOnUse"/><radialGradient xlink:href="#a" id="i" cx="79.26" cy="-78.98" r="128.08" fx="79.26" fy="-78.98" gradientTransform="matrix(1,0,0,0.32878297,0,-53.010543)" gradientUnits="userSpaceOnUse"/><radialGradient xlink:href="#a" id="j" cx="79.26" cy="-78.98" r="128.08" fx="79.26" fy="-78.98" gradientTransform="matrix(1,0,0,0.32878297,0,-53.010543)" gradientUnits="userSpaceOnUse"/><radialGradient xlink:href="#a" id="k" cx="79.26" cy="-78.98" r="128.08" fx="79.26" fy="-78.98" gradientTransform="matrix(1,0,0,0.32878297,0,-53.010543)" gradientUnits="userSpaceOnUse"/><radialGradient xlink:href="#a" id="l" cx="79.26" cy="-78.98" r="128.08" fx="79.26" fy="-78.98" gradientTransform="matrix(1,0,0,0.32878297,0,-53.010543)" gradientUnits="userSpaceOnUse"/><radialGradient xlink:href="#a" id="m" cx="79.26" cy="-78.98" r="128.08" fx="79.26" fy="-78.98" gradientTransform="matrix(1,0,0,0.32878297,0,-53.010543)" gradientUnits="userSpaceOnUse"/><radialGradient xlink:href="#a" id="n" cx="79.26" cy="-78.98" r="128.08" fx="79.26" fy="-78.98" gradientTransform="matrix(1,0,0,0.32878297,0,-53.010543)" gradientUnits="userSpaceOnUse"/><radialGradient xlink:href="#a" id="o" cx="79.26" cy="-78.98" r="128.08" fx="79.26" fy="-78.98" gradientTransform="matrix(1,0,0,0.32878297,0,-53.010543)" gradientUnits="userSpaceOnUse"/><radialGradient xlink:href="#a" id="p" cx="79.26" cy="-78.98" r="128.08" fx="79.26" fy="-78.98" gradientTransform="matrix(1,0,0,0.32878297,0,-53.010543)" gradientUnits="userSpaceOnUse"/><radialGradient xlink:href="#b" id="q" cx="79.26" cy="-78.98" r="128.08" fx="79.26" fy="-78.98" gradientTransform="matrix(1,0,0,0.32878297,0,-53.010543)" gradientUnits="userSpaceOnUse"/><radialGradient xlink:href="#b" id="r" cx="79.26" cy="-78.98" r="128.08" fx="79.26" fy="-78.98" gradientTransform="matrix(1,0,0,0.32878297,0,-53.010543)" gradientUnits="userSpaceOnUse"/><radialGradient xlink:href="#b" id="s" cx="79.26" cy="-78.98" r="128.08" fx="79.26" fy="-78.98" gradientTransform="matrix(1,0,0,0.32878297,0,-53.010543)" gradientUnits="userSpaceOnUse"/><radialGradient xlink:href="#b" id="t" cx="79.26" cy="-78.98" r="128.08" fx="79.26" fy="-78.98" gradientTransform="matrix(1,0,0,0.32878297,0,-53.010543)" gradientUnits="userSpaceOnUse"/><radialGradient xlink:href="#b" id="u" cx="79.26" cy="-78.98" r="128.08" fx="79.26" fy="-78.98" gradientTransform="matrix(1,0,0,0.32878297,0,-53.010543)" gradientUnits="userSpaceOnUse"/><radialGradient xlink:href="#b" id="v" cx="79.26" cy="-78.98" r="128.08" fx="79.26" fy="-78.98" gradientTransform="matrix(1,0,0,0.32878297,0,-53.010543)" gradientUnits="userSpaceOnUse"/><radialGradient xlink:href="#b" id="w" cx="79.26" cy="-78.98" r="128.08" fx="79.26" fy="-78.98" gradientTransform="matrix(1,0,0,0.32878297,0,-53.010543)" gradientUnits="userSpaceOnUse"/><radialGradient xlink:href="#b" id="x" cx="79.26" cy="-78.98" r="128.08" fx="79.26" fy="-78.98" gradientTransform="matrix(1,0,0,0.32878297,0,-53.010543)" gradientUnits="userSpaceOnUse"/><radialGradient xlink:href="#b" id="y" cx="79.26" cy="-78.98" r="128.08" fx="79.26" fy="-78.98" gradientTransform="matrix(1,0,0,0.32878297,0,-53.010543)" gradientUnits="userSpaceOnUse"/><radialGradient xlink:href="#b" id="z" cx="79.26" cy="-78.98" r="128.08" fx="79.26" fy="-78.98" gradientTransform="matrix(1,0,0,0.32878297,0,-53.010543)" gradientUnits="userSpaceOnUse"/><radialGradient xlink:href="#b" id="A" cx="79.26" cy="-78.98" r="128.08" fx="79.26" fy="-78.98" gradientTransform="matrix(1,0,0,0.32878297,0,-53.010543)" gradientUnits="userSpaceOnUse"/><radialGradient xlink:href="#b" id="B" cx="79.26" cy="-78.98" r="128.08" fx="79.26" fy="-78.98" gradientTransform="matrix(1,0,0,0.32878297,0,-53.010543)" gradientUnits="userSpaceOnUse"/><radialGradient xlink:href="#b" id="C" cx="79.26" cy="-78.98" r="128.08" fx="79.26" fy="-78.98" gradientTransform="matrix(1,0,0,0.32878297,0,-53.010543)" gradientUnits="userSpaceOnUse"/><radialGradient xlink:href="#b" id="D" cx="79.26" cy="-78.98" r="128.08" fx="79.26" fy="-78.98" gradientTransform="matrix(1,0,0,0.32878297,0,-53.010543)" gradientUnits="userSpaceOnUse"/><linearGradient id="a"><stop offset="0" stop-color="#ecd223"/><stop offset="1" stop-color="#ffbe25"/></linearGradient><linearGradient id="b"><stop offset="0" stop-color="#f3fb00"/><stop offset="1" stop-color="#ffa20c" stop-opacity=".51"/></linearGradient></defs><g fill="url(#c)" transform="translate(-26.458336,-74.347921) translate(-83.038767,-118.14599) matrix(0.33038112,-0.01143137,0.01143137,0.33038112,126.85483,233.4543)"><path fill="url(#d)" d="m116.13-99.88-2.89 5.24a268.2 268.2 0 0 1-3.27 5.83c-.21.33-.38.7-.38.85v.25l.72.1c.4.07 1.27.08 1.92.05l4.83-.26 3.64-.2v-.29c0-.16-.31-1.42-.7-2.8l-1.3-4.74-.61-2.22-.35-.22a1.8 1.8 0 0 0-.8-.23h-.46l-.17-.68zm16.3 1.07-2.2.08-2.2.08-2.74 4.9a96.5 96.5 0 0 0-2.73 5.09v.2h.39c.7 0 .37.78-.53 1.25l-.53.28-2.58.19-2.58.19v.56c0 .31.13 1.33.28 2.25l.27 1.69.55 1.1c.3.6.67 1.23.82 1.41l.26.33h3.01l.41-.33c.22-.18.83-1.04 1.34-1.91a424.66 424.66 0 0 0 7.9-14.46l1.34-2.41-.24-.25zm-20.36 11.92c-.39 0-.84.05-1.77.17l-1.53.18-.39.55c-.2.3-.38.7-.38.89v.34h.9l-.3.3a4.4 4.4 0 0 1-.89.59l-.6.3-.74 1.22-.75 1.22-.17.83-.16.83h1.02c.9-.01 1.63-.13 3.97-.66l.57-.13 1.74-2.72a62.7 62.7 0 0 0 1.9-3.14l.15-.42-1.14-.18a8.15 8.15 0 0 0-1.43-.17z"/><path fill="url(#e)" d="m86.32-85.8-.82-1.13v-1.26l.89-2.03c.5-1.11 1.38-3.04 1.96-4.27 1.35-2.85 2.23-4.78 3.62-7.93l1.1-2.5 1.44.07c.79.04 2.63.19 4.08.33 5.06.47 9.28.75 11.8.76h2.54l.81.29.81.28.74 1.06.73 1.06-.3.2c-.18.1-2.14.81-4.36 1.58l-6.4 2.24-2.35.84-.1.28-.1.28.6.3c.34.18 2.63 1.1 5.1 2.06 2.48.97 4.6 1.84 4.7 1.94l.2.18-1.7 1.68-1.69 1.68-1.87-.57-1.88-.57v-.52h1.04c1.19 0 1.87-.2 1.87-.57v-.26l-2.98.05-2.97.05-1.83-.58c-1-.32-3.1-1.17-4.65-1.88l-2.84-1.3h-1.03l-.57 1.12-2.4 4.55-1.8 3.42-.29.1-.27.09zm19.22-5.98.1-.33h-1.09v.83l.44-.09.44-.08zm-6.55-7.1c1.53-.36 3.7-.97 4.84-1.34l2.07-.68-.1-.3-.1-.3-1.04-.19a40 40 0 0 0-4.35-.2l-3.3-.01-1 .27-.98.28-.27.5-.27.5v1.6l.47.27c.66.38.94.36 4.03-.4z"/><path fill="url(#f)" d="m155.1-91.56 1.65-1.5v-.33c0-.19-1.25-2.14-2.79-4.34l-2.78-4h-7.89l-.14-.24-.15-.24.42-.34.41-.34 3.02-.12 3.02-.12v-.17c0-.19-2.96-4.5-5.16-7.52l-1.31-1.8-6.62.17c-3.64.1-7.87.28-9.4.42-1.52.13-3.46.24-4.3.24h-1.52v.17c0 .1.32.68.72 1.3l.71 1.13 4.66.09 4.65.09.78.51.79.52 3.23.11 3.23.11.54.92.54.91-.15.25-.15.24h-12.93v.33c0 .18.23.71.51 1.17l.52.85.52.28c.6.31 2.18.58 8.77 1.45l4.63.62.72.29.72.28.8 1.27.79 1.27v.92h-1.11l.15.38.14.37-.4.16c-.22.08-.92.15-1.55.15h-1.16l-.13-.21-.13-.21.18-.29c.1-.16.42-.34.71-.4l.53-.11-1.85-.31a783.53 783.53 0 0 0-11.6-1.83l-1.03-.16.2.64c.1.35.56 1.34 1.02 2.22l.83 1.59 3.44.72c5.38 1.13 9.2 1.96 13.22 2.85 2.04.45 4.18.87 4.77.95l1.06.13zm-8.64-4.19-.3-.36.37-.3.37-.3 1.95.17c1.07.1 2.22.27 2.54.4l.6.21v.54h-5.23zm-5.77-.85.16-.17.47.18.47.17-.39.24-.39.24-.24-.25-.25-.25zm7.45-7.28-.18-.28.3-.3.3-.3.28.3.3.3-.18.28c-.1.16-.28.3-.4.3-.14 0-.32-.14-.42-.3zm-7.73-.19-.1-.31h.83v.84l-.31-.1a.75.75 0 0 1-.42-.43zm2.12-.77-.1-.34h1.05c1.2 0 1.9.21 1.9.58v.25l-1.37-.08-1.37-.08z"/><path fill="url(#g)" d="m64.23-89.83-1.65-1.5v-.35c0-.35 2.47-4.14 4.47-6.85l1.1-1.49h7.63l.17-.28.18-.3-.3-.28-.28-.3-3.16-.1-3.15-.12.7-1.1c.4-.61 1.83-2.7 3.2-4.63l2.49-3.52.35-.13.35-.14 8.54.34c4.7.18 9.52.38 10.73.44l2.2.11-.08.18-.74 1.27-.65 1.1-4.77.1-4.77.1-.77.51-.76.52-3.22.1-3.21.1-.46.8c-.24.43-.45.95-.45 1.15v.38h13.23v.33c0 .18-.23.71-.51 1.17l-.52.85-.53.28c-.6.33-2.22.6-8.1 1.33l-4.23.53-1.34.4-1.35.4-.7 1.3c-.4.7-.7 1.48-.7 1.71v.43h1.11l-.15.4-.16.39.62.15c.34.09 1 .12 1.5.07l.87-.08.1-.33.11-.33-.59-.22-.59-.22 1.83-.32a628 628 0 0 1 11.55-1.81l1-.14-.55 1.42c-.3.78-.76 1.78-1.01 2.21l-.46.8-3.43.7c-3.4.7-5.94 1.25-13.35 2.88-2.1.47-4.25.9-4.76.97l-.92.12zm8.44-4.12.53-.28-.32-.39-.32-.38-2.02.16-2 .16-.73.27-.73.28.15.23.14.23h4.77zm5.98-.93-.17-.17-.47.18-.47.17.39.24.39.24.25-.25.24-.25zm-7.46-7.28.18-.28-.3-.3-.29-.3-.3.3-.29.3.18.28c.1.16.28.3.41.3.13 0 .31-.14.41-.3zm7.73-.19.1-.31h-1.1v.22c0 .61.8.69 1 .1zm-2.11-.79.11-.34-1.4.08-1.4.08-.1.34-.12.35 1.4-.08 1.4-.08z"/><path fill="url(#h)" d="m34.21-74.4-3.23-2.03-.1-.57-.12-.58 5.88-7.33c15.14-18.87 20.27-24.8 23.9-27.64l1.4-1.09 1.71-2.57a25.63 25.63 0 0 1 2.98-3.72l1.26-1.16-.67.97c-.36.52-1.09 1.84-1.61 2.91l-.95 1.96-.25 1.9a11.2 11.2 0 0 1-.63 2.66c-.53 1.04-5.3 7.45-8.12 10.89l-2.3 2.8.47.47.47.47 4.8.13 4.8.13.8 1.55.8 1.55-.33.27c-.46.37-2.58 1.94-16.05 11.8l-7.7 5.65a41.66 41.66 0 0 1-3.75 2.6c-.12 0-1.68-.91-3.46-2.03zm9.7-8.38c1.31-.84 2.58-1.54 2.8-1.53h.43l.96-1.17.96-1.16 1.93-.48 1.92-.47.14-.95.13-.96.95-.87.95-.88-.24-.38-.24-.39h-4.98l-1.66 1.53-1.66 1.54-2.77.25-2.77.26.14.41.13.41 1.9.4 1.9.4-.95.68-.96.67h-1.38l.46.72.45.73-.83 1.06c-1.73 2.2-.92 2.26 2.3.18z"/><path fill="url(#i)" d="M-40.13-81.66c-.96-.38-1.95-.84-2.18-1.03-.24-.2-.93-.46-1.53-.59-.6-.12-1.97-.73-3.04-1.34l-1.94-1.1.25-.25.25-.25h5.2l3.2-1.25 3.2-1.25 2 .98 2 .98h1.43v-.3c0-.16-.73-.81-1.64-1.45l-1.63-1.15v-.79l6.82-3.3A77607.53 77607.53 0 0 0-5.82-104.3a698.28 698.28 0 0 0 19.04-9.5l2.48-1.34h.66c.36 0 1.26-.26 2-.57l1.36-.56 2.42 1.44c1.33.79 2.74 1.78 3.12 2.21l.71.78-.81.22c-.45.11-2 .78-3.44 1.48l-2.62 1.28-2.37-.03-2.36-.03-1.38.9c-1.47.97-11.81 6.7-12.08 6.7-.34 0-18.22 9.9-18.67 10.35l-.48.46 2.19.23 2.18.23 10.85-.36c5.96-.2 12.61-.53 14.78-.73l3.93-.38 1.8 1.31 1.78 1.32.68-.22.68-.22.39.47.38.46-.19.98-.19.99-1.19 1.38-1.2 1.38-19.77.8a1303.9 1303.9 0 0 0-27.78 1.35c-9.7.69-9.07.7-11.21-.14z"/><path fill="url(#j)" d="m174.2-73.16.22-1.3-.36-2.94-.35-2.94-.73-1.06c-.4-.59-.9-1.55-1.1-2.13a483.65 483.65 0 0 1-4.8-17.22l-.2-1.06.76-.2c.42-.12 1.73-.31 2.91-.43a43.2 43.2 0 0 0 4.34-.72l2.18-.5 1.25-1.49 1.25-1.48v-1.57l-.89.4-.89.41-5.5.56-5.5.57-1.14-.3-2.11-.6-.98-.3-.75.87-.75.85-.87.23c-.47.12-2.81.44-5.2.7l-4.33.48-1.65.64c-.92.35-2.83.9-4.25 1.21l-2.76.63c-.09.03.15.22.52.41l.68.36 1.91-.35 5.55-1.04 3.64-.68 1.38.94 1.38.95 3.17.18 3.18.18.75 1.98a338.7 338.7 0 0 1 2.94 8.36 913.55 913.55 0 0 0 5.2 14.9c.4 1.18.95 2.5 1.21 2.96l.48.83z"/><path fill="url(#k)" d="M178.2-90.55h.78l.17.35.16.36h1.02v-.3c0-.16-.3-.49-.7-.72l-.7-.43.56-.52c.65-.6 11.92-8.15 17.84-11.94 4.32-2.76 6.2-3.76 7.1-3.76.7 0 1.84.8 2.44 1.69l.47.69-1.32.76-1.32.76-1.27.22-1.26.22-2.52 1.67c-5.96 3.96-12.43 8.73-12.43 9.18v.28l.93.23.94.24 5.35-.22 5.35-.22 1.37-.35 1.38-.35 1 .9c.55.5 1.15.9 1.33.9h.34v1.3l-.65.81-.65.82-2.33.27c-1.28.15-5.42.38-9.2.5l-6.88.24-3.94.5z"/><path fill="url(#l)" d="M-4.88-42.1a3011.8 3011.8 0 0 1 15.03-18.58l10.87-13.35v-1.47h-2l-1.42-1.12a9.76 9.76 0 0 1-2.22-2.65l-.8-1.54v-5.23l1.21-1.1c1.36-1.24 3.27-2.3 4.13-2.3h.57v11.15l.92.35.93.36.62-.86.63-.86-.25-.96-.25-.95 4.04-3.18 4.03-3.18 1.5-.34c.83-.18 2.35-.36 3.39-.4l1.87-.05.76.49.77.48-5.58 6.88c-3.07 3.8-10.02 12.2-15.44 18.7l-9.87 11.8-3.41 1.7A58.68 58.68 0 0 0-.55-45l-2.3 1.58-2.63 3.28c-1.45 1.8-2.84 3.28-3.1 3.28h-.46z"/><g fill="url(#m)" transform="translate(-62.026434,-42.516721)"><path fill="url(#n)" d="m258.37-71.2-.15.17h.15z"/><path fill="url(#o)" d="m253.12-70.76.03.07-.23 1.45 1.3-.9h.58l.23-.27v-.19c0-.2 2.18-3.25 1.73-3.58l-3.17 3.11-.47.3z"/><path fill="url(#p)" d="m252.61-65.63 1.65-3.1-1.83 1.59-1.83.42-5.24 5.8L235.5-49l-3.55 4.4.49.3.48.3 1.2-.03 2.15-.25.96-.22 2.57-2.02 2.57-2.03-.16-.6-.16-.61.4-.55.4-.55.84-2.27 6.31-8.01z"/></g></g><g fill="url(#q)" transform="translate(-26.458336,-74.347921) translate(-83.038767,-118.14599) matrix(0.33038112,-0.01143137,0.01143137,0.33038112,126.82066,233.27502)"><path fill="url(#r)" d="m116.13-99.88-2.89 5.24a268.2 268.2 0 0 1-3.27 5.83c-.21.33-.38.7-.38.85v.25l.72.1c.4.07 1.27.08 1.92.05l4.83-.26 3.64-.2v-.29c0-.16-.31-1.42-.7-2.8l-1.3-4.74-.61-2.22-.35-.22a1.8 1.8 0 0 0-.8-.23h-.46l-.17-.68zm16.3 1.07-2.2.08-2.2.08-2.74 4.9a96.5 96.5 0 0 0-2.73 5.09v.2h.39c.7 0 .37.78-.53 1.25l-.53.28-2.58.19-2.58.19v.56c0 .31.13 1.33.28 2.25l.27 1.69.55 1.1c.3.6.67 1.23.82 1.41l.26.33h3.01l.41-.33c.22-.18.83-1.04 1.34-1.91a424.66 424.66 0 0 0 7.9-14.46l1.34-2.41-.24-.25zm-20.36 11.92c-.39 0-.84.05-1.77.17l-1.53.18-.39.55c-.2.3-.38.7-.38.89v.34h.9l-.3.3a4.4 4.4 0 0 1-.89.59l-.6.3-.74 1.22-.75 1.22-.17.83-.16.83h1.02c.9-.01 1.63-.13 3.97-.66l.57-.13 1.74-2.72a62.7 62.7 0 0 0 1.9-3.14l.15-.42-1.14-.18a8.15 8.15 0 0 0-1.43-.17z"/><path fill="url(#s)" d="m86.32-85.8-.82-1.13v-1.26l.89-2.03c.5-1.11 1.38-3.04 1.96-4.27 1.35-2.85 2.23-4.78 3.62-7.93l1.1-2.5 1.44.07c.79.04 2.63.19 4.08.33 5.06.47 9.28.75 11.8.76h2.54l.81.29.81.28.74 1.06.73 1.06-.3.2c-.18.1-2.14.81-4.36 1.58l-6.4 2.24-2.35.84-.1.28-.1.28.6.3c.34.18 2.63 1.1 5.1 2.06 2.48.97 4.6 1.84 4.7 1.94l.2.18-1.7 1.68-1.69 1.68-1.87-.57-1.88-.57v-.52h1.04c1.19 0 1.87-.2 1.87-.57v-.26l-2.98.05-2.97.05-1.83-.58c-1-.32-3.1-1.17-4.65-1.88l-2.84-1.3h-1.03l-.57 1.12-2.4 4.55-1.8 3.42-.29.1-.27.09zm19.22-5.98.1-.33h-1.09v.83l.44-.09.44-.08zm-6.55-7.1c1.53-.36 3.7-.97 4.84-1.34l2.07-.68-.1-.3-.1-.3-1.04-.19a40 40 0 0 0-4.35-.2l-3.3-.01-1 .27-.98.28-.27.5-.27.5v1.6l.47.27c.66.38.94.36 4.03-.4z"/><path fill="url(#t)" d="m155.1-91.56 1.65-1.5v-.33c0-.19-1.25-2.14-2.79-4.34l-2.78-4h-7.89l-.14-.24-.15-.24.42-.34.41-.34 3.02-.12 3.02-.12v-.17c0-.19-2.96-4.5-5.16-7.52l-1.31-1.8-6.62.17c-3.64.1-7.87.28-9.4.42-1.52.13-3.46.24-4.3.24h-1.52v.17c0 .1.32.68.72 1.3l.71 1.13 4.66.09 4.65.09.78.51.79.52 3.23.11 3.23.11.54.92.54.91-.15.25-.15.24h-12.93v.33c0 .18.23.71.51 1.17l.52.85.52.28c.6.31 2.18.58 8.77 1.45l4.63.62.72.29.72.28.8 1.27.79 1.27v.92h-1.11l.15.38.14.37-.4.16c-.22.08-.92.15-1.55.15h-1.16l-.13-.21-.13-.21.18-.29c.1-.16.42-.34.71-.4l.53-.11-1.85-.31a783.53 783.53 0 0 0-11.6-1.83l-1.03-.16.2.64c.1.35.56 1.34 1.02 2.22l.83 1.59 3.44.72c5.38 1.13 9.2 1.96 13.22 2.85 2.04.45 4.18.87 4.77.95l1.06.13zm-8.64-4.19-.3-.36.37-.3.37-.3 1.95.17c1.07.1 2.22.27 2.54.4l.6.21v.54h-5.23zm-5.77-.85.16-.17.47.18.47.17-.39.24-.39.24-.24-.25-.25-.25zm7.45-7.28-.18-.28.3-.3.3-.3.28.3.3.3-.18.28c-.1.16-.28.3-.4.3-.14 0-.32-.14-.42-.3zm-7.73-.19-.1-.31h.83v.84l-.31-.1a.75.75 0 0 1-.42-.43zm2.12-.77-.1-.34h1.05c1.2 0 1.9.21 1.9.58v.25l-1.37-.08-1.37-.08z"/><path fill="url(#u)" d="m64.23-89.83-1.65-1.5v-.35c0-.35 2.47-4.14 4.47-6.85l1.1-1.49h7.63l.17-.28.18-.3-.3-.28-.28-.3-3.16-.1-3.15-.12.7-1.1c.4-.61 1.83-2.7 3.2-4.63l2.49-3.52.35-.13.35-.14 8.54.34c4.7.18 9.52.38 10.73.44l2.2.11-.08.18-.74 1.27-.65 1.1-4.77.1-4.77.1-.77.51-.76.52-3.22.1-3.21.1-.46.8c-.24.43-.45.95-.45 1.15v.38h13.23v.33c0 .18-.23.71-.51 1.17l-.52.85-.53.28c-.6.33-2.22.6-8.1 1.33l-4.23.53-1.34.4-1.35.4-.7 1.3c-.4.7-.7 1.48-.7 1.71v.43h1.11l-.15.4-.16.39.62.15c.34.09 1 .12 1.5.07l.87-.08.1-.33.11-.33-.59-.22-.59-.22 1.83-.32a628 628 0 0 1 11.55-1.81l1-.14-.55 1.42c-.3.78-.76 1.78-1.01 2.21l-.46.8-3.43.7c-3.4.7-5.94 1.25-13.35 2.88-2.1.47-4.25.9-4.76.97l-.92.12zm8.44-4.12.53-.28-.32-.39-.32-.38-2.02.16-2 .16-.73.27-.73.28.15.23.14.23h4.77zm5.98-.93-.17-.17-.47.18-.47.17.39.24.39.24.25-.25.24-.25zm-7.46-7.28.18-.28-.3-.3-.29-.3-.3.3-.29.3.18.28c.1.16.28.3.41.3.13 0 .31-.14.41-.3zm7.73-.19.1-.31h-1.1v.22c0 .61.8.69 1 .1zm-2.11-.79.11-.34-1.4.08-1.4.08-.1.34-.12.35 1.4-.08 1.4-.08z"/><path fill="url(#v)" d="m34.21-74.4-3.23-2.03-.1-.57-.12-.58 5.88-7.33c15.14-18.87 20.27-24.8 23.9-27.64l1.4-1.09 1.71-2.57a25.63 25.63 0 0 1 2.98-3.72l1.26-1.16-.67.97c-.36.52-1.09 1.84-1.61 2.91l-.95 1.96-.25 1.9a11.2 11.2 0 0 1-.63 2.66c-.53 1.04-5.3 7.45-8.12 10.89l-2.3 2.8.47.47.47.47 4.8.13 4.8.13.8 1.55.8 1.55-.33.27c-.46.37-2.58 1.94-16.05 11.8l-7.7 5.65a41.66 41.66 0 0 1-3.75 2.6c-.12 0-1.68-.91-3.46-2.03zm9.7-8.38c1.31-.84 2.58-1.54 2.8-1.53h.43l.96-1.17.96-1.16 1.93-.48 1.92-.47.14-.95.13-.96.95-.87.95-.88-.24-.38-.24-.39h-4.98l-1.66 1.53-1.66 1.54-2.77.25-2.77.26.14.41.13.41 1.9.4 1.9.4-.95.68-.96.67h-1.38l.46.72.45.73-.83 1.06c-1.73 2.2-.92 2.26 2.3.18z"/><path fill="url(#w)" d="M-40.13-81.66c-.96-.38-1.95-.84-2.18-1.03-.24-.2-.93-.46-1.53-.59-.6-.12-1.97-.73-3.04-1.34l-1.94-1.1.25-.25.25-.25h5.2l3.2-1.25 3.2-1.25 2 .98 2 .98h1.43v-.3c0-.16-.73-.81-1.64-1.45l-1.63-1.15v-.79l6.82-3.3A77607.53 77607.53 0 0 0-5.82-104.3a698.28 698.28 0 0 0 19.04-9.5l2.48-1.34h.66c.36 0 1.26-.26 2-.57l1.36-.56 2.42 1.44c1.33.79 2.74 1.78 3.12 2.21l.71.78-.81.22c-.45.11-2 .78-3.44 1.48l-2.62 1.28-2.37-.03-2.36-.03-1.38.9c-1.47.97-11.81 6.7-12.08 6.7-.34 0-18.22 9.9-18.67 10.35l-.48.46 2.19.23 2.18.23 10.85-.36c5.96-.2 12.61-.53 14.78-.73l3.93-.38 1.8 1.31 1.78 1.32.68-.22.68-.22.39.47.38.46-.19.98-.19.99-1.19 1.38-1.2 1.38-19.77.8a1303.9 1303.9 0 0 0-27.78 1.35c-9.7.69-9.07.7-11.21-.14z"/><path fill="url(#x)" d="m174.2-73.16.22-1.3-.36-2.94-.35-2.94-.73-1.06c-.4-.59-.9-1.55-1.1-2.13a483.65 483.65 0 0 1-4.8-17.22l-.2-1.06.76-.2c.42-.12 1.73-.31 2.91-.43a43.2 43.2 0 0 0 4.34-.72l2.18-.5 1.25-1.49 1.25-1.48v-1.57l-.89.4-.89.41-5.5.56-5.5.57-1.14-.3-2.11-.6-.98-.3-.75.87-.75.85-.87.23c-.47.12-2.81.44-5.2.7l-4.33.48-1.65.64c-.92.35-2.83.9-4.25 1.21l-2.76.63c-.09.03.15.22.52.41l.68.36 1.91-.35 5.55-1.04 3.64-.68 1.38.94 1.38.95 3.17.18 3.18.18.75 1.98a338.7 338.7 0 0 1 2.94 8.36 913.55 913.55 0 0 0 5.2 14.9c.4 1.18.95 2.5 1.21 2.96l.48.83z"/><path fill="url(#y)" d="M178.2-90.55h.78l.17.35.16.36h1.02v-.3c0-.16-.3-.49-.7-.72l-.7-.43.56-.52c.65-.6 11.92-8.15 17.84-11.94 4.32-2.76 6.2-3.76 7.1-3.76.7 0 1.84.8 2.44 1.69l.47.69-1.32.76-1.32.76-1.27.22-1.26.22-2.52 1.67c-5.96 3.96-12.43 8.73-12.43 9.18v.28l.93.23.94.24 5.35-.22 5.35-.22 1.37-.35 1.38-.35 1 .9c.55.5 1.15.9 1.33.9h.34v1.3l-.65.81-.65.82-2.33.27c-1.28.15-5.42.38-9.2.5l-6.88.24-3.94.5z"/><path fill="url(#z)" d="M-4.88-42.1a3011.8 3011.8 0 0 1 15.03-18.58l10.87-13.35v-1.47h-2l-1.42-1.12a9.76 9.76 0 0 1-2.22-2.65l-.8-1.54v-5.23l1.21-1.1c1.36-1.24 3.27-2.3 4.13-2.3h.57v11.15l.92.35.93.36.62-.86.63-.86-.25-.96-.25-.95 4.04-3.18 4.03-3.18 1.5-.34c.83-.18 2.35-.36 3.39-.4l1.87-.05.76.49.77.48-5.58 6.88c-3.07 3.8-10.02 12.2-15.44 18.7l-9.87 11.8-3.41 1.7A58.68 58.68 0 0 0-.55-45l-2.3 1.58-2.63 3.28c-1.45 1.8-2.84 3.28-3.1 3.28h-.46z"/><g fill="url(#A)" transform="translate(-62.026434,-42.516721)"><path fill="url(#B)" d="m258.37-71.2-.15.17h.15z"/><path fill="url(#C)" d="m253.12-70.76.03.07-.23 1.45 1.3-.9h.58l.23-.27v-.19c0-.2 2.18-3.25 1.73-3.58l-3.17 3.11-.47.3z"/><path fill="url(#D)" d="m252.61-65.63 1.65-3.1-1.83 1.59-1.83.42-5.24 5.8L235.5-49l-3.55 4.4.49.3.48.3 1.2-.03 2.15-.25.96-.22 2.57-2.02 2.57-2.03-.16-.6-.16-.61.4-.55.4-.55.84-2.27 6.31-8.01z"/></g></g><g fill="#161650"><path d="m54.49 7.63-.9 1.76-1.01 1.96a.78.78 0 0 0-.12.29v.08l.25.03h.63c.22-.03.93-.1 1.6-.15l1.2-.1-.01-.1c0-.05-.12-.47-.26-.92l-.49-1.55-.22-.73-.12-.07a.6.6 0 0 0-.27-.06h-.15l-.07-.22zm5.4.17-.73.05-.73.05-.85 1.65c-.46.9-.84 1.67-.84 1.71v.07h.13c.23-.02.13.25-.16.41l-.17.1-.85.1-.85.08v.19c0 .1.06.44.12.74l.1.55.2.36c.11.2.24.4.29.46l.09.1.5-.01.5-.02.13-.11c.07-.06.26-.36.42-.65a140.38 140.38 0 0 0 2.44-4.86l.42-.82-.08-.07zm-6.6 4.16c-.13 0-.27.03-.58.08l-.5.08-.12.18a.7.7 0 0 0-.12.3v.11h.3l-.1.1a1.4 1.4 0 0 1-.28.2l-.2.1-.23.42-.23.4-.05.29-.04.27.33-.01c.3-.01.54-.06 1.3-.26l.2-.05.54-.92c.3-.5.56-.98.59-1.06l.05-.14-.38-.05a3.62 3.62 0 0 0-.48-.04z"/><path d="m44.8 12.61-.29-.36v-.2l-.01-.22.27-.68.6-1.43c.42-.96.69-1.6 1.1-2.66l.34-.84h.48l1.35.07c1.68.1 3.08.14 3.91.12l.84-.03.27.09.27.08.26.34.25.34-.1.07c-.06.04-.7.3-1.42.58l-2.09.8-.77.31-.03.1-.02.09.2.1c.1.05.88.33 1.7.62.83.29 1.54.55 1.58.58l.06.06-.54.57-.54.58-.62-.17-.63-.17v-.17h.34c.4-.02.61-.1.61-.22v-.08l-.99.05-.98.05-.6-.18a17.6 17.6 0 0 1-1.57-.57l-.95-.4-.17.01h-.17l-.17.38-.74 1.53-.57 1.16-.09.03-.09.03zm6.28-2.19.03-.11h-.18l-.18.01v.28l.15-.04.15-.03zm-2.24-2.27c.5-.14 1.21-.36 1.58-.5l.68-.24-.04-.1-.04-.1-.34-.05c-.2-.03-.84-.04-1.44-.02l-1.1.03-.32.1-.32.1-.08.18-.09.16.01.27.01.26.16.09c.22.12.32.1 1.33-.18zm18.62 1.79.53-.51V9.3c0-.06-.45-.69-.98-1.4l-.96-1.29-1.3.04-1.3.05-.06-.08-.05-.07.13-.12.14-.12 1-.07 1-.07-.01-.06c0-.06-1.03-1.45-1.79-2.43l-.46-.58-2.18.13c-1.2.07-2.6.18-3.1.24-.5.07-1.14.12-1.42.13l-.5.02v.06c0 .03.12.22.25.42l.25.36 1.54-.02 1.54-.02.26.16.27.16h2.14l.19.3.18.3-.04.08-.05.08-2.14.07-2.13.07v.11c0 .06.09.24.18.39l.18.27.18.09c.2.1.73.16 2.91.38l1.54.15.24.09.24.08.28.41.28.41v.31h-.18l-.18.01.05.12.05.12-.13.06c-.07.03-.3.06-.5.07l-.39.01-.05-.07-.04-.07.06-.1c.03-.05.13-.1.23-.13l.17-.05-.62-.08a259.02 259.02 0 0 0-3.85-.47l-.34-.04.07.2c.04.12.2.45.36.73l.3.51 1.14.2 4.4.8c.68.12 1.4.24 1.59.26l.35.03zm-2.9-1.29-.1-.11.11-.11.12-.1.65.03c.35.02.73.07.84.1l.2.07v.18l-.86.03-.86.03zm-1.92-.22.05-.05.16.05.15.05-.12.09-.13.08-.08-.08-.09-.08zm2.38-2.48-.06-.1.1-.1.09-.1.1.1.1.1-.06.09c-.03.05-.09.1-.13.1-.04 0-.1-.04-.14-.1zm-2.56.02-.04-.1h.14l.14-.01V6l.01.14-.1-.04a.25.25 0 0 1-.15-.13zm.7-.28-.04-.1.35-.02c.4-.01.62.05.63.17v.08l-.45-.01-.46-.01z"/><path d="m37.45 11.53-.56-.48v-.11c0-.12.77-1.4 1.4-2.32l.35-.5 1.26-.04 1.25-.04.06-.1.06-.1-.1-.1-.1-.09h-2.09l.22-.37c.12-.2.57-.91 1-1.56l.79-1.2.11-.04.12-.05 2.82.01c1.55 0 3.15.02 3.55.03h.73l-.03.07-.22.43-.2.37-1.58.09-1.58.08-.25.18-.24.18-1.06.07-1.07.07-.14.26c-.07.15-.13.33-.13.4v.12l2.19-.08 2.18-.07v.1c0 .07-.06.25-.15.4l-.16.29-.17.1c-.2.11-.73.22-2.66.53l-1.4.22-.44.15-.44.14-.21.44c-.12.24-.22.5-.22.57v.15l.2-.01h.18l-.05.12-.05.14.21.04c.11.03.33.03.5 0l.28-.03.03-.11.04-.11-.2-.07-.2-.06.6-.13c.67-.14 3.29-.64 3.8-.73l.33-.05-.17.47c-.1.26-.23.6-.31.74l-.14.27-1.13.27c-1.11.27-1.95.48-4.37 1.1-.7.18-1.4.35-1.57.38l-.3.05zm2.75-1.46.17-.1-.11-.12-.11-.12-.67.07-.66.08-.24.1-.23.1.05.07.05.08.79-.03.78-.03zm1.96-.37-.06-.06-.15.07-.15.06.13.08.13.07.08-.08.08-.09zm-2.54-2.32.05-.1-.1-.1-.1-.09-.1.1-.09.1.06.1c.04.05.1.1.14.09.05 0 .1-.05.14-.1zm2.55-.15.03-.1h-.37v.08c.01.2.28.22.34.02zm-.71-.24.03-.11-.46.04-.46.04-.03.12-.03.11.46-.04.46-.04z"/><path d="m27.71 16.96-1.1-.63-.03-.19-.04-.19 1.85-2.48c4.8-6.41 6.42-8.43 7.6-9.4l.44-.38.54-.87c.3-.48.72-1.04.94-1.26l.4-.4-.2.33c-.12.18-.35.62-.5.98l-.3.66-.06.63a3.7 3.7 0 0 1-.18.88c-.16.35-1.67 2.52-2.56 3.7l-.73.94.16.15.16.15h1.6l1.58-.02.28.5.28.5-.1.1-5.17 4.08-2.48 1.95c-.63.5-1.17.9-1.21.9-.05 0-.57-.28-1.17-.63zm3.11-2.87a4 4 0 0 1 .91-.54h.14l.3-.4.31-.4.63-.17.63-.18.03-.32.04-.32.3-.3.3-.3-.08-.12-.08-.12-.82.02-.83.03-.53.53-.53.52-.91.12-.91.11.05.14.05.13.63.11.63.12-.3.23-.32.23h-.22l-.23.01.16.24.16.23-.27.36c-.55.75-.28.76.76.04zM3.07 15.4a4.27 4.27 0 0 1-.74-.32 1.54 1.54 0 0 0-.5-.17c-.2-.04-.67-.22-1.03-.41l-.65-.34.08-.09L.3 14l.86-.03.86-.03 1.04-.45 1.05-.45.67.3.67.3h.23l.24-.01v-.1c0-.05-.26-.26-.56-.46l-.55-.36v-.13l-.01-.14 2.21-1.16a25655.4 25655.4 0 0 0 7.13-3.73c1.87-.98 5.13-2.75 6.18-3.36l.8-.47h.22c.12 0 .42-.1.66-.21l.44-.2.82.44c.45.25.92.56 1.05.7l.25.25-.27.08c-.15.04-.65.28-1.12.53l-.85.45-.78.02-.78.01-.45.32a87.5 87.5 0 0 1-3.92 2.35c-.1 0-5.9 3.47-6.05 3.62l-.15.16.72.05.73.05 3.58-.24c1.97-.13 4.16-.31 4.87-.4l1.3-.17.6.41.61.41.22-.07.23-.08.13.14.13.15-.05.33-.05.33-.38.47-.38.47-6.53.48c-3.58.27-7.7.61-9.16.76-3.2.34-2.99.33-3.7.08zm70.91.4.05-.43-.15-.97-.15-.96-.25-.35c-.14-.19-.31-.5-.39-.69-.2-.48-1.68-5.2-1.78-5.63l-.08-.35.25-.08c.14-.04.57-.12.96-.17.39-.05 1.03-.18 1.42-.29l.72-.19.4-.5.4-.5-.02-.27v-.25l-.3.14-.28.14-1.82.25-1.8.25-.39-.09-.7-.17-.33-.09-.23.3-.24.29-.29.08c-.15.05-.92.18-1.7.3l-1.43.2-.54.23c-.3.12-.93.33-1.4.45l-.9.24c-.02 0 .05.07.18.13l.23.1.63-.13 1.82-.4 1.2-.27.46.3.47.29 1.05.03 1.05.02.27.64c.15.36.63 1.59 1.06 2.73A302 302 0 0 0 73.32 15c.15.38.34.82.43.96l.17.27zm1.12-5.79h.26l.06.1.06.12h.34v-.1c-.01-.06-.12-.16-.25-.24l-.24-.13.18-.18c.21-.2 3.85-2.83 5.76-4.14 1.4-.97 2-1.31 2.3-1.32.23-.01.62.24.83.52l.17.23-.43.26-.43.27-.42.09-.41.08-.81.58c-1.93 1.38-4.01 3.03-4.01 3.18v.09l.31.06.32.07 1.76-.13 1.77-.13.45-.14.45-.13.34.3c.19.15.39.28.45.28h.11v.2l.01.22-.2.27-.2.28-.77.12c-.42.06-1.79.18-3.04.27l-2.27.15-1.3.21z"/><path d="M15.16 28.08c.72-.98 2.86-3.82 4.76-6.31l3.44-4.53-.01-.25v-.24l-.34.01-.33.01-.48-.35c-.27-.2-.61-.58-.77-.85l-.28-.5-.03-.87-.03-.86.4-.38c.43-.42 1.05-.8 1.33-.8l.19-.01.06 1.84.06 1.84.31.11.31.1.2-.28.2-.3-.1-.3-.09-.32 1.3-1.1 1.3-1.1.49-.12a7 7 0 0 1 1.11-.17l.62-.04.26.15.25.15-1.76 2.34a653.2 653.2 0 0 1-4.9 6.35l-3.12 4.01-1.1.6c-.62.34-1.45.85-1.86 1.15l-.74.55-.83 1.12c-.46.61-.9 1.11-.99 1.12h-.15zM80.83 2.15c0 .02-.03.05-.04.06h.05zm-1.73.21.02.02-.06.48.42-.3.19-.01.07-.1V2.4c0-.07.68-1.1.53-1.2l-1.01 1.06-.15.1zm-.1 1.7.5-1.04-.58.54-.6.16-1.67 1.98-3.12 4.04-1.12 1.5.16.09.17.1.39-.03.71-.1.31-.09.83-.7.83-.7-.06-.2-.06-.2.12-.18.13-.18.25-.76 2-2.72zM54.34 7.35l-.9 1.77-1.01 1.96a.78.78 0 0 0-.12.28v.09l.24.03c.14.01.42 0 .64-.01l1.6-.14 1.2-.1-.01-.1c0-.06-.12-.47-.26-.92l-.49-1.55-.23-.73-.11-.07a.6.6 0 0 0-.27-.06h-.15l-.07-.22zm5.4.18-.73.05-.73.05-.85 1.64c-.46.91-.84 1.68-.84 1.72v.06h.13c.23 0 .13.25-.16.42l-.17.1-.85.09-.85.1v.18c0 .1.06.43.12.74l.1.55.2.36c.11.2.24.4.29.46l.09.1.5-.01.5-.02.12-.11c.08-.07.27-.36.43-.65a140.38 140.38 0 0 0 2.44-4.87l.42-.81-.08-.08zm-6.6 4.16c-.13 0-.27.03-.58.08l-.5.08-.12.18a.7.7 0 0 0-.12.3v.11h.15l.15-.01-.1.1a1.4 1.4 0 0 1-.28.2l-.2.11-.23.41-.23.42-.05.27-.04.28.33-.01c.3-.02.54-.06 1.3-.27l.2-.04.54-.92c.3-.51.56-.99.59-1.06l.05-.14-.38-.05a3.62 3.62 0 0 0-.48-.04z"/><path d="m44.65 12.34-.29-.36v-.21l-.01-.21.27-.68.6-1.43c.41-.96.68-1.6 1.1-2.66l.34-.84h.48l1.35.07c1.68.1 3.08.14 3.9.11l.85-.02.27.08.27.09.25.34.26.34-.1.07c-.06.04-.7.3-1.42.57l-2.09.81-.77.3-.03.1-.02.1.2.1 1.7.61c.83.3 1.54.56 1.58.59l.06.06-.54.57-.54.57-.62-.16-.63-.17v-.18l.34-.01c.4-.02.61-.1.61-.21v-.09l-.99.05-.98.05-.6-.17a17.6 17.6 0 0 1-1.57-.57l-.95-.4h-.17l-.17.01-.18.38-.73 1.53-.57 1.15-.09.04-.09.03zm6.28-2.2.03-.1h-.18l-.18.01v.28l.15-.04.15-.03zm-2.24-2.26c.5-.14 1.21-.37 1.58-.5l.68-.25-.04-.1-.04-.1-.34-.04c-.2-.03-.84-.04-1.44-.02l-1.1.03-.32.1-.32.1-.08.17-.09.17.01.27.01.26.16.08c.22.12.32.11 1.33-.17zM67.3 9.66l.54-.5v-.12c-.01-.06-.45-.7-.98-1.4l-.96-1.3-1.3.05-1.3.05-.06-.08-.05-.08.13-.11.14-.12 1-.08.99-.07v-.05c0-.07-1.03-1.46-1.8-2.43l-.45-.58-2.18.13c-1.2.07-2.6.18-3.1.24s-1.14.12-1.42.13l-.5.02v.05c0 .04.11.22.25.43l.25.36 1.54-.02 1.54-.02.26.16.27.16h2.14l.18.3.2.3-.05.07-.05.09-2.14.07-2.13.07v.11c0 .06.08.23.18.38l.18.28.18.08c.2.1.73.17 2.91.38l1.54.16.24.08.24.09.28.4.27.42.01.15v.15l-.18.01h-.18l.05.13.05.12-.13.06c-.07.03-.3.06-.51.07h-.38l-.05-.06-.04-.07.05-.1a.54.54 0 0 1 .24-.14l.17-.04-.62-.08a259.02 259.02 0 0 0-3.85-.47l-.34-.04.07.2c.04.12.2.44.36.73l.3.51 1.14.2 4.4.8c.68.12 1.4.24 1.59.25l.35.03zm-2.9-1.28-.1-.12.12-.1.12-.1.65.03c.35.02.73.06.84.1l.2.07v.18l-.86.03-.86.02zm-1.91-.22.05-.06.16.06.15.05-.12.08-.13.09-.08-.08-.09-.08zm2.38-2.49-.06-.09.1-.1.08-.1.1.1.1.09-.05.1c-.03.05-.09.1-.13.1-.04 0-.1-.04-.14-.1zm-2.56.03-.04-.1h.14l.14-.01v.13l.01.14-.1-.03a.25.25 0 0 1-.15-.13zm.7-.28-.05-.11.35-.01c.4-.02.63.04.64.16v.09l-.45-.01-.46-.01z"/><path d="m37.3 11.26-.56-.48v-.11c0-.12.77-1.4 1.4-2.32l.34-.5 1.26-.04L41 7.76l.06-.1.06-.1-.1-.09-.1-.09h-2.09l.22-.37 1-1.57.79-1.19.11-.05.11-.05 2.83.02 3.55.02.73.02-.03.06-.23.43-.2.37-1.57.08-1.58.09-.25.18-.24.17-1.07.08-1.06.07-.14.26c-.07.15-.13.32-.13.4v.11l2.19-.07 2.18-.07v.1c0 .07-.06.24-.15.4l-.16.28-.17.1c-.2.12-.73.22-2.66.53l-1.4.23-.44.14-.44.15-.21.44c-.12.23-.22.5-.22.57v.14h.2l.18-.01-.05.13-.05.13.2.05c.12.02.34.03.5 0l.3-.03.02-.11.04-.12-.2-.06-.2-.07.6-.12c.67-.14 3.29-.64 3.8-.73l.33-.06-.17.48c-.1.26-.23.6-.31.74l-.14.27-1.13.27-4.38 1.1c-.69.18-1.39.35-1.56.37l-.3.05zm2.75-1.46.17-.1-.11-.12-.11-.13-.67.08-.66.08-.24.1-.23.1.05.07.05.07.79-.02.78-.03zM42 9.43l-.06-.06-.15.07-.15.06.13.08.13.07.08-.09.08-.08zM39.47 7.1l.05-.1-.1-.1-.1-.09-.1.1-.09.1.06.1c.04.05.1.09.14.09.05 0 .1-.05.14-.1zm2.55-.15.03-.1h-.37v.08c.01.2.28.22.34.02zm-.71-.24.03-.12-.46.05-.46.04-.03.11-.03.12.46-.04.46-.05z"/><path d="m27.56 16.7-1.1-.64-.03-.19-.05-.19 1.86-2.49c4.8-6.4 6.42-8.42 7.6-9.4l.44-.37.54-.87c.3-.48.72-1.05.94-1.26l.4-.4-.2.32c-.12.18-.35.63-.5.99l-.3.65-.06.63a3.7 3.7 0 0 1-.18.89c-.16.35-1.67 2.52-2.56 3.69l-.73.95.16.15.16.15 1.6-.01 1.58-.01.28.5.28.5-.1.1-5.17 4.07-2.48 1.96c-.63.5-1.17.9-1.21.9-.05 0-.57-.28-1.17-.63zm3.11-2.88a4 4 0 0 1 .91-.54h.14l.3-.4.3-.4.64-.18.63-.18.03-.31.04-.32.3-.3.3-.3-.08-.12-.08-.13-.82.03-.83.03-.53.52-.53.53-.91.11-.91.12.04.13.05.14.64.11.63.11-.3.23-.32.24h-.22l-.23.01.16.24.15.23-.26.36c-.55.75-.28.76.76.04zM2.92 15.13a4.27 4.27 0 0 1-.74-.32 1.54 1.54 0 0 0-.5-.17c-.2-.04-.67-.22-1.03-.41L0 13.88l.08-.08.08-.09.86-.02.86-.03 1.04-.45 1.05-.45.67.3.66.3h.24l.24-.02v-.1c0-.05-.26-.25-.56-.45l-.55-.37v-.13l-.01-.13L6.87 11A25655.4 25655.4 0 0 0 14 7.26c1.87-.97 5.13-2.74 6.18-3.35l.8-.47h.22c.12-.01.42-.1.66-.22l.44-.2.82.45c.44.25.92.56 1.05.7l.25.25-.27.08c-.15.04-.65.28-1.12.53l-.85.45-.78.01-.78.02-.45.32c-.47.33-3.83 2.34-3.92 2.34-.1 0-5.9 3.48-6.05 3.63l-.15.16.72.05.73.05 3.58-.24c1.97-.13 4.16-.31 4.87-.4l1.3-.18.6.42.61.41.22-.08.23-.08.13.15.13.15-.05.33-.05.33-.38.47-.38.46-6.53.49c-3.58.27-7.7.6-9.16.76-3.2.34-2.99.33-3.7.08zm70.91.4.05-.43-.15-.97-.15-.97-.25-.34a3.8 3.8 0 0 1-.4-.7c-.18-.47-1.67-5.2-1.77-5.63l-.08-.34.25-.08c.14-.04.57-.12.96-.17.39-.06 1.03-.19 1.42-.29l.72-.19.4-.5.4-.51-.02-.26V3.9l-.3.15-.28.14-1.82.25-1.8.25-.39-.1-.7-.16-.33-.09-.23.3-.24.28-.29.09c-.15.04-.92.17-1.7.29l-1.43.2-.54.23c-.3.13-.93.33-1.4.45l-.9.24c-.02.01.05.07.18.13l.23.12.63-.14 1.82-.41 1.2-.27.46.3.47.3 1.05.02 1.05.03.27.64c.15.35.63 1.58 1.06 2.73a302 302 0 0 0 1.89 4.87c.15.38.34.81.43.96l.17.27zm1.12-5.79h.26l.06.1.06.12h.16l.17-.01v-.1c0-.05-.1-.16-.24-.23l-.24-.13.18-.18c.21-.21 3.85-2.83 5.76-4.15 1.4-.96 2-1.3 2.3-1.32.23 0 .62.24.83.53l.16.22-.42.27-.43.27-.42.08-.41.1-.82.57c-1.92 1.37-4 3.03-4 3.17v.1l.31.06.32.07 1.76-.13L82.07 9l.45-.13.45-.13.34.29c.19.16.39.29.45.28h.11v.21l.01.22-.2.27-.2.28-.77.12c-.42.06-1.79.18-3.04.27l-2.27.15-1.3.21z"/><path d="m15 27.8 4.76-6.3 3.45-4.54-.01-.24-.01-.24-.33.01-.33.01-.48-.35a3.3 3.3 0 0 1-.77-.86l-.28-.5-.03-.86-.03-.86.4-.38c.43-.42 1.04-.8 1.33-.8l.19-.01.06 1.84.06 1.84.31.1.31.11.2-.29.2-.29-.1-.31-.09-.31 1.3-1.1 1.3-1.1.49-.12a7 7 0 0 1 1.11-.17l.62-.04.26.15.25.15-1.76 2.34a653.2 653.2 0 0 1-4.9 6.35l-3.12 4-1.11.61c-.6.33-1.44.85-1.85 1.15l-.74.55-.83 1.11a4.9 4.9 0 0 1-.99 1.12h-.15zM80.68 1.88c0 .02-.03.04-.04.06h.05zm-1.73.2.02.03-.06.48.42-.3.19-.02.07-.1v-.05c0-.07.68-1.1.53-1.2L79.1 1.98l-.16.1zm-.1 1.71.5-1.05-.58.55-.6.16-1.67 1.98-3.12 4.04-1.12 1.5.16.09.16.1.4-.03.7-.1.32-.1.83-.69.83-.7-.06-.2-.06-.2.12-.18.13-.19.25-.76 2-2.71z"/></g></svg>