<svg xmlns="http://www.w3.org/2000/svg" xmlns:xlink="http://www.w3.org/1999/xlink" width="218.14" height="218.14" viewBox="0 0 57.72 57.72"><defs><radialGradient xlink:href="#a" id="b" cx="79.26" cy="-78.98" r="128.08" fx="79.26" fy="-78.98" gradientTransform="matrix(1 0 0 .329 0 -53.01)" gradientUnits="userSpaceOnUse"/><radialGradient xlink:href="#a" id="c" cx="79.26" cy="-78.98" r="128.08" fx="79.26" fy="-78.98" gradientTransform="matrix(1 0 0 .329 0 -53.01)" gradientUnits="userSpaceOnUse"/><radialGradient xlink:href="#a" id="d" cx="79.26" cy="-78.98" r="128.08" fx="79.26" fy="-78.98" gradientTransform="matrix(1 0 0 .329 0 -53.01)" gradientUnits="userSpaceOnUse"/><radialGradient xlink:href="#a" id="e" cx="79.26" cy="-78.98" r="128.08" fx="79.26" fy="-78.98" gradientTransform="matrix(1 0 0 .329 0 -53.01)" gradientUnits="userSpaceOnUse"/><radialGradient xlink:href="#a" id="f" cx="79.26" cy="-78.98" r="128.08" fx="79.26" fy="-78.98" gradientTransform="matrix(1 0 0 .329 0 -53.01)" gradientUnits="userSpaceOnUse"/><radialGradient xlink:href="#a" id="g" cx="79.26" cy="-78.98" r="128.08" fx="79.26" fy="-78.98" gradientTransform="matrix(1 0 0 .329 0 -53.01)" gradientUnits="userSpaceOnUse"/><linearGradient id="a"><stop offset="0" style="stop-color:#35c1ff;stop-opacity:1"/><stop offset=".5" style="stop-color:#4cddf0;stop-opacity:1"/><stop offset=".75" style="stop-color:#006bcc;stop-opacity:1"/><stop offset="1" style="stop-color:#00f8ee;stop-opacity:1"/></linearGradient></defs><g transform="translate(-22.94 -89.76)"><rect width="57.72" height="57.72" x="22.94" y="89.76" rx="2.99" ry="2.99" style="fill:#161650;fill-opacity:1;stroke-width:.0459779;stroke-linecap:round;stroke-miterlimit:15"/><g style="fill:#c0f"><path d="m86.32-85.8-.82-1.13v-1.26l.89-2.03c.5-1.11 1.38-3.04 1.96-4.27 1.35-2.85 2.23-4.78 3.62-7.93l1.1-2.5 1.44.07c.79.04 2.63.19 4.08.33 5.06.47 9.28.75 11.8.76h2.54l.81.29.81.28.74 1.06.73 1.06-.3.2c-.18.1-2.14.81-4.36 1.58l-6.4 2.24-2.35.84-.1.28-.1.28.6.3c.34.18 2.63 1.1 5.1 2.06 2.48.97 4.6 1.84 4.7 1.94l.2.18-1.7 1.68-1.69 1.68-1.87-.57-1.88-.57v-.52h1.04c1.19 0 1.87-.2 1.87-.57v-.26l-2.98.05-2.97.05-1.83-.58c-1-.32-3.1-1.17-4.65-1.88l-2.84-1.3h-1.03l-.57 1.12-2.4 4.55-1.8 3.42-.29.1-.27.09zm19.22-5.98.1-.33h-1.09v.83l.44-.09.44-.08zm-6.55-7.1c1.53-.36 3.7-.97 4.84-1.34l2.07-.68-.1-.3-.1-.3-1.04-.19a40 40 0 0 0-4.35-.2l-3.3-.01-1 .27-.98.28-.27.5-.27.5v1.6l.47.27c.66.38.94.36 4.03-.4z" style="fill:#c0f" transform="matrix(.34 -.104 .104 .34 50.02 151.15)"/><path d="m64.23-89.83-1.65-1.5v-.35c0-.35 2.47-4.14 4.47-6.85l1.1-1.49h7.63l.17-.28.18-.3-.3-.28-.28-.3-3.16-.1-3.15-.12.7-1.1c.4-.61 1.83-2.7 3.2-4.63l2.49-3.52.35-.13.35-.14 8.54.34c4.7.18 9.52.38 10.73.44l2.2.11-.08.18-.74 1.27-.65 1.1-4.77.1-4.77.1-.77.51-.76.52-3.22.1-3.21.1-.46.8c-.24.43-.45.95-.45 1.15v.38h13.23v.33c0 .18-.23.71-.51 1.17l-.52.85-.53.28c-.6.33-2.22.6-8.1 1.33l-4.23.53-1.34.4-1.35.4-.7 1.3c-.4.7-.7 1.48-.7 1.71v.43h1.11l-.15.4-.16.39.62.15c.34.09 1 .12 1.5.07l.87-.08.1-.33.11-.33-.59-.22-.59-.22 1.83-.32a628 628 0 0 1 11.55-1.81l1-.14-.55 1.42c-.3.78-.76 1.78-1.01 2.21l-.46.8-3.43.7c-3.4.7-5.94 1.25-13.35 2.88-2.1.47-4.25.9-4.76.97l-.92.12zm8.44-4.12.53-.28-.32-.39-.32-.38-2.02.16-2 .16-.73.27-.73.28.15.23.14.23h4.77zm5.98-.93-.17-.17-.47.18-.47.17.39.24.39.24.25-.25.24-.25zm-7.46-7.28.18-.28-.3-.3-.29-.3-.3.3-.29.3.18.28c.1.16.28.3.41.3.13 0 .31-.14.41-.3zm7.73-.19.1-.31h-1.1v.22c0 .61.8.69 1 .1zm-2.11-.79.11-.34-1.4.08-1.4.08-.1.34-.12.35 1.4-.08 1.4-.08z" style="fill:#c0f" transform="matrix(.34 -.104 .104 .34 50.02 151.15)"/><path d="m34.21-74.4-3.23-2.03-.1-.57-.12-.58 5.88-7.33c15.14-18.87 20.27-24.8 23.9-27.64l1.4-1.09 1.71-2.57a25.63 25.63 0 0 1 2.98-3.72l1.26-1.16-.67.97c-.36.52-1.09 1.84-1.61 2.91l-.95 1.96-.25 1.9a11.2 11.2 0 0 1-.63 2.66c-.53 1.04-5.3 7.45-8.12 10.89l-2.3 2.8.47.47.47.47 4.8.13 4.8.13.8 1.55.8 1.55-.33.27c-.46.37-2.58 1.94-16.05 11.8l-7.7 5.65a41.66 41.66 0 0 1-3.75 2.6c-.12 0-1.68-.91-3.46-2.03zm9.7-8.38c1.31-.84 2.58-1.54 2.8-1.53h.43l.96-1.17.96-1.16 1.93-.48 1.92-.47.14-.95.13-.96.95-.87.95-.88-.24-.38-.24-.39h-4.98l-1.66 1.53-1.66 1.54-2.77.25-2.77.26.14.41.13.41 1.9.4 1.9.4-.95.68-.96.67h-1.38l.46.72.45.73-.83 1.06c-1.73 2.2-.92 2.26 2.3.18z" style="fill:#c0f;stroke-width:1.45525" transform="matrix(.34 -.104 .104 .34 50.02 151.15)"/><path d="M-40.13-81.66c-.96-.38-1.95-.84-2.18-1.03-.24-.2-.93-.46-1.53-.59-.6-.12-1.97-.73-3.04-1.34l-1.94-1.1.25-.25.25-.25h5.2l3.2-1.25 3.2-1.25 2 .98 2 .98h1.43v-.3c0-.16-.73-.81-1.64-1.45l-1.63-1.15v-.79l6.82-3.3A77607.53 77607.53 0 0 0-5.82-104.3a698.28 698.28 0 0 0 19.04-9.5l2.48-1.34h.66c.36 0 1.26-.26 2-.57l1.36-.56 2.42 1.44c1.33.79 2.74 1.78 3.12 2.21l.71.78-.81.22c-.45.11-2 .78-3.44 1.48l-2.62 1.28-2.37-.03-2.36-.03-1.38.9c-1.47.97-11.81 6.7-12.08 6.7-.34 0-18.22 9.9-18.67 10.35l-.48.46 2.19.23 2.18.23 10.85-.36c5.96-.2 12.61-.53 14.78-.73l3.93-.38 1.8 1.31 1.78 1.32.68-.22.68-.22.39.47.38.46-.19.98-.19.99-1.19 1.38-1.2 1.38-19.77.8a1303.9 1303.9 0 0 0-27.78 1.35c-9.7.69-9.07.7-11.21-.14z" style="fill:#c0f;stroke-width:1.37503" transform="matrix(.34 -.104 .104 .34 50.02 151.15)"/><path d="M-4.88-42.1a3011.8 3011.8 0 0 1 15.03-18.58l10.87-13.35v-1.47h-2l-1.42-1.12a9.76 9.76 0 0 1-2.22-2.65l-.8-1.54v-5.23l1.21-1.1c1.36-1.24 3.27-2.3 4.13-2.3h.57v11.15l.92.35.93.36.62-.86.63-.86-.25-.96-.25-.95 4.04-3.18 4.03-3.18 1.5-.34c.83-.18 2.35-.36 3.39-.4l1.87-.05.76.49.77.48-5.58 6.88c-3.07 3.8-10.02 12.2-15.44 18.7l-9.87 11.8-3.41 1.7A58.68 58.68 0 0 0-.55-45l-2.3 1.58-2.63 3.28c-1.45 1.8-2.84 3.28-3.1 3.28h-.46z" style="fill:#c0f;stroke-width:2.02782" transform="matrix(.34 -.104 .104 .34 50.02 151.15)"/></g><g style="fill:url(#b)" transform="matrix(.34 -.104 .104 .34 49.93 150.97)"><path d="m86.32-85.8-.82-1.13v-1.26l.89-2.03c.5-1.11 1.38-3.04 1.96-4.27 1.35-2.85 2.23-4.78 3.62-7.93l1.1-2.5 1.44.07c.79.04 2.63.19 4.08.33 5.06.47 9.28.75 11.8.76h2.54l.81.29.81.28.74 1.06.73 1.06-.3.2c-.18.1-2.14.81-4.36 1.58l-6.4 2.24-2.35.84-.1.28-.1.28.6.3c.34.18 2.63 1.1 5.1 2.06 2.48.97 4.6 1.84 4.7 1.94l.2.18-1.7 1.68-1.69 1.68-1.87-.57-1.88-.57v-.52h1.04c1.19 0 1.87-.2 1.87-.57v-.26l-2.98.05-2.97.05-1.83-.58c-1-.32-3.1-1.17-4.65-1.88l-2.84-1.3h-1.03l-.57 1.12-2.4 4.55-1.8 3.42-.29.1-.27.09zm19.22-5.98.1-.33h-1.09v.83l.44-.09.44-.08zm-6.55-7.1c1.53-.36 3.7-.97 4.84-1.34l2.07-.68-.1-.3-.1-.3-1.04-.19a40 40 0 0 0-4.35-.2l-3.3-.01-1 .27-.98.28-.27.5-.27.5v1.6l.47.27c.66.38.94.36 4.03-.4z" style="fill:url(#c)"/><path d="m64.23-89.83-1.65-1.5v-.35c0-.35 2.47-4.14 4.47-6.85l1.1-1.49h7.63l.17-.28.18-.3-.3-.28-.28-.3-3.16-.1-3.15-.12.7-1.1c.4-.61 1.83-2.7 3.2-4.63l2.49-3.52.35-.13.35-.14 8.54.34c4.7.18 9.52.38 10.73.44l2.2.11-.08.18-.74 1.27-.65 1.1-4.77.1-4.77.1-.77.51-.76.52-3.22.1-3.21.1-.46.8c-.24.43-.45.95-.45 1.15v.38h13.23v.33c0 .18-.23.71-.51 1.17l-.52.85-.53.28c-.6.33-2.22.6-8.1 1.33l-4.23.53-1.34.4-1.35.4-.7 1.3c-.4.7-.7 1.48-.7 1.71v.43h1.11l-.15.4-.16.39.62.15c.34.09 1 .12 1.5.07l.87-.08.1-.33.11-.33-.59-.22-.59-.22 1.83-.32a628 628 0 0 1 11.55-1.81l1-.14-.55 1.42c-.3.78-.76 1.78-1.01 2.21l-.46.8-3.43.7c-3.4.7-5.94 1.25-13.35 2.88-2.1.47-4.25.9-4.76.97l-.92.12zm8.44-4.12.53-.28-.32-.39-.32-.38-2.02.16-2 .16-.73.27-.73.28.15.23.14.23h4.77zm5.98-.93-.17-.17-.47.18-.47.17.39.24.39.24.25-.25.24-.25zm-7.46-7.28.18-.28-.3-.3-.29-.3-.3.3-.29.3.18.28c.1.16.28.3.41.3.13 0 .31-.14.41-.3zm7.73-.19.1-.31h-1.1v.22c0 .61.8.69 1 .1zm-2.11-.79.11-.34-1.4.08-1.4.08-.1.34-.12.35 1.4-.08 1.4-.08z" style="fill:url(#d)"/><path d="m34.21-74.4-3.23-2.03-.1-.57-.12-.58 5.88-7.33c15.14-18.87 20.27-24.8 23.9-27.64l1.4-1.09 1.71-2.57a25.63 25.63 0 0 1 2.98-3.72l1.26-1.16-.67.97c-.36.52-1.09 1.84-1.61 2.91l-.95 1.96-.25 1.9a11.2 11.2 0 0 1-.63 2.66c-.53 1.04-5.3 7.45-8.12 10.89l-2.3 2.8.47.47.47.47 4.8.13 4.8.13.8 1.55.8 1.55-.33.27c-.46.37-2.58 1.94-16.05 11.8l-7.7 5.65a41.66 41.66 0 0 1-3.75 2.6c-.12 0-1.68-.91-3.46-2.03zm9.7-8.38c1.31-.84 2.58-1.54 2.8-1.53h.43l.96-1.17.96-1.16 1.93-.48 1.92-.47.14-.95.13-.96.95-.87.95-.88-.24-.38-.24-.39h-4.98l-1.66 1.53-1.66 1.54-2.77.25-2.77.26.14.41.13.41 1.9.4 1.9.4-.95.68-.96.67h-1.38l.46.72.45.73-.83 1.06c-1.73 2.2-.92 2.26 2.3.18z" style="fill:url(#e);stroke-width:1.45525"/><path d="M-40.13-81.66c-.96-.38-1.95-.84-2.18-1.03-.24-.2-.93-.46-1.53-.59-.6-.12-1.97-.73-3.04-1.34l-1.94-1.1.25-.25.25-.25h5.2l3.2-1.25 3.2-1.25 2 .98 2 .98h1.43v-.3c0-.16-.73-.81-1.64-1.45l-1.63-1.15v-.79l6.82-3.3A77607.53 77607.53 0 0 0-5.82-104.3a698.28 698.28 0 0 0 19.04-9.5l2.48-1.34h.66c.36 0 1.26-.26 2-.57l1.36-.56 2.42 1.44c1.33.79 2.74 1.78 3.12 2.21l.71.78-.81.22c-.45.11-2 .78-3.44 1.48l-2.62 1.28-2.37-.03-2.36-.03-1.38.9c-1.47.97-11.81 6.7-12.08 6.7-.34 0-18.22 9.9-18.67 10.35l-.48.46 2.19.23 2.18.23 10.85-.36c5.96-.2 12.61-.53 14.78-.73l3.93-.38 1.8 1.31 1.78 1.32.68-.22.68-.22.39.47.38.46-.19.98-.19.99-1.19 1.38-1.2 1.38-19.77.8a1303.9 1303.9 0 0 0-27.78 1.35c-9.7.69-9.07.7-11.21-.14z" style="fill:url(#f);stroke-width:1.37503"/><path d="M-4.88-42.1a3011.8 3011.8 0 0 1 15.03-18.58l10.87-13.35v-1.47h-2l-1.42-1.12a9.76 9.76 0 0 1-2.22-2.65l-.8-1.54v-5.23l1.21-1.1c1.36-1.24 3.27-2.3 4.13-2.3h.57v11.15l.92.35.93.36.62-.86.63-.86-.25-.96-.25-.95 4.04-3.18 4.03-3.18 1.5-.34c.83-.18 2.35-.36 3.39-.4l1.87-.05.76.49.77.48-5.58 6.88c-3.07 3.8-10.02 12.2-15.44 18.7l-9.87 11.8-3.41 1.7A58.68 58.68 0 0 0-.55-45l-2.3 1.58-2.63 3.28c-1.45 1.8-2.84 3.28-3.1 3.28h-.46z" style="fill:url(#g);stroke-width:2.02782"/></g><g style="fill:#8080ff"><path d="m86.32-85.8-.82-1.13v-1.26l.89-2.03c.5-1.11 1.38-3.04 1.96-4.27 1.35-2.85 2.23-4.78 3.62-7.93l1.1-2.5 1.44.07c.79.04 2.63.19 4.08.33 5.06.47 9.28.75 11.8.76h2.54l.81.29.81.28.74 1.06.73 1.06-.3.2c-.18.1-2.14.81-4.36 1.58l-6.4 2.24-2.35.84-.1.28-.1.28.6.3c.34.18 2.63 1.1 5.1 2.06 2.48.97 4.6 1.84 4.7 1.94l.2.18-1.7 1.68-1.69 1.68-1.87-.57-1.88-.57v-.52h1.04c1.19 0 1.87-.2 1.87-.57v-.26l-2.98.05-2.97.05-1.83-.58c-1-.32-3.1-1.17-4.65-1.88l-2.84-1.3h-1.03l-.57 1.12-2.4 4.55-1.8 3.42-.29.1-.27.09zm19.22-5.98.1-.33h-1.09v.83l.44-.09.44-.08zm-6.55-7.1c1.53-.36 3.7-.97 4.84-1.34l2.07-.68-.1-.3-.1-.3-1.04-.19a40 40 0 0 0-4.35-.2l-3.3-.01-1 .27-.98.28-.27.5-.27.5v1.6l.47.27c.66.38.94.36 4.03-.4z" style="fill:#8080ff" transform="matrix(.34 -.104 .104 .34 50.17 152.19)"/><path d="m64.23-89.83-1.65-1.5v-.35c0-.35 2.47-4.14 4.47-6.85l1.1-1.49h7.63l.17-.28.18-.3-.3-.28-.28-.3-3.16-.1-3.15-.12.7-1.1c.4-.61 1.83-2.7 3.2-4.63l2.49-3.52.35-.13.35-.14 8.54.34c4.7.18 9.52.38 10.73.44l2.2.11-.08.18-.74 1.27-.65 1.1-4.77.1-4.77.1-.77.51-.76.52-3.22.1-3.21.1-.46.8c-.24.43-.45.95-.45 1.15v.38h13.23v.33c0 .18-.23.71-.51 1.17l-.52.85-.53.28c-.6.33-2.22.6-8.1 1.33l-4.23.53-1.34.4-1.35.4-.7 1.3c-.4.7-.7 1.48-.7 1.71v.43h1.11l-.15.4-.16.39.62.15c.34.09 1 .12 1.5.07l.87-.08.1-.33.11-.33-.59-.22-.59-.22 1.83-.32a628 628 0 0 1 11.55-1.81l1-.14-.55 1.42c-.3.78-.76 1.78-1.01 2.21l-.46.8-3.43.7c-3.4.7-5.94 1.25-13.35 2.88-2.1.47-4.25.9-4.76.97l-.92.12zm8.44-4.12.53-.28-.32-.39-.32-.38-2.02.16-2 .16-.73.27-.73.28.15.23.14.23h4.77zm5.98-.93-.17-.17-.47.18-.47.17.39.24.39.24.25-.25.24-.25zm-7.46-7.28.18-.28-.3-.3-.29-.3-.3.3-.29.3.18.28c.1.16.28.3.41.3.13 0 .31-.14.41-.3zm7.73-.19.1-.31h-1.1v.22c0 .61.8.69 1 .1zm-2.11-.79.11-.34-1.4.08-1.4.08-.1.34-.12.35 1.4-.08 1.4-.08z" style="fill:#8080ff" transform="matrix(.34 -.104 .104 .34 50.17 152.19)"/><path d="m34.21-74.4-3.23-2.03-.1-.57-.12-.58 5.88-7.33c15.14-18.87 20.27-24.8 23.9-27.64l1.4-1.09 1.71-2.57a25.63 25.63 0 0 1 2.98-3.72l1.26-1.16-.67.97c-.36.52-1.09 1.84-1.61 2.91l-.95 1.96-.25 1.9a11.2 11.2 0 0 1-.63 2.66c-.53 1.04-5.3 7.45-8.12 10.89l-2.3 2.8.47.47.47.47 4.8.13 4.8.13.8 1.55.8 1.55-.33.27c-.46.37-2.58 1.94-16.05 11.8l-7.7 5.65a41.66 41.66 0 0 1-3.75 2.6c-.12 0-1.68-.91-3.46-2.03zm9.7-8.38c1.31-.84 2.58-1.54 2.8-1.53h.43l.96-1.17.96-1.16 1.93-.48 1.92-.47.14-.95.13-.96.95-.87.95-.88-.24-.38-.24-.39h-4.98l-1.66 1.53-1.66 1.54-2.77.25-2.77.26.14.41.13.41 1.9.4 1.9.4-.95.68-.96.67h-1.38l.46.72.45.73-.83 1.06c-1.73 2.2-.92 2.26 2.3.18z" style="fill:#8080ff;stroke-width:1.45525" transform="matrix(.34 -.104 .104 .34 50.17 152.19)"/><path d="M-40.13-81.66c-.96-.38-1.95-.84-2.18-1.03-.24-.2-.93-.46-1.53-.59-.6-.12-1.97-.73-3.04-1.34l-1.94-1.1.25-.25.25-.25h5.2l3.2-1.25 3.2-1.25 2 .98 2 .98h1.43v-.3c0-.16-.73-.81-1.64-1.45l-1.63-1.15v-.79l6.82-3.3A77607.53 77607.53 0 0 0-5.82-104.3a698.28 698.28 0 0 0 19.04-9.5l2.48-1.34h.66c.36 0 1.26-.26 2-.57l1.36-.56 2.42 1.44c1.33.79 2.74 1.78 3.12 2.21l.71.78-.81.22c-.45.11-2 .78-3.44 1.48l-2.62 1.28-2.37-.03-2.36-.03-1.38.9c-1.47.97-11.81 6.7-12.08 6.7-.34 0-18.22 9.9-18.67 10.35l-.48.46 2.19.23 2.18.23 10.85-.36c5.96-.2 12.61-.53 14.78-.73l3.93-.38 1.8 1.31 1.78 1.32.68-.22.68-.22.39.47.38.46-.19.98-.19.99-1.19 1.38-1.2 1.38-19.77.8a1303.9 1303.9 0 0 0-27.78 1.35c-9.7.69-9.07.7-11.21-.14z" style="fill:#8080ff;stroke-width:1.37503" transform="matrix(.34 -.104 .104 .34 50.17 152.19)"/><path d="M-4.88-42.1a3011.8 3011.8 0 0 1 15.03-18.58l10.87-13.35v-1.47h-2l-1.42-1.12a9.76 9.76 0 0 1-2.22-2.65l-.8-1.54v-5.23l1.21-1.1c1.36-1.24 3.27-2.3 4.13-2.3h.57v11.15l.92.35.93.36.62-.86.63-.86-.25-.96-.25-.95 4.04-3.18 4.03-3.18 1.5-.34c.83-.18 2.35-.36 3.39-.4l1.87-.05.76.49.77.48-5.58 6.88c-3.07 3.8-10.02 12.2-15.44 18.7l-9.87 11.8-3.41 1.7A58.68 58.68 0 0 0-.55-45l-2.3 1.58-2.63 3.28c-1.45 1.8-2.84 3.28-3.1 3.28h-.46z" style="fill:#8080ff;stroke-width:2.02782" transform="matrix(.34 -.104 .104 .34 50.17 152.19)"/></g><g style="fill:#0b0b28"><path d="m86.32-85.8-.82-1.13v-1.26l.89-2.03c.5-1.11 1.38-3.04 1.96-4.27 1.35-2.85 2.23-4.78 3.62-7.93l1.1-2.5 1.44.07c.79.04 2.63.19 4.08.33 5.06.47 9.28.75 11.8.76h2.54l.81.29.81.28.74 1.06.73 1.06-.3.2c-.18.1-2.14.81-4.36 1.58l-6.4 2.24-2.35.84-.1.28-.1.28.6.3c.34.18 2.63 1.1 5.1 2.06 2.48.97 4.6 1.84 4.7 1.94l.2.18-1.7 1.68-1.69 1.68-1.87-.57-1.88-.57v-.52h1.04c1.19 0 1.87-.2 1.87-.57v-.26l-2.98.05-2.97.05-1.83-.58c-1-.32-3.1-1.17-4.65-1.88l-2.84-1.3h-1.03l-.57 1.12-2.4 4.55-1.8 3.42-.29.1-.27.09zm19.22-5.98.1-.33h-1.09v.83l.44-.09.44-.08zm-6.55-7.1c1.53-.36 3.7-.97 4.84-1.34l2.07-.68-.1-.3-.1-.3-1.04-.19a40 40 0 0 0-4.35-.2l-3.3-.01-1 .27-.98.28-.27.5-.27.5v1.6l.47.27c.66.38.94.36 4.03-.4z" style="fill:#0b0b28" transform="matrix(.34 -.104 .104 .34 49.94 151.95)"/><path d="m64.23-89.83-1.65-1.5v-.35c0-.35 2.47-4.14 4.47-6.85l1.1-1.49h7.63l.17-.28.18-.3-.3-.28-.28-.3-3.16-.1-3.15-.12.7-1.1c.4-.61 1.83-2.7 3.2-4.63l2.49-3.52.35-.13.35-.14 8.54.34c4.7.18 9.52.38 10.73.44l2.2.11-.08.18-.74 1.27-.65 1.1-4.77.1-4.77.1-.77.51-.76.52-3.22.1-3.21.1-.46.8c-.24.43-.45.95-.45 1.15v.38h13.23v.33c0 .18-.23.71-.51 1.17l-.52.85-.53.28c-.6.33-2.22.6-8.1 1.33l-4.23.53-1.34.4-1.35.4-.7 1.3c-.4.7-.7 1.48-.7 1.71v.43h1.11l-.15.4-.16.39.62.15c.34.09 1 .12 1.5.07l.87-.08.1-.33.11-.33-.59-.22-.59-.22 1.83-.32a628 628 0 0 1 11.55-1.81l1-.14-.55 1.42c-.3.78-.76 1.78-1.01 2.21l-.46.8-3.43.7c-3.4.7-5.94 1.25-13.35 2.88-2.1.47-4.25.9-4.76.97l-.92.12zm8.44-4.12.53-.28-.32-.39-.32-.38-2.02.16-2 .16-.73.27-.73.28.15.23.14.23h4.77zm5.98-.93-.17-.17-.47.18-.47.17.39.24.39.24.25-.25.24-.25zm-7.46-7.28.18-.28-.3-.3-.29-.3-.3.3-.29.3.18.28c.1.16.28.3.41.3.13 0 .31-.14.41-.3zm7.73-.19.1-.31h-1.1v.22c0 .61.8.69 1 .1zm-2.11-.79.11-.34-1.4.08-1.4.08-.1.34-.12.35 1.4-.08 1.4-.08z" style="fill:#0b0b28" transform="matrix(.34 -.104 .104 .34 49.94 151.95)"/><path d="m34.21-74.4-3.23-2.03-.1-.57-.12-.58 5.88-7.33c15.14-18.87 20.27-24.8 23.9-27.64l1.4-1.09 1.71-2.57a25.63 25.63 0 0 1 2.98-3.72l1.26-1.16-.67.97c-.36.52-1.09 1.84-1.61 2.91l-.95 1.96-.25 1.9a11.2 11.2 0 0 1-.63 2.66c-.53 1.04-5.3 7.45-8.12 10.89l-2.3 2.8.47.47.47.47 4.8.13 4.8.13.8 1.55.8 1.55-.33.27c-.46.37-2.58 1.94-16.05 11.8l-7.7 5.65a41.66 41.66 0 0 1-3.75 2.6c-.12 0-1.68-.91-3.46-2.03zm9.7-8.38c1.31-.84 2.58-1.54 2.8-1.53h.43l.96-1.17.96-1.16 1.93-.48 1.92-.47.14-.95.13-.96.95-.87.95-.88-.24-.38-.24-.39h-4.98l-1.66 1.53-1.66 1.54-2.77.25-2.77.26.14.41.13.41 1.9.4 1.9.4-.95.68-.96.67h-1.38l.46.72.45.73-.83 1.06c-1.73 2.2-.92 2.26 2.3.18z" style="fill:#0b0b28;stroke-width:1.45525" transform="matrix(.34 -.104 .104 .34 49.94 151.95)"/><path d="M-40.13-81.66c-.96-.38-1.95-.84-2.18-1.03-.24-.2-.93-.46-1.53-.59-.6-.12-1.97-.73-3.04-1.34l-1.94-1.1.25-.25.25-.25h5.2l3.2-1.25 3.2-1.25 2 .98 2 .98h1.43v-.3c0-.16-.73-.81-1.64-1.45l-1.63-1.15v-.79l6.82-3.3A77607.53 77607.53 0 0 0-5.82-104.3a698.28 698.28 0 0 0 19.04-9.5l2.48-1.34h.66c.36 0 1.26-.26 2-.57l1.36-.56 2.42 1.44c1.33.79 2.74 1.78 3.12 2.21l.71.78-.81.22c-.45.11-2 .78-3.44 1.48l-2.62 1.28-2.37-.03-2.36-.03-1.38.9c-1.47.97-11.81 6.7-12.08 6.7-.34 0-18.22 9.9-18.67 10.35l-.48.46 2.19.23 2.18.23 10.85-.36c5.96-.2 12.61-.53 14.78-.73l3.93-.38 1.8 1.31 1.78 1.32.68-.22.68-.22.39.47.38.46-.19.98-.19.99-1.19 1.38-1.2 1.38-19.77.8a1303.9 1303.9 0 0 0-27.78 1.35c-9.7.69-9.07.7-11.21-.14z" style="fill:#0b0b28;stroke-width:1.37503" transform="matrix(.34 -.104 .104 .34 49.94 151.95)"/><path d="M-4.88-42.1a3011.8 3011.8 0 0 1 15.03-18.58l10.87-13.35v-1.47h-2l-1.42-1.12a9.76 9.76 0 0 1-2.22-2.65l-.8-1.54v-5.23l1.21-1.1c1.36-1.24 3.27-2.3 4.13-2.3h.57v11.15l.92.35.93.36.62-.86.63-.86-.25-.96-.25-.95 4.04-3.18 4.03-3.18 1.5-.34c.83-.18 2.35-.36 3.39-.4l1.87-.05.76.49.77.48-5.58 6.88c-3.07 3.8-10.02 12.2-15.44 18.7l-9.87 11.8-3.41 1.7A58.68 58.68 0 0 0-.55-45l-2.3 1.58-2.63 3.28c-1.45 1.8-2.84 3.28-3.1 3.28h-.46z" style="fill:#0b0b28;stroke-width:2.02782" transform="matrix(.34 -.104 .104 .34 49.94 151.95)"/></g></g></svg>