<?xml version="1.0" encoding="UTF-8" standalone="no"?>
<svg
   width="109.534"
   height="20.47859"
   viewBox="0 0 28.977831 5.4200002"
   version="1.1"
   id="svg15"
   sodipodi:docname="pixelaismalllogo.svg"
   inkscape:version="1.4.3 (0d15f75042, 2025-12-25)"
   xmlns:inkscape="http://www.inkscape.org/namespaces/inkscape"
   xmlns:sodipodi="http://sodipodi.sourceforge.net/DTD/sodipodi-0.dtd"
   xmlns:xlink="http://www.w3.org/1999/xlink"
   xmlns="http://www.w3.org/2000/svg"
   xmlns:svg="http://www.w3.org/2000/svg">
  <sodipodi:namedview
     id="namedview15"
     pagecolor="#ffffff"
     bordercolor="#666666"
     borderopacity="1.0"
     inkscape:showpageshadow="2"
     inkscape:pageopacity="0.0"
     inkscape:pagecheckerboard="0"
     inkscape:deskcolor="#d1d1d1"
     inkscape:zoom="14.95418"
     inkscape:cx="54.733861"
     inkscape:cy="-1.9726926"
     inkscape:window-width="1920"
     inkscape:window-height="1046"
     inkscape:window-x="0"
     inkscape:window-y="0"
     inkscape:window-maximized="1"
     inkscape:current-layer="svg15" />
  <defs
     id="defs11">
    <linearGradient
       id="b">
      <stop
         offset="0"
         stop-color="#570083"
         id="stop1" />
      <stop
         offset=".42"
         stop-color="#33005b"
         id="stop2" />
      <stop
         offset=".63"
         stop-color="#8767d2"
         id="stop3" />
      <stop
         offset="1"
         stop-color="#520096"
         id="stop4" />
    </linearGradient>
    <linearGradient
       id="c">
      <stop
         offset="0"
         stop-color="#563a9d"
         id="stop5" />
      <stop
         offset=".5"
         stop-color="#4f3392"
         id="stop6" />
      <stop
         offset="1"
         stop-color="#694eb9"
         id="stop7" />
    </linearGradient>
    <linearGradient
       id="a">
      <stop
         offset="0"
         stop-color="#fff"
         id="stop8" />
      <stop
         offset=".5"
         stop-color="#fff"
         id="stop9" />
      <stop
         offset=".75"
         stop-color="#d8dadb"
         id="stop10" />
      <stop
         offset="1"
         stop-color="#e9e9e7"
         id="stop11" />
    </linearGradient>
    <linearGradient
       xlink:href="#a"
       id="g"
       x1="105.58"
       x2="105.35"
       y1="80.93"
       y2="97.660004"
       gradientUnits="userSpaceOnUse" />
    <linearGradient
       xlink:href="#b"
       id="h"
       x1="179.74001"
       x2="179.38"
       y1="76.470001"
       y2="101.99"
       gradientUnits="userSpaceOnUse" />
    <linearGradient
       xlink:href="#b"
       id="f"
       x1="162.09"
       x2="161.64"
       y1="79.489998"
       y2="111.25"
       gradientUnits="userSpaceOnUse" />
    <linearGradient
       xlink:href="#c"
       id="d"
       x1="66.040001"
       x2="68.160004"
       y1="83.940002"
       y2="91.849998"
       gradientTransform="matrix(0.575,0,0,0.575,19.11,39.59)"
       gradientUnits="userSpaceOnUse" />
    <filter
       id="e"
       width="1.0170716"
       height="1.1019438"
       x="-0.0085357763"
       y="-0.05097192"
       color-interpolation-filters="sRGB">
      <feGaussianBlur
         stdDeviation=".59"
         id="feGaussianBlur11" />
    </filter>
  </defs>
  <g
     transform="translate(-45.731087,-86.304998)"
     id="g15">
    <g
       font-family="'Bitstream Vera Sans'"
       font-size="38.1px"
       font-weight="700"
       letter-spacing="0"
       word-spacing="0"
       id="g14">
      <path
         d="M 48.8,197.24 V 225 l 0.03,-0.07 v 0.08 L 56,222.9 v -22.48 l -7.16,-3.18 v 0.1 z m -16,0 H 20.9 v 7.35 h 7.35 v -2.16 h 3.78 a 4.7,4.7 0 0 1 3.22,1 3.64,3.64 0 0 1 1.14,2.87 c 0,1.24 -0.38,2.2 -1.14,2.88 a 4.7,4.7 0 0 1 -3.22,1 H 20.91 v 14.84 l 7.16,-3.7 v -5.94 h 4.73 c 3.53,0 6.24,-0.78 8.12,-2.34 1.9,-1.58 2.85,-3.82 2.85,-6.74 0,-2.9 -0.95,-5.13 -2.85,-6.7 -1.88,-1.57 -4.59,-2.36 -8.12,-2.36 z m 27.8,0 0.3,0.42 -0.18,-0.07 8.45,14.17 4.3,4.69 6.49,7.37 7.71,1.13 -0.06,-0.08 0.51,0.15 -9.63,-14.18 9.26,-13.6 -7.52,2.12 -6.06,6.83 -6.08,-6.83 z m 31.78,0 v 7.35 h 7.35 v -1.94 h 11.98 v -5.4 z m 26.03,0 v 24.3 l 2.47,3.48 h 17.27 l -2.12,-5.42 h -10.46 v -15.18 h 0.02 v -7.18 z m 38.7,0 -5.27,14.22 h 6.87 l 2.67,-7.7 7.35,21.26 h 7.2 l -10.29,-27.78 z m 22.5,0 v 27.78 H 185 l 1.79,-1.74 V 197.24 Z M 111,207.83 H 96.62 l -4.24,4.3 v 12.89 h 19.74 V 219.6 H 99.54 v -6.36 H 111 Z m 40.86,3.64 v 5.17 h -1.93 l -3.1,8.38 h 7.2 l 2.32,-6.7 h 2.36 v -6.85 z m -84.72,3.4 -6.9,10.15 7.5,-2.12 3.26,-3.73 z"
         filter="url(#e)"
         opacity="0.34"
         style="line-height:1.25;-inkscape-font-specification:'Bitstream Vera Sans Bold'"
         transform="matrix(0.1412,0,-0.0358,0.1412,53.13,59.2)"
         id="path11" />
      <path
         fill="url(#f)"
         d="m 19.63,77.34 v 7.35 h 7.34 v -7.35 z m 71.47,0 v 7.35 h 7.34 v -7.35 z m 26.03,0 v 7.19 h 7.18 v -7.19 z m -57.7,0.35 8.46,14.17 4.3,4.69 6.49,7.37 7.7,1.13 -9.88,-13.19 9.27,-13.6 -7.52,2.12 -6.07,6.83 -6.08,-6.83 z m 91.14,13.88 v 6.85 h 6.84 v -6.85 z"
         style="line-height:1.25;-inkscape-font-specification:'Bitstream Vera Sans Bold';fill:url(#f)"
         transform="matrix(0.1412,0,-0.0358,0.1412,48.9,76.05)"
         id="path12" />
      <path
         fill="url(#g)"
         d="m 19.63,77.34 5.29,5.2 h 5.83 a 4.7,4.7 0 0 1 3.22,1 3.63,3.63 0 0 1 1.13,2.86 3.7,3.7 0 0 1 -1.13,2.88 4.7,4.7 0 0 1 -3.22,1.01 H 19.62 v 14.83 l 7.17,-3.7 v -5.94 h 4.72 c 3.54,0 6.25,-0.78 8.13,-2.34 1.9,-1.58 2.85,-3.82 2.85,-6.74 0,-2.9 -0.95,-5.13 -2.85,-6.7 -1.88,-1.57 -4.6,-2.36 -8.13,-2.36 z m 27.92,0 v 27.78 L 54.7,103 V 80.52 Z m 11.78,0 9.26,13.6 4.3,4.69 6.49,7.37 7.46,2.12 -9.64,-14.18 9.27,-13.6 -7.52,2.12 -6.06,6.83 -6.09,-6.83 z m 31.77,0 4.76,5.41 h 14.57 v -5.4 z m 33.19,0 -7.16,3.47 v 20.83 l 2.46,3.48 h 17.27 L 134.75,99.7 H 124.29 V 78.73 Z m 31.53,0 -5.26,14.22 h 6.87 l 2.67,-7.7 7.35,21.26 h 7.2 L 164.36,77.34 Z m 22.51,0 v 27.78 h 5.38 l 1.79,-1.74 V 77.34 Z M 109.7,87.93 H 95.33 l -4.23,4.3 v 12.89 h 19.74 V 99.7 H 98.26 v -6.36 h 11.44 z m -43.85,7.05 -6.9,10.14 7.5,-2.12 3.25,-3.73 z m 82.79,1.76 -3.1,8.38 h 7.2 l 2.9,-8.38 z"
         style="line-height:1.25;-inkscape-font-specification:'Bitstream Vera Sans Bold';fill:url(#g)"
         transform="matrix(0.1412,0,-0.0358,0.1412,48.9,76.05)"
         id="path13" />
      <path
         fill="url(#h)"
         d="m 47.5,77.34 v 27.77 l 1.26,-2.12 V 80.51 Z m 132.75,0 v 5.25 h 5.25 v -5.25 z"
         style="line-height:1.25;-inkscape-font-specification:'Bitstream Vera Sans Bold';fill:url(#h)"
         transform="matrix(0.1412,0,-0.0358,0.1412,48.9,76.05)"
         id="path14" />
    </g>
  </g>
</svg>
