<svg xmlns="http://www.w3.org/2000/svg" xmlns:xlink="http://www.w3.org/1999/xlink" width="191" height="45" viewBox="0 0 50.54 11.91"><defs><linearGradient id="b"><stop offset="0" stop-color="#570083"/><stop offset=".42" stop-color="#33005b"/><stop offset=".63" stop-color="#8767d2"/><stop offset="1" stop-color="#520096"/></linearGradient><linearGradient id="c"><stop offset="0" stop-color="#563a9d"/><stop offset=".5" stop-color="#4f3392"/><stop offset="1" stop-color="#694eb9"/></linearGradient><linearGradient id="a"><stop offset="0" stop-color="#fff"/><stop offset=".5" stop-color="#fff"/><stop offset=".75" stop-color="#d8dadb"/><stop offset="1" stop-color="#e9e9e7"/></linearGradient><linearGradient xlink:href="#a" id="g" x1="105.58" x2="105.35" y1="80.93" y2="97.66" gradientUnits="userSpaceOnUse"/><linearGradient xlink:href="#b" id="h" x1="179.74" x2="179.38" y1="76.47" y2="101.99" gradientUnits="userSpaceOnUse"/><linearGradient xlink:href="#b" id="f" x1="162.09" x2="161.64" y1="79.49" y2="111.25" gradientUnits="userSpaceOnUse"/><linearGradient xlink:href="#c" id="d" x1="66.04" x2="68.16" y1="83.94" y2="91.85" gradientTransform="translate(0 -.19)" gradientUnits="userSpaceOnUse"/><filter id="e" width="1.02" height="1.1" x="-.01" y="-.05" color-interpolation-filters="sRGB"><feGaussianBlur stdDeviation=".59"/></filter></defs><g transform="matrix(.997 0 0 .997 -46.01 -79.56)"><rect width="50.26" height="9.27" x="46.37" y="81.14" fill="url(#d)" stroke="#452882" stroke-linecap="round" stroke-linejoin="bevel" stroke-miterlimit=".1" stroke-width=".16" opacity=".77" rx="4.63" ry="4.63"/><path d="M48.8 197.24V225l.03-.07v.08L56 222.9v-22.48l-7.16-3.18v.1zm-16 0H20.9v7.35h7.35v-2.16h3.78a4.7 4.7 0 0 1 3.22 1 3.64 3.64 0 0 1 1.14 2.87c0 1.24-.38 2.2-1.14 2.88a4.7 4.7 0 0 1-3.22 1H20.91v14.84l7.16-3.7v-5.94h4.73c3.53 0 6.24-.78 8.12-2.34 1.9-1.58 2.85-3.82 2.85-6.74 0-2.9-.95-5.13-2.85-6.7-1.88-1.57-4.59-2.36-8.12-2.36zm27.8 0 .3.42-.18-.07 8.45 14.17 4.3 4.69 6.49 7.37 7.71 1.13-.06-.08.51.15-9.63-14.18 9.26-13.6-7.52 2.12-6.06 6.83-6.08-6.83zm31.78 0v7.35h7.35v-1.94h11.98v-5.4zm26.03 0v24.3l2.47 3.48h17.27l-2.12-5.42h-10.46v-15.18h.02v-7.18zm38.7 0-5.27 14.22h6.87l2.67-7.7 7.35 21.26h7.2l-10.29-27.78zm22.5 0v27.78H185l1.79-1.74v-26.04zM111 207.83H96.62l-4.24 4.3v12.89h19.74v-5.42H99.54v-6.36H111zm40.86 3.64v5.17h-1.93l-3.1 8.38h7.2l2.32-6.7h2.36v-6.85zm-84.72 3.4-6.9 10.15 7.5-2.12 3.26-3.73z" filter="url(#e)" font-family="Bitstream Vera Sans" font-size="38.1" font-weight="700" letter-spacing="0" opacity=".34" style="line-height:1.25;-inkscape-font-specification:&quot;Bitstream Vera Sans Bold&quot;" transform="matrix(.2456 0 -.0623 .2456 59.16 33.93)" word-spacing="0"/><g font-family="Bitstream Vera Sans" font-size="38.1" font-weight="700" letter-spacing="0" word-spacing="0"><path fill="url(#f)" d="M19.63 77.34v7.35h7.34v-7.35zm71.47 0v7.35h7.34v-7.35zm26.03 0v7.19h7.18v-7.19zm-57.7.35 8.46 14.17 4.3 4.69 6.49 7.37 7.7 1.13-9.88-13.19 9.27-13.6-7.52 2.12-6.07 6.83-6.08-6.83zm91.14 13.88v6.85h6.84v-6.85z" style="line-height:1.25;-inkscape-font-specification:&quot;Bitstream Vera Sans Bold&quot;" transform="matrix(.2456 0 -.0623 .2456 51.82 63.22)"/><path fill="url(#g)" d="m19.63 77.34 5.29 5.2h5.83a4.7 4.7 0 0 1 3.22 1 3.63 3.63 0 0 1 1.13 2.86 3.7 3.7 0 0 1-1.13 2.88 4.7 4.7 0 0 1-3.22 1.01H19.62v14.83l7.17-3.7v-5.94h4.72c3.54 0 6.25-.78 8.13-2.34 1.9-1.58 2.85-3.82 2.85-6.74 0-2.9-.95-5.13-2.85-6.7-1.88-1.57-4.6-2.36-8.13-2.36Zm27.92 0v27.78L54.7 103V80.52zm11.78 0 9.26 13.6 4.3 4.69 6.49 7.37 7.46 2.12-9.64-14.18 9.27-13.6-7.52 2.12-6.06 6.83-6.09-6.83zm31.77 0 4.76 5.41h14.57v-5.4zm33.19 0-7.16 3.47v20.83l2.46 3.48h17.27l-2.11-5.42h-10.46V78.73zm31.53 0-5.26 14.22h6.87l2.67-7.7 7.35 21.26h7.2l-10.29-27.78Zm22.51 0v27.78h5.38l1.79-1.74V77.34zM109.7 87.93H95.33l-4.23 4.3v12.89h19.74V99.7H98.26v-6.36h11.44Zm-43.85 7.05-6.9 10.14 7.5-2.12 3.25-3.73zm82.79 1.76-3.1 8.38h7.2l2.9-8.38z" style="line-height:1.25;-inkscape-font-specification:&quot;Bitstream Vera Sans Bold&quot;" transform="matrix(.2456 0 -.0623 .2456 51.82 63.22)"/><path fill="url(#h)" d="M47.5 77.34v27.77l1.26-2.12V80.51zm132.75 0v5.25h5.25v-5.25z" style="line-height:1.25;-inkscape-font-specification:&quot;Bitstream Vera Sans Bold&quot;" transform="matrix(.2456 0 -.0623 .2456 51.82 63.22)"/></g></g></svg>
