<svg xmlns="http://www.w3.org/2000/svg" xmlns:xlink="http://www.w3.org/1999/xlink" xml:space="preserve" width="1600" height="2672" viewBox="0 0 423.333 706.967"><defs><path id="f" fill="#8f34af" fill-opacity=".439" stroke-linecap="round" stroke-linejoin="bevel" stroke-miterlimit=".1" stroke-width=".829" d="m873.14-188.534 206.284 714.535.342.068c9.729 1.923 29.892 2.983 45.605 2.397 30.847-1.15 42.027-4.291 45.566-9.598 2.266-3.398.52-9.034.506-13.634-.011-3.46-.59-7.077-.447-10.49.327-7.816 7.143-11.198 13.645-12.549 30.539-6.342 53.975-4.715 100.875-2.51 15.98.75 18.516 1.047 22.02 2.577 4.556 1.99 6.52 4.684 8.585 11.78 1.45 4.984 2.454 7.323 4.043 9.425 3.084 4.079 8.175 6.491 16.091 7.626 3.437.492 14.821.42 22.185-.141 15.775-1.203 24.582-1.578 37.157-1.582 13.638-.004 21.627.527 31.249 2.08 10.825 1.746 16.54 4.102 18.377 7.575.592 1.12.65 3.312.17 6.545-.529 3.578-.527 4.762.012 6.608 1.568 5.374 8.983 9.324 24.081 12.828 7.881 1.83 18.313 3.313 27.677 4.02h11.43l-206.14-714.04c-.819-.283-9.36-1.53-13.389-1.956-8.792-.928-13.075-1.113-25.586-1.104-14.441.01-26.936.67-36.616 1.934-12.6 1.645-19.11 5.364-20.206 11.544-.459 2.59-.279 4.923.77 9.992 1.275 6.162 1.414 8.3.75 11.5-.404 1.944-2.012 4.636-3.626 6.068-6.183 5.488-16.357 7.558-41.984 8.542-8.116.312-38.347.303-49.482-.015-17.206-.49-34.411-1.435-37.54-2.061-4.742-.949-7.967-2.903-10.057-6.093-.933-1.425-1.313-2.384-2.944-7.44-1.585-4.913-2.04-6.077-2.976-7.596-1.96-3.182-4.488-5.278-8.187-6.786-6.453-2.63-14.831-3.137-32.18-1.95-16.897 1.158-19.54 1.28-31.328 1.458-12.134.183-20.195-.111-28.182-1.03-16.22-1.865-24.149-4.516-26.125-8.736-.604-1.289-.61-3.607-.02-7.518.755-5.017-.387-7.931-4.237-10.813-6.865-5.137-25.87-9.776-46.681-11.46z"/></defs><defs><linearGradient id="b"><stop offset="0" stop-color="#977fff"/><stop offset="1" stop-color="#1f0049"/></linearGradient><linearGradient id="e"><stop offset="0" stop-color="#3a2766"/><stop offset="1" stop-color="#209bd5" stop-opacity="0"/></linearGradient><linearGradient id="d"><stop offset="0" stop-color="#d8e9f3"/><stop offset="1" stop-color="#d8e9f3" stop-opacity="0"/></linearGradient><linearGradient id="a"><stop offset="0" stop-color="#23e3ec"/><stop offset="1" stop-color="#ff1793"/></linearGradient><linearGradient id="c"><stop offset="0" stop-color="#025"/><stop offset="1" stop-color="#025" stop-opacity="0"/></linearGradient><linearGradient xlink:href="#a" id="p" x1="868.963" x2="945.783" y1="-114.054" y2="-114.054" gradientTransform="matrix(1 0 0 .9632 -1023.048 -69.943)" gradientUnits="userSpaceOnUse"/><linearGradient xlink:href="#a" id="q" x1="869.039" x2="993.024" y1="471.486" y2="471.486" gradientTransform="matrix(1 0 0 .9632 -1022.987 -67.395)" gradientUnits="userSpaceOnUse"/><linearGradient xlink:href="#b" id="r" x1="1225.26" x2="1292.296" y1="450.655" y2="450.655" gradientTransform="matrix(1 0 0 .9632 -1022.987 -67.905)" gradientUnits="userSpaceOnUse"/><linearGradient xlink:href="#c" id="m" x1="1373.801" x2="1508.593" y1="180.246" y2="180.246" gradientUnits="userSpaceOnUse"/><linearGradient xlink:href="#d" id="k" x1="1228.682" x2="1488.494" y1="180.246" y2="180.246" gradientUnits="userSpaceOnUse"/><linearGradient xlink:href="#d" id="i" x1="1001.924" x2="1390.048" y1="180.246" y2="199.733" gradientUnits="userSpaceOnUse"/><linearGradient xlink:href="#a" id="s" x1="1225.766" x2="1292.296" y1="434.748" y2="434.748" gradientTransform="matrix(1.0188 0 0 .977 -1047.36 -73.112)" gradientUnits="userSpaceOnUse"/><linearGradient xlink:href="#b" id="t" x1="868.902" x2="930.653" y1="482.058" y2="482.058" gradientTransform="matrix(1.0175 0 0 .98 -1038.18 -76.241)" gradientUnits="userSpaceOnUse"/><linearGradient xlink:href="#e" id="g" x1="873.141" x2="1049.633" y1="180.246" y2="180.246" gradientUnits="userSpaceOnUse"/><linearGradient xlink:href="#b" id="o" x1="1236.247" x2="1292.304" y1="-89.778" y2="-89.778" gradientTransform="matrix(1 0 0 .9632 -1023.056 -69.943)" gradientUnits="userSpaceOnUse"/><clipPath id="n" clipPathUnits="userSpaceOnUse"><use xlink:href="#f" fill-opacity=".439" stroke-linecap="round" stroke-linejoin="bevel" stroke-miterlimit=".1" stroke-width=".829"/></clipPath><clipPath id="l" clipPathUnits="userSpaceOnUse"><use xlink:href="#f" fill-opacity=".439" stroke-linecap="round" stroke-linejoin="bevel" stroke-miterlimit=".1" stroke-width=".829"/></clipPath><clipPath id="j" clipPathUnits="userSpaceOnUse"><use xlink:href="#f" fill-opacity=".439" stroke-linecap="round" stroke-linejoin="bevel" stroke-miterlimit=".1" stroke-width=".829"/></clipPath><clipPath id="h" clipPathUnits="userSpaceOnUse"><use xlink:href="#f" fill-opacity=".439" stroke-linecap="round" stroke-linejoin="bevel" stroke-miterlimit=".1" stroke-width=".829"/></clipPath></defs><path fill="#fff" fill-opacity=".439" d="M.406.39v658.914l.322.062c9.173 1.774 29.031 2.751 44.913 2.211 31.18-1.06 43.266-3.957 48.336-8.85 3.247-3.134 3.129-8.331 4.442-12.574.988-3.19 1.453-6.526 2.582-9.673 2.584-7.208 10.376-10.327 17.268-11.572 32.37-5.849 55.336-4.348 101.6-2.315 15.763.692 18.213.966 21.275 2.377 3.982 1.834 5.168 4.319 5.185 10.862.012 4.596.34 6.754 1.322 8.692 1.906 3.761 6.3 5.986 13.89 7.032 3.294.454 14.7.388 22.225-.13 16.122-1.109 25.038-1.454 37.613-1.458 13.64-.004 21.475.486 30.65 1.917 10.32 1.61 15.355 3.783 16.19 6.986.268 1.032-.308 3.054-1.72 6.035-1.562 3.3-1.902 4.391-1.896 6.094.017 4.956 6.291 8.598 20.378 11.83 7.353 1.686 17.356 3.055 26.516 3.707h11.43V22.079c-.736-.26-8.916-1.41-12.823-1.803-8.525-.856-12.754-1.026-25.268-1.018-14.444.01-27.13.618-37.173 1.784-13.076 1.516-20.66 4.946-23.54 10.645-1.206 2.387-1.7 4.54-2.114 9.215-.504 5.681-.982 7.653-2.571 10.605-.965 1.792-3.35 4.274-5.378 5.595-7.767 5.06-18.538 6.97-44.45 7.877-8.206.287-38.434.279-49.477-.014-17.064-.453-33.997-1.324-36.944-1.901-4.468-.875-7.13-2.677-8.298-5.619-.522-1.314-.625-2.198-.797-6.86-.167-4.531-.286-5.605-.783-7.005-1.04-2.934-2.964-4.867-6.228-6.258-5.693-2.425-13.925-2.893-31.616-1.798-17.232 1.067-19.911 1.18-31.75 1.345-12.187.169-20.163-.103-27.885-.95-15.68-1.72-22.845-4.165-23.603-8.056-.231-1.189.432-3.326 2.15-6.933 2.204-4.627 1.904-7.314-1.115-9.971C47.883 6.222 30.216 1.944 9.892.391z"/><path fill="url(#g)" d="M836.929-234.194h164.995v796.855H836.929z" clip-path="url(#h)" transform="matrix(1.002 0 -.2893 .9232 -929.351 174.058)"/><path fill="url(#i)" d="M1001.924-234.194h226.758v796.855h-226.758z" clip-path="url(#j)" transform="matrix(1.002 0 -.2893 .9232 -929.351 174.058)"/><path fill="url(#k)" d="M1228.682-234.194h145.119v796.855h-145.119z" clip-path="url(#l)" transform="matrix(1.002 0 -.2893 .9232 -929.351 174.058)"/><path fill="url(#m)" d="M1373.801-234.194h145.119v796.855h-145.119z" clip-path="url(#n)" transform="matrix(1.002 0 -.2893 .9232 -929.351 174.058)"/><path fill="url(#o)" d="M234.78-206.54c-.986.014-14.364 21.917-15.521 23.957-2.359 4.159-4.445 10.122-5.46 15.61-.577 3.115-.8 10.325-.419 13.511 1.463 12.206 6.75 22.89 15.511 31.342 6.176 5.958 15.79 11.466 24.235 13.882 2.5.715 7.157 1.657 9.235 1.868.51.051 2.176.097 3.704.1l2.778.007.405-.186-.07-40.147c-.048-27.604-.044-42.983 0-47.875.04-4.892.095-9.113.047-9.16-.077-.073-10.04-3.252-34.444-2.909zm-20.56 39.213-.04.23.04-.23z" transform="translate(154.085 225.524)"/><path fill="url(#p)" d="M-142.576-136.524c-3.808-.325-7.482-1.307-10.252-2.74l-1.257-.65v-53.346l1.918-2.206c5.884-6.768 26.197-27.56 26.57-27.687.895-.306 11.12 2.01 15.965 3.615 8.751 2.901 12.333 6.245 11.476 10.712-.152.789-.816 2.59-1.476 4-1.653 3.534-1.956 4.423-1.969 5.782-.014 1.423.492 2.433 1.755 3.5 2.87 2.428 8.687 3.93 21.385 5.52.898.113 1.248.265 1.19.518-.127.553-40.349 43.552-42.409 45.424-6.042 5.49-14.483 8.276-22.896 7.558z" transform="translate(154.085 225.524)"/><path fill="url(#q)" d="M-96.364 408.245c1.443-3.085 2.855-6.26 3.436-9.597.803-4.612 1.484-9.576.003-14.03-2.22-6.682-11.805-10.17-12.693-17.133-.397-3.116 9.511-18.382 11.417-20.537 1.984-2.245 5.275-5.014 7.91-6.656 8.742-5.45 19.94-7.01 30.1-4.193 2.86.794 7.546 2.933 10.143 4.633 14.294 9.354 19.847 26.829 13.452 42.326-.793 1.922-2.19 6.01-5.587 9.024-4.192 3.718-4.074 2.838-7.001 4.673-8.372 5.247-9.302 16.15-10.263 20.087-1.782 7.294-1.482 9.758-4.662 12.832-1.533 1.483-2.378 2.049-4.652 3.112-5.508 2.575-11.84 3.829-23.945 4.74-4.703.354-11.173 1.13-25.45 1.03-6.303-.045 12.842-19.73 17.792-30.311z" transform="translate(154.085 225.524)"/><path fill="url(#r)" d="M261.371 455.456c-17.466-.927-34.683-4.121-43.379-8.048-4.352-1.966-6.58-3.986-7.132-6.468-.394-1.771-.017-3.34 1.677-6.98 2.63-5.623 2.067-6.294 2.226-8.116.058-.661 4.984-6.997 13.13-20.642 6.38-10.687 12.475-20.713 13.543-22.28 4.028-5.904 10.284-9.981 16.695-13.081 3.008-1.454 6.476-1.815 9.79-2.382.458-.079 1.388-.14 1.388-.14v88.404l-2.183-.038c-1.2-.022-3.79-.124-5.754-.229z" transform="translate(154.085 225.524)"/><path fill="url(#s)" d="M211.77 423.91c-5.07-5.067-8.38-11.15-9.833-18.081-.338-1.61-.47-3.486-.47-6.639 0-6.058.874-9.994 3.333-14.991 1.027-2.087 17.644-29.93 55.764-93.44 4.224-7.037 8.427-13.26 8.692-13.828.003-.018-.008 91.311-.008 91.311s-1.493.244-2.022.318c-1.526.213-6.624 1.273-9.37 2.326-7.03 2.698-12.903 7.28-17.005 13.268-1.089 1.588-7.298 11.757-13.798 22.597-8.3 13.84-11.955 19.709-12.274 19.709-.25 0-1.604-1.148-3.008-2.55z" transform="translate(154.085 225.524)"/><path fill="url(#t)" d="M-125.2 352.29c-9.017.005-17.685 3.36-24.198 9.368-2.355 2.05-4.657 4.414-4.657 4.414v.84l.033 38.264-.003 28.903c0 1.376-.305 1.285.468 1.64 1.087.501 14.694 2.149 20.643 2.425 5.95.276 20.341.42 20.341.42s7.494-14.501 10.261-19.219c7.627-13.004 9.127-14.503 11.362-22.588.958-3.466.773-7.85.774-10.734.007-18.631-15.681-33.734-35.024-33.734z" transform="translate(154.085 225.524)"/></svg>
