<svg xmlns="http://www.w3.org/2000/svg" xmlns:xlink="http://www.w3.org/1999/xlink" xml:space="preserve" width="846" height="899" viewBox="0 0 223.837 237.86"><defs><linearGradient id="b"><stop offset="0" stop-color="#977fff"/><stop offset="1" stop-color="#1f0049"/></linearGradient><linearGradient id="f"><stop offset="0" stop-color="#fff"/><stop offset="1" stop-color="#73bbb6"/></linearGradient><linearGradient id="e"><stop offset="0" stop-color="#3a2766"/><stop offset="1" stop-color="#209bd5" stop-opacity="0"/></linearGradient><linearGradient id="d"><stop offset="0" stop-color="#d8e9f3"/><stop offset="1" stop-color="#d8e9f3" stop-opacity="0"/></linearGradient><linearGradient id="a"><stop offset="0" stop-color="#23e3ec"/><stop offset="1" stop-color="#ff1793"/></linearGradient><linearGradient id="c"><stop offset="0" stop-color="#025"/><stop offset="1" stop-color="#025" stop-opacity="0"/></linearGradient><linearGradient xlink:href="#a" id="s" x1="868.963" x2="945.783" y1="-114.054" y2="-114.054" gradientTransform="matrix(1 0 0 .9632 -1023.048 -69.943)" gradientUnits="userSpaceOnUse"/><linearGradient xlink:href="#a" id="t" x1="869.039" x2="993.024" y1="471.486" y2="471.486" gradientTransform="matrix(1 0 0 .9632 -1022.987 -67.395)" gradientUnits="userSpaceOnUse"/><linearGradient xlink:href="#b" id="u" x1="1225.26" x2="1292.296" y1="450.655" y2="450.655" gradientTransform="matrix(1 0 0 .9632 -1022.987 -67.905)" gradientUnits="userSpaceOnUse"/><linearGradient xlink:href="#c" id="p" x1="1373.801" x2="1508.593" y1="180.246" y2="180.246" gradientUnits="userSpaceOnUse"/><linearGradient xlink:href="#d" id="n" x1="1228.682" x2="1488.494" y1="180.246" y2="180.246" gradientUnits="userSpaceOnUse"/><linearGradient xlink:href="#d" id="l" x1="1001.924" x2="1390.048" y1="180.246" y2="199.733" gradientUnits="userSpaceOnUse"/><linearGradient xlink:href="#a" id="v" x1="1225.766" x2="1292.296" y1="434.748" y2="434.748" gradientTransform="matrix(1.0188 0 0 .977 -1047.36 -73.112)" gradientUnits="userSpaceOnUse"/><linearGradient xlink:href="#b" id="w" x1="868.902" x2="930.653" y1="482.058" y2="482.058" gradientTransform="matrix(1.0175 0 0 .98 -1038.18 -76.241)" gradientUnits="userSpaceOnUse"/><linearGradient xlink:href="#e" id="j" x1="873.141" x2="1049.633" y1="180.246" y2="180.246" gradientUnits="userSpaceOnUse"/><linearGradient xlink:href="#b" id="r" x1="1236.247" x2="1292.304" y1="-89.778" y2="-89.778" gradientTransform="matrix(1 0 0 .9632 -1023.056 -69.943)" gradientUnits="userSpaceOnUse"/><clipPath id="q" clipPathUnits="userSpaceOnUse"><use xlink:href="#reuse-0" fill-opacity=".439" stroke-linecap="round" stroke-linejoin="bevel" stroke-miterlimit=".1" stroke-width=".829"/></clipPath><clipPath id="o" clipPathUnits="userSpaceOnUse"><use xlink:href="#reuse-0" fill-opacity=".439" stroke-linecap="round" stroke-linejoin="bevel" stroke-miterlimit=".1" stroke-width=".829"/></clipPath><clipPath id="m" clipPathUnits="userSpaceOnUse"><use xlink:href="#reuse-0" fill-opacity=".439" stroke-linecap="round" stroke-linejoin="bevel" stroke-miterlimit=".1" stroke-width=".829"/></clipPath><clipPath id="k" clipPathUnits="userSpaceOnUse"><use xlink:href="#reuse-0" fill-opacity=".439" stroke-linecap="round" stroke-linejoin="bevel" stroke-miterlimit=".1" stroke-width=".829"/></clipPath><radialGradient xlink:href="#b" id="g" cx="1341.627" cy="363.602" r="111.919" fx="1341.627" fy="363.602" gradientTransform="matrix(1 0 0 1.0562 -680.06 -183.436)" gradientUnits="userSpaceOnUse"/><radialGradient xlink:href="#f" id="i" cx="1445.829" cy="319.011" r="82.079" fx="1445.829" fy="319.011" gradientTransform="matrix(1.6868 1.3503 -1.5964 1.9987 -1156.718 -2400.891)" gradientUnits="userSpaceOnUse"/><radialGradient xlink:href="#a" id="h" cx="1310.514" cy="240.003" r="70.386" fx="1310.514" fy="240.003" gradientTransform="matrix(-1.3076 3.0816 -2.1135 -.8865 2920.719 -3811.936)" gradientUnits="userSpaceOnUse"/></defs><path fill="url(#g)" d="M590.329 148.556V31.896c.909-.08 4.616-.21 6.217-.292 4.644-.235 13.678-.89 21.828-1.58 19.573-1.66 31.67-1.799 45.155-.518 27.497 2.612 48.49 11.278 64.35 26.562 4.31 4.155 7.47 7.744 14.382 16.336 13.017 16.182 25.529 29.757 37.641 40.842 7.057 6.458 9.047 8.424 10.957 10.824 10.565 13.274 18.51 33.62 21.174 50.245.814 5.074 1.075 8.327 1.075 13.387 0 13.304-3.362 24.173-10.623 34.346-2.132 2.987-7.508 8.528-10.94 11.275-11.366 9.097-25.75 14.013-45.848 18.169-9.861 2.038-20.941 3.434-36.967.948-8.885-1.378-15.772-2.143-26.459-2.94-6.934-.517-27.323-.434-33.47.137-9.985.927-18.712 2.479-25.572 4.547-3.34 1.007-6.438 2.198-11.163 4.293-4.416 1.958-9.993 3.799-16.005 5.282-2.926.722-5.62 1.092-5.732 1.092-.114 0 0-52.211 0-116.295z" transform="translate(-590.278 -26.99)"/><path fill="url(#h)" d="M661.98 138.615c-14.776-9.647-32.51-14.947-50.246-13.679-7.306.419-14.555 1.933-21.456 4.348V30.22c26.192-1.032 52.475-5.493 78.657-1.777 23.102 2.798 46.186 11.827 62.115 29.206-2.124 2.289-8.439 4.046-11.555 6.741-12.155 7.468-21.06 18.91-28.27 30.964-9.396 14.623-18.668 29.327-28.245 43.833z" transform="translate(-590.278 -26.99)"/><path fill="url(#i)" d="M679.906 241.348c-28.947-14.542-35.75-59.044-25.378-89.703 5.105-15.088 14.883-27.938 23.53-41.17 9.913-15.17 20.633-29.876 32.397-43.659 12.195-14.288 13.56-16.482 18.6-11.252C745.7 72.838 793 106.287 808.61 156.581c4.862 15.667 17.117 56.138-24.457 82.75-12.591 8.06-52.088 28.22-104.247 2.017z" transform="translate(-590.278 -26.99)"/><path fill="url(#j)" d="M836.929-234.194h164.995v796.855H836.929z" clip-path="url(#k)" transform="matrix(1.002 0 -.2893 .9232 1257.055 272.583)"/><path fill="url(#l)" d="M1001.924-234.194h226.758v796.855h-226.758z" clip-path="url(#m)" transform="matrix(1.002 0 -.2893 .9232 1257.055 272.583)"/><path fill="url(#n)" d="M1228.682-234.194h145.119v796.855h-145.119z" clip-path="url(#o)" transform="matrix(1.002 0 -.2893 .9232 1257.055 272.583)"/><path fill="url(#p)" d="M1373.801-234.194h145.119v796.855h-145.119z" clip-path="url(#q)" transform="matrix(1.002 0 -.2893 .9232 1257.055 272.583)"/><path fill="url(#r)" d="M234.78-206.54c-.986.014-14.364 21.917-15.521 23.957-2.359 4.159-4.445 10.122-5.46 15.61-.577 3.115-.8 10.325-.419 13.511 1.463 12.206 6.75 22.89 15.511 31.342 6.176 5.958 15.79 11.466 24.235 13.882 2.5.715 7.157 1.657 9.235 1.868.51.051 2.176.097 3.704.1l2.778.007.405-.186-.07-40.147c-.048-27.604-.044-42.983 0-47.875.04-4.892.095-9.113.047-9.16-.077-.073-10.04-3.252-34.444-2.909zm-20.56 39.213-.04.23.04-.23z" transform="translate(2340.492 324.05)"/><path fill="url(#s)" d="M-142.576-136.524c-3.808-.325-7.482-1.307-10.252-2.74l-1.257-.65v-53.346l1.918-2.206c5.884-6.768 26.197-27.56 26.57-27.687.895-.306 11.12 2.01 15.965 3.615 8.751 2.901 12.333 6.245 11.476 10.712-.152.789-.816 2.59-1.476 4-1.653 3.534-1.956 4.423-1.969 5.782-.014 1.423.492 2.433 1.755 3.5 2.87 2.428 8.687 3.93 21.385 5.52.898.113 1.248.265 1.19.518-.127.553-40.349 43.552-42.409 45.424-6.042 5.49-14.483 8.276-22.896 7.558z" transform="translate(2340.492 324.05)"/><path fill="url(#t)" d="M-96.364 408.245c1.443-3.085 2.855-6.26 3.436-9.597.803-4.612 1.484-9.576.003-14.03-2.22-6.682-11.805-10.17-12.693-17.133-.397-3.116 9.511-18.382 11.417-20.537 1.984-2.245 5.275-5.014 7.91-6.656 8.742-5.45 19.94-7.01 30.1-4.193 2.86.794 7.546 2.933 10.143 4.633 14.294 9.354 19.847 26.829 13.452 42.326-.793 1.922-2.19 6.01-5.587 9.024-4.192 3.718-4.074 2.838-7.001 4.673-8.372 5.247-9.302 16.15-10.263 20.087-1.782 7.294-1.482 9.758-4.662 12.832-1.533 1.483-2.378 2.049-4.652 3.112-5.508 2.575-11.84 3.829-23.945 4.74-4.703.354-11.173 1.13-25.45 1.03-6.303-.045 12.842-19.73 17.792-30.311z" transform="translate(2340.492 324.05)"/><path fill="url(#u)" d="M261.371 455.456c-17.466-.927-34.683-4.121-43.379-8.048-4.352-1.966-6.58-3.986-7.132-6.468-.394-1.771-.017-3.34 1.677-6.98 2.63-5.623 2.067-6.294 2.226-8.116.058-.661 4.984-6.997 13.13-20.642 6.38-10.687 12.475-20.713 13.543-22.28 4.028-5.904 10.284-9.981 16.695-13.081 3.008-1.454 6.476-1.815 9.79-2.382.458-.079 1.388-.14 1.388-.14v88.404l-2.183-.038c-1.2-.022-3.79-.124-5.754-.229z" transform="translate(2340.492 324.05)"/><path fill="url(#v)" d="M211.77 423.91c-5.07-5.067-8.38-11.15-9.833-18.081-.338-1.61-.47-3.486-.47-6.639 0-6.058.874-9.994 3.333-14.991 1.027-2.087 17.644-29.93 55.764-93.44 4.224-7.037 8.427-13.26 8.692-13.828.003-.018-.008 91.311-.008 91.311s-1.493.244-2.022.318c-1.526.213-6.624 1.273-9.37 2.326-7.03 2.698-12.903 7.28-17.005 13.268-1.089 1.588-7.298 11.757-13.798 22.597-8.3 13.84-11.955 19.709-12.274 19.709-.25 0-1.604-1.148-3.008-2.55z" transform="translate(2340.492 324.05)"/><path fill="url(#w)" d="M-125.2 352.29c-9.017.005-17.685 3.36-24.198 9.368-2.355 2.05-4.657 4.414-4.657 4.414v.84l.033 38.264-.003 28.903c0 1.376-.305 1.285.468 1.64 1.087.501 14.694 2.149 20.643 2.425 5.95.276 20.341.42 20.341.42s7.494-14.501 10.261-19.219c7.627-13.004 9.127-14.503 11.362-22.588.958-3.466.773-7.85.774-10.734.007-18.631-15.681-33.734-35.024-33.734z" transform="translate(2340.492 324.05)"/></svg>
