<?xml version="1.0" encoding="UTF-8" standalone="no"?>
<!-- Created with Inkscape (http://www.inkscape.org/) -->

<svg
   width="223.83749mm"
   height="237.86041mm"
   viewBox="0 0 223.83749 237.86041"
   version="1.1"
   id="svg16942"
   xml:space="preserve"
   inkscape:version="1.2.2 (b0a8486541, 2022-12-01)"
   sodipodi:docname="seo-bg.svg"
   xmlns:inkscape="http://www.inkscape.org/namespaces/inkscape"
   xmlns:sodipodi="http://sodipodi.sourceforge.net/DTD/sodipodi-0.dtd"
   xmlns:xlink="http://www.w3.org/1999/xlink"
   xmlns="http://www.w3.org/2000/svg"
   xmlns:svg="http://www.w3.org/2000/svg"><sodipodi:namedview
     id="namedview16944"
     pagecolor="#ffffff"
     bordercolor="#666666"
     borderopacity="1.0"
     inkscape:showpageshadow="2"
     inkscape:pageopacity="0.0"
     inkscape:pagecheckerboard="0"
     inkscape:deskcolor="#d1d1d1"
     inkscape:document-units="mm"
     showgrid="false"
     inkscape:zoom="0.27779833"
     inkscape:cx="572.35765"
     inkscape:cy="491.36364"
     inkscape:window-width="1920"
     inkscape:window-height="1045"
     inkscape:window-x="0"
     inkscape:window-y="0"
     inkscape:window-maximized="1"
     inkscape:current-layer="layer1" /><defs
     id="defs16939"><linearGradient
       id="linearGradient5722"><stop
         style="stop-color:#977fff;stop-opacity:1;"
         offset="0"
         id="stop19596" /><stop
         style="stop-color:#1f0049;stop-opacity:1;"
         offset="1"
         id="stop19598" /></linearGradient><linearGradient
       id="linearGradient5722-1"><stop
         style="stop-color:#ffffff;stop-opacity:1;"
         offset="0"
         id="stop5718" /><stop
         style="stop-color:#73bbb6;stop-opacity:1;"
         offset="1"
         id="stop5720" /></linearGradient><clipPath
       clipPathUnits="userSpaceOnUse"
       id="clipPath1654"><path
         id="path1656"
         style="fill:#8f34af;fill-opacity:0.439216;stroke:none;stroke-width:0.828771;stroke-linecap:round;stroke-linejoin:bevel;stroke-miterlimit:0.1"
         d="m 873.14077,-188.53404 206.28353,714.53508 0.3415,0.0675 c 9.7291,1.92335 29.8926,2.9834 45.6052,2.39756 30.8474,-1.15017 42.0271,-4.29113 45.5657,-9.59775 2.2658,-3.398 0.5206,-9.03402 0.5059,-13.63456 -0.011,-3.45952 -0.59,-7.07705 -0.4471,-10.48942 0.3275,-7.81651 7.1432,-11.19865 13.6453,-12.54909 30.5391,-6.34276 53.9751,-4.71508 100.8751,-2.51091 15.9798,0.75101 18.5164,1.04797 22.02,2.57782 4.5558,1.9893 6.5195,4.68355 8.5848,11.77945 1.4508,4.98411 2.4541,7.32377 4.0429,9.42503 3.0844,4.07934 8.1753,6.49177 16.0917,7.62607 3.4369,0.49252 14.8208,0.42042 22.1844,-0.14085 15.7755,-1.20243 24.5827,-1.57746 37.1571,-1.58147 13.6387,-0.004 21.6271,0.527 31.249,2.07909 10.825,1.74618 16.5399,4.10217 18.3772,7.57537 0.5924,1.11982 0.6493,3.31219 0.1708,6.54494 -0.5297,3.57843 -0.5276,4.76189 0.011,6.60813 1.5683,5.37399 8.9829,9.32362 24.0815,12.82815 7.8812,1.8293 18.3123,3.31338 27.6768,4.02004 h 11.4303 l -206.1409,-714.04068 c -0.8184,-0.28241 -9.3587,-1.53032 -13.388,-1.9555 -8.7926,-0.92782 -13.0752,-1.11279 -25.5864,-1.10378 -14.4411,0.0104 -26.9363,0.67043 -36.6156,1.93391 -12.6005,1.64479 -19.1102,5.36357 -20.206,11.54355 -0.4591,2.58945 -0.2791,4.92348 0.7697,9.99286 1.2748,6.16124 1.4141,8.29966 0.7492,11.50038 -0.4036,1.9434 -2.0119,4.63468 -3.6258,6.06729 -6.1826,5.48801 -16.3565,7.55789 -41.9839,8.54202 -8.1162,0.31167 -38.3468,0.30247 -49.4815,-0.0151 -17.2064,-0.49072 -34.4115,-1.43542 -37.5396,-2.06129 -4.7422,-0.94882 -7.9671,-2.90265 -10.0573,-6.0932 -0.9334,-1.4248 -1.3128,-2.38353 -2.9438,-7.43879 -1.5856,-4.91409 -2.0414,-6.07795 -2.9767,-7.59693 -1.9592,-3.18193 -4.488,-5.27809 -8.187,-6.78568 -6.4524,-2.62978 -14.831,-3.13737 -32.1791,-1.94957 -16.898,1.15701 -19.54151,1.28008 -31.32909,1.45786 -12.13367,0.18299 -20.1946,-0.11194 -28.18207,-1.03037 -16.21899,-1.86496 -24.14856,-4.5162 -26.12465,-8.7358 -0.60363,-1.28897 -0.60978,-3.60707 -0.0207,-7.51812 0.75568,-5.01734 -0.38631,-7.93163 -4.23626,-10.81274 -6.86476,-5.13727 -25.87056,-9.77605 -46.68112,-11.46043 z"
         sodipodi:nodetypes="ccsssssssssssssssssscccsssssssssssssssssssscc" /></clipPath><clipPath
       clipPathUnits="userSpaceOnUse"
       id="clipPath1658"><path
         id="path1660"
         style="fill:#8f34af;fill-opacity:0.439216;stroke:none;stroke-width:0.828771;stroke-linecap:round;stroke-linejoin:bevel;stroke-miterlimit:0.1"
         d="m 873.14077,-188.53404 206.28353,714.53508 0.3415,0.0675 c 9.7291,1.92335 29.8926,2.9834 45.6052,2.39756 30.8474,-1.15017 42.0271,-4.29113 45.5657,-9.59775 2.2658,-3.398 0.5206,-9.03402 0.5059,-13.63456 -0.011,-3.45952 -0.59,-7.07705 -0.4471,-10.48942 0.3275,-7.81651 7.1432,-11.19865 13.6453,-12.54909 30.5391,-6.34276 53.9751,-4.71508 100.8751,-2.51091 15.9798,0.75101 18.5164,1.04797 22.02,2.57782 4.5558,1.9893 6.5195,4.68355 8.5848,11.77945 1.4508,4.98411 2.4541,7.32377 4.0429,9.42503 3.0844,4.07934 8.1753,6.49177 16.0917,7.62607 3.4369,0.49252 14.8208,0.42042 22.1844,-0.14085 15.7755,-1.20243 24.5827,-1.57746 37.1571,-1.58147 13.6387,-0.004 21.6271,0.527 31.249,2.07909 10.825,1.74618 16.5399,4.10217 18.3772,7.57537 0.5924,1.11982 0.6493,3.31219 0.1708,6.54494 -0.5297,3.57843 -0.5276,4.76189 0.011,6.60813 1.5683,5.37399 8.9829,9.32362 24.0815,12.82815 7.8812,1.8293 18.3123,3.31338 27.6768,4.02004 h 11.4303 l -206.1409,-714.04068 c -0.8184,-0.28241 -9.3587,-1.53032 -13.388,-1.9555 -8.7926,-0.92782 -13.0752,-1.11279 -25.5864,-1.10378 -14.4411,0.0104 -26.9363,0.67043 -36.6156,1.93391 -12.6005,1.64479 -19.1102,5.36357 -20.206,11.54355 -0.4591,2.58945 -0.2791,4.92348 0.7697,9.99286 1.2748,6.16124 1.4141,8.29966 0.7492,11.50038 -0.4036,1.9434 -2.0119,4.63468 -3.6258,6.06729 -6.1826,5.48801 -16.3565,7.55789 -41.9839,8.54202 -8.1162,0.31167 -38.3468,0.30247 -49.4815,-0.0151 -17.2064,-0.49072 -34.4115,-1.43542 -37.5396,-2.06129 -4.7422,-0.94882 -7.9671,-2.90265 -10.0573,-6.0932 -0.9334,-1.4248 -1.3128,-2.38353 -2.9438,-7.43879 -1.5856,-4.91409 -2.0414,-6.07795 -2.9767,-7.59693 -1.9592,-3.18193 -4.488,-5.27809 -8.187,-6.78568 -6.4524,-2.62978 -14.831,-3.13737 -32.1791,-1.94957 -16.898,1.15701 -19.54151,1.28008 -31.32909,1.45786 -12.13367,0.18299 -20.1946,-0.11194 -28.18207,-1.03037 -16.21899,-1.86496 -24.14856,-4.5162 -26.12465,-8.7358 -0.60363,-1.28897 -0.60978,-3.60707 -0.0207,-7.51812 0.75568,-5.01734 -0.38631,-7.93163 -4.23626,-10.81274 -6.86476,-5.13727 -25.87056,-9.77605 -46.68112,-11.46043 z"
         sodipodi:nodetypes="ccsssssssssssssssssscccsssssssssssssssssssscc" /></clipPath><clipPath
       clipPathUnits="userSpaceOnUse"
       id="clipPath1662"><path
         id="path1664"
         style="fill:#8f34af;fill-opacity:0.439216;stroke:none;stroke-width:0.828771;stroke-linecap:round;stroke-linejoin:bevel;stroke-miterlimit:0.1"
         d="m 873.14077,-188.53404 206.28353,714.53508 0.3415,0.0675 c 9.7291,1.92335 29.8926,2.9834 45.6052,2.39756 30.8474,-1.15017 42.0271,-4.29113 45.5657,-9.59775 2.2658,-3.398 0.5206,-9.03402 0.5059,-13.63456 -0.011,-3.45952 -0.59,-7.07705 -0.4471,-10.48942 0.3275,-7.81651 7.1432,-11.19865 13.6453,-12.54909 30.5391,-6.34276 53.9751,-4.71508 100.8751,-2.51091 15.9798,0.75101 18.5164,1.04797 22.02,2.57782 4.5558,1.9893 6.5195,4.68355 8.5848,11.77945 1.4508,4.98411 2.4541,7.32377 4.0429,9.42503 3.0844,4.07934 8.1753,6.49177 16.0917,7.62607 3.4369,0.49252 14.8208,0.42042 22.1844,-0.14085 15.7755,-1.20243 24.5827,-1.57746 37.1571,-1.58147 13.6387,-0.004 21.6271,0.527 31.249,2.07909 10.825,1.74618 16.5399,4.10217 18.3772,7.57537 0.5924,1.11982 0.6493,3.31219 0.1708,6.54494 -0.5297,3.57843 -0.5276,4.76189 0.011,6.60813 1.5683,5.37399 8.9829,9.32362 24.0815,12.82815 7.8812,1.8293 18.3123,3.31338 27.6768,4.02004 h 11.4303 l -206.1409,-714.04068 c -0.8184,-0.28241 -9.3587,-1.53032 -13.388,-1.9555 -8.7926,-0.92782 -13.0752,-1.11279 -25.5864,-1.10378 -14.4411,0.0104 -26.9363,0.67043 -36.6156,1.93391 -12.6005,1.64479 -19.1102,5.36357 -20.206,11.54355 -0.4591,2.58945 -0.2791,4.92348 0.7697,9.99286 1.2748,6.16124 1.4141,8.29966 0.7492,11.50038 -0.4036,1.9434 -2.0119,4.63468 -3.6258,6.06729 -6.1826,5.48801 -16.3565,7.55789 -41.9839,8.54202 -8.1162,0.31167 -38.3468,0.30247 -49.4815,-0.0151 -17.2064,-0.49072 -34.4115,-1.43542 -37.5396,-2.06129 -4.7422,-0.94882 -7.9671,-2.90265 -10.0573,-6.0932 -0.9334,-1.4248 -1.3128,-2.38353 -2.9438,-7.43879 -1.5856,-4.91409 -2.0414,-6.07795 -2.9767,-7.59693 -1.9592,-3.18193 -4.488,-5.27809 -8.187,-6.78568 -6.4524,-2.62978 -14.831,-3.13737 -32.1791,-1.94957 -16.898,1.15701 -19.54151,1.28008 -31.32909,1.45786 -12.13367,0.18299 -20.1946,-0.11194 -28.18207,-1.03037 -16.21899,-1.86496 -24.14856,-4.5162 -26.12465,-8.7358 -0.60363,-1.28897 -0.60978,-3.60707 -0.0207,-7.51812 0.75568,-5.01734 -0.38631,-7.93163 -4.23626,-10.81274 -6.86476,-5.13727 -25.87056,-9.77605 -46.68112,-11.46043 z"
         sodipodi:nodetypes="ccsssssssssssssssssscccsssssssssssssssssssscc" /></clipPath><clipPath
       clipPathUnits="userSpaceOnUse"
       id="clipPath1666"><path
         id="path1668"
         style="fill:#8f34af;fill-opacity:0.439216;stroke:none;stroke-width:0.828771;stroke-linecap:round;stroke-linejoin:bevel;stroke-miterlimit:0.1"
         d="m 873.14077,-188.53404 206.28353,714.53508 0.3415,0.0675 c 9.7291,1.92335 29.8926,2.9834 45.6052,2.39756 30.8474,-1.15017 42.0271,-4.29113 45.5657,-9.59775 2.2658,-3.398 0.5206,-9.03402 0.5059,-13.63456 -0.011,-3.45952 -0.59,-7.07705 -0.4471,-10.48942 0.3275,-7.81651 7.1432,-11.19865 13.6453,-12.54909 30.5391,-6.34276 53.9751,-4.71508 100.8751,-2.51091 15.9798,0.75101 18.5164,1.04797 22.02,2.57782 4.5558,1.9893 6.5195,4.68355 8.5848,11.77945 1.4508,4.98411 2.4541,7.32377 4.0429,9.42503 3.0844,4.07934 8.1753,6.49177 16.0917,7.62607 3.4369,0.49252 14.8208,0.42042 22.1844,-0.14085 15.7755,-1.20243 24.5827,-1.57746 37.1571,-1.58147 13.6387,-0.004 21.6271,0.527 31.249,2.07909 10.825,1.74618 16.5399,4.10217 18.3772,7.57537 0.5924,1.11982 0.6493,3.31219 0.1708,6.54494 -0.5297,3.57843 -0.5276,4.76189 0.011,6.60813 1.5683,5.37399 8.9829,9.32362 24.0815,12.82815 7.8812,1.8293 18.3123,3.31338 27.6768,4.02004 h 11.4303 l -206.1409,-714.04068 c -0.8184,-0.28241 -9.3587,-1.53032 -13.388,-1.9555 -8.7926,-0.92782 -13.0752,-1.11279 -25.5864,-1.10378 -14.4411,0.0104 -26.9363,0.67043 -36.6156,1.93391 -12.6005,1.64479 -19.1102,5.36357 -20.206,11.54355 -0.4591,2.58945 -0.2791,4.92348 0.7697,9.99286 1.2748,6.16124 1.4141,8.29966 0.7492,11.50038 -0.4036,1.9434 -2.0119,4.63468 -3.6258,6.06729 -6.1826,5.48801 -16.3565,7.55789 -41.9839,8.54202 -8.1162,0.31167 -38.3468,0.30247 -49.4815,-0.0151 -17.2064,-0.49072 -34.4115,-1.43542 -37.5396,-2.06129 -4.7422,-0.94882 -7.9671,-2.90265 -10.0573,-6.0932 -0.9334,-1.4248 -1.3128,-2.38353 -2.9438,-7.43879 -1.5856,-4.91409 -2.0414,-6.07795 -2.9767,-7.59693 -1.9592,-3.18193 -4.488,-5.27809 -8.187,-6.78568 -6.4524,-2.62978 -14.831,-3.13737 -32.1791,-1.94957 -16.898,1.15701 -19.54151,1.28008 -31.32909,1.45786 -12.13367,0.18299 -20.1946,-0.11194 -28.18207,-1.03037 -16.21899,-1.86496 -24.14856,-4.5162 -26.12465,-8.7358 -0.60363,-1.28897 -0.60978,-3.60707 -0.0207,-7.51812 0.75568,-5.01734 -0.38631,-7.93163 -4.23626,-10.81274 -6.86476,-5.13727 -25.87056,-9.77605 -46.68112,-11.46043 z"
         sodipodi:nodetypes="ccsssssssssssssssssscccsssssssssssssssssssscc" /></clipPath><linearGradient
       inkscape:collect="always"
       id="linearGradient44841"><stop
         style="stop-color:#3a2766;stop-opacity:1;"
         offset="0"
         id="stop44837" /><stop
         style="stop-color:#209bd5;stop-opacity:0;"
         offset="1"
         id="stop44839" /></linearGradient><linearGradient
       inkscape:collect="always"
       id="linearGradient13831"><stop
         style="stop-color:#d8e9f3;stop-opacity:1;"
         offset="0"
         id="stop13827" /><stop
         style="stop-color:#d8e9f3;stop-opacity:0;"
         offset="1"
         id="stop13829" /></linearGradient><linearGradient
       inkscape:collect="always"
       id="linearGradient20995"><stop
         style="stop-color:#23e3ec;stop-opacity:1;"
         offset="0"
         id="stop20991" /><stop
         style="stop-color:#ff1793;stop-opacity:1;"
         offset="1"
         id="stop20993" /></linearGradient><linearGradient
       id="linearGradient31993"><stop
         style="stop-color:#002255;stop-opacity:1;"
         offset="0"
         id="stop39728" /><stop
         style="stop-color:#002255;stop-opacity:0;"
         offset="1"
         id="stop39730" /></linearGradient><linearGradient
       inkscape:collect="always"
       xlink:href="#linearGradient20995"
       id="linearGradient2314"
       x1="868.96277"
       y1="-114.05416"
       x2="945.78314"
       y2="-114.05416"
       gradientUnits="userSpaceOnUse"
       gradientTransform="matrix(1,0,0,0.96316751,-1023.0478,-69.943254)" /><linearGradient
       inkscape:collect="always"
       xlink:href="#linearGradient20995"
       id="linearGradient2316"
       x1="869.03882"
       y1="471.48611"
       x2="993.0235"
       y2="471.48611"
       gradientUnits="userSpaceOnUse"
       gradientTransform="matrix(1,0,0,0.96316751,-1022.9873,-67.394872)" /><linearGradient
       inkscape:collect="always"
       xlink:href="#linearGradient5722"
       id="linearGradient2318"
       x1="1225.2596"
       y1="450.65479"
       x2="1292.2965"
       y2="450.65479"
       gradientUnits="userSpaceOnUse"
       gradientTransform="matrix(1,0,0,0.96316751,-1022.9873,-67.904548)" /><linearGradient
       inkscape:collect="always"
       xlink:href="#linearGradient31993"
       id="linearGradient2326"
       x1="1373.8013"
       y1="180.24605"
       x2="1508.5934"
       y2="180.24605"
       gradientUnits="userSpaceOnUse" /><linearGradient
       inkscape:collect="always"
       xlink:href="#linearGradient13831"
       id="linearGradient2334"
       x1="1228.6824"
       y1="180.24605"
       x2="1488.4935"
       y2="180.24605"
       gradientUnits="userSpaceOnUse" /><linearGradient
       inkscape:collect="always"
       xlink:href="#linearGradient13831"
       id="linearGradient2342"
       x1="1001.9244"
       y1="180.24605"
       x2="1390.0483"
       y2="199.73309"
       gradientUnits="userSpaceOnUse" /><linearGradient
       inkscape:collect="always"
       xlink:href="#linearGradient20995"
       id="linearGradient2392"
       x1="1225.7657"
       y1="434.74792"
       x2="1292.2964"
       y2="434.74792"
       gradientUnits="userSpaceOnUse"
       gradientTransform="matrix(1.0188127,0,0,0.97692212,-1047.3596,-73.111705)" /><linearGradient
       inkscape:collect="always"
       xlink:href="#linearGradient5722"
       id="linearGradient2394"
       x1="868.90228"
       y1="482.0578"
       x2="930.65265"
       y2="482.0578"
       gradientUnits="userSpaceOnUse"
       gradientTransform="matrix(1.0174848,0,0,0.9800083,-1038.1799,-76.24145)" /><linearGradient
       inkscape:collect="always"
       xlink:href="#linearGradient44841"
       id="linearGradient2404"
       x1="873.14075"
       y1="180.24605"
       x2="1049.6333"
       y2="180.24605"
       gradientUnits="userSpaceOnUse" /><linearGradient
       inkscape:collect="always"
       xlink:href="#linearGradient5722"
       id="linearGradient2408"
       x1="1236.2468"
       y1="-89.777565"
       x2="1292.3042"
       y2="-89.777565"
       gradientUnits="userSpaceOnUse"
       gradientTransform="matrix(1,0,0,0.96316751,-1023.0559,-69.943254)" /><radialGradient
       inkscape:collect="always"
       xlink:href="#linearGradient5722"
       id="radialGradient19590"
       cx="1341.6273"
       cy="363.60168"
       fx="1341.6273"
       fy="363.60168"
       r="111.91875"
       gradientTransform="matrix(1,0,0,1.0562296,-680.06015,-183.43592)"
       gradientUnits="userSpaceOnUse" /><radialGradient
       inkscape:collect="always"
       xlink:href="#linearGradient5722-1"
       id="radialGradient19592"
       cx="1445.8285"
       cy="319.01108"
       fx="1445.8285"
       fy="319.01108"
       r="82.078552"
       gradientTransform="matrix(1.6867915,1.3503235,-1.5964157,1.9987376,-1156.7185,-2400.8912)"
       gradientUnits="userSpaceOnUse" /><radialGradient
       inkscape:collect="always"
       xlink:href="#linearGradient20995"
       id="radialGradient19594"
       cx="1310.5137"
       cy="240.00298"
       fx="1310.5137"
       fy="240.00298"
       r="70.386002"
       gradientTransform="matrix(-1.3076372,3.0815842,-2.1134598,-0.88654883,2920.7186,-3811.9357)"
       gradientUnits="userSpaceOnUse" /></defs><g
     inkscape:label="Layer 1"
     inkscape:groupmode="layer"
     id="layer1"
     transform="translate(-590.2782,-26.990498)"><path
       style="fill:url(#radialGradient19590);fill-opacity:1;stroke-width:0.263822"
       d="M 590.32855,148.55608 V 32.039983 31.895975 c 0.9095,-0.07924 4.6169,-0.210414 6.2177,-0.291565 4.6441,-0.235459 13.6774,-0.889669 21.8281,-1.580845 19.5725,-1.65973 31.6701,-1.798339 45.1548,-0.517381 27.4971,2.612037 48.49,11.277475 64.3498,26.562215 4.3106,4.154295 7.4709,7.743844 14.3824,16.335906 13.0164,16.1813 25.5282,29.757105 37.6408,40.841905 7.0571,6.4582 9.0473,8.42419 10.9573,10.82405 10.5641,13.27338 18.50867,33.61999 21.17377,50.24508 0.8134,5.07358 1.0745,8.32665 1.0745,13.38619 0,13.30403 -3.3617,24.17363 -10.6227,34.34668 -2.1321,2.98722 -7.5083,8.52773 -10.9405,11.27489 -11.3655,9.09694 -25.74857,14.01305 -45.84787,18.1685 -9.8611,2.03873 -20.9406,3.43478 -36.9671,0.94869 -8.8843,-1.37815 -15.7713,-2.14356 -26.4583,-2.9405 -6.9342,-0.51709 -27.3231,-0.4334 -33.4698,0.13738 -9.9854,0.92723 -18.712,2.47875 -25.5726,4.54659 -3.3403,1.00681 -6.4374,2.19796 -11.1626,4.29317 -4.4164,1.95835 -9.9932,3.7989 -16.0048,5.28229 -2.9265,0.72212 -5.6196,1.09169 -5.7329,1.09169 -0.1133,0 0,-52.21099 0,-116.29483 z"
       id="path18196-5"
       sodipodi:nodetypes="scsssssssssssssssssssss" /><path
       style="fill:url(#radialGradient19594);fill-opacity:1;stroke-width:0.263822"
       d="m 661.9803,138.61538 c -14.7766,-9.64711 -32.511,-14.94719 -50.2462,-13.67934 -7.306,0.41876 -14.5555,1.93317 -21.4559,4.34762 0,-33.020875 0,-66.041749 0,-99.062615 26.1915,-1.032534 52.4747,-5.493259 78.6566,-1.777062 23.1018,2.797605 46.1864,11.827488 62.1154,29.206338 -2.1244,2.288277 -8.4389,4.045255 -11.5554,6.740799 -12.155,7.467729 -21.0596,18.910489 -28.2705,30.964279 -9.3953,14.622931 -18.6677,29.327071 -28.2442,43.833091 z"
       id="path18956" /><path
       style="fill:url(#radialGradient19592);fill-opacity:1;stroke-width:0.26465"
       d="m 679.90584,241.34778 c -28.947,-14.54171 -35.7499,-59.04388 -25.3783,-89.70305 5.1056,-15.08768 14.8836,-27.93804 23.5299,-41.16941 9.9137,-15.170759 20.63401,-29.876301 32.3977,-43.659189 12.19531,-14.288587 13.55893,-16.481903 18.5992,-11.251878 16.64666,17.273367 63.9461,50.722417 79.5554,101.016607 4.8623,15.66678 17.1174,56.13781 -24.457,82.75061 -12.5909,8.05972 -52.0875,28.21893 -104.2469,2.01631 z"
       id="path18946"
       sodipodi:nodetypes="ssasssss" /><g
       inkscape:label="Layer 1"
       id="layer1-4"
       transform="translate(2930.7697,351.03977)"><path
         id="rect744"
         style="fill:#ffffff;fill-opacity:0.439216;stroke:none;stroke-width:0.79586;stroke-linecap:round;stroke-linejoin:bevel;stroke-miterlimit:0.1"
         d="m -153.67936,-225.13342 v 658.9132 l 0.32194,0.0622 c 9.17385,1.77362 29.03139,2.75115 44.91302,2.21092 31.179536,-1.06063 43.266026,-3.9571 48.336606,-8.85064 3.24684,-3.13348 3.1287,-8.33076 4.44211,-12.57318 0.98766,-3.19022 1.45312,-6.52617 2.58123,-9.67289 2.58412,-7.20805 10.37613,-10.32691 17.2682,-11.57224 32.3702094,-5.84902 55.33619,-4.34803 101.59999,-2.31544 15.7629,0.69255 18.2137,0.96637 21.2757,2.37715 3.9815,1.83445 5.1674,4.31896 5.1842,10.86248 0.012,4.59615 0.3397,6.75369 1.3219,8.69138 1.9067,3.76177 6.30099,5.9864 13.890084,7.03243 3.2947,0.45415 14.6994,0.38766 22.225,-0.12991 16.1227,-1.10882 25.0381,-1.45465 37.6137,-1.45834 13.6399,-0.004 21.475,0.48597 30.6488,1.91725 10.3208,1.61024 15.3556,3.78282 16.1902,6.98565 0.2691,1.03266 -0.3069,3.05437 -1.7188,6.03548 -1.5627,3.29985 -1.9023,4.39119 -1.8965,6.09372 0.017,4.95567 6.2913,8.59784 20.3781,11.82956 7.3531,1.68689 17.3557,3.05547 26.5162,3.7071 h 11.4303 V -203.4448 c -0.7369,-0.26043 -8.9169,-1.41119 -12.8235,-1.80328 -8.5247,-0.85559 -12.7539,-1.02617 -25.2677,-1.01785 -14.4441,0.01 -27.13,0.61823 -37.1739,1.78336 -13.0754,1.51676 -20.6587,4.94606 -23.5387,10.64496 -1.2067,2.38788 -1.7004,4.54022 -2.1151,9.21498 -0.504,5.68163 -0.982,7.65359 -2.5709,10.60515 -0.9647,1.79213 -3.3499,4.27391 -5.3774,5.595 -7.767,5.0608 -18.5385,6.96954 -44.45,7.87707 -8.2062,0.28741 -38.434184,0.27892 -49.477084,-0.014 -17.0647,-0.45251 -33.9971,-1.32368 -36.9445,-1.90083 -4.4683,-0.87496 -7.1291,-2.67668 -8.2982,-5.61887 -0.5221,-1.31389 -0.6248,-2.19799 -0.7964,-6.85972 -0.1668,-4.53157 -0.2867,-5.60483 -0.7834,-7.00556 -1.0405,-2.93425 -2.9642,-4.86724 -6.228,-6.25747 -5.6932306,-2.42507 -13.92525075,-2.89315 -31.61617,-1.7978 -17.23211,1.06694 -19.91114,1.18043 -31.75,1.34437 -12.18658,0.16874 -20.16233,-0.10323 -27.88461,-0.95017 -15.68063,-1.71978 -22.844796,-4.16464 -23.602696,-8.05577 -0.23151,-1.18863 0.43156,-3.32629 2.149746,-6.93289 2.20416,-4.62676 1.90352,-7.31419 -1.114666,-9.97103 -5.38168,-4.73737 -23.04828,-9.01506 -43.37256,-10.56832 z"
         sodipodi:nodetypes="ccsssssssssssssssssscccsssssssssssssssssssscc" /><g
         id="g1674"
         transform="matrix(1.0019206,0,0,0.964274,-1083.4363,-51.46652)"><rect
           style="fill:url(#linearGradient2404);fill-opacity:1;stroke:none;stroke-width:0.257891;stroke-linecap:round;stroke-linejoin:bevel;stroke-miterlimit:0.1"
           id="rect1540"
           width="164.99541"
           height="796.85492"
           x="836.92938"
           y="-234.19427"
           transform="matrix(1,0,-0.28869622,0.95742075,0,0)"
           clip-path="url(#clipPath1666)" /><rect
           style="fill:url(#linearGradient2342);fill-opacity:1;stroke:none;stroke-width:0.302329;stroke-linecap:round;stroke-linejoin:bevel;stroke-miterlimit:0.1"
           id="rect1540-6"
           width="226.75766"
           height="796.85492"
           x="1001.9244"
           y="-234.19427"
           transform="matrix(1,0,-0.28869622,0.95742075,0,0)"
           clip-path="url(#clipPath1662)" /><rect
           style="fill:url(#linearGradient2334);fill-opacity:1;stroke:none;stroke-width:0.241859;stroke-linecap:round;stroke-linejoin:bevel;stroke-miterlimit:0.1"
           id="rect1540-6-7"
           width="145.11884"
           height="796.85492"
           x="1228.6824"
           y="-234.19427"
           transform="matrix(1,0,-0.28869622,0.95742075,0,0)"
           clip-path="url(#clipPath1658)" /><rect
           style="fill:url(#linearGradient2326);fill-opacity:1;stroke:none;stroke-width:0.241859;stroke-linecap:round;stroke-linejoin:bevel;stroke-miterlimit:0.1"
           id="rect1540-6-7-5"
           width="145.11884"
           height="796.85492"
           x="1373.8013"
           y="-234.19427"
           transform="matrix(1,0,-0.28869622,0.95742075,0,0)"
           clip-path="url(#clipPath1654)" /></g><path
         id="path1441"
         style="fill:url(#linearGradient2408);fill-opacity:1;stroke-width:0.259665"
         d="m 234.78059,-206.53966 c -0.9868,0.0139 -14.3649,21.91661 -15.522,23.95703 -2.3582,4.15849 -4.4442,10.12205 -5.4602,15.60934 -0.5767,3.1151 -0.7998,10.32526 -0.418,13.51139 1.4627,12.20612 6.7499,22.89027 15.5107,31.34209 6.1761,5.9582 15.7908,11.46546 24.2352,13.88171 2.5,0.71535 7.1566,1.65724 9.2346,1.86799 0.5094,0.0516 2.1761,0.0967 3.7041,0.10055 l 2.7782,0.007 0.4051,-0.18665 -0.07,-40.14646 c -0.048,-27.60461 -0.044,-42.98359 0,-47.87569 0.04,-4.89211 0.095,-9.11288 0.047,-9.15921 -0.077,-0.0739 -10.0403,-3.25222 -34.4447,-2.90902 z m -20.56,39.21298 c -0.014,0.0767 -0.027,0.1533 -0.041,0.22995 0.013,-0.0767 0.027,-0.15329 0.041,-0.22995 z"
         sodipodi:nodetypes="sscssssscccccsccc" /><path
         style="fill:url(#linearGradient2314);fill-opacity:1;stroke-width:0.259665"
         d="m -142.57566,-136.52376 c -3.80861,-0.32503 -7.48249,-1.30694 -10.25261,-2.74017 l -1.25677,-0.65024 v -26.67271 -26.67271 l 1.91823,-2.20644 c 5.88396,-6.76801 26.19715,-27.55986 26.56913,-27.68696 0.89575,-0.30607 11.12131,2.00935 15.96575,3.61522 8.75095,2.9008 12.33304,6.24442 11.47564,10.71169 -0.15145,0.78911 -0.81559,2.58945 -1.47587,4.00075 -1.65311,3.53343 -1.95572,4.42195 -1.96886,5.78103 -0.0138,1.42374 0.49211,2.43289 1.75492,3.50081 2.87007,2.42714 8.68669,3.9286 21.38468,5.52009 0.89886,0.11266 1.24852,0.26449 1.19062,0.51702 -0.12679,0.55303 -40.34903,43.55277 -42.40902,45.42449 -6.04172,5.48952 -14.48305,8.27609 -22.89584,7.55813 z"
         id="path1443"
         sodipodi:nodetypes="sscccsccsccsssss" /><path
         style="fill:url(#linearGradient2316);fill-opacity:1;stroke-width:0.259665"
         d="m -96.364086,408.24498 c 1.443239,-3.0851 2.855255,-6.25951 3.43632,-9.59672 0.803112,-4.61248 1.483339,-9.57642 0.003,-14.03068 -2.220608,-6.68169 -11.805394,-10.1688 -12.693054,-17.13217 -0.39729,-3.11665 9.51105,-18.38244 11.41661,-20.53773 1.98467,-2.24473 5.27474,-5.01324 7.90956,-6.65563 8.74232,-5.44948 19.93993,-7.00914 30.10026,-4.19257 2.86133,0.79321 7.54597,2.93273 10.14347,4.63261 14.29365,9.35423 19.84722,26.82858 13.45175,42.32605 -0.79313,1.92191 -2.189736,6.01071 -5.586837,9.02379 -4.192253,3.71834 -4.074473,2.83845 -7.001155,4.67267 -8.372307,5.24712 -9.301528,16.14967 -10.263128,20.0874 -1.78127,7.29426 -1.481706,9.75763 -4.661296,12.83235 -1.53357,1.48298 -2.37872,2.04819 -4.65214,3.11117 -5.50852,2.57563 -11.84114,3.82935 -23.9448,4.74062 -4.70386,0.35416 -11.173729,1.12991 -25.450234,1.02928 -6.30293,-0.0444 12.84139,-19.7286 17.791674,-30.31044 z"
         id="path1437"
         sodipodi:nodetypes="aaaassssssssssssa" /><path
         style="fill:url(#linearGradient2318);fill-opacity:1;stroke-width:0.259665"
         d="m 261.3713,455.45628 c -17.4663,-0.92691 -34.6833,-4.12145 -43.3789,-8.04876 -4.3521,-1.96561 -6.5798,-3.9858 -7.1325,-6.46794 -0.3943,-1.77102 -0.017,-3.33981 1.677,-6.98048 2.63055,-5.6223 2.06676,-6.29324 2.22616,-8.11544 0.058,-0.66102 4.98354,-6.99712 13.12984,-20.64189 6.3805,-10.68727 12.4749,-20.71277 13.5431,-22.27891 4.0276,-5.90503 10.28358,-9.98216 16.6953,-13.08195 3.00784,-1.45417 6.47538,-1.81453 9.7889,-2.382 0.45835,-0.0785 1.389,-0.14029 1.389,-0.14029 v 44.2024 44.2024 l -2.1828,-0.0388 c -1.2005,-0.0214 -3.7901,-0.12411 -5.7547,-0.22836 z"
         id="path1412"
         sodipodi:nodetypes="sssccssaacccsss" /><path
         style="fill:url(#linearGradient2392);fill-opacity:1;stroke-width:0.26396"
         d="m 211.77081,423.90933 c -5.07131,-5.06638 -8.3803,-11.15016 -9.83405,-18.08066 -0.33765,-1.60993 -0.47067,-3.48599 -0.47067,-6.63827 0,-6.05832 0.87529,-9.99413 3.33391,-14.99168 1.02654,-2.08625 17.64367,-29.93031 55.76428,-93.43956 4.22378,-7.03704 8.42623,-13.25988 8.69186,-13.82853 0.003,-0.0178 -0.008,91.31144 -0.008,91.31144 0,0 -1.49339,0.24377 -2.02178,0.31758 -1.52617,0.21317 -6.62394,1.27311 -9.37016,2.32678 -7.03048,2.69755 -12.90313,7.27927 -17.00565,13.26736 -1.08824,1.5885 -7.29733,11.75718 -13.79787,22.59707 -8.29956,13.83962 -11.9547,19.70889 -12.27402,19.70889 -0.25013,0 -1.60359,-1.14769 -3.0078,-2.55042 z"
         id="path1431"
         sodipodi:nodetypes="ssscsccsssssss" /><path
         id="path1410"
         style="fill:url(#linearGradient2394);fill-opacity:1;stroke-width:0.264205"
         d="m -125.19946,352.28933 c -9.01773,0.006 -17.68568,3.36135 -24.19904,9.36827 -2.35438,2.05063 -4.65657,4.41487 -4.65657,4.41487 l 0.001,0.83918 0.032,38.26404 c 0,0 -0.003,28.19268 -0.003,28.90321 0,1.37649 -0.30501,1.28514 0.46819,1.64102 1.08686,0.50027 14.69406,2.14782 20.64318,2.42395 5.94913,0.27612 20.34088,0.41959 20.34088,0.41959 0,0 7.49418,-14.50063 10.26088,-19.2182 7.626773,-13.00463 9.126693,-14.50324 11.361786,-22.58794 0.95824,-3.46611 0.77281,-7.85025 0.773901,-10.73481 0.0071,-18.63048 -15.680767,-33.73338 -35.023697,-33.73318 z"
         sodipodi:nodetypes="cccccssscsascc" /></g></g></svg>
