<svg xmlns="http://www.w3.org/2000/svg" xmlns:xlink="http://www.w3.org/1999/xlink" xml:space="preserve" width="1600" height="932" viewBox="0 0 423.333 246.592"><defs><path id="d" stroke-width=".265" d="M129.071-72.283a6554.265 6554.265 0 0 1-17.33 14.542c-2.961 2.469-9.672 7.96-14.911 12.204-5.24 4.243-10.983 8.791-12.764 10.107-1.781 1.315-4.494 3.212-6.029 4.215-1.534 1.003-3.837 2.338-5.116 2.967-1.28.628-3.251 1.375-4.381 1.66-1.321.332-2.625.433-3.652.282-.878-.129-2.233-.577-3.01-.996-1.254-.676-1.855-1.257-5.382-5.2-3.886-4.343-4.006-4.454-5.609-5.204-1.075-.502-2.35-.807-3.713-.887-1.141-.066-2.742.038-3.557.233-.816.195-2.422.776-3.57 1.291-1.148.516-3.054 1.547-4.235 2.291-1.37.863-3.934 2.879-7.078 5.563-2.711 2.315-6.202 5.47-7.756 7.012-1.555 1.542-5.084 5.02-7.844 7.727A569.71 569.71 0 0 1 2.618-4.479C-.785-1.339-6.623 3.698-12.708 8.743c-6.525 5.41-11.001 8.965-13.32 10.576-1.922 1.334-4.562 3.1-5.868 3.922a102.151 102.151 0 0 1-4.63 2.723 59.15 59.15 0 0 1-4.429 2.14c-1.196.502-2.822 1.07-3.612 1.262-.791.193-2.129.401-2.973.464-1.041.076-2.01-.095-3.016-.535-1.248-.546-1.6-.83-2.246-1.803-.482-.726-.976-2.073-1.33-3.629-.312-1.36-.866-3.145-1.233-3.965a8.698 8.698 0 0 0-1.83-2.658c-.788-.791-1.635-1.35-2.625-1.733-.804-.31-2.304-.596-3.333-.634-1.029-.038-3.02.198-4.425.526-1.405.327-3.825 1.122-5.378 1.766-1.553.645-4.107 1.867-5.676 2.717-1.569.85-3.83 2.14-5.026 2.868-1.195.728-3.52 2.221-5.165 3.318-1.646 1.097-4.785 3.286-6.976 4.865a404.046 404.046 0 0 0-8.703 6.51c-2.595 2.002-6.067 4.627-7.715 5.833-1.649 1.206-3.382 2.43-3.852 2.72l-.854.527-57.573-67.882-57.574-67.882 161.425-136.911L90.781-363.064l64.546 76.104 64.546 76.103-5.414 4.354a479.849 479.849 0 0 1-10.61 8.248c-2.859 2.143-8.106 6.264-11.66 9.16-4.011 3.265-8.112 6.814-10.804 9.35-2.387 2.248-5.452 5.26-6.812 6.695a162.68 162.68 0 0 0-4.641 5.15c-1.194 1.399-2.995 3.694-4.001 5.1-1.007 1.407-2.404 3.539-3.105 4.738-.7 1.199-1.685 3.146-2.188 4.328-.503 1.182-1.13 2.928-1.392 3.88-.263.953-.534 2.705-.601 3.894-.068 1.19.066 2.948.296 3.908.231.96.812 2.412 1.29 3.227.734 1.25 1.127 1.67 2.513 2.685 1.037.759 2.313 1.99 3.457 3.335 1.802 2.117 1.819 2.148 2.446 4.678.497 2.003.578 3.152.38 5.375-.138 1.555-.627 3.981-1.087 5.392-.46 1.41-1.342 3.584-1.96 4.83a72.77 72.77 0 0 1-2.5 4.52c-.757 1.241-2.24 3.45-3.296 4.91-1.056 1.458-3.135 4.073-4.619 5.81a167.88 167.88 0 0 1-5.37 5.941 239.845 239.845 0 0 1-5.925 5.898c-1.79 1.714-8.63 7.64-15.199 13.168z"/><path id="e" stroke-width=".265" d="M129.071-72.283a6556.556 6556.556 0 0 1-17.33 14.542c-2.961 2.469-9.672 7.96-14.911 12.204-5.24 4.243-10.983 8.791-12.764 10.107-1.781 1.315-4.494 3.212-6.029 4.215-1.534 1.003-3.837 2.338-5.116 2.967-1.28.628-3.251 1.375-4.381 1.66-1.321.332-2.625.433-3.652.282-.878-.129-2.233-.577-3.01-.996-1.254-.676-1.855-1.257-5.382-5.2-3.886-4.343-4.006-4.454-5.609-5.204-1.075-.502-2.35-.807-3.713-.887-1.141-.066-2.742.038-3.557.233-.816.195-2.422.776-3.57 1.291-1.148.516-3.054 1.547-4.235 2.291-1.37.863-3.934 2.879-7.078 5.563-2.711 2.315-6.202 5.47-7.756 7.012-1.555 1.542-5.084 5.02-7.844 7.727A569.71 569.71 0 0 1 2.618-4.479C-.785-1.339-6.623 3.698-12.708 8.743c-6.525 5.41-11.001 8.965-13.32 10.576-1.922 1.334-4.562 3.1-5.868 3.922a102.151 102.151 0 0 1-4.63 2.723 59.15 59.15 0 0 1-4.429 2.14c-1.196.502-2.822 1.07-3.612 1.262-.791.193-2.129.401-2.973.464-1.041.076-2.01-.095-3.016-.535-1.248-.546-1.6-.83-2.246-1.803-.482-.726-.976-2.073-1.33-3.629-.312-1.36-.866-3.145-1.233-3.965a8.698 8.698 0 0 0-1.83-2.658c-.788-.791-1.635-1.35-2.625-1.733-.804-.31-2.304-.596-3.333-.634-1.029-.038-3.02.198-4.425.526-1.405.327-3.825 1.122-5.378 1.766-1.553.645-4.107 1.867-5.676 2.717-1.569.85-3.83 2.14-5.026 2.868-1.195.728-3.52 2.221-5.165 3.318-1.646 1.097-4.785 3.286-6.976 4.865a404.047 404.047 0 0 0-8.703 6.51c-2.595 2.002-6.067 4.627-7.715 5.833-1.649 1.206-3.382 2.43-3.852 2.72l-.854.527-57.573-67.882-57.574-67.882 161.425-136.911L90.781-363.064l64.546 76.104 64.546 76.103-5.414 4.354a479.849 479.849 0 0 1-10.61 8.248c-2.859 2.143-8.106 6.264-11.66 9.16-4.011 3.265-8.112 6.814-10.804 9.35-2.387 2.248-5.452 5.26-6.812 6.695a162.68 162.68 0 0 0-4.641 5.15c-1.194 1.399-2.995 3.694-4.001 5.1-1.007 1.407-2.404 3.539-3.105 4.738-.7 1.199-1.685 3.146-2.188 4.328-.503 1.182-1.13 2.928-1.392 3.88-.263.953-.534 2.705-.601 3.894-.068 1.19.066 2.948.296 3.908.231.96.812 2.412 1.29 3.227.734 1.25 1.127 1.67 2.513 2.685 1.037.759 2.313 1.99 3.457 3.335 1.802 2.117 1.819 2.148 2.446 4.678.497 2.003.578 3.152.38 5.375-.138 1.555-.627 3.981-1.087 5.392-.46 1.41-1.342 3.584-1.96 4.83a72.77 72.77 0 0 1-2.5 4.52c-.757 1.241-2.24 3.45-3.296 4.91-1.056 1.458-3.135 4.073-4.619 5.81-1.484 1.737-3.9 4.41-5.37 5.941a239.838 239.838 0 0 1-5.925 5.898c-1.79 1.714-8.63 7.64-15.199 13.168z" opacity=".582"/></defs><defs><linearGradient id="g"><stop offset="0" stop-color="#3a2766"/><stop offset="1" stop-color="#209bd5" stop-opacity="0"/></linearGradient><linearGradient id="c"><stop offset="0" stop-color="#025"/><stop offset="1" stop-color="#025" stop-opacity="0"/></linearGradient><linearGradient id="a"><stop offset="0" stop-color="#23e3ec"/><stop offset="1" stop-color="#ff1793"/></linearGradient><linearGradient id="b"><stop offset="0" stop-color="#d8e9f3"/><stop offset="1" stop-color="#d8e9f3" stop-opacity="0"/></linearGradient><linearGradient id="f"><stop offset="0" stop-color="#eff6fc"/><stop offset="1" stop-color="#eff6fc" stop-opacity="0"/></linearGradient><linearGradient xlink:href="#a" id="n" x1="99.227" x2="219.873" y1="-198.563" y2="-198.563" gradientUnits="userSpaceOnUse"/><linearGradient xlink:href="#a" id="r" x1="18.422" x2="143.212" y1="-197.317" y2="-197.317" gradientUnits="userSpaceOnUse"/><linearGradient xlink:href="#b" id="t" x1="328.154" x2="328.154" y1="-227.814" y2="-190.226" gradientTransform="matrix(.8994 0 0 1 8.929 21.636)" gradientUnits="userSpaceOnUse"/><linearGradient xlink:href="#c" id="p" x1="157.652" x2="219.873" y1="-261.675" y2="-261.675" gradientTransform="translate(3.765 4.44)" gradientUnits="userSpaceOnUse"/><clipPath id="s" clipPathUnits="userSpaceOnUse"><path stroke-width=".265" d="M145.19 28.36c-8.587-.032-18.766-.085-22.623-.118-3.856-.033-12.526-.185-19.266-.338-6.74-.153-14.063-.4-16.272-.549-2.21-.148-5.505-.456-7.324-.684-1.82-.228-4.439-.7-5.821-1.047-1.383-.349-3.37-1.054-4.415-1.568-1.222-.601-2.281-1.367-2.967-2.147-.587-.666-1.33-1.884-1.652-2.706-.519-1.327-.602-2.159-.741-7.447-.154-5.826-.174-5.988-.911-7.597-.495-1.078-1.271-2.136-2.258-3.078-.828-.789-2.116-1.744-2.864-2.123-.748-.38-2.349-.975-3.558-1.325-1.209-.349-3.329-.795-4.711-.992-1.603-.227-4.862-.349-8.996-.336-3.565.012-8.268.16-10.451.331-2.183.17-7.124.54-10.98.82-3.857.28-10.375.65-14.486.822-4.627.193-12.337.258-20.24.17-8.477-.094-14.19-.279-17-.55-2.329-.226-5.484-.588-7.012-.805a102.15 102.15 0 0 1-5.291-.918 59.15 59.15 0 0 1-4.763-1.233c-1.237-.39-2.844-1.009-3.572-1.373a22.072 22.072 0 0 1-2.566-1.57c-.844-.615-1.472-1.373-1.954-2.358-.6-1.224-.685-1.668-.548-2.828.103-.865.597-2.212 1.333-3.629.643-1.238 1.374-2.958 1.625-3.82a8.698 8.698 0 0 0 .323-3.211c-.089-1.114-.373-2.087-.88-3.02-.413-.757-1.372-1.945-2.132-2.64-.76-.694-2.432-1.802-3.715-2.46-1.284-.66-3.643-1.619-5.244-2.132-1.6-.513-4.34-1.233-6.086-1.6a140.267 140.267 0 0 0-5.688-1.063 184.249 184.249 0 0 0-6.086-.81c-1.964-.228-5.774-.59-8.466-.803a404.038 404.038 0 0 0-10.848-.664c-3.274-.152-7.62-.395-9.657-.542-2.038-.146-4.151-.334-4.697-.417l-.992-.15v-178.019h423.333v199.58l-6.945-.183c-3.82-.1-9.862-.358-13.427-.572-3.566-.215-10.233-.466-14.817-.557-5.171-.104-10.594-.05-14.288.143-3.274.17-7.56.485-9.525.7-1.964.215-5.056.632-6.871.926-1.815.294-4.672.88-6.35 1.3-1.678.423-4.122 1.145-5.432 1.606-1.31.461-3.32 1.31-4.468 1.886-1.148.576-2.755 1.502-3.572 2.058-.817.557-2.156 1.718-2.977 2.581-.82.863-1.856 2.29-2.301 3.172-.445.881-.942 2.365-1.104 3.296-.249 1.428-.22 2.002.18 3.673.3 1.249.476 3.013.48 4.779.004 2.78-.004 2.815-1.162 5.15-.916 1.849-1.597 2.778-3.186 4.345-1.112 1.096-3.054 2.63-4.317 3.409-1.263.779-3.342 1.865-4.619 2.415a72.775 72.775 0 0 1-4.831 1.83c-1.38.457-3.94 1.183-5.689 1.612-1.749.43-5.025 1.08-7.28 1.444a167.76 167.76 0 0 1-7.938 1.058c-2.11.217-5.86.517-8.335.665-2.473.149-11.522.244-20.108.212z"/></clipPath><clipPath id="o" clipPathUnits="userSpaceOnUse"><use xlink:href="#d" stroke-width=".265"/></clipPath><clipPath id="m" clipPathUnits="userSpaceOnUse"><use xlink:href="#d" stroke-width=".265"/></clipPath><clipPath id="k" clipPathUnits="userSpaceOnUse"><use xlink:href="#d" stroke-width=".265"/></clipPath><clipPath id="q" clipPathUnits="userSpaceOnUse"><use xlink:href="#e" stroke-width=".265" opacity=".582"/></clipPath><clipPath id="i" clipPathUnits="userSpaceOnUse"><use xlink:href="#e" stroke-width=".265"/></clipPath><radialGradient xlink:href="#f" id="j" cx="86.787" cy="-134.751" r="155.317" fx="86.787" fy="-134.751" gradientTransform="matrix(-.4011 1.1204 -1.0988 -.3934 -172.616 -168.13)" gradientUnits="userSpaceOnUse"/><radialGradient xlink:href="#b" id="l" cx="55.021" cy="-146.318" r="96.563" fx="55.021" fy="-146.318" gradientTransform="matrix(1 0 0 1.7908 0 150.367)" gradientUnits="userSpaceOnUse"/><radialGradient xlink:href="#g" id="h" cx="-187.007" cy="-82.818" r="54.765" fx="-187.007" fy="-82.818" gradientTransform="matrix(1.2549 .0425 -.0908 2.6793 10.422 148.844)" gradientUnits="userSpaceOnUse"/></defs><g transform="translate(119.262 218.167)"><path fill="url(#h)" d="M-327.294-185.614h204.754V53.822h-204.754z" clip-path="url(#i)" transform="rotate(40.3)"/><path fill="url(#j)" d="M-172.838-316.025h310.635V47.226h-310.635z" clip-path="url(#k)" transform="rotate(40.3)"/><path fill="url(#l)" d="M26.747-365.119h297.521v347.916H26.747z" clip-path="url(#m)" transform="rotate(40.3)"/><path fill="url(#n)" d="M99.227-381.978h297.521v347.916H99.227z" clip-path="url(#o)" transform="rotate(40.3)"/><path fill="url(#p)" d="M161.417-503.764h297.521v347.916H161.417z" clip-path="url(#q)" transform="rotate(40.3)"/><circle cx="80.817" cy="-238.863" r="62.395" fill="url(#r)" clip-path="url(#s)" transform="matrix(-1 0 0 1 173.553 0)"/><path fill="url(#t)" d="M-119.262-218.167h423.333v77.354h-423.333z"/></g></svg>
