<?xml version="1.0" encoding="UTF-8" standalone="no"?>
<!-- Created with Inkscape (http://www.inkscape.org/) -->

<svg
   width="423.33334mm"
   height="246.59166mm"
   viewBox="0 0 423.33334 246.59166"
   version="1.1"
   id="svg2245"
   xml:space="preserve"
   inkscape:version="1.2.2 (b0a8486541, 2022-12-01)"
   sodipodi:docname="banner-bg.svg"
   xmlns:inkscape="http://www.inkscape.org/namespaces/inkscape"
   xmlns:sodipodi="http://sodipodi.sourceforge.net/DTD/sodipodi-0.dtd"
   xmlns:xlink="http://www.w3.org/1999/xlink"
   xmlns="http://www.w3.org/2000/svg"
   xmlns:svg="http://www.w3.org/2000/svg"><sodipodi:namedview
     id="namedview2247"
     pagecolor="#ffffff"
     bordercolor="#666666"
     borderopacity="1.0"
     inkscape:showpageshadow="2"
     inkscape:pageopacity="0.0"
     inkscape:pagecheckerboard="0"
     inkscape:deskcolor="#d1d1d1"
     inkscape:document-units="mm"
     showgrid="false"
     inkscape:zoom="0.08"
     inkscape:cx="2500"
     inkscape:cy="2468.75"
     inkscape:window-width="1920"
     inkscape:window-height="1045"
     inkscape:window-x="0"
     inkscape:window-y="0"
     inkscape:window-maximized="1"
     inkscape:current-layer="layer1" /><defs
     id="defs2242"><linearGradient
       inkscape:collect="always"
       id="linearGradient44841"><stop
         style="stop-color:#3a2766;stop-opacity:1;"
         offset="0"
         id="stop44837" /><stop
         style="stop-color:#209bd5;stop-opacity:0;"
         offset="1"
         id="stop44839" /></linearGradient><linearGradient
       id="linearGradient31993"><stop
         style="stop-color:#002255;stop-opacity:1;"
         offset="0"
         id="stop39728" /><stop
         style="stop-color:#002255;stop-opacity:0;"
         offset="1"
         id="stop39730" /></linearGradient><linearGradient
       inkscape:collect="always"
       id="linearGradient20995"><stop
         style="stop-color:#23e3ec;stop-opacity:1;"
         offset="0"
         id="stop20991" /><stop
         style="stop-color:#ff1793;stop-opacity:1;"
         offset="1"
         id="stop20993" /></linearGradient><linearGradient
       inkscape:collect="always"
       id="linearGradient13831"><stop
         style="stop-color:#d8e9f3;stop-opacity:1;"
         offset="0"
         id="stop13827" /><stop
         style="stop-color:#d8e9f3;stop-opacity:0;"
         offset="1"
         id="stop13829" /></linearGradient><linearGradient
       inkscape:collect="always"
       id="linearGradient13821"><stop
         style="stop-color:#eff6fc;stop-opacity:1;"
         offset="0"
         id="stop13817" /><stop
         style="stop-color:#eff6fc;stop-opacity:0;"
         offset="1"
         id="stop13819" /></linearGradient><clipPath
       clipPathUnits="userSpaceOnUse"
       id="clipPath10597"><path
         style="fill:#000000;stroke-width:0.264583"
         d="m 145.18913,28.360625 c -8.58573,-0.0324 -18.76558,-0.086 -22.62188,-0.11893 -3.8563,-0.033 -12.52623,-0.1851 -19.2665,-0.338072 -6.74027,-0.152969 -14.062619,-0.39974 -16.271879,-0.548378 -2.20926,-0.14864 -5.505111,-0.456591 -7.324122,-0.684331 -1.81901,-0.22774 -4.438388,-0.699011 -5.820838,-1.047261 -1.38244,-0.34826 -3.368972,-1.053769 -4.414481,-1.567799 -1.222359,-0.600969 -2.281769,-1.36724 -2.967741,-2.146551 -0.58674,-0.66656 -1.32987,-1.884289 -1.65141,-2.706058 C 64.330981,17.876013 64.24813,17.044115 64.108631,11.755983 63.954961,5.9302844 63.935461,5.7676847 63.197641,4.1593832 62.70281,3.0807431 61.92675,2.0228251 60.939629,1.081263 60.112401,0.29222525 58.823761,-0.66338625 58.07599,-1.0423172 57.32822,-1.4212349 55.7273,-2.0171348 54.51839,-2.366525 c -1.208911,-0.3493797 -3.329109,-0.7958508 -4.71156,-0.9921505 -1.60283,-0.2275814 -4.862229,-0.3493109 -8.995831,-0.33596 -3.56526,0.011509 -8.268229,0.1603587 -10.451039,0.3307689 -2.18282,0.1703996 -7.123911,0.5393108 -10.980211,0.8197903 -3.85631,0.2804795 -10.3748678,0.6503405 -14.4856885,0.8219096 -4.62718148,0.193122 -12.337161,0.2580111 -20.2406305,0.170352 -8.47594,-0.094001 -14.189101,-0.2791011 -16.99973,-0.5507805 -2.328331,-0.2250599 -5.48349,-0.5869517 -7.011451,-0.8042011 -1.527979,-0.2172493 -3.909229,-0.6302507 -5.291669,-0.9177708 -1.382451,-0.28752 -3.525581,-0.8424598 -4.7625,-1.2331991 -1.23693,-0.3907393 -2.844271,-1.00888 -3.57188,-1.3736505 -0.727599,-0.3647704 -1.88254,-1.0710492 -2.566519,-1.5695295 -0.843971,-0.615061 -1.471891,-1.3728806 -1.953962,-2.3581998 -0.59877,-1.223851 -0.684739,-1.667999 -0.54737,-2.82789 0.102492,-0.865389 0.596972,-2.211851 1.33254,-3.62847 0.64326,-1.23885 1.37451,-2.95824 1.624991,-3.82085 0.309891,-1.067189 0.41329,-2.093349 0.32357,-3.211071 -0.0894,-1.11316 -0.373391,-2.086448 -0.881121,-3.019319 -0.412088,-0.75715 -1.371118,-1.944989 -2.131179,-2.639639 -0.76006,-0.694651 -2.431989,-1.802231 -3.715401,-2.461282 -1.283409,-0.659058 -3.643148,-1.618048 -5.24388,-2.131099 -1.600729,-0.513059 -4.339169,-1.232961 -6.085419,-1.59979 -1.74625,-0.366821 -4.306089,-0.845349 -5.688539,-1.06339 -1.382451,-0.21803 -4.120891,-0.5828 -6.085422,-0.810601 -1.964529,-0.227798 -5.774529,-0.588878 -8.466659,-0.802389 -2.69214,-0.213521 -7.5737,-0.51231 -10.84792,-0.663979 -3.27422,-0.151681 -7.62,-0.395582 -9.65729,-0.54201 -2.03729,-0.146431 -4.15065,-0.334121 -4.69635,-0.417081 l -0.99219,-0.15085 v -89.009034 -89.00903 H 92.404749 304.07141 v 99.78949 99.789494 l -6.94531,-0.181999 c -3.81992,-0.100092 -9.86234,-0.35773 -13.4276,-0.572532 -3.56526,-0.214799 -10.23276,-0.465399 -14.81667,-0.55689 -5.17104,-0.103229 -10.59389,-0.0489 -14.2875,0.143211 -3.27422,0.17027 -7.56047,0.485421 -9.525,0.700321 -1.96453,0.2149 -5.05669,0.631349 -6.87147,0.925459 -1.81477,0.294101 -4.67227,0.8797 -6.35,1.301311 -1.67772,0.421619 -4.12197,1.1439 -5.43166,1.605068 -1.30968,0.461172 -3.32041,1.309701 -4.46828,1.88562 -1.14784,0.575921 -2.75518,1.502352 -3.57187,2.058731 -0.81667,0.556381 -2.15633,1.7176905 -2.97704,2.5807005 -0.82071,0.8629994 -1.85627,2.2903603 -2.3013,3.1718699 -0.44497,0.8815097 -0.94173,2.3645892 -1.10386,3.2957294 -0.24871,1.42818116 -0.22056,2.00267889 0.18007,3.6729697 0.29959,1.2490211 0.47657,3.0133316 0.47943,4.7790496 0.005,2.7801121 -0.003,2.815 -1.1611,5.1504219 -0.91649,1.848739 -1.59761,2.777439 -3.18646,4.344688 -1.11146,1.09632 -3.05411,2.6304 -4.31702,3.409061 -1.26291,0.77865 -3.34134,1.865241 -4.61875,2.414651 -1.27741,0.5494 -3.45138,1.373119 -4.83103,1.830499 -1.37964,0.45738 -3.93948,1.182931 -5.68854,1.612339 -1.74905,0.429421 -5.02555,1.07927 -7.28112,1.444112 -2.25557,0.364839 -5.82745,0.840909 -7.9375,1.05792 -2.11005,0.217019 -5.86052,0.516229 -8.33438,0.664909 -2.47385,0.14869 -11.5226,0.243789 -20.10832,0.211341 z"
         id="path10599" /></clipPath><clipPath
       clipPathUnits="userSpaceOnUse"
       id="clipPath10605"><path
         style="fill:#000000;stroke-width:0.264583"
         d="m 129.07114,-72.283125 c -6.56877,5.528757 -14.36698,12.072467 -17.32924,14.541706 -2.96231,2.469184 -9.67271,7.961119 -14.91204,12.204236 -5.239329,4.243117 -10.98325,8.791201 -12.764259,10.10685 -1.78101,1.315647 -4.493742,3.212632 -6.028297,4.215531 -1.534555,1.002899 -3.837022,2.33777 -5.116588,2.966385 -1.279565,0.628601 -3.250911,1.375492 -4.380743,1.659735 -1.32094,0.332331 -2.62453,0.433197 -3.651757,0.282569 -0.878618,-0.128826 -2.233015,-0.576837 -3.009775,-0.995569 -1.254524,-0.676303 -1.855802,-1.257149 -5.382687,-5.199849 -3.885405,-4.343502 -4.00545,-4.454894 -5.60843,-5.204205 -1.075069,-0.502543 -2.35121,-0.807376 -3.713052,-0.886952 -1.141245,-0.06668 -2.742125,0.03806 -3.557506,0.232751 -0.815372,0.1947 -2.421737,0.775759 -3.569693,1.291255 -1.147949,0.515504 -3.053682,1.546406 -4.234963,2.290905 -1.369585,0.863189 -3.934065,2.878615 -7.077871,5.562516 -2.711559,2.314878 -6.201942,5.470396 -7.756411,7.012254 -1.554483,1.541857 -5.084126,5.019226 -7.843666,7.727483 -2.759548,2.708264 -7.4916129,7.2067029 -10.5157061,9.9965313 -3.40394876,3.1402608 -9.2419011,8.1767583 -15.3260879,13.222071 -6.524878,5.4107647 -11.001679,8.9650187 -13.320901,10.5758117 -1.921248,1.334384 -4.561574,3.099228 -5.867377,3.92187 -1.305818,0.822653 -3.38899,2.047935 -4.629266,2.722859 -1.240285,0.67493 -3.233667,1.637943 -4.429729,2.140021 -1.19607,0.502085 -2.821719,1.070337 -3.612564,1.262785 -0.790837,0.192442 -2.128478,0.400851 -2.972537,0.463107 -1.041481,0.07683 -2.010534,-0.09495 -3.015509,-0.534581 -1.248263,-0.546056 -1.601112,-0.829174 -2.246596,-1.802604 -0.481591,-0.726273 -0.975408,-2.072978 -1.330741,-3.62913 -0.310745,-1.360872 -0.865211,-3.145135 -1.232143,-3.965012 -0.45395,-1.014324 -1.038841,-1.863794 -1.830235,-2.658178 -0.788201,-0.791112 -1.63433,-1.349687 -2.624949,-1.732716 -0.804018,-0.310883 -2.303736,-0.596449 -3.332704,-0.634589 -1.028969,-0.03814 -3.020456,0.198622 -4.425526,0.526149 -1.405072,0.327518 -3.824999,1.122495 -5.377632,1.766617 -1.552637,0.644114 -4.106726,1.866382 -5.675758,2.716143 -1.569025,0.849767 -3.83078,2.140592 -5.026124,2.86851 -1.195336,0.727926 -3.519718,2.221031 -5.165292,3.31801 -1.64557,1.09698 -4.784776,3.286011 -6.976002,4.864518 -2.191239,1.578505 -6.107363,4.508155 -8.702513,6.510334 -2.59516,2.002172 -6.06718,4.627125 -7.71561,5.833224 -1.64843,1.206097 -3.38156,2.429932 -3.85139,2.719636 l -0.85426,0.52673 -57.5733,-67.881682 -57.5733,-67.881678 161.425065,-136.911383 161.425065,-136.91137 64.54638,76.10326 64.54638,76.10327 -5.41448,4.35361 c -2.97796,2.39449 -7.75279,6.1064 -10.61073,8.24868 -2.85795,2.14229 -8.10493,6.26388 -11.65997,9.15909 -4.01041,3.26604 -8.11093,6.81511 -10.80356,9.35074 -2.38691,2.2477 -5.45192,5.2605 -6.81114,6.6951 -1.35923,1.4346 -3.44805,3.75229 -4.64183,5.15043 -1.19379,1.39814 -2.99425,3.69304 -4.00103,5.09977 -1.00679,1.40674 -2.40367,3.53858 -3.10419,4.73742 -0.70053,1.19885 -1.68513,3.14656 -2.18802,4.32825 -0.50287,1.18167 -1.12945,2.92787 -1.39241,3.88044 -0.26294,0.95256 -0.53345,2.70475 -0.60114,3.89377 -0.0677,1.18901 0.0658,2.94739 0.29659,3.90752 0.23083,0.9601 0.81128,2.41246 1.28991,3.22746 0.73411,1.25006 1.12718,1.66998 2.5131,2.68467 1.03638,0.75877 2.31255,1.98983 3.45684,3.33458 1.80208,2.11697 1.8186,2.14871 2.44593,4.67894 0.49686,2.00272 0.57812,3.15155 0.38014,5.3745 -0.13851,1.55502 -0.62777,3.98152 -1.08726,5.39224 -0.45949,1.41071 -1.34175,3.58377 -1.96058,4.82903 -0.61883,1.24525 -1.74398,3.27964 -2.50031,4.52084 -0.75632,1.2412 -2.23925,3.45031 -3.29539,4.90913 -1.05614,1.45882 -3.13458,4.07374 -4.61878,5.810945 -1.4842,1.737202 -3.90031,4.41065 -5.36915,5.940987 -1.46883,1.530342 -4.13554,4.184429 -5.92603,5.89797 -1.79048,1.713549 -8.62989,7.639036 -15.19867,13.167753 z"
         id="path10607" /></clipPath><clipPath
       clipPathUnits="userSpaceOnUse"
       id="clipPath10609"><path
         style="fill:#000000;stroke-width:0.264583"
         d="m 129.07114,-72.283125 c -6.56877,5.528757 -14.36698,12.072467 -17.32924,14.541706 -2.96231,2.469184 -9.67271,7.961119 -14.91204,12.204236 -5.239329,4.243117 -10.98325,8.791201 -12.764259,10.10685 -1.78101,1.315647 -4.493742,3.212632 -6.028297,4.215531 -1.534555,1.002899 -3.837022,2.33777 -5.116588,2.966385 -1.279565,0.628601 -3.250911,1.375492 -4.380743,1.659735 -1.32094,0.332331 -2.62453,0.433197 -3.651757,0.282569 -0.878618,-0.128826 -2.233015,-0.576837 -3.009775,-0.995569 -1.254524,-0.676303 -1.855802,-1.257149 -5.382687,-5.199849 -3.885405,-4.343502 -4.00545,-4.454894 -5.60843,-5.204205 -1.075069,-0.502543 -2.35121,-0.807376 -3.713052,-0.886952 -1.141245,-0.06668 -2.742125,0.03806 -3.557506,0.232751 -0.815372,0.1947 -2.421737,0.775759 -3.569693,1.291255 -1.147949,0.515504 -3.053682,1.546406 -4.234963,2.290905 -1.369585,0.863189 -3.934065,2.878615 -7.077871,5.562516 -2.711559,2.314878 -6.201942,5.470396 -7.756411,7.012254 -1.554483,1.541857 -5.084126,5.019226 -7.843666,7.727483 -2.759548,2.708264 -7.4916129,7.2067029 -10.5157061,9.9965313 -3.40394876,3.1402608 -9.2419011,8.1767583 -15.3260879,13.222071 -6.524878,5.4107647 -11.001679,8.9650187 -13.320901,10.5758117 -1.921248,1.334384 -4.561574,3.099228 -5.867377,3.92187 -1.305818,0.822653 -3.38899,2.047935 -4.629266,2.722859 -1.240285,0.67493 -3.233667,1.637943 -4.429729,2.140021 -1.19607,0.502085 -2.821719,1.070337 -3.612564,1.262785 -0.790837,0.192442 -2.128478,0.400851 -2.972537,0.463107 -1.041481,0.07683 -2.010534,-0.09495 -3.015509,-0.534581 -1.248263,-0.546056 -1.601112,-0.829174 -2.246596,-1.802604 -0.481591,-0.726273 -0.975408,-2.072978 -1.330741,-3.62913 -0.310745,-1.360872 -0.865211,-3.145135 -1.232143,-3.965012 -0.45395,-1.014324 -1.038841,-1.863794 -1.830235,-2.658178 -0.788201,-0.791112 -1.63433,-1.349687 -2.624949,-1.732716 -0.804018,-0.310883 -2.303736,-0.596449 -3.332704,-0.634589 -1.028969,-0.03814 -3.020456,0.198622 -4.425526,0.526149 -1.405072,0.327518 -3.824999,1.122495 -5.377632,1.766617 -1.552637,0.644114 -4.106726,1.866382 -5.675758,2.716143 -1.569025,0.849767 -3.83078,2.140592 -5.026124,2.86851 -1.195336,0.727926 -3.519718,2.221031 -5.165292,3.31801 -1.64557,1.09698 -4.784776,3.286011 -6.976002,4.864518 -2.191239,1.578505 -6.107363,4.508155 -8.702513,6.510334 -2.59516,2.002172 -6.06718,4.627125 -7.71561,5.833224 -1.64843,1.206097 -3.38156,2.429932 -3.85139,2.719636 l -0.85426,0.52673 -57.5733,-67.881682 -57.5733,-67.881678 161.425065,-136.911383 161.425065,-136.91137 64.54638,76.10326 64.54638,76.10327 -5.41448,4.35361 c -2.97796,2.39449 -7.75279,6.1064 -10.61073,8.24868 -2.85795,2.14229 -8.10493,6.26388 -11.65997,9.15909 -4.01041,3.26604 -8.11093,6.81511 -10.80356,9.35074 -2.38691,2.2477 -5.45192,5.2605 -6.81114,6.6951 -1.35923,1.4346 -3.44805,3.75229 -4.64183,5.15043 -1.19379,1.39814 -2.99425,3.69304 -4.00103,5.09977 -1.00679,1.40674 -2.40367,3.53858 -3.10419,4.73742 -0.70053,1.19885 -1.68513,3.14656 -2.18802,4.32825 -0.50287,1.18167 -1.12945,2.92787 -1.39241,3.88044 -0.26294,0.95256 -0.53345,2.70475 -0.60114,3.89377 -0.0677,1.18901 0.0658,2.94739 0.29659,3.90752 0.23083,0.9601 0.81128,2.41246 1.28991,3.22746 0.73411,1.25006 1.12718,1.66998 2.5131,2.68467 1.03638,0.75877 2.31255,1.98983 3.45684,3.33458 1.80208,2.11697 1.8186,2.14871 2.44593,4.67894 0.49686,2.00272 0.57812,3.15155 0.38014,5.3745 -0.13851,1.55502 -0.62777,3.98152 -1.08726,5.39224 -0.45949,1.41071 -1.34175,3.58377 -1.96058,4.82903 -0.61883,1.24525 -1.74398,3.27964 -2.50031,4.52084 -0.75632,1.2412 -2.23925,3.45031 -3.29539,4.90913 -1.05614,1.45882 -3.13458,4.07374 -4.61878,5.810945 -1.4842,1.737202 -3.90031,4.41065 -5.36915,5.940987 -1.46883,1.530342 -4.13554,4.184429 -5.92603,5.89797 -1.79048,1.713549 -8.62989,7.639036 -15.19867,13.167753 z"
         id="path10611" /></clipPath><clipPath
       clipPathUnits="userSpaceOnUse"
       id="clipPath10613"><path
         style="fill:#000000;stroke-width:0.264583"
         d="m 129.07114,-72.283125 c -6.56877,5.528757 -14.36698,12.072467 -17.32924,14.541706 -2.96231,2.469184 -9.67271,7.961119 -14.91204,12.204236 -5.239329,4.243117 -10.98325,8.791201 -12.764259,10.10685 -1.78101,1.315647 -4.493742,3.212632 -6.028297,4.215531 -1.534555,1.002899 -3.837022,2.33777 -5.116588,2.966385 -1.279565,0.628601 -3.250911,1.375492 -4.380743,1.659735 -1.32094,0.332331 -2.62453,0.433197 -3.651757,0.282569 -0.878618,-0.128826 -2.233015,-0.576837 -3.009775,-0.995569 -1.254524,-0.676303 -1.855802,-1.257149 -5.382687,-5.199849 -3.885405,-4.343502 -4.00545,-4.454894 -5.60843,-5.204205 -1.075069,-0.502543 -2.35121,-0.807376 -3.713052,-0.886952 -1.141245,-0.06668 -2.742125,0.03806 -3.557506,0.232751 -0.815372,0.1947 -2.421737,0.775759 -3.569693,1.291255 -1.147949,0.515504 -3.053682,1.546406 -4.234963,2.290905 -1.369585,0.863189 -3.934065,2.878615 -7.077871,5.562516 -2.711559,2.314878 -6.201942,5.470396 -7.756411,7.012254 -1.554483,1.541857 -5.084126,5.019226 -7.843666,7.727483 -2.759548,2.708264 -7.4916129,7.2067029 -10.5157061,9.9965313 -3.40394876,3.1402608 -9.2419011,8.1767583 -15.3260879,13.222071 -6.524878,5.4107647 -11.001679,8.9650187 -13.320901,10.5758117 -1.921248,1.334384 -4.561574,3.099228 -5.867377,3.92187 -1.305818,0.822653 -3.38899,2.047935 -4.629266,2.722859 -1.240285,0.67493 -3.233667,1.637943 -4.429729,2.140021 -1.19607,0.502085 -2.821719,1.070337 -3.612564,1.262785 -0.790837,0.192442 -2.128478,0.400851 -2.972537,0.463107 -1.041481,0.07683 -2.010534,-0.09495 -3.015509,-0.534581 -1.248263,-0.546056 -1.601112,-0.829174 -2.246596,-1.802604 -0.481591,-0.726273 -0.975408,-2.072978 -1.330741,-3.62913 -0.310745,-1.360872 -0.865211,-3.145135 -1.232143,-3.965012 -0.45395,-1.014324 -1.038841,-1.863794 -1.830235,-2.658178 -0.788201,-0.791112 -1.63433,-1.349687 -2.624949,-1.732716 -0.804018,-0.310883 -2.303736,-0.596449 -3.332704,-0.634589 -1.028969,-0.03814 -3.020456,0.198622 -4.425526,0.526149 -1.405072,0.327518 -3.824999,1.122495 -5.377632,1.766617 -1.552637,0.644114 -4.106726,1.866382 -5.675758,2.716143 -1.569025,0.849767 -3.83078,2.140592 -5.026124,2.86851 -1.195336,0.727926 -3.519718,2.221031 -5.165292,3.31801 -1.64557,1.09698 -4.784776,3.286011 -6.976002,4.864518 -2.191239,1.578505 -6.107363,4.508155 -8.702513,6.510334 -2.59516,2.002172 -6.06718,4.627125 -7.71561,5.833224 -1.64843,1.206097 -3.38156,2.429932 -3.85139,2.719636 l -0.85426,0.52673 -57.5733,-67.881682 -57.5733,-67.881678 161.425065,-136.911383 161.425065,-136.91137 64.54638,76.10326 64.54638,76.10327 -5.41448,4.35361 c -2.97796,2.39449 -7.75279,6.1064 -10.61073,8.24868 -2.85795,2.14229 -8.10493,6.26388 -11.65997,9.15909 -4.01041,3.26604 -8.11093,6.81511 -10.80356,9.35074 -2.38691,2.2477 -5.45192,5.2605 -6.81114,6.6951 -1.35923,1.4346 -3.44805,3.75229 -4.64183,5.15043 -1.19379,1.39814 -2.99425,3.69304 -4.00103,5.09977 -1.00679,1.40674 -2.40367,3.53858 -3.10419,4.73742 -0.70053,1.19885 -1.68513,3.14656 -2.18802,4.32825 -0.50287,1.18167 -1.12945,2.92787 -1.39241,3.88044 -0.26294,0.95256 -0.53345,2.70475 -0.60114,3.89377 -0.0677,1.18901 0.0658,2.94739 0.29659,3.90752 0.23083,0.9601 0.81128,2.41246 1.28991,3.22746 0.73411,1.25006 1.12718,1.66998 2.5131,2.68467 1.03638,0.75877 2.31255,1.98983 3.45684,3.33458 1.80208,2.11697 1.8186,2.14871 2.44593,4.67894 0.49686,2.00272 0.57812,3.15155 0.38014,5.3745 -0.13851,1.55502 -0.62777,3.98152 -1.08726,5.39224 -0.45949,1.41071 -1.34175,3.58377 -1.96058,4.82903 -0.61883,1.24525 -1.74398,3.27964 -2.50031,4.52084 -0.75632,1.2412 -2.23925,3.45031 -3.29539,4.90913 -1.05614,1.45882 -3.13458,4.07374 -4.61878,5.810945 -1.4842,1.737202 -3.90031,4.41065 -5.36915,5.940987 -1.46883,1.530342 -4.13554,4.184429 -5.92603,5.89797 -1.79048,1.713549 -8.62989,7.639036 -15.19867,13.167753 z"
         id="path10615" /></clipPath><linearGradient
       inkscape:collect="always"
       xlink:href="#linearGradient20995"
       id="linearGradient13016"
       x1="99.227318"
       y1="-198.56268"
       x2="219.87331"
       y2="-198.56268"
       gradientUnits="userSpaceOnUse" /><radialGradient
       inkscape:collect="always"
       xlink:href="#linearGradient13821"
       id="radialGradient13823"
       cx="86.78714"
       cy="-134.7513"
       fx="86.78714"
       fy="-134.7513"
       r="155.3175"
       gradientTransform="matrix(-0.40110301,1.1204022,-1.0988258,-0.39337867,-172.6163,-168.12952)"
       gradientUnits="userSpaceOnUse" /><radialGradient
       inkscape:collect="always"
       xlink:href="#linearGradient13831"
       id="radialGradient13839"
       cx="55.020885"
       cy="-146.31787"
       fx="55.020885"
       fy="-146.31787"
       r="96.563324"
       gradientTransform="matrix(1,0,0,1.7908488,0,150.36662)"
       gradientUnits="userSpaceOnUse" /><linearGradient
       inkscape:collect="always"
       xlink:href="#linearGradient20995"
       id="linearGradient21001"
       x1="18.421547"
       y1="-197.31718"
       x2="143.21243"
       y2="-197.31718"
       gradientUnits="userSpaceOnUse" /><linearGradient
       inkscape:collect="always"
       xlink:href="#linearGradient13831"
       id="linearGradient25621"
       x1="328.15424"
       y1="-227.81422"
       x2="328.15424"
       y2="-190.22646"
       gradientUnits="userSpaceOnUse"
       gradientTransform="matrix(0.89940101,0,0,1,8.9289786,21.635891)" /><linearGradient
       inkscape:collect="always"
       xlink:href="#linearGradient31993"
       id="linearGradient31995"
       x1="157.65205"
       y1="-261.67518"
       x2="219.8733"
       y2="-261.67518"
       gradientUnits="userSpaceOnUse"
       gradientTransform="translate(3.7650625,4.4391896)" /><clipPath
       clipPathUnits="userSpaceOnUse"
       id="clipPath33579"><path
         style="opacity:0.581627;fill:#000000;stroke-width:0.264583"
         d="m 129.07114,-72.283123 c -6.56877,5.528751 -14.36698,12.072459 -17.32924,14.541704 -2.96231,2.469184 -9.67271,7.961117 -14.91204,12.204236 -5.239329,4.243117 -10.98325,8.791201 -12.764259,10.10685 -1.78101,1.315647 -4.493742,3.212632 -6.028297,4.215531 -1.534555,1.002899 -3.837022,2.33777 -5.116588,2.966385 -1.279565,0.628601 -3.250911,1.375492 -4.380743,1.659735 -1.32094,0.332331 -2.62453,0.433197 -3.651757,0.282569 -0.878618,-0.128826 -2.233015,-0.576837 -3.009775,-0.995569 -1.254524,-0.676303 -1.855802,-1.257149 -5.382687,-5.199849 -3.885405,-4.343502 -4.00545,-4.454894 -5.60843,-5.204205 -1.075069,-0.502543 -2.35121,-0.807376 -3.713052,-0.886952 -1.141245,-0.06668 -2.742125,0.03806 -3.557506,0.232751 -0.815372,0.1947 -2.421737,0.775759 -3.569693,1.291255 -1.147949,0.515504 -3.053682,1.546406 -4.234963,2.290905 -1.369585,0.863189 -3.934065,2.878615 -7.077871,5.562516 -2.711559,2.314878 -6.201942,5.470396 -7.756411,7.012254 -1.554483,1.541857 -5.084126,5.019226 -7.843666,7.727483 -2.759548,2.708264 -7.4916129,7.2067029 -10.5157061,9.9965313 -3.40394876,3.1402608 -9.2419011,8.1767583 -15.3260879,13.222071 -6.524878,5.4107647 -11.001679,8.9650187 -13.320901,10.5758117 -1.921248,1.334384 -4.561574,3.099228 -5.867377,3.92187 -1.305818,0.822653 -3.38899,2.047935 -4.629266,2.722859 -1.240285,0.67493 -3.233667,1.637943 -4.429729,2.140021 -1.19607,0.502085 -2.821719,1.070337 -3.612564,1.262785 -0.790837,0.192442 -2.128478,0.400851 -2.972537,0.463107 -1.041481,0.07683 -2.010534,-0.09495 -3.015509,-0.534581 -1.248263,-0.546056 -1.601112,-0.829174 -2.246596,-1.802604 -0.481591,-0.726273 -0.975408,-2.072978 -1.330741,-3.62913 -0.310745,-1.360872 -0.865211,-3.145135 -1.232143,-3.965012 -0.45395,-1.014324 -1.038841,-1.863794 -1.830235,-2.658178 -0.788201,-0.791112 -1.63433,-1.349687 -2.624949,-1.732716 -0.804018,-0.310883 -2.303736,-0.596449 -3.332704,-0.634589 -1.028969,-0.03814 -3.020456,0.198622 -4.425526,0.526149 -1.405072,0.327518 -3.824999,1.122495 -5.377632,1.766617 -1.552637,0.644114 -4.106726,1.866382 -5.675758,2.716143 -1.569025,0.849767 -3.83078,2.140592 -5.026124,2.86851 -1.195336,0.727926 -3.519718,2.221031 -5.165292,3.31801 -1.64557,1.09698 -4.784776,3.286011 -6.976002,4.864518 -2.191239,1.578505 -6.107363,4.508157 -8.702513,6.510336 -2.59516,2.00217 -6.06718,4.627121 -7.71561,5.83322 -1.64843,1.206097 -3.38156,2.429932 -3.85139,2.719638 l -0.85426,0.526728 -57.5733,-67.88168 -57.5733,-67.881678 161.425067,-136.911383 161.425063,-136.91137 64.54638,76.10326 64.54638,76.10327 -5.41448,4.35361 c -2.97796,2.39449 -7.75279,6.1064 -10.61073,8.24868 -2.85795,2.14229 -8.10493,6.26388 -11.65997,9.15909 -4.01041,3.26604 -8.11093,6.81511 -10.80356,9.35074 -2.38691,2.2477 -5.45192,5.2605 -6.81114,6.6951 -1.35923,1.4346 -3.44805,3.75229 -4.64183,5.15043 -1.19379,1.39814 -2.99425,3.69304 -4.00103,5.09977 -1.00679,1.40674 -2.40367,3.53858 -3.10419,4.73742 -0.70053,1.19885 -1.68513,3.14656 -2.18802,4.32825 -0.50287,1.18167 -1.12945,2.92787 -1.39241,3.88044 -0.26294,0.95256 -0.53345,2.70475 -0.60114,3.89377 -0.0677,1.18901 0.0658,2.94739 0.29659,3.90752 0.23083,0.9601 0.81128,2.41246 1.28991,3.22746 0.73411,1.25006 1.12718,1.66998 2.5131,2.68467 1.03638,0.75877 2.31255,1.98983 3.45684,3.33458 1.80208,2.11697 1.8186,2.14871 2.44593,4.67894 0.49686,2.00272 0.57812,3.15155 0.38014,5.3745 -0.13851,1.55502 -0.62777,3.98152 -1.08726,5.39224 -0.45949,1.41071 -1.34175,3.58377 -1.96058,4.82903 -0.61883,1.24525 -1.74398,3.27964 -2.50031,4.52084 -0.75632,1.2412 -2.23925,3.45031 -3.29539,4.90913 -1.05614,1.45882 -3.13458,4.07374 -4.61878,5.810943 -1.4842,1.737202 -3.90031,4.410652 -5.36915,5.940987 -1.46883,1.530344 -4.13554,4.184433 -5.92603,5.897972 -1.79048,1.713549 -8.62989,7.639034 -15.19867,13.167755 z"
         id="path33581" /></clipPath><clipPath
       clipPathUnits="userSpaceOnUse"
       id="clipPath40574"><path
         style="fill:#000000;stroke-width:0.264583"
         d="m 129.07114,-72.283123 c -6.56877,5.528751 -14.36698,12.072459 -17.32924,14.541704 -2.96231,2.469184 -9.67271,7.961117 -14.91204,12.204236 -5.239329,4.243117 -10.98325,8.791201 -12.764259,10.10685 -1.78101,1.315647 -4.493742,3.212632 -6.028297,4.215531 -1.534555,1.002899 -3.837022,2.33777 -5.116588,2.966385 -1.279565,0.628601 -3.250911,1.375492 -4.380743,1.659735 -1.32094,0.332331 -2.62453,0.433197 -3.651757,0.282569 -0.878618,-0.128826 -2.233015,-0.576837 -3.009775,-0.995569 -1.254524,-0.676303 -1.855802,-1.257149 -5.382687,-5.199849 -3.885405,-4.343502 -4.00545,-4.454894 -5.60843,-5.204205 -1.075069,-0.502543 -2.35121,-0.807376 -3.713052,-0.886952 -1.141245,-0.06668 -2.742125,0.03806 -3.557506,0.232751 -0.815372,0.1947 -2.421737,0.775759 -3.569693,1.291255 -1.147949,0.515504 -3.053682,1.546406 -4.234963,2.290905 -1.369585,0.863189 -3.934065,2.878615 -7.077871,5.562516 -2.711559,2.314878 -6.201942,5.470396 -7.756411,7.012254 -1.554483,1.541857 -5.084126,5.019226 -7.843666,7.727483 -2.759548,2.708264 -7.4916129,7.2067029 -10.5157061,9.9965313 -3.40394876,3.1402608 -9.2419011,8.1767583 -15.3260879,13.222071 -6.524878,5.4107647 -11.001679,8.9650187 -13.320901,10.5758117 -1.921248,1.334384 -4.561574,3.099228 -5.867377,3.92187 -1.305818,0.822653 -3.38899,2.047935 -4.629266,2.722859 -1.240285,0.67493 -3.233667,1.637943 -4.429729,2.140021 -1.19607,0.502085 -2.821719,1.070337 -3.612564,1.262785 -0.790837,0.192442 -2.128478,0.400851 -2.972537,0.463107 -1.041481,0.07683 -2.010534,-0.09495 -3.015509,-0.534581 -1.248263,-0.546056 -1.601112,-0.829174 -2.246596,-1.802604 -0.481591,-0.726273 -0.975408,-2.072978 -1.330741,-3.62913 -0.310745,-1.360872 -0.865211,-3.145135 -1.232143,-3.965012 -0.45395,-1.014324 -1.038841,-1.863794 -1.830235,-2.658178 -0.788201,-0.791112 -1.63433,-1.349687 -2.624949,-1.732716 -0.804018,-0.310883 -2.303736,-0.596449 -3.332704,-0.634589 -1.028969,-0.03814 -3.020456,0.198622 -4.425526,0.526149 -1.405072,0.327518 -3.824999,1.122495 -5.377632,1.766617 -1.552637,0.644114 -4.106726,1.866382 -5.675758,2.716143 -1.569025,0.849767 -3.83078,2.140592 -5.026124,2.86851 -1.195336,0.727926 -3.519718,2.221031 -5.165292,3.31801 -1.64557,1.09698 -4.784776,3.286011 -6.976002,4.864518 -2.191239,1.578505 -6.107363,4.508157 -8.702513,6.510336 -2.59516,2.00217 -6.06718,4.627121 -7.71561,5.83322 -1.64843,1.206097 -3.38156,2.429932 -3.85139,2.719638 l -0.85426,0.526728 -57.5733,-67.88168 -57.5733,-67.881678 161.425067,-136.911383 161.425063,-136.91137 64.54638,76.10326 64.54638,76.10327 -5.41448,4.35361 c -2.97796,2.39449 -7.75279,6.1064 -10.61073,8.24868 -2.85795,2.14229 -8.10493,6.26388 -11.65997,9.15909 -4.01041,3.26604 -8.11093,6.81511 -10.80356,9.35074 -2.38691,2.2477 -5.45192,5.2605 -6.81114,6.6951 -1.35923,1.4346 -3.44805,3.75229 -4.64183,5.15043 -1.19379,1.39814 -2.99425,3.69304 -4.00103,5.09977 -1.00679,1.40674 -2.40367,3.53858 -3.10419,4.73742 -0.70053,1.19885 -1.68513,3.14656 -2.18802,4.32825 -0.50287,1.18167 -1.12945,2.92787 -1.39241,3.88044 -0.26294,0.95256 -0.53345,2.70475 -0.60114,3.89377 -0.0677,1.18901 0.0658,2.94739 0.29659,3.90752 0.23083,0.9601 0.81128,2.41246 1.28991,3.22746 0.73411,1.25006 1.12718,1.66998 2.5131,2.68467 1.03638,0.75877 2.31255,1.98983 3.45684,3.33458 1.80208,2.11697 1.8186,2.14871 2.44593,4.67894 0.49686,2.00272 0.57812,3.15155 0.38014,5.3745 -0.13851,1.55502 -0.62777,3.98152 -1.08726,5.39224 -0.45949,1.41071 -1.34175,3.58377 -1.96058,4.82903 -0.61883,1.24525 -1.74398,3.27964 -2.50031,4.52084 -0.75632,1.2412 -2.23925,3.45031 -3.29539,4.90913 -1.05614,1.45882 -3.13458,4.07374 -4.61878,5.810943 -1.4842,1.737202 -3.90031,4.410652 -5.36915,5.940987 -1.46883,1.530344 -4.13554,4.184433 -5.92603,5.897972 -1.79048,1.713549 -8.62989,7.639034 -15.19867,13.167755 z"
         id="path40576" /></clipPath><radialGradient
       inkscape:collect="always"
       xlink:href="#linearGradient44841"
       id="radialGradient44843"
       cx="-187.0067"
       cy="-82.817596"
       fx="-187.0067"
       fy="-82.817596"
       r="54.764783"
       gradientTransform="matrix(1.2548563,0.04254682,-0.09084451,2.6793247,10.421549,148.84439)"
       gradientUnits="userSpaceOnUse" /></defs><g
     inkscape:label="Layer 1"
     inkscape:groupmode="layer"
     id="layer1"
     transform="translate(119.26192,218.16692)"><rect
       style="fill:url(#radialGradient44843);fill-opacity:1;stroke-width:1.81152;stroke-linecap:round;stroke-linejoin:bevel;stroke-miterlimit:0.1"
       id="rect8781"
       width="204.75401"
       height="239.43567"
       x="-327.29404"
       y="-185.61392"
       transform="rotate(40.302677)"
       clip-path="url(#clipPath40574)" /><rect
       style="fill:url(#radialGradient13823);fill-opacity:1;stroke-width:2.74828;stroke-linecap:round;stroke-linejoin:bevel;stroke-miterlimit:0.1"
       id="rect8781-1-9"
       width="310.63501"
       height="363.25101"
       x="-172.83806"
       y="-316.02518"
       transform="rotate(40.302677)"
       clip-path="url(#clipPath10613)" /><rect
       style="fill:url(#radialGradient13839);fill-opacity:1;stroke-width:2.63226;stroke-linecap:round;stroke-linejoin:bevel;stroke-miterlimit:0.1"
       id="rect8781-1"
       width="297.52145"
       height="347.91626"
       x="26.746658"
       y="-365.11917"
       transform="rotate(40.302677)"
       clip-path="url(#clipPath10609)" /><rect
       style="fill:url(#linearGradient13016);fill-opacity:1.0;stroke-width:2.63226;stroke-linecap:round;stroke-linejoin:bevel;stroke-miterlimit:0.1"
       id="rect8781-1-1"
       width="297.52145"
       height="347.91626"
       x="99.227318"
       y="-381.97812"
       transform="rotate(40.302677)"
       clip-path="url(#clipPath10605)" /><rect
       style="fill:url(#linearGradient31995);fill-opacity:1;stroke-width:2.63226;stroke-linecap:round;stroke-linejoin:bevel;stroke-miterlimit:0.1"
       id="rect8781-1-1-5"
       width="297.52145"
       height="347.91626"
       x="161.41719"
       y="-503.76389"
       transform="rotate(40.302677)"
       clip-path="url(#clipPath33579)" /><circle
       style="fill:url(#linearGradient21001);fill-opacity:1;stroke-width:1.61916;stroke-linecap:round;stroke-linejoin:bevel;stroke-miterlimit:0.1"
       id="path7692"
       cx="80.816994"
       cy="-238.86292"
       r="62.395447"
       clip-path="url(#clipPath10597)"
       transform="matrix(-1,0,0,1,173.55311,0)" /><rect
       style="fill:url(#linearGradient25621);fill-opacity:1;stroke-width:1.2177;stroke-linecap:round;stroke-linejoin:bevel;stroke-miterlimit:0.1"
       id="rect24937"
       width="423.33301"
       height="77.354469"
       x="-119.26175"
       y="-218.16692" /></g></svg>
