<?xml version="1.0" encoding="UTF-8" standalone="no"?>
<!-- Created with Inkscape (http://www.inkscape.org/) -->

<svg
   width="423.33701mm"
   height="173.02983mm"
   viewBox="0 0 423.33701 173.02983"
   version="1.1"
   id="svg5740"
   inkscape:version="1.2.2 (b0a8486541, 2022-12-01)"
   sodipodi:docname="footer-bg.svg"
   xmlns:inkscape="http://www.inkscape.org/namespaces/inkscape"
   xmlns:sodipodi="http://sodipodi.sourceforge.net/DTD/sodipodi-0.dtd"
   xmlns:xlink="http://www.w3.org/1999/xlink"
   xmlns="http://www.w3.org/2000/svg"
   xmlns:svg="http://www.w3.org/2000/svg">
  <sodipodi:namedview
     id="namedview5742"
     pagecolor="#ffffff"
     bordercolor="#666666"
     borderopacity="1.0"
     inkscape:showpageshadow="2"
     inkscape:pageopacity="0.0"
     inkscape:pagecheckerboard="0"
     inkscape:deskcolor="#d1d1d1"
     inkscape:document-units="mm"
     showgrid="false"
     inkscape:zoom="0.55559665"
     inkscape:cx="488.66385"
     inkscape:cy="398.67051"
     inkscape:window-width="1920"
     inkscape:window-height="1045"
     inkscape:window-x="0"
     inkscape:window-y="0"
     inkscape:window-maximized="1"
     inkscape:current-layer="layer1" />
  <defs
     id="defs5737">
    <linearGradient
       inkscape:collect="always"
       xlink:href="#linearGradient44841"
       id="linearGradient5664"
       x1="2002.5166"
       y1="714.28516"
       x2="1976.0331"
       y2="606.64417"
       gradientUnits="userSpaceOnUse" />
    <linearGradient
       inkscape:collect="always"
       id="linearGradient44841">
      <stop
         style="stop-color:#3a2766;stop-opacity:1;"
         offset="0"
         id="stop44837" />
      <stop
         style="stop-color:#209bd5;stop-opacity:0;"
         offset="1"
         id="stop44839" />
    </linearGradient>
    <linearGradient
       inkscape:collect="always"
       xlink:href="#linearGradient13831"
       id="linearGradient5680"
       x1="932.04572"
       y1="388.91089"
       x2="1493.6882"
       y2="388.91089"
       gradientUnits="userSpaceOnUse" />
    <linearGradient
       inkscape:collect="always"
       id="linearGradient13831">
      <stop
         style="stop-color:#d8e9f3;stop-opacity:1;"
         offset="0"
         id="stop13827" />
      <stop
         style="stop-color:#d8e9f3;stop-opacity:0;"
         offset="1"
         id="stop13829" />
    </linearGradient>
    <linearGradient
       inkscape:collect="always"
       xlink:href="#linearGradient5722"
       id="linearGradient5700"
       x1="1362.7219"
       y1="466.57602"
       x2="1281.8463"
       y2="419.88245"
       gradientUnits="userSpaceOnUse" />
    <linearGradient
       inkscape:collect="always"
       id="linearGradient5722">
      <stop
         style="stop-color:#977fff;stop-opacity:1;"
         offset="0"
         id="stop5718" />
      <stop
         style="stop-color:#1f0049;stop-opacity:1;"
         offset="1"
         id="stop5720" />
    </linearGradient>
    <radialGradient
       inkscape:collect="always"
       xlink:href="#linearGradient20995"
       id="radialGradient5690"
       cx="1122.2018"
       cy="435.18076"
       fx="1122.2018"
       fy="435.18076"
       r="202.13982"
       gradientTransform="matrix(-0.63590991,1.369763,-0.65095044,-0.30220253,2074.5836,-986.89576)"
       gradientUnits="userSpaceOnUse" />
    <linearGradient
       inkscape:collect="always"
       id="linearGradient20995">
      <stop
         style="stop-color:#23e3ec;stop-opacity:1;"
         offset="0"
         id="stop20991" />
      <stop
         style="stop-color:#ff1793;stop-opacity:1;"
         offset="1"
         id="stop20993" />
    </linearGradient>
    <linearGradient
       inkscape:collect="always"
       xlink:href="#linearGradient5722"
       id="linearGradient5726"
       x1="1084.0803"
       y1="325.11267"
       x2="1162.2103"
       y2="403.24268"
       gradientUnits="userSpaceOnUse" />
    <linearGradient
       inkscape:collect="always"
       xlink:href="#linearGradient20995"
       id="linearGradient21001"
       x1="18.421547"
       y1="-197.31718"
       x2="143.21243"
       y2="-197.31718"
       gradientUnits="userSpaceOnUse" />
    <clipPath
       clipPathUnits="userSpaceOnUse"
       id="clipPath10597">
      <path
         style="fill:#000000;stroke-width:0.264583"
         d="m 145.18913,28.360625 c -8.58573,-0.0324 -18.76558,-0.086 -22.62188,-0.11893 -3.8563,-0.033 -12.52623,-0.1851 -19.2665,-0.338072 -6.74027,-0.152969 -14.062619,-0.39974 -16.271879,-0.548378 -2.20926,-0.14864 -5.505111,-0.456591 -7.324122,-0.684331 -1.81901,-0.22774 -4.438388,-0.699011 -5.820838,-1.047261 -1.38244,-0.34826 -3.368972,-1.053769 -4.414481,-1.567799 -1.222359,-0.600969 -2.281769,-1.36724 -2.967741,-2.146551 -0.58674,-0.66656 -1.32987,-1.884289 -1.65141,-2.706058 C 64.330981,17.876013 64.24813,17.044115 64.108631,11.755983 63.954961,5.9302844 63.935461,5.7676847 63.197641,4.1593832 62.70281,3.0807431 61.92675,2.0228251 60.939629,1.081263 60.112401,0.29222525 58.823761,-0.66338625 58.07599,-1.0423172 57.32822,-1.4212349 55.7273,-2.0171348 54.51839,-2.366525 c -1.208911,-0.3493797 -3.329109,-0.7958508 -4.71156,-0.9921505 -1.60283,-0.2275814 -4.862229,-0.3493109 -8.995831,-0.33596 -3.56526,0.011509 -8.268229,0.1603587 -10.451039,0.3307689 -2.18282,0.1703996 -7.123911,0.5393108 -10.980211,0.8197903 -3.85631,0.2804795 -10.3748678,0.6503405 -14.4856885,0.8219096 -4.62718148,0.193122 -12.337161,0.2580111 -20.2406305,0.170352 -8.47594,-0.094001 -14.189101,-0.2791011 -16.99973,-0.5507805 -2.328331,-0.2250599 -5.48349,-0.5869517 -7.011451,-0.8042011 -1.527979,-0.2172493 -3.909229,-0.6302507 -5.291669,-0.9177708 -1.382451,-0.28752 -3.525581,-0.8424598 -4.7625,-1.2331991 -1.23693,-0.3907393 -2.844271,-1.00888 -3.57188,-1.3736505 -0.727599,-0.3647704 -1.88254,-1.0710492 -2.566519,-1.5695295 -0.843971,-0.615061 -1.471891,-1.3728806 -1.953962,-2.3581998 -0.59877,-1.223851 -0.684739,-1.667999 -0.54737,-2.82789 0.102492,-0.865389 0.596972,-2.211851 1.33254,-3.62847 0.64326,-1.23885 1.37451,-2.95824 1.624991,-3.82085 0.309891,-1.067189 0.41329,-2.093349 0.32357,-3.211071 -0.0894,-1.11316 -0.373391,-2.086448 -0.881121,-3.019319 -0.412088,-0.75715 -1.371118,-1.944989 -2.131179,-2.639639 -0.76006,-0.694651 -2.431989,-1.802231 -3.715401,-2.461282 -1.283409,-0.659058 -3.643148,-1.618048 -5.24388,-2.131099 -1.600729,-0.513059 -4.339169,-1.232961 -6.085419,-1.59979 -1.74625,-0.366821 -4.306089,-0.845349 -5.688539,-1.06339 -1.382451,-0.21803 -4.120891,-0.5828 -6.085422,-0.810601 -1.964529,-0.227798 -5.774529,-0.588878 -8.466659,-0.802389 -2.69214,-0.213521 -7.5737,-0.51231 -10.84792,-0.663979 -3.27422,-0.151681 -7.62,-0.395582 -9.65729,-0.54201 -2.03729,-0.146431 -4.15065,-0.334121 -4.69635,-0.417081 l -0.99219,-0.15085 v -89.009034 -89.00903 H 92.404749 304.07141 v 99.78949 99.789494 l -6.94531,-0.181999 c -3.81992,-0.100092 -9.86234,-0.35773 -13.4276,-0.572532 -3.56526,-0.214799 -10.23276,-0.465399 -14.81667,-0.55689 -5.17104,-0.103229 -10.59389,-0.0489 -14.2875,0.143211 -3.27422,0.17027 -7.56047,0.485421 -9.525,0.700321 -1.96453,0.2149 -5.05669,0.631349 -6.87147,0.925459 -1.81477,0.294101 -4.67227,0.8797 -6.35,1.301311 -1.67772,0.421619 -4.12197,1.1439 -5.43166,1.605068 -1.30968,0.461172 -3.32041,1.309701 -4.46828,1.88562 -1.14784,0.575921 -2.75518,1.502352 -3.57187,2.058731 -0.81667,0.556381 -2.15633,1.7176905 -2.97704,2.5807005 -0.82071,0.8629994 -1.85627,2.2903603 -2.3013,3.1718699 -0.44497,0.8815097 -0.94173,2.3645892 -1.10386,3.2957294 -0.24871,1.42818116 -0.22056,2.00267889 0.18007,3.6729697 0.29959,1.2490211 0.47657,3.0133316 0.47943,4.7790496 0.005,2.7801121 -0.003,2.815 -1.1611,5.1504219 -0.91649,1.848739 -1.59761,2.777439 -3.18646,4.344688 -1.11146,1.09632 -3.05411,2.6304 -4.31702,3.409061 -1.26291,0.77865 -3.34134,1.865241 -4.61875,2.414651 -1.27741,0.5494 -3.45138,1.373119 -4.83103,1.830499 -1.37964,0.45738 -3.93948,1.182931 -5.68854,1.612339 -1.74905,0.429421 -5.02555,1.07927 -7.28112,1.444112 -2.25557,0.364839 -5.82745,0.840909 -7.9375,1.05792 -2.11005,0.217019 -5.86052,0.516229 -8.33438,0.664909 -2.47385,0.14869 -11.5226,0.243789 -20.10832,0.211341 z"
         id="path10599" />
    </clipPath>
    <linearGradient
       inkscape:collect="always"
       xlink:href="#linearGradient13831"
       id="linearGradient2282"
       gradientUnits="userSpaceOnUse"
       gradientTransform="matrix(0.89940101,0,0,1,15.348608,39.233815)"
       x1="328.15424"
       y1="-227.81422"
       x2="328.15424"
       y2="-190.22646" />
    <linearGradient
       inkscape:collect="always"
       xlink:href="#linearGradient20995"
       id="linearGradient10305"
       x1="1054.3807"
       y1="293.36755"
       x2="1094.7645"
       y2="358.02579"
       gradientUnits="userSpaceOnUse" />
  </defs>
  <g
     inkscape:label="Layer 1"
     inkscape:groupmode="layer"
     id="layer1"
     transform="translate(112.8441,-27.539162)">
    <g
       id="g5735"
       transform="translate(-1747.4435,-515.52993)">
      <path
         style="fill:url(#linearGradient5664);fill-opacity:1;stroke-width:0.264583"
         d="m 1634.5994,629.74159 v -86.35735 l 5.4026,-0.19293 c 8.7058,-0.31088 32.1199,0.0122 36.9307,0.50965 6.7455,0.69745 8.5028,1.05581 15.875,3.2373 0.2331,0.069 2.3815,0.95057 2.4297,0.97449 0.048,0.0239 1.0019,0.49732 2.1194,1.052 2.4195,1.20098 4.2595,2.7506 5.0453,4.24923 0.5174,0.98663 0.5665,1.44044 0.5078,4.69265 -0.056,3.09762 0.011,3.80507 0.4833,5.06601 0.7555,2.01925 2.2606,3.63252 4.4743,4.79576 3.0584,1.60716 5.2766,2.06164 10.7408,2.20066 4.0702,0.10356 6.1855,-0.0155 14.5521,-0.81904 19.8604,-1.90743 29.0091,-2.42138 39.026,-2.19238 16.1511,0.36924 25.5438,2.88996 30.2426,8.11623 1.6321,1.81529 2.4304,3.60266 2.9459,6.59641 0.2362,1.37127 0.6625,3.02019 0.9474,3.66427 2.8353,6.40969 11.2146,10.00933 26.3758,11.33066 4.0684,0.35457 7.162,0.40754 17.0112,0.29127 12.2898,-0.14508 16.765,-0.36544 36.5125,-1.79785 6.1847,-0.44861 14.7572,-0.91208 19.05,-1.02993 4.8973,-0.13446 8.9389,-0.38275 10.848,-0.66645 10.2433,-1.52221 16.7972,-4.89027 19.1027,-9.81692 0.7595,-1.62312 0.8788,-2.22326 1.1756,-5.91545 0.1817,-2.25998 0.5034,-4.67342 0.7149,-5.3632 2.648,-8.63439 13.1655,-11.10533 51.5026,-12.09986 25.6644,-0.66578 59.6834,-0.58331 67.5349,0.16372 l 1.7859,0.16992 v 77.74924 77.74923 h -211.6703 -211.6667 z"
         id="path5656"
         sodipodi:nodetypes="ccssssssscsssssssssssssscsscccccc" />
      <g
         id="g5643"
         transform="translate(702.55549,240.67288)">
        <path
           style="fill:url(#linearGradient5680);fill-opacity:1;stroke-width:0.264583"
           d="m 932.04572,389.18497 v -86.21762 l 1.65365,-0.16263 c 0.9095,-0.0894 6.59474,-0.23842 12.63385,-0.33105 20.59574,-0.31591 34.34834,0.74049 41.51978,3.18934 2.36846,0.80876 5.04046,1.86147 5.04046,1.86147 l 1.92144,0.91568 c 2.4495,1.16732 4.7913,3.41293 5.2202,5.00576 0.1673,0.62146 0.2701,2.53813 0.2329,4.34241 -0.077,3.7091 0.1676,4.7472 1.571,6.6811 l 2.0903,2.04148 1.0337,0.6311 c 2.1911,1.33769 6.4525,2.289 10.2942,2.29805 2.5001,0.006 2.6151,0.29759 1.8817,1.08083 -2.1399,2.28539 -9.9659,11.25081 -10.9565,12.55175 -1.6464,2.16216 -3.893,6.90351 -4.7195,9.96018 -0.6497,2.40265 -0.7154,3.07141 -0.7147,7.27604 8e-4,4.14469 0.073,4.89848 0.6858,7.18861 2.7906,10.42232 10.7234,18.55412 20.6781,21.19671 l 2.2836,0.6062 -3.4874,4.09122 c -1.918,2.25017 -5.8271,6.82966 -8.6868,10.17664 -2.8598,3.34698 -13.99537,16.38432 -24.74579,28.97187 -10.75041,12.58755 -23.30404,27.27532 -27.89695,32.63949 -4.59291,5.36416 -8.39044,9.85877 -8.43894,9.98802 -0.0491,0.13093 -4.29626,0.23499 -9.59115,0.23499 h -9.50295 z m 129.29828,85.62232 c 0.2961,-0.32742 6.7805,-7.91766 14.4098,-16.86719 20.3086,-23.82301 42.3057,-49.58733 65.693,-76.94348 11.3598,-13.2875 -23.511,-23.81208 44.3582,-26.52012 4.1422,-0.16528 11.1482,-0.65854 15.5866,-0.78309 10.1292,-0.28425 15.1452,-0.91332 20.2406,-2.5384 6.0719,-1.93654 10.0776,-5.01945 11.5588,-8.89602 0.371,-0.97119 0.6039,-2.48574 0.7641,-4.96888 0.3655,-5.66791 1.1159,-7.75839 3.6286,-10.10872 4.5182,-4.22619 14.3644,-6.11937 36.8329,-7.08198 22.8596,-0.97937 74.0154,-1.05413 79.9703,-0.11687 l 0.9922,0.15616 v 42.5686 42.56861 l -13.9568,16.10764 c -7.6762,8.8592 -15.0756,17.67432 -14.8262,17.35887 0.4382,-0.55417 -6.5989,-5.59506 -8.4215,-6.96051 -1.7573,-1.31649 -6.8474,-5.13768 -11.8684,-7.59819 -9.4623,-4.6369 -19.3398,-7.07274 -30.1698,-7.44002 -19.997,-0.67815 -39.4423,6.79366 -53.7993,20.67217 -1.6664,1.61093 -9.526,10.42989 -17.4657,19.5977 -7.9396,9.16782 -14.8366,17.05571 -15.3266,17.52865 l -0.8909,0.8599 h -63.9242 -63.9241 l 0.5384,-0.59532 z"
           id="path5653"
           sodipodi:nodetypes="ccssscsscscsssssscscsssssscccsssssssssscccssssssssccccc" />
        <path
           style="fill:url(#linearGradient5700);fill-opacity:1;stroke-width:0.264583"
           d="m 1355.2565,405.5527 c -0.067,0 -6.3477,7.18657 -13.9567,15.97008 -7.609,8.78353 -20.978,24.21092 -29.7093,34.28318 -8.7312,10.07226 -16.0935,18.60196 -16.3603,18.95492 l -0.4847,0.64182 h 30.3165 30.317 v -34.925 c 0,-19.20873 -0.055,-34.925 -0.1225,-34.925 z"
           id="path5696" />
        <path
           style="fill:url(#radialGradient5690);fill-opacity:1;stroke-width:0.264583"
           d="m 1078.8915,401.49507 c 12.7319,13.18608 23.1333,24.13374 23.1133,24.32823 0,0.0255 0,0.0417 0.01,0.0563 -0.01,-0.006 -0.016,-0.006 -0.015,-0.0202 0.023,-0.21448 -10.3752,-11.17832 -23.1071,-24.3644 z"
           id="path5694" />
        <path
           style="fill:url(#linearGradient5726);fill-opacity:1.0;stroke-width:0.264583"
           d="m 1094.8736,331.08227 -70.6169,58.32834 -3.3053,3.90364 c -1.8178,2.14711 -6.0507,7.11885 -9.4061,11.0479 -14.55726,17.04609 -60.44593,70.72947 -60.44593,70.8787 0,0.0892 14.60484,0.16226 32.45539,0.16226 17.85054,0 35.65604,-0.0363 54.89124,-0.0196 l 22.3919,0.0196 5.1377,-6.01927 c 19.8605,-23.26724 96.1371,-112.57329 96.2231,-112.96577 0.083,-0.37815 -0.2236,-0.40612 -2.7781,-0.25269 -1.5794,0.0949 -6.8602,0.24848 -11.7352,0.34158 -18.0412,0.34437 -29.2627,-1.09036 -36.6448,-4.6855 -4.9584,-2.41482 -7.5673,-5.79715 -8.4346,-10.93525 -0.5409,-3.2051 -1.5868,-5.25091 -3.6835,-7.20628 -0.9134,-0.85186 -2.0889,-1.77693 -2.6123,-2.05569 z"
           id="path5651"
           sodipodi:nodetypes="ccccssccccscscscc" />
        <path
           style="fill:url(#linearGradient10305);fill-opacity:1;stroke-width:0.264583"
           d="m 1025.3113,389.43069 c -11.4772,-1.83074 -20.7838,-10.37965 -23.8773,-21.93323 -0.6132,-2.29013 -0.6851,-3.04392 -0.6858,-7.18861 -7e-4,-4.20463 0.065,-4.87339 0.7147,-7.27604 0.8265,-3.05667 3.0731,-7.79802 4.7195,-9.96018 0.9906,-1.30094 8.8166,-10.26636 10.9565,-12.55175 0.7334,-0.78324 0.876,-0.82292 3.5428,-0.98565 1.5283,-0.0933 5.8741,-0.46802 9.6573,-0.83281 19.4758,-1.87787 28.6067,-2.39061 38.8923,-2.18396 7.5937,0.15256 12.2207,0.57062 16.7583,1.51414 4.2089,0.87517 8.7749,2.5331 8.7749,3.18622 0,0.14738 -6.8125,7.97332 -15.1389,17.39098 -8.3264,9.41766 -17.8678,20.21864 -21.2032,24.00218 -3.3353,3.78354 -6.6729,7.51399 -7.4168,8.28988 -3.3472,3.49104 -8.7046,6.61273 -13.5296,7.88352 -2.1931,0.57759 -3.3335,0.70882 -6.7407,0.77576 -2.2556,0.0443 -4.6963,-0.0144 -5.424,-0.13045 z"
           id="path5647"
           sodipodi:nodetypes="csssssssssssssssc" />
      </g>
    </g>
    <circle
       style="fill:url(#linearGradient21001);fill-opacity:1;stroke-width:1.61916;stroke-linecap:round;stroke-linejoin:bevel;stroke-miterlimit:0.1"
       id="path7692"
       cx="80.816994"
       cy="-238.86292"
       r="62.395447"
       clip-path="url(#clipPath10597)"
       transform="rotate(180,89.820698,-8.7989635)" />
    <rect
       style="fill:url(#linearGradient2282);fill-opacity:1;stroke-width:1.2177;stroke-linecap:round;stroke-linejoin:bevel;stroke-miterlimit:0.1"
       id="rect24937-6"
       width="423.33301"
       height="77.354469"
       x="-112.8421"
       y="-200.569"
       transform="scale(1,-1)" />
  </g>
</svg>
