<svg xmlns="http://www.w3.org/2000/svg" xmlns:xlink="http://www.w3.org/1999/xlink" width="1600.014" height="653.971" viewBox="0 0 423.337 173.03"><defs><linearGradient xlink:href="#a" id="e" x1="2002.517" x2="1976.033" y1="714.285" y2="606.644" gradientUnits="userSpaceOnUse"/><linearGradient id="a"><stop offset="0" stop-color="#3a2766"/><stop offset="1" stop-color="#209bd5" stop-opacity="0"/></linearGradient><linearGradient xlink:href="#b" id="f" x1="932.046" x2="1493.688" y1="388.911" y2="388.911" gradientUnits="userSpaceOnUse"/><linearGradient id="b"><stop offset="0" stop-color="#d8e9f3"/><stop offset="1" stop-color="#d8e9f3" stop-opacity="0"/></linearGradient><linearGradient xlink:href="#c" id="g" x1="1362.722" x2="1281.846" y1="466.576" y2="419.882" gradientUnits="userSpaceOnUse"/><linearGradient id="c"><stop offset="0" stop-color="#977fff"/><stop offset="1" stop-color="#1f0049"/></linearGradient><linearGradient id="d"><stop offset="0" stop-color="#23e3ec"/><stop offset="1" stop-color="#ff1793"/></linearGradient><linearGradient xlink:href="#c" id="i" x1="1084.08" x2="1162.21" y1="325.113" y2="403.243" gradientUnits="userSpaceOnUse"/><linearGradient xlink:href="#d" id="k" x1="18.422" x2="143.212" y1="-197.317" y2="-197.317" gradientUnits="userSpaceOnUse"/><linearGradient xlink:href="#b" id="m" x1="328.154" x2="328.154" y1="-227.814" y2="-190.226" gradientTransform="matrix(.8994 0 0 1 15.349 39.234)" gradientUnits="userSpaceOnUse"/><linearGradient xlink:href="#d" id="j" x1="1054.381" x2="1094.764" y1="293.368" y2="358.026" gradientUnits="userSpaceOnUse"/><radialGradient xlink:href="#d" id="h" cx="1122.202" cy="435.181" r="202.14" fx="1122.202" fy="435.181" gradientTransform="matrix(-.636 1.3698 -.651 -.3022 2074.584 -986.896)" gradientUnits="userSpaceOnUse"/><clipPath id="l" clipPathUnits="userSpaceOnUse"><path stroke-width=".265" d="M145.19 28.36c-8.587-.032-18.766-.085-22.623-.118-3.856-.033-12.526-.185-19.266-.338-6.74-.153-14.063-.4-16.272-.549-2.21-.148-5.505-.456-7.324-.684-1.82-.228-4.439-.7-5.821-1.047-1.383-.349-3.37-1.054-4.415-1.568-1.222-.601-2.281-1.367-2.967-2.147-.587-.666-1.33-1.884-1.652-2.706-.519-1.327-.602-2.159-.741-7.447-.154-5.826-.174-5.988-.911-7.597-.495-1.078-1.271-2.136-2.258-3.078-.828-.789-2.116-1.744-2.864-2.123-.748-.38-2.349-.975-3.558-1.325-1.209-.349-3.329-.795-4.711-.992-1.603-.227-4.862-.349-8.996-.336-3.565.012-8.268.16-10.451.331-2.183.17-7.124.54-10.98.82-3.857.28-10.375.65-14.486.822-4.627.193-12.337.258-20.24.17-8.477-.094-14.19-.279-17-.55-2.329-.226-5.484-.588-7.012-.805a102.15 102.15 0 0 1-5.291-.918 59.15 59.15 0 0 1-4.763-1.233c-1.237-.39-2.844-1.009-3.572-1.373a22.072 22.072 0 0 1-2.566-1.57c-.844-.615-1.472-1.373-1.954-2.358-.6-1.224-.685-1.668-.548-2.828.103-.865.597-2.212 1.333-3.629.643-1.238 1.374-2.958 1.625-3.82a8.698 8.698 0 0 0 .323-3.211c-.089-1.114-.373-2.087-.88-3.02-.413-.757-1.372-1.945-2.132-2.64-.76-.694-2.432-1.802-3.715-2.46-1.284-.66-3.643-1.619-5.244-2.132-1.6-.513-4.34-1.233-6.086-1.6a140.267 140.267 0 0 0-5.688-1.063 184.249 184.249 0 0 0-6.086-.81c-1.964-.228-5.774-.59-8.466-.803a404.038 404.038 0 0 0-10.848-.664c-3.274-.152-7.62-.395-9.657-.542-2.038-.146-4.151-.334-4.697-.417l-.992-.15v-178.019h423.333v199.58l-6.945-.183c-3.82-.1-9.862-.358-13.427-.572-3.566-.215-10.233-.466-14.817-.557-5.171-.104-10.594-.05-14.288.143-3.274.17-7.56.485-9.525.7-1.964.215-5.056.632-6.871.926-1.815.294-4.672.88-6.35 1.3-1.678.423-4.122 1.145-5.432 1.606-1.31.461-3.32 1.31-4.468 1.886-1.148.576-2.755 1.502-3.572 2.058-.817.557-2.156 1.718-2.977 2.581-.82.863-1.856 2.29-2.301 3.172-.445.881-.942 2.365-1.104 3.296-.249 1.428-.22 2.002.18 3.673.3 1.249.476 3.013.48 4.779.004 2.78-.004 2.815-1.162 5.15-.916 1.849-1.597 2.778-3.186 4.345-1.112 1.096-3.054 2.63-4.317 3.409-1.263.779-3.342 1.865-4.619 2.415a72.775 72.775 0 0 1-4.831 1.83c-1.38.457-3.94 1.183-5.689 1.612-1.749.43-5.025 1.08-7.28 1.444a167.76 167.76 0 0 1-7.938 1.058c-2.11.217-5.86.517-8.335.665-2.473.149-11.522.244-20.108.212z"/></clipPath></defs><g transform="translate(112.844 -27.54)"><path fill="url(#e)" d="M1634.6 629.742v-86.358l5.402-.193c8.706-.31 32.12.013 36.93.51 6.746.697 8.503 1.056 15.876 3.237.233.07 2.381.95 2.43.975l2.119 1.052c2.42 1.2 4.26 2.75 5.045 4.249.517.987.567 1.44.508 4.693-.056 3.097.01 3.805.483 5.066.756 2.019 2.26 3.632 4.474 4.795 3.059 1.608 5.277 2.062 10.741 2.201 4.07.104 6.186-.015 14.552-.819 19.86-1.907 29.01-2.421 39.026-2.192 16.152.369 25.544 2.89 30.243 8.116 1.632 1.815 2.43 3.603 2.946 6.596.236 1.372.662 3.02.947 3.665 2.836 6.41 11.215 10.009 26.376 11.33 4.069.355 7.162.408 17.011.291 12.29-.145 16.765-.365 36.513-1.797 6.185-.449 14.757-.912 19.05-1.03 4.897-.135 8.939-.383 10.848-.667 10.243-1.522 16.797-4.89 19.103-9.817.759-1.623.878-2.223 1.175-5.915.182-2.26.504-4.674.715-5.363 2.648-8.635 13.165-11.106 51.503-12.1 25.664-.666 59.683-.583 67.535.164l1.785.17v155.498H1634.6z" transform="translate(-1747.444 -515.53)"/><path fill="url(#f)" d="M932.046 389.185v-86.218l1.653-.162c.91-.09 6.595-.239 12.634-.331 20.596-.316 34.349.74 41.52 3.189 2.368.809 5.04 1.861 5.04 1.861l1.922.916c2.45 1.167 4.791 3.413 5.22 5.006.167.621.27 2.538.233 4.342-.077 3.71.168 4.748 1.571 6.681l2.09 2.042 1.034.631c2.191 1.338 6.452 2.289 10.294 2.298 2.5.006 2.615.298 1.882 1.08-2.14 2.286-9.966 11.252-10.957 12.553-1.646 2.162-3.893 6.903-4.72 9.96-.649 2.402-.715 3.071-.714 7.276.001 4.145.073 4.898.686 7.188 2.79 10.423 10.723 18.555 20.678 21.197l2.284.606-3.488 4.092c-1.918 2.25-5.827 6.83-8.687 10.176-2.86 3.347-13.995 16.385-24.745 28.972a48178.702 48178.702 0 0 1-27.897 32.64c-4.593 5.364-8.39 9.858-8.44 9.988-.048.13-4.295.235-9.59.235h-9.503zm129.298 85.622c.296-.327 6.78-7.917 14.41-16.867a72079.462 72079.462 0 0 1 65.693-76.943c11.36-13.288-23.511-23.812 44.358-26.52 4.142-.166 11.148-.659 15.587-.784 10.129-.284 15.145-.913 20.24-2.538 6.072-1.937 10.078-5.02 11.559-8.896.371-.971.604-2.486.764-4.969.366-5.668 1.116-7.758 3.629-10.109 4.518-4.226 14.364-6.119 36.833-7.082 22.86-.979 74.015-1.054 79.97-.116l.992.156v85.137l-13.957 16.108c-7.676 8.859-15.075 17.674-14.826 17.358.438-.554-6.599-5.595-8.421-6.96-1.758-1.317-6.848-5.138-11.869-7.598-9.462-4.637-19.34-7.073-30.17-7.44-19.997-.678-39.442 6.793-53.799 20.672-1.666 1.61-9.526 10.43-17.466 19.598-7.94 9.167-14.836 17.055-15.326 17.528l-.891.86h-127.848l.538-.595z" transform="translate(-1044.888 -274.857)"/><path fill="url(#g)" d="M1355.256 405.553c-.067 0-6.347 7.186-13.956 15.97-7.61 8.783-20.978 24.21-29.71 34.283-8.73 10.072-16.093 18.602-16.36 18.955l-.485.642h60.634v-34.925c0-19.209-.055-34.925-.122-34.925z" transform="translate(-1044.888 -274.857)"/><path fill="url(#h)" d="M1078.891 401.495c12.732 13.186 23.134 24.134 23.114 24.328 0 .026 0 .042.01.057-.01-.006-.016-.006-.015-.02.023-.215-10.375-11.179-23.107-24.365z" transform="translate(-1044.888 -274.857)"/><path fill="url(#i)" d="m1094.874 331.082-70.617 58.329-3.306 3.903a4435.98 4435.98 0 0 1-9.406 11.048c-14.557 17.046-60.446 70.73-60.446 70.879 0 .09 14.605.162 32.456.162 17.85 0 35.656-.036 54.891-.02l22.392.02 5.138-6.02c19.86-23.266 96.137-112.572 96.223-112.965.083-.378-.224-.406-2.778-.253-1.58.095-6.86.249-11.736.342-18.04.344-29.262-1.09-36.644-4.686-4.959-2.414-7.568-5.797-8.435-10.935-.54-3.205-1.587-5.25-3.684-7.206-.913-.852-2.088-1.777-2.612-2.056z" transform="translate(-1044.888 -274.857)"/><path fill="url(#j)" d="M1025.311 389.43c-11.477-1.83-20.783-10.379-23.877-21.933-.613-2.29-.685-3.043-.686-7.188 0-4.205.065-4.874.715-7.276.826-3.057 3.073-7.798 4.72-9.96.99-1.301 8.816-10.267 10.956-12.552.733-.783.876-.823 3.543-.986 1.528-.093 5.874-.468 9.657-.833 19.476-1.877 28.607-2.39 38.892-2.184 7.594.153 12.221.571 16.759 1.515 4.209.875 8.775 2.533 8.775 3.186 0 .147-6.813 7.973-15.14 17.39a31811.503 31811.503 0 0 0-21.203 24.003c-3.335 3.784-6.672 7.514-7.416 8.29-3.348 3.49-8.705 6.613-13.53 7.883-2.193.578-3.333.71-6.74.776-2.256.044-4.697-.014-5.425-.13z" transform="translate(-1044.888 -274.857)"/><circle cx="80.817" cy="-238.863" r="62.395" fill="url(#k)" clip-path="url(#l)" transform="rotate(180 89.82 -8.799)"/><path fill="url(#m)" d="M-112.842-200.569h423.333v77.354h-423.333z" transform="scale(1 -1)"/></g></svg>
