<svg xmlns="http://www.w3.org/2000/svg" xmlns:xlink="http://www.w3.org/1999/xlink" xml:space="preserve" width="625" height="1063" viewBox="0 0 165.365 281.252"><defs><linearGradient id="b"><stop offset="0" stop-color="#977fff"/><stop offset="1" stop-color="#1f0049"/></linearGradient><linearGradient id="c"><stop offset="0" stop-color="#3a2766"/><stop offset="1" stop-color="#209bd5" stop-opacity="0"/></linearGradient><linearGradient id="a"><stop offset="0" stop-color="#d8e9f3"/><stop offset="1" stop-color="#d8e9f3" stop-opacity="0"/></linearGradient><linearGradient id="d"><stop offset="0" stop-color="#23e3ec"/><stop offset="1" stop-color="#ff1793"/></linearGradient><linearGradient xlink:href="#a" id="e" x1="269.015" x2="434.318" y1="378.204" y2="378.204" gradientUnits="userSpaceOnUse"/><radialGradient xlink:href="#b" id="i" cx="570.914" cy="274.162" r="71.137" fx="570.914" fy="274.162" gradientTransform="matrix(.8802 .5082 -1.2628 2.1873 443.312 -636.182)" gradientUnits="userSpaceOnUse"/><radialGradient xlink:href="#c" id="h" cx="608.809" cy="384.606" r="82.644" fx="608.809" fy="384.606" gradientTransform="matrix(2.7846 0 0 2.619 -1033.543 -602.537)" gradientUnits="userSpaceOnUse"/><radialGradient xlink:href="#c" id="g" cx="517.543" cy="223.306" r="36.239" fx="517.543" fy="223.306" gradientTransform="matrix(2.3354 1.3483 -2.0048 3.4724 -286.153 -1242.745)" gradientUnits="userSpaceOnUse"/><radialGradient xlink:href="#d" id="f" cx="510.018" cy="337.911" r="19.672" fx="510.018" fy="337.911" gradientTransform="matrix(9.5044 -9.5044 2.9944 2.9944 -5395.318 4236.417)" gradientUnits="userSpaceOnUse"/></defs><path fill="url(#e)" d="M269.042 237.453v98.913c-.058 1.642-.004 37.93 0 82.713v83.306-.084c-.035.31.006.647 0 1.118v1.638l3.658 1.566c16.283 7.139 32.238 10.994 50.536 12.21 2.952.197 10.561.147 14.42-.094 18.314-1.144 35.394-5.959 50.006-14.096 3.54-1.971 10.206-6.452 13.361-8.981 22.347-17.911 34.148-43.765 33.247-72.833-.454-14.63-3.448-28.291-9.633-43.96l-2-5.067-.04.063c-.192-.649-.721-2.265-1.772-4.307-15.947-30.976-62.87-75.008-74.287-88.7-3.294-3.95-4.52-5.352-5.127-6.034l.093-.151-.805-1.081a144.295 144.295 0 0 1-2.435-3.463c-.909-1.327-3.037-3.795-4.808-5.576-13.203-13.273-33.516-23.438-52.259-26.151-3.052-.442-8.87-.949-10.886-.949z" transform="matrix(1 0 0 .9958 -269.015 -236.464)"/><path fill="url(#f)" d="M496.514 335.785c-.004-45.819.041-83.306.1-83.306.34 0 7.632 4.402 10.224 6.171 3.432 2.343 8.787 6.79 11.335 9.414l2.485.944-1.681 3.191c-4.08 7.75-8.236 15.983-9.387 24.638-.48 3.604-.48 11.36 0 14.965 1.467 11.035 5.774 21.384 12.488 30.006 2.277 2.923 13.826 12.44 13.78 12.986-.03.361-1.384 2.843-2.543 5.211-1.67 3.412-5.373 9.462-17.847 29.157a83339.428 83339.428 0 0 0-17.343 27.39l-1.604 2.539z" transform="matrix(1 0 0 .9958 -496.506 -153.517)"/><path fill="url(#g)" d="M518.202 268.578c-4.453-4.548-11.608-9.874-18.454-13.736l-3.242-1.828v-98.855h1.285c2.016 0 7.834.508 10.886.95 18.743 2.712 39.056 12.877 52.258 26.15 1.772 1.781 3.9 4.25 4.808 5.577a145.41 145.41 0 0 0 2.436 3.462l.805 1.081-24.212 39.003c-13.316 21.452-24.355 39.217-24.53 39.478-.29.43-.478.313-2.04-1.282z" transform="matrix(1 0 0 .9958 -496.506 -153.517)"/><path fill="url(#h)" d="M550.716 435.54c-18.298-1.217-34.253-5.072-50.536-12.21l-3.671-1.566.02-1.639c.021-1.606-.045-1.692 1.544-4.205.893-1.411 8.707-13.639 17.364-27.172 12.574-19.656 16.17-25.475 17.876-28.925 1.174-2.376 2.375-5.303 2.375-5.303l.723.527c2.29 1.669 7.292 3.877 9.987 5.088 11.696 5.257 25.199 6.542 37.828 3.6 8.977-2.09 17.994-6.674 25.127-12.774 6.401-5.473 8.209-7.952 21.929-30.079l14.954-24.116 3.88-6.258 2 5.067c6.186 15.669 9.18 29.33 9.633 43.96.902 29.069-10.9 54.922-33.246 72.833-3.155 2.529-9.821 7.01-13.361 8.981-14.612 8.137-31.692 12.952-50.007 14.096-3.858.241-11.467.291-14.42.095z" transform="matrix(1 0 0 .9958 -496.506 -153.517)"/><path fill="url(#i)" d="m568.237 190.79-24.45 39.387c-13.448 21.663-24.596 39.603-24.774 39.867a.879.879 0 0 1-.095.119l-1.181 2.243c-4.121 7.827-8.318 16.14-9.48 24.881-.484 3.64-.484 11.472 0 15.112 1.482 11.144 4.576 22.074 11.356 30.78 4.313 5.538 10.222 13.728 25.55 19.36 13.787 5.067 25.712 5.276 38.466 2.306 9.065-2.111 18.171-6.74 25.375-12.9 6.464-5.528 8.29-8.032 22.145-30.376l15.101-24.354 3.919-6.32s-.497-1.974-1.865-4.63c-15.946-30.977-62.87-75.009-74.286-88.7-4.548-5.455-5.781-6.775-5.781-6.775z" transform="matrix(1 0 0 .9958 -496.506 -153.517)"/></svg>
