<?xml version="1.0" encoding="UTF-8" standalone="no"?>
<!-- Created with Inkscape (http://www.inkscape.org/) -->

<svg
   width="165.36458mm"
   height="281.25208mm"
   viewBox="0 0 165.36458 281.25208"
   version="1.1"
   id="svg21153"
   xml:space="preserve"
   inkscape:version="1.2.2 (b0a8486541, 2022-12-01)"
   sodipodi:docname="team-bg.svg"
   xmlns:inkscape="http://www.inkscape.org/namespaces/inkscape"
   xmlns:sodipodi="http://sodipodi.sourceforge.net/DTD/sodipodi-0.dtd"
   xmlns:xlink="http://www.w3.org/1999/xlink"
   xmlns="http://www.w3.org/2000/svg"
   xmlns:svg="http://www.w3.org/2000/svg"><sodipodi:namedview
     id="namedview21155"
     pagecolor="#ffffff"
     bordercolor="#666666"
     borderopacity="1.0"
     inkscape:showpageshadow="2"
     inkscape:pageopacity="0.0"
     inkscape:pagecheckerboard="0"
     inkscape:deskcolor="#d1d1d1"
     inkscape:document-units="mm"
     showgrid="false"
     inkscape:zoom="1.5714646"
     inkscape:cx="356.99182"
     inkscape:cy="165.13258"
     inkscape:window-width="1920"
     inkscape:window-height="1045"
     inkscape:window-x="0"
     inkscape:window-y="0"
     inkscape:window-maximized="1"
     inkscape:current-layer="layer1" /><defs
     id="defs21150"><linearGradient
       inkscape:collect="always"
       id="linearGradient5722"><stop
         style="stop-color:#977fff;stop-opacity:1;"
         offset="0"
         id="stop5718" /><stop
         style="stop-color:#1f0049;stop-opacity:1;"
         offset="1"
         id="stop5720" /></linearGradient><linearGradient
       inkscape:collect="always"
       id="linearGradient44841"><stop
         style="stop-color:#3a2766;stop-opacity:1;"
         offset="0"
         id="stop44837" /><stop
         style="stop-color:#209bd5;stop-opacity:0;"
         offset="1"
         id="stop44839" /></linearGradient><linearGradient
       inkscape:collect="always"
       id="linearGradient13831"><stop
         style="stop-color:#d8e9f3;stop-opacity:1;"
         offset="0"
         id="stop13827" /><stop
         style="stop-color:#d8e9f3;stop-opacity:0;"
         offset="1"
         id="stop13829" /></linearGradient><linearGradient
       inkscape:collect="always"
       id="linearGradient20995"><stop
         style="stop-color:#23e3ec;stop-opacity:1;"
         offset="0"
         id="stop20991" /><stop
         style="stop-color:#ff1793;stop-opacity:1;"
         offset="1"
         id="stop20993" /></linearGradient><linearGradient
       inkscape:collect="always"
       xlink:href="#linearGradient13831"
       id="linearGradient22400"
       x1="269.01523"
       y1="378.20377"
       x2="434.31787"
       y2="378.20377"
       gradientUnits="userSpaceOnUse" /><radialGradient
       inkscape:collect="always"
       xlink:href="#linearGradient5722"
       id="radialGradient22408"
       cx="570.91376"
       cy="274.16202"
       fx="570.91376"
       fy="274.16202"
       r="71.137444"
       gradientTransform="matrix(0.88020506,0.50818663,-1.2628481,2.187317,443.31243,-636.18151)"
       gradientUnits="userSpaceOnUse" /><radialGradient
       inkscape:collect="always"
       xlink:href="#linearGradient44841"
       id="radialGradient22440"
       cx="608.8089"
       cy="384.60574"
       fx="608.8089"
       fy="384.60574"
       r="82.644455"
       gradientTransform="matrix(2.7845764,0,0,2.618967,-1033.5428,-602.53703)"
       gradientUnits="userSpaceOnUse" /><radialGradient
       inkscape:collect="always"
       xlink:href="#linearGradient44841"
       id="radialGradient22442"
       cx="517.5434"
       cy="223.30621"
       fx="517.5434"
       fy="223.30621"
       r="36.239029"
       gradientTransform="matrix(2.3353509,1.3483155,-2.0047849,3.4723894,-286.15294,-1242.745)"
       gradientUnits="userSpaceOnUse" /><radialGradient
       inkscape:collect="always"
       xlink:href="#linearGradient20995"
       id="radialGradient22444"
       cx="510.01779"
       cy="337.91147"
       fx="510.01779"
       fy="337.91147"
       r="19.672451"
       gradientTransform="matrix(9.5044688,-9.5044688,2.9943539,2.9943539,-5395.3465,4236.4012)"
       gradientUnits="userSpaceOnUse" /></defs><g
     inkscape:label="Layer 1"
     inkscape:groupmode="layer"
     id="layer1"
     transform="translate(-5.063961,0.20479187)"><g
       id="g22452"
       transform="matrix(1,0,0,0.99583623,-263.95128,-236.66912)"><path
         id="path21701-7"
         style="fill:url(#linearGradient22400);fill-opacity:1;stroke-width:0.265899"
         d="m 269.04171,237.45309 v 49.42747 49.42696 0.0589 c -0.0575,1.64162 -0.004,37.92949 0,82.71226 v 83.30603 -0.0837 c -0.0352,0.30936 0.006,0.64679 0,1.11828 v 1.63814 l 3.65861,1.5658 c 16.28314,7.13859 32.23772,10.99348 50.53541,12.21011 2.95226,0.19629 10.56125,0.14644 14.4198,-0.0946 18.31444,-1.144 35.39482,-5.95863 50.00625,-14.09578 3.53988,-1.97138 10.20601,-6.45225 13.36145,-8.98137 22.34646,-17.91084 34.14811,-43.76422 33.24655,-72.83276 -0.45376,-14.63044 -3.44735,-28.29125 -9.633,-43.96011 l -2.00039,-5.06635 -0.0393,0.063 c -0.1921,-0.64941 -0.72137,-2.26542 -1.7725,-4.30723 -15.9465,-30.97589 -62.87008,-75.00845 -74.28694,-88.70001 -3.29387,-3.95013 -4.51974,-5.352 -5.12682,-6.03426 l 0.0935,-0.15089 -0.80564,-1.08107 c -0.4431,-0.5947 -1.5386,-2.15315 -2.43499,-3.46284 -0.90838,-1.3272 -3.03668,-3.79511 -4.80798,-5.57589 -13.20245,-13.27303 -33.51589,-23.43866 -52.25831,-26.15137 -3.0522,-0.44176 -8.86979,-0.94878 -10.88615,-0.94878 z"
         sodipodi:nodetypes="ccccccccccssssscccssccsssssc" /><g
         id="g22193"
         transform="translate(-227.49113,83.293657)"><path
           style="fill:url(#radialGradient22444);fill-opacity:1;stroke-width:0.265899"
           d="m 496.51389,335.78465 c -0.004,-45.81833 0.0411,-83.30606 0.10062,-83.30606 0.33866,0 7.63123,4.40244 10.22331,6.1717 3.43177,2.34239 8.78682,6.78943 11.3354,9.41336 l 2.48433,0.94422 -1.68054,3.19152 c -4.08092,7.7501 -8.23633,15.98286 -9.38721,24.63784 -0.47925,3.60406 -0.47925,11.36028 0,14.96436 1.46745,11.03572 5.77467,21.38484 12.48835,30.00623 2.27671,2.92364 13.82587,12.44074 13.78026,12.98645 -0.0302,0.36092 -1.38407,2.84315 -2.5432,5.211 -1.67018,3.41181 -5.37369,9.46218 -17.84725,29.15672 -8.65685,13.66833 -16.46127,25.99389 -17.34314,27.39012 l -1.60341,2.5386 z"
           id="path21701"
           sodipodi:nodetypes="cssscsssssssscc" /><path
           style="fill:url(#radialGradient22442);fill-opacity:1;stroke-width:0.264583"
           d="m 518.2022,268.57788 c -4.45282,-4.54815 -11.608,-9.8737 -18.45468,-13.7357 l -3.24115,-1.82822 v -49.42724 -49.42724 h 1.28449 c 2.01637,0 7.83413,0.50706 10.88634,0.94883 18.74244,2.71271 39.0558,12.87786 52.25827,26.15091 1.7713,1.78078 3.89948,4.2491 4.80786,5.5763 0.89639,1.30969 1.99235,2.86782 2.43545,3.46252 l 0.80565,1.08128 -24.21193,39.00279 c -13.31656,21.45154 -24.35561,39.21645 -24.53122,39.47759 -0.28993,0.43114 -0.4774,0.3133 -2.03908,-1.28182 z"
           id="path22070" /><path
           style="fill:url(#radialGradient22440);fill-opacity:1;stroke-width:0.264583"
           d="m 550.71566,435.53973 c -18.29771,-1.21663 -34.25225,-5.07145 -50.53541,-12.21005 l -3.67167,-1.56591 0.021,-1.63851 c 0.0206,-1.60599 -0.0455,-1.69211 1.54383,-4.20485 0.89279,-1.4115 8.70643,-13.63918 17.36364,-27.17261 12.57394,-19.65629 16.16991,-25.4751 17.87556,-28.92528 1.17435,-2.37547 2.37519,-5.30243 2.37519,-5.30243 l 0.72367,0.52726 c 2.28987,1.66838 7.29189,3.87647 9.98631,5.08744 11.69644,5.2568 25.19899,6.54217 37.82846,3.60106 8.97672,-2.09047 17.99391,-6.6748 25.1272,-12.77465 6.40087,-5.47353 8.20824,-7.95269 21.92841,-30.07903 6.09086,-9.82265 12.82033,-20.6751 14.95438,-24.11654 l 3.88009,-6.25717 2.00015,5.06654 c 6.18566,15.66887 9.17917,29.32985 9.63293,43.9603 0.90156,29.06857 -10.89975,54.92174 -33.24623,72.8326 -3.15545,2.52912 -9.82157,7.00997 -13.36146,8.98135 -14.61144,8.13716 -31.69179,12.95178 -50.00625,14.09578 -3.85855,0.24101 -11.46753,0.29099 -14.41979,0.0947 z"
           id="path21691"
           sodipodi:nodetypes="sscsssscsssssscsssssss" /><path
           id="path21681-7"
           style="fill:url(#radialGradient22408);fill-opacity:1;stroke:none;stroke-width:0.267191"
           d="m 568.23687,190.79014 -24.45055,39.38713 c -13.44778,21.66291 -24.59573,39.60303 -24.77307,39.86673 -0.0323,0.048 -0.0637,0.0857 -0.0955,0.11899 l -1.18096,2.24345 c -4.12111,7.82645 -8.31783,16.14033 -9.48004,24.88057 -0.48398,3.63958 -0.48398,11.47236 0,15.11192 1.4819,11.14445 4.57669,22.07377 11.35651,30.78011 4.31257,5.538 10.22135,13.72794 25.54886,19.36032 13.78833,5.06678 25.71327,5.2758 38.46718,2.30571 9.06516,-2.11107 18.1712,-6.74036 25.37477,-12.9003 6.46392,-5.52746 8.28911,-8.03138 22.14446,-30.37571 6.15086,-9.91943 12.94643,-20.87866 15.10149,-24.35401 l 3.91863,-6.31917 c 0,0 -0.49637,-1.9744 -1.86424,-4.63147 -15.94652,-30.97592 -62.86997,-75.00843 -74.28684,-88.7 -4.54806,-5.45421 -5.78073,-6.77424 -5.78073,-6.77424 z"
           sodipodi:nodetypes="cssccsssssssscsscc" /></g></g></g></svg>
