<svg xmlns="http://www.w3.org/2000/svg" xmlns:xlink="http://www.w3.org/1999/xlink" xml:space="preserve" width="1275" height="1405" viewBox="0 0 337.344 371.74"><defs><linearGradient id="d"><stop offset="0" stop-color="#d7e8f2"/><stop offset="1" stop-color="#d7e8f2" stop-opacity="0"/></linearGradient><linearGradient id="b"><stop offset="0" stop-color="#3a2766"/><stop offset="1" stop-color="#209bd5" stop-opacity="0"/></linearGradient><linearGradient id="c"><stop offset="0" stop-color="#977fff"/><stop offset="1" stop-color="#1f0049"/></linearGradient><linearGradient id="a"><stop offset="0" stop-color="#23e3ec"/><stop offset="1" stop-color="#ff1793"/></linearGradient><linearGradient xlink:href="#a" id="i" x1="577.92" x2="691.712" y1="298.635" y2="298.635" gradientUnits="userSpaceOnUse"/><linearGradient xlink:href="#b" id="e" x1="462.015" x2="799.043" y1="264.884" y2="264.884" gradientTransform="translate(-473.274 -77.659)" gradientUnits="userSpaceOnUse"/><radialGradient xlink:href="#c" id="h" cx="866.29" cy="488.398" r="56.896" fx="866.29" fy="488.398" gradientTransform="matrix(1.1958 .9714 -1.7567 2.1624 640.152 -1462.69)" gradientUnits="userSpaceOnUse"/><radialGradient xlink:href="#d" id="f" cx="703.509" cy="276.817" r="50.593" fx="703.509" fy="276.817" gradientTransform="matrix(.885 .4655 -1.2488 2.3745 426.532 -707.942)" gradientUnits="userSpaceOnUse"/><radialGradient xlink:href="#d" id="g" cx="793.938" cy="504.055" r="48.684" fx="793.938" fy="504.055" gradientTransform="matrix(.551 .2969 -1.2926 2.3992 1007.973 -940.962)" gradientUnits="userSpaceOnUse"/></defs><path fill="url(#e)" d="M128.89 1.689c-2.673-.026-5.324.141-7.053.51-7.521 1.607-13.654 4.849-18.795 9.936-3.27 3.236-4.216 4.593-9.12 13.07l-4.014 6.94 1.024 1.026c-5.327-4.92-11.584-7.97-18.758-9.145.089-.024.135-.06.084-.112-.087-.088-.315-.097-.506-.02-.054.021-.04.036-.06.054a40.994 40.994 0 0 0-1.542-.201c.174-.021.262-.06.13-.113a1.02 1.02 0 0 0-.662 0 .134.134 0 0 0-.063.044 34.805 34.805 0 0 0-6.624-.002.133.133 0 0 0-.06-.042 1.02 1.02 0 0 0-.661 0c-.107.044-.072.078.027.102-.452.051-.901.12-1.351.19-.003-.005 0-.008-.004-.011-.088-.088-.316-.098-.507-.021-.127.05-.125.088-.061.117-6.484 1.1-12.698 4.015-18.042 8.534.066-.07.112-.098.194-.203.329-.42.32-.428-.1-.1-.254.2-.463.409-.463.464 0 .066.027.088.065.09l-.05.04c-2.943 2.547-5.533 5.999-8.947 11.927-1.09 1.892-5.733 9.929-10.318 17.86-31.698 54.834-30.727 53.102-32.075 57.234-1.246 3.82-1.602 6.301-1.6 11.16.002 5.033.338 7.164 1.842 11.685 4.287 12.886 15.57 22.266 29.373 24.417 2.348.366 9.95.134 12.298-.375 6.249-1.355 12.044-4.257 16.69-8.232-.205.172-.398.353-.398.4 0 .218.217.077.562-.363.292-.373.266-.375-.025-.152 2.234-1.93 4.201-4.107 5.813-6.486.743-1.096 4.224-7.01 8.858-14.978l.92.744c4.419 3.57 10.737 6.405 16.548 7.423h-.004c2.911.51 9.222.515 12.107.01 9.915-1.734 18.819-7.389 24.143-15.333 1.546-2.307 42.242-72.735 43.65-75.54 2.656-5.291 4.098-12.163 3.75-17.863-1.033-16.914-12.5-30.356-29.036-34.036-1.813-.404-4.507-.623-7.18-.649zM38.993 35.716c-.014-.014-.121.066-.331.23-.255.2-.463.409-.463.464 0 .217.217.077.563-.364.164-.21.244-.317.23-.33zm63.342 29.767c-.058.467-.122.903-.197 1.279-.037.187-.094.381-.135.57.128-.615.236-1.231.332-1.849zm-2.611 8.923a35.963 35.963 0 0 1-.954 2.056c-.703 1.382-8.82 15.55-18.038 31.485l-1.138 1.968c9.672-16.837 18.74-32.773 20.13-35.509zm-110.928 52.956c-.028.028-.047.12-.053.275-.012.279.05.435.139.347.088-.088.097-.317.02-.507-.042-.106-.078-.143-.106-.115zm0 6.879c-.028.028-.047.12-.053.275-.012.279.05.435.139.347.088-.088.097-.316.02-.507-.042-.106-.078-.143-.106-.115zm40.65 33.006a.722.722 0 0 0-.292.05c-.211.085-.149.148.16.16.279.012.435-.05.347-.138-.044-.044-.123-.068-.215-.072zm-4.212.262c-.215 0-.431.016-.595.047-.327.063-.06.115.595.115s.923-.052.596-.115a3.33 3.33 0 0 0-.596-.047zm260.328 42.07a.722.722 0 0 0-.292.052c-.21.084-.148.147.16.16.28.011.435-.051.347-.14-.044-.043-.123-.068-.215-.071zm7.673 0a.722.722 0 0 0-.292.052c-.21.084-.148.147.16.16.28.011.435-.051.347-.14-.044-.043-.123-.068-.215-.071zm-4.387.017c-8.61.065-17.063 3.323-23.999 9.323-2.943 2.546-5.533 5.999-8.948 11.927-1.09 1.892-5.732 9.928-10.317 17.86a41005.556 41005.556 0 0 0-14.646 25.353c10.505-18.333 22.275-38.777 22.661-39.266.137-.173.097-.291-.1-.296-.18-.005-1.04-.418-1.914-.918-2.485-1.423-5.974-2.834-8.75-3.538-12.646-3.208-25.727.361-34.89 9.52-1.465 1.464-3.27 3.555-4.014 4.646-1.558 2.29-42.435 73.039-43.985 76.128-1.267 2.526-2.495 6.083-3.13 9.068-.68 3.188-.67 10.865.015 14.023 2.482 11.428 9.496 20.577 19.659 25.641 2.925 1.458 6.855 2.757 10.008 3.31 2.912.51 9.222.515 12.108.01 7.903-1.382 15.385-5.342 20.559-10.881 2.474-2.65 3.672-4.352 6.58-9.349 1.774-3.048 2.51-4.09 2.869-4.06.454.037.453.022-.016-.265-.148-.09-.934-.687-1.494-1.101a37.55 37.55 0 0 0 13.603 6.013c-.052.008-.102.007-.151.026-.211.085-.149.148.16.16.246.01.385-.038.357-.11.314.066.629.132.946.19-.048.01-.094.007-.14.025-.212.084-.149.147.16.16.256.01.4-.043.354-.12.243.043.486.089.731.127.185.029.412.052.656.074-.066.008-.135.006-.194.021-.257.068-.11.127.327.132.412.005.611-.044.481-.11 2.588.147 7.097.01 9.708-.293-.018.005-.035.002-.052.009-.211.084-.149.147.16.16.278.011.435-.051.347-.14-.037-.036-.107-.05-.18-.06.41-.052.767-.108 1.045-.169.421-.091.837-.197 1.254-.302-.15.074-.103.13.18.142.278.011.434-.052.346-.14-.057-.056-.174-.068-.3-.057 5.684-1.47 10.937-4.217 15.215-7.877-.054.054-.103.096-.158.157-.264.29-.42.529-.347.529.073 0 .348-.238.611-.53.264-.29.42-.528.346-.528-.01 0-.04.03-.055.036a34.39 34.39 0 0 0 2.846-2.827c-.053.084-.078.145-.044.145.073 0 .348-.238.611-.53.264-.29.42-.529.346-.529-.042 0-.156.09-.292.213a31.844 31.844 0 0 0 2.083-2.734c2.811-4.149 43.783-75.413 44.858-78.024 5.513-13.388 2.686-28.556-7.26-38.96-6.3-6.59-14.015-10.342-23.119-11.245a34.753 34.753 0 0 0-3.695-.17zm24.12 8.55.505.595c.277.328.545.595.595.595.212 0 .056-.213-.504-.686zm2.911 2.91.504.596c.277.327.545.595.595.595.212 0 .056-.213-.504-.687zm9.731 21.4c-.028.027-.047.12-.053.274-.012.279.051.435.14.347.087-.088.096-.316.02-.507-.043-.105-.079-.142-.106-.115zm0 6.614c-.028.028-.047.12-.053.274-.012.28.051.436.14.348.087-.088.096-.316.02-.507-.043-.106-.079-.143-.106-.115zm-109.794 51.55a54.507 54.507 0 0 0-1.092 2.157c.15-.34.288-.673.452-1.023.02-.045.573-1.009.64-1.134zm-1.986 4.357c-.104.31-.205.607-.32.962a39.15 39.15 0 0 0-.67 2.277c.264-1.08.59-2.153.99-3.239zm-1.171 3.972-.034.152c.01-.051.023-.101.034-.152zm-.675 11.396c.11 1.997.357 3.583.853 5.444-.496-1.859-.744-3.45-.853-5.444zm8.113 19.882.138.167a61.454 61.454 0 0 1-.138-.167zm1.584 1.793c.142.15.282.303.427.45-.144-.148-.285-.299-.427-.45zm1.733 1.715zm47.618 1.808c-.014-.014-.12.066-.33.23-.255.2-.463.409-.463.464 0 .218.217.077.562-.364.165-.21.245-.317.231-.33zm-45.29.176c.057.046.116.091.174.136-.044-.033-.053-.038-.097-.07l-.078-.066zm26.77 7.531a.92.92 0 0 0-.331.055c-.182.073-.033.133.33.133.364 0 .513-.06.331-.133a.92.92 0 0 0-.33-.055zm-4.263.26c-.383 0-.777.013-1.089.041v.001c-.622.056-.178.103.986.103 1.164.001 1.673-.044 1.131-.1a10.49 10.49 0 0 0-1.028-.045z" transform="translate(11.417 -1.355)"/><path fill="#d7e8f2" d="M81.035 22.28c.182-.074.48-.074.661 0 .182.073.034.133-.33.133s-.513-.06-.331-.133zm-7.408 0c.182-.074.48-.074.661 0 .182.073.033.133-.33.133-.364 0-.513-.06-.331-.133zm9.541.259c.191-.077.42-.067.507.02.088.088-.068.151-.347.14-.308-.013-.37-.076-.16-.16zm-11.377 0c.191-.077.42-.067.507.02.088.088-.068.151-.347.14-.308-.013-.371-.076-.16-.16zM53.32 31.35c0-.054.208-.263.463-.462.42-.33.429-.32.1.1-.346.44-.563.58-.563.363zm-3.704 3.705c0-.055.208-.263.463-.463.42-.33.429-.32.1.1-.346.44-.563.58-.563.363zM.16 126.282c.012-.308.075-.371.16-.16.076.19.066.42-.022.507-.087.088-.15-.068-.139-.347zm0 6.878c.012-.307.075-.37.16-.159.076.191.066.42-.022.507-.087.088-.15-.068-.139-.347z"/><path fill="url(#f)" d="M670.4 348.33c-5.81-1.017-12.128-3.852-16.547-7.423l-.937-.758 16.758-28.971c9.218-15.935 17.335-30.103 18.038-31.486 1.511-2.97 2.724-6.46 3.368-9.7.641-3.218.643-10.181.003-13.39-1.427-7.168-5.034-14.026-9.975-18.969l-2.256-2.257 4.015-6.94c4.904-8.478 5.85-9.834 9.12-13.07 5.141-5.088 11.273-8.33 18.795-9.936 3.457-.739 10.606-.67 14.233.138 16.535 3.68 28.002 17.122 29.035 34.036.348 5.7-1.094 12.572-3.75 17.863-1.408 2.806-42.104 73.233-43.65 75.54-5.324 7.945-14.228 13.6-24.143 15.334-2.885.505-9.195.5-12.107-.01z" transform="translate(-577.525 -204.585)"/><path fill="#d7e8f2" d="M60.199 157.557c0-.055.208-.263.463-.463.42-.33.43-.32.1.1-.346.44-.563.58-.563.363zm-19.629 8.386c.191-.077.42-.067.507.02.088.089-.068.151-.347.14-.308-.013-.37-.076-.16-.16zm-4.514.258a3.768 3.768 0 0 1 1.19 0c.328.064.06.115-.595.115s-.923-.051-.595-.115zm268.304 42.075c.19-.076.419-.067.507.02.088.089-.068.151-.347.14-.309-.013-.371-.076-.16-.16zm-7.673 0c.19-.076.42-.067.507.02.088.089-.068.151-.347.14-.308-.013-.371-.076-.16-.16zm28.203 9.11-.505-.595.596.504c.56.474.716.687.504.687-.05 0-.318-.268-.595-.596zm2.91 2.911-.504-.595.595.504c.56.473.716.686.504.686-.05 0-.318-.268-.595-.595zm9.174 21.078c.013-.308.075-.37.16-.16.076.191.067.42-.021.508-.088.087-.15-.069-.139-.348zm0 6.615c.013-.308.075-.371.16-.16.076.191.067.42-.021.507-.088.088-.15-.068-.139-.347zm-49.894 91.7c.263-.291.538-.53.61-.53.073 0-.083.239-.346.53-.264.291-.539.53-.611.53-.073 0 .083-.239.346-.53zm-3.705 3.704c.263-.29.539-.529.611-.529.073 0-.083.238-.346.53-.264.29-.539.528-.612.528-.072 0 .084-.238.347-.529zm-1.72 1.488c0-.055.209-.263.463-.463.42-.33.43-.32.1.1-.345.44-.563.58-.563.363zm-13.543 6.269c.19-.076.42-.067.507.021.088.088-.068.15-.347.139-.308-.013-.371-.075-.16-.16zm-16.14.265c.191-.077.42-.067.507.02.088.088-.068.151-.347.14-.308-.013-.37-.076-.16-.16zm13.494.264c.191-.076.42-.067.507.021.088.088-.068.15-.347.14-.308-.014-.371-.076-.16-.16zm-12.171 0c.191-.076.42-.067.507.021.088.088-.068.15-.347.14-.308-.014-.37-.076-.16-.16zm10.302.27c.182-.073.48-.073.662 0 .182.074.033.134-.33.134-.365 0-.513-.06-.332-.134zm-8.593-.008c.257-.067.614-.062.793.01.18.073-.031.128-.468.122-.436-.005-.583-.064-.325-.131zm3.573.254a13.098 13.098 0 0 1 2.117.003c.542.057.033.103-1.131.102-1.165 0-1.608-.048-.986-.104z"/><path fill="url(#g)" d="M775.44 575.607c-3.154-.552-7.083-1.851-10.008-3.31-10.163-5.064-17.177-14.212-19.659-25.64-.686-3.158-.694-10.835-.016-14.023.636-2.986 1.863-6.542 3.13-9.068 1.55-3.09 42.428-73.838 43.986-76.128.743-1.091 2.55-3.182 4.014-4.646 9.163-9.16 22.244-12.729 34.89-9.52 2.776.704 6.265 2.114 8.75 3.537.873.5 1.735.914 1.914.919.197.005.237.122.1.295-.68.861-37.591 65.187-38.423 66.962-2.417 5.156-3.27 9.163-3.267 15.346.002 5.033.338 7.163 1.842 11.684 2.223 6.681 6.556 12.786 12.068 17 1.255.958 2.505 1.88 2.779 2.047.47.287.47.302.016.265-.359-.03-1.095 1.012-2.87 4.061-2.907 4.997-4.105 6.698-6.58 9.348-5.173 5.54-12.655 9.5-20.559 10.882-2.885.505-9.195.5-12.107-.01z" transform="translate(-577.525 -204.585)"/><path fill="url(#h)" d="M832.066 556.432c-13.803-2.151-25.086-11.53-29.373-24.417-1.504-4.52-1.84-6.651-1.842-11.684-.002-4.86.354-7.341 1.6-11.161 1.348-4.132.377-2.4 32.075-57.234 4.585-7.931 9.228-15.968 10.317-17.86 3.415-5.928 6.005-9.38 8.948-11.926 7.927-6.857 17.835-10.133 27.694-9.155 9.104.903 16.82 4.657 23.12 11.246 9.945 10.404 12.772 25.572 7.259 38.96-1.075 2.61-42.047 73.875-44.858 78.023-4.982 7.352-13.313 12.81-22.642 14.833-2.348.51-9.95.741-12.298.375z" transform="translate(-577.525 -204.585)"/><path fill="url(#i)" d="M609.135 370.35c-13.803-2.152-25.086-11.531-29.373-24.418-1.504-4.52-1.84-6.651-1.842-11.684-.002-4.86.353-7.34 1.6-11.16 1.348-4.133.377-2.4 32.075-57.235 4.585-7.93 9.227-15.967 10.317-17.86 3.415-5.928 6.005-9.38 8.948-11.926 7.927-6.857 17.835-10.132 27.694-9.154 9.104.903 16.82 4.656 23.12 11.246 9.945 10.403 12.771 25.571 7.259 38.96-1.075 2.61-42.047 73.874-44.858 78.023-4.982 7.351-13.314 12.81-22.642 14.832-2.348.51-9.95.741-12.298.375z" transform="translate(-577.525 -204.585)"/></svg>
