<svg xmlns="http://www.w3.org/2000/svg" xmlns:xlink="http://www.w3.org/1999/xlink" xml:space="preserve" width="988" height="1261" viewBox="0 0 261.408 333.64"><defs><linearGradient id="c"><stop offset="0" stop-color="#3a2766"/><stop offset="1" stop-color="#209bd5" stop-opacity="0"/></linearGradient><linearGradient id="b"><stop offset="0" stop-color="#977fff"/><stop offset="1" stop-color="#1f0049"/></linearGradient><linearGradient id="a"><stop offset="0" stop-color="#23e3ec"/><stop offset="1" stop-color="#ff1793"/></linearGradient><linearGradient xlink:href="#a" id="f" x1="352.405" x2="565.938" y1="-2.654" y2="-2.654" gradientUnits="userSpaceOnUse"/><radialGradient xlink:href="#b" id="g" cx="87.807" cy="103.967" r="111.7" fx="87.807" fy="103.967" gradientTransform="matrix(-.474 .8922 -1.2696 -.725 375.305 112.922)" gradientUnits="userSpaceOnUse"/><radialGradient xlink:href="#c" id="d" cx="183.349" cy="-110.624" r="130.652" fx="183.349" fy="-110.624" gradientTransform="matrix(1.6118 1.6118 -.5541 .5542 -41.062 -172.585)" gradientUnits="userSpaceOnUse"/><radialGradient xlink:href="#c" id="e" cx="300.505" cy="161.525" r="130.549" fx="300.505" fy="161.525" gradientTransform="matrix(2.6687 .715 -.3263 1.2177 -474.703 -234.592)" gradientUnits="userSpaceOnUse"/></defs><path fill="url(#d)" d="M203.702 228.06c-10.473-.252-21.925-1.072-30.956-2.216-48.683-6.166-96.811-23.64-129.058-46.859-28.536-20.546-44.766-44.374-48.726-71.539-2.578-17.686.05-40.791 7.023-61.737C23.811-19.849 84.437-68.663 176.545-94.839c13.205-3.752 19.756-5.22 26.434-5.92 4.446-.468 12.201-.533 16.466-.14 11.595 1.07 23.69 4.98 34.197 11.056l1.654.956-.066 156.91-.067 156.908-4.895.698c-14.34 2.045-29.575 2.84-46.566 2.431z" transform="translate(6.112 101.157)"/><path fill="url(#e)" d="M561.521 232.93c9.268-14.344 23.369-36.634 24.446-38.643 12.509-23.316 14.641-51.474 5.761-76.065C586.535 103.838 579.276 92.51 568.52 82c-4.487-4.385-8.282-7.468-13.274-10.784-13.73-9.122-26.35-14.314-40.591-16.703-2.268-.38-4.161-.727-4.207-.77-.045-.044.685-1.134 1.623-2.422.938-1.289 2.774-4.07 4.08-6.18 1.305-2.11 10.268-16.159 19.917-31.22 9.648-15.062 18.35-28.933 19.336-30.824 5.025-9.637 8.088-19.185 9.804-30.56.773-5.124.969-16.829.376-22.438-.912-8.62-3.336-18.65-6.115-25.294-.204-.488-.078-.498 3.868-.315 13.335.62 24.398 3.67 36.359 10.028 1.891 1.006 3.588 1.95 3.77 2.097.264.214.33 31.929.33 156.974v156.706l-1.653.288c-8.794 1.53-26.436 2.942-36.78 2.942h-4.225zM371.19 166.387c-13.093-13.35-22.068-28.928-26.009-45.147-1.723-7.092-2.247-11.374-2.447-20.006-.326-14.037 1.536-28.166 5.63-42.73 1.325-4.715 3.836-12.31 4.063-12.29.08.006.946 1.167 1.922 2.579 4.623 6.685 11.651 14.227 17.963 19.275 8.259 6.605 20.035 13.357 29.474 16.9 6.054 2.271 12.804 4.033 19.266 5.028 2.75.423 2.883.422 3.415-.048.305-.268-.038.252-.76 1.156-1.58 1.975-.594.452-24.048 37.173-10.382 16.256-19.498 30.708-20.256 32.115-.759 1.407-2.062 4.097-2.896 5.978-.835 1.882-1.57 3.473-1.634 3.537-.064.064-1.721-1.52-3.683-3.52zm54.012-77.424c0-.055.208-.263.463-.463.42-.329.429-.32.1.1-.346.44-.563.581-.563.363zm1.455-1.752c.263-.29.538-.529.611-.529.073 0-.083.238-.346.53-.264.29-.539.528-.612.528-.072 0 .084-.238.347-.529zm1.455-1.72c.342-.363.681-.661.754-.661.073 0-.147.298-.49.661-.34.364-.68.662-.753.662-.073 0 .147-.298.49-.662zm4.366-4.63c1.596-1.6 2.96-2.91 3.034-2.91.072 0-1.174 1.31-2.77 2.91-1.595 1.6-2.96 2.91-3.033 2.91-.073 0 1.173-1.31 2.769-2.91zm3.836-3.522c0-.046.387-.433.86-.86l.86-.777-.777.86c-.724.801-.943.981-.943.777zm2.514-2.299c.263-.29.538-.529.611-.529.073 0-.083.238-.347.53-.263.29-.538.528-.61.528-.074 0 .082-.238.346-.529zm1.323-1.058c.263-.291.538-.53.611-.53.073 0-.083.239-.347.53-.263.291-.538.53-.61.53-.074 0 .082-.239.346-.53zm.926-.63c0-.054.208-.262.463-.462.42-.33.429-.32.1.1-.346.44-.563.58-.563.363zm2.116-1.587c0-.055.209-.263.464-.463.42-.329.429-.32.1.1-.346.441-.564.581-.564.363zm34.082-15.955c.191-.077.42-.067.507.02.088.088-.068.15-.347.14-.308-.013-.37-.076-.16-.16zm2.381-.53c.191-.076.42-.067.508.021.087.088-.069.15-.348.14-.308-.013-.37-.076-.16-.16zm2.646-.529c.191-.076.42-.067.507.021.088.088-.068.15-.347.14-.308-.014-.37-.076-.16-.16zm1.588-.264c.19-.077.419-.067.507.02.088.088-.069.151-.347.14-.309-.013-.371-.076-.16-.16zm1.587-.265c.191-.076.42-.067.507.021.088.088-.068.15-.347.139-.308-.013-.37-.075-.16-.16zm1.836-.259c.182-.073.48-.073.661 0 .182.073.033.133-.33.133-.364 0-.513-.06-.331-.133zm2.518-.273c.258-.067.615-.062.794.01.18.073-.031.127-.468.122-.437-.005-.583-.065-.326-.132zm18.648.008c.182-.073.48-.073.662 0 .182.074.033.134-.33.134-.365 0-.513-.06-.332-.134zm-15.61-.276a3.77 3.77 0 0 1 1.19 0c.328.063.06.115-.595.115s-.922-.052-.595-.115zm11.906 0a3.77 3.77 0 0 1 1.19 0c.328.063.06.115-.594.115-.655 0-.923-.052-.596-.115zm-5.683-.26c.257-.068.614-.064.794.009.179.072-.032.127-.469.122-.436-.006-.583-.065-.325-.132zM378.106-.202c0-.055.208-.264.463-.463.42-.33.429-.32.1.1-.346.44-.563.58-.563.363zm1.058-1.323c0-.055.209-.263.463-.463.42-.33.43-.32.1.1-.345.44-.563.58-.563.363zm1.059-1.323c0-.055.208-.263.463-.463.42-.33.429-.32.1.1-.346.44-.563.58-.563.363zm1.058-1.323c0-.055.208-.263.463-.463.42-.33.429-.32.1.1-.346.44-.563.58-.563.363zm1.72-2.017c.263-.29.538-.529.611-.529.073 0-.083.238-.347.53-.263.29-.538.528-.61.528-.074 0 .082-.238.346-.529zm1.587-1.852c.264-.29.539-.529.611-.529.073 0-.083.238-.346.53-.264.29-.539.528-.611.528-.073 0 .083-.238.346-.529zm1.985-2.249c.341-.364.68-.661.753-.661.073 0-.147.297-.489.661-.342.364-.68.662-.753.662-.073 0 .147-.298.489-.662zm2.778-3.043c.568-.582 1.093-1.058 1.166-1.058.072 0-.333.476-.902 1.058-.568.583-1.093 1.059-1.165 1.059-.073 0 .332-.476.9-1.059zm9.79-9.79c.716-.727 1.362-1.322 1.435-1.322.072 0-.454.595-1.171 1.323-.717.728-1.363 1.323-1.435 1.323-.073 0 .454-.595 1.17-1.323zm3.307-3.042c.341-.364.68-.661.753-.661.073 0-.147.297-.489.661-.342.364-.68.662-.753.662-.073 0 .147-.298.489-.662zm2.249-1.984c.263-.291.538-.53.61-.53.074 0-.082.239-.346.53-.263.29-.538.529-.611.529-.073 0 .083-.238.347-.53zm1.72-1.423c0-.055.208-.263.462-.463.42-.33.43-.32.1.1-.345.44-.563.58-.563.363zm1.587-1.323c0-.055.208-.263.463-.463.42-.329.429-.32.1.1-.346.44-.563.58-.563.363zm1.587-1.323c0-.055.209-.263.463-.463.42-.329.43-.32.1.1-.345.44-.563.58-.563.363zM544.48-94.209c.191-.077.42-.067.507.02.088.089-.068.151-.347.14-.308-.013-.37-.076-.16-.16zm3.175-.53c.191-.076.42-.066.507.022.088.087-.068.15-.347.139-.308-.013-.37-.076-.16-.16zm1.836-.258c.182-.074.48-.074.661 0 .182.073.033.133-.33.133-.364 0-.513-.06-.331-.133zm2.381-.265c.182-.073.48-.073.662 0 .181.073.033.133-.331.133s-.513-.06-.33-.133zm3.178-.276c.33-.064.806-.061 1.059.005.252.066-.017.118-.599.115-.582-.003-.789-.057-.46-.12z" transform="translate(-342.543 95.675)"/><path fill="url(#f)" d="M419.313 89.714c-8.89-1.543-17.161-4.182-25.2-8.038-4.145-1.989-11.314-6.121-15.328-8.836-9.898-6.694-19.413-16.244-25.658-25.753l-.722-1.1 1.18-3.002C364.06 16.31 382.002-8.422 405.66-28.799c30.463-26.24 70.609-46.5 119.799-60.457 15.227-4.321 21.933-5.671 31.012-6.242l2.813-.177.808 2.095c2.715 7.039 4.857 16.537 5.615 24.895.464 5.121.193 16.604-.502 21.223-1.707 11.353-4.776 20.92-9.802 30.56-.986 1.891-9.688 15.762-19.336 30.824-9.649 15.061-18.613 29.11-19.92 31.22-1.308 2.11-3.107 4.84-3.997 6.068a401.812 401.812 0 0 0-1.762 2.437c-.078.113-1.268.087-2.645-.059-3.844-.407-13.596-.326-18.074.149-18.623 1.977-35.348 8.921-50.3 20.885-3.418 2.735-9.97 9.275-12.946 12.92-1.701 2.084-2.475 2.839-2.896 2.824-.316-.011-2.212-.304-4.214-.652z" transform="translate(-342.543 95.675)"/><path fill="url(#g)" d="M214.172 227.61s20.417-32.008 27.584-49.65c15.958-41.218-.942-92.747-38.316-116.504-20.193-14.348-46.793-20.458-69.836-16.681-12.876 1.92-30.624 8.737-42.09 18.313-4.755 3.996-5.573 4.397-10.26 9.54-4.133 4.171-6.719 7.828-8 9.393-14.763 23.91-29.63 47.076-43.18 71.747-2.58 4.697-4.018 7.942-5.15 9.7 5.597 5.394 11.892 10.587 18.9 15.575 32.931 23.439 81.569 40.827 130.422 46.627 9.063 1.076 20.539 1.946 31.015 1.943z" transform="translate(6.112 101.157)"/></svg>
