<?xml version="1.0" encoding="UTF-8" standalone="no"?>
<!-- Created with Inkscape (http://www.inkscape.org/) -->

<svg
   width="337.34375mm"
   height="371.73959mm"
   viewBox="0 0 337.34375 371.73959"
   version="1.1"
   id="svg5926"
   xml:space="preserve"
   inkscape:version="1.2.2 (b0a8486541, 2022-12-01)"
   sodipodi:docname="service-page.svg"
   xmlns:inkscape="http://www.inkscape.org/namespaces/inkscape"
   xmlns:sodipodi="http://sodipodi.sourceforge.net/DTD/sodipodi-0.dtd"
   xmlns:xlink="http://www.w3.org/1999/xlink"
   xmlns="http://www.w3.org/2000/svg"
   xmlns:svg="http://www.w3.org/2000/svg"><sodipodi:namedview
     id="namedview5928"
     pagecolor="#ffffff"
     bordercolor="#666666"
     borderopacity="1.0"
     inkscape:showpageshadow="2"
     inkscape:pageopacity="0.0"
     inkscape:pagecheckerboard="0"
     inkscape:deskcolor="#d1d1d1"
     inkscape:document-units="mm"
     showgrid="false"
     inkscape:zoom="0.13889916"
     inkscape:cx="1083.5198"
     inkscape:cy="-291.57843"
     inkscape:window-width="1920"
     inkscape:window-height="1045"
     inkscape:window-x="0"
     inkscape:window-y="0"
     inkscape:window-maximized="1"
     inkscape:current-layer="layer1" /><defs
     id="defs5923"><linearGradient
       inkscape:collect="always"
       id="linearGradient7829"><stop
         style="stop-color:#d7e8f2;stop-opacity:1;"
         offset="0"
         id="stop7825" /><stop
         style="stop-color:#d7e8f2;stop-opacity:0;"
         offset="1"
         id="stop7827" /></linearGradient><linearGradient
       inkscape:collect="always"
       id="linearGradient44841"><stop
         style="stop-color:#3a2766;stop-opacity:1;"
         offset="0"
         id="stop44837" /><stop
         style="stop-color:#209bd5;stop-opacity:0;"
         offset="1"
         id="stop44839" /></linearGradient><linearGradient
       inkscape:collect="always"
       id="linearGradient5722"><stop
         style="stop-color:#977fff;stop-opacity:1;"
         offset="0"
         id="stop5718" /><stop
         style="stop-color:#1f0049;stop-opacity:1;"
         offset="1"
         id="stop5720" /></linearGradient><linearGradient
       inkscape:collect="always"
       id="linearGradient20995"><stop
         style="stop-color:#23e3ec;stop-opacity:1;"
         offset="0"
         id="stop20991" /><stop
         style="stop-color:#ff1793;stop-opacity:1;"
         offset="1"
         id="stop20993" /></linearGradient><linearGradient
       inkscape:collect="always"
       xlink:href="#linearGradient20995"
       id="linearGradient7813"
       x1="577.91992"
       y1="298.63544"
       x2="691.71167"
       y2="298.63544"
       gradientUnits="userSpaceOnUse" /><radialGradient
       inkscape:collect="always"
       xlink:href="#linearGradient5722"
       id="radialGradient7823"
       cx="866.29004"
       cy="488.39835"
       fx="866.29004"
       fy="488.39835"
       r="56.895866"
       gradientTransform="matrix(1.1957859,0.97144204,-1.7567371,2.1624361,640.15242,-1462.6907)"
       gradientUnits="userSpaceOnUse" /><radialGradient
       inkscape:collect="always"
       xlink:href="#linearGradient7829"
       id="radialGradient7835"
       cx="703.50867"
       cy="276.8165"
       fx="703.50867"
       fy="276.8165"
       r="50.592918"
       gradientTransform="matrix(0.88506912,0.46545961,-1.2487591,2.3745092,426.53199,-707.94169)"
       gradientUnits="userSpaceOnUse" /><radialGradient
       inkscape:collect="always"
       xlink:href="#linearGradient7829"
       id="radialGradient7837"
       cx="793.93762"
       cy="504.05478"
       fx="793.93762"
       fy="504.05478"
       r="48.684193"
       gradientTransform="matrix(0.55104016,0.29687671,-1.2925719,2.3991745,1007.9732,-940.96223)"
       gradientUnits="userSpaceOnUse" /><linearGradient
       inkscape:collect="always"
       xlink:href="#linearGradient44841"
       id="linearGradient7845"
       x1="462.01523"
       y1="264.88354"
       x2="799.04279"
       y2="264.88354"
       gradientUnits="userSpaceOnUse"
       gradientTransform="translate(-473.27391,-77.659045)" /></defs><g
     inkscape:label="Layer 1"
     inkscape:groupmode="layer"
     id="layer1"
     transform="translate(11.416773,-1.3546931)"><path
       id="path7186-0"
       style="fill:url(#linearGradient7845);fill-opacity:1;stroke-width:0.264583"
       d="m 128.88968,1.6888264 c -2.6726,-0.02598 -5.32404,0.14139 -7.05284,0.51057 -7.5213,1.60613 -13.6538,4.84811 -18.7947,9.9358296 -3.269799,3.23606 -4.216299,4.59246 -9.119899,13.069999 l -4.0147,6.94066 1.0242,1.02474 c -5.3268,-4.92003 -11.5842,-7.97027 -18.758,-9.14414 0.0889,-0.0245 0.1356,-0.0613 0.0847,-0.11214 -0.0879,-0.0879 -0.3159,-0.0971 -0.5069,-0.0207 -0.0539,0.0216 -0.0402,0.036 -0.0589,0.0543 -0.5094,-0.0769 -1.0241,-0.14278 -1.5426,-0.20102 0.1738,-0.0212 0.2622,-0.0592 0.1297,-0.11265 -0.182,-0.0734 -0.4795,-0.0734 -0.6614,0 -0.0376,0.0151 -0.0527,0.0298 -0.0631,0.0434 -2.2137,-0.21592 -4.4286,-0.20723 -6.6238,-0.002 -0.0111,-0.0131 -0.0241,-0.0268 -0.06,-0.0413 -0.1819,-0.0734 -0.4795,-0.0734 -0.6614,0 -0.1074,0.0433 -0.0719,0.0774 0.0273,0.1018 -0.4521,0.0513 -0.9018,0.12034 -1.3518,0.18913 -0.003,-0.004 -2e-4,-0.007 -0.004,-0.0108 -0.0879,-0.0879 -0.316,-0.0971 -0.507,-0.0207 -0.1265,0.0506 -0.1246,0.0879 -0.0605,0.11679 -6.4836,1.09988 -12.6984,4.01524 -18.0423,8.53436 0.0662,-0.0698 0.1127,-0.0984 0.1943,-0.20257 0.329,-0.41964 0.32,-0.42883 -0.0997,-0.0997 -0.2547,0.19973 -0.463,0.40812 -0.463,0.46302 0,0.0667 0.0264,0.0887 0.0646,0.0899 -0.0165,0.0142 -0.0337,0.0271 -0.0501,0.0413 -2.943,2.54603 -5.5327,5.99807 -8.9473,11.92641 -1.0896,1.89177 -5.7326,9.92849 -10.3172,17.85937 -31.6981398,54.834555 -30.7268898,53.102355 -32.0750498,57.234245 -1.2464202,3.82002 -1.6019002,6.30114 -1.5999002,11.16055 0.002,5.03293 0.33801,7.16365 1.8417502,11.68405 4.28678,12.88671 15.5698,22.26646 29.3728798,24.41763 2.34821,0.36598 9.95022,0.13397 12.29792,-0.37517 6.249,-1.35518 12.0442,-4.25711 16.691,-8.23154 -0.2061,0.17172 -0.3994,0.35209 -0.3994,0.39946 0,0.21776 0.217,0.0774 0.5627,-0.36329 0.2918,-0.37215 0.2658,-0.37503 -0.0248,-0.15193 2.2337,-1.93005 4.2007,-4.10657 5.8126,-6.48539 0.7431,-1.09659 4.2238,-7.01061 8.8578,-14.97841 l 0.9199,0.74362 c 4.4189,3.57142 10.7375,6.4057 16.5478,7.42332 h -0.004 c 2.9119,0.51001 9.2223,0.51559 12.1078,0.0109 9.914599,-1.73429 18.818599,-7.38954 24.142699,-15.33395 1.546,-2.30695 42.24184,-72.734485 43.65004,-75.540095 2.6557,-5.291 4.0984,-12.16223 3.7502,-17.86247 -1.0331,-16.914489 -12.5004,-30.3561286 -29.036,-34.0361686 -1.8135,-0.40361 -4.5073,-0.62307 -7.1799,-0.64906 z M 38.992841,35.715695 c -0.0137,-0.0137 -0.121,0.0664 -0.3308,0.23099 -0.2547,0.19972 -0.463,0.40812 -0.463,0.46302 0,0.21776 0.2171,0.0774 0.5628,-0.36328 0.1645,-0.20983 0.2446,-0.31707 0.231,-0.33073 z m 63.341799,29.76769 c -0.0574,0.46628 -0.1215,0.90244 -0.1963,1.27848 -0.0374,0.18745 -0.0944,0.38151 -0.1354,0.5705 0.1279,-0.61496 0.2361,-1.23169 0.3317,-1.84898 z m -2.610699,8.92297 c -0.3033,0.70278 -0.6181,1.39541 -0.9539,2.05517 -0.7035,1.38245 -8.8204,15.5509 -18.0377,31.485425 l -1.1384,1.96784 c 9.6716,-16.836775 18.7399,-32.772555 20.13,-35.508435 z m -110.92807,52.955425 c -0.0278,0.0278 -0.0469,0.12081 -0.0532,0.27492 -0.0115,0.27887 0.0511,0.43517 0.13901,0.34727 0.0879,-0.0879 0.0971,-0.31647 0.0207,-0.50746 -0.0422,-0.10554 -0.0786,-0.14254 -0.10646,-0.11473 z m 0,6.87917 c -0.0278,0.0278 -0.0469,0.1208 -0.0532,0.27492 -0.0115,0.27886 0.0511,0.43516 0.13901,0.34726 0.0879,-0.0879 0.0971,-0.31646 0.0207,-0.50746 -0.0422,-0.10553 -0.0786,-0.14254 -0.10646,-0.11472 z m 40.64967,33.00574 c -0.0919,-0.004 -0.1964,0.013 -0.2919,0.0512 -0.2111,0.0845 -0.1485,0.14698 0.1597,0.15968 0.2793,0.0115 0.4352,-0.0511 0.3472,-0.13901 -0.0439,-0.044 -0.123,-0.068 -0.215,-0.0718 z m -4.21106,0.262 c -0.2158,0 -0.43161,0.016 -0.59532,0.0475 -0.32742,0.0631 -0.0595,0.11472 0.59532,0.11472 0.65482,0 0.92273,-0.0516 0.59531,-0.11472 -0.16372,-0.0316 -0.37951,-0.0475 -0.59531,-0.0475 z M 285.56218,209.5795 c -0.092,-0.004 -0.1965,0.013 -0.292,0.0512 -0.211,0.0845 -0.1485,0.1475 0.1597,0.1602 0.2793,0.0115 0.4353,-0.0511 0.3473,-0.13901 -0.044,-0.0439 -0.123,-0.0686 -0.215,-0.0723 z m 7.6729,0 c -0.092,-0.004 -0.1964,0.013 -0.2919,0.0512 -0.2111,0.0845 -0.1486,0.1475 0.1596,0.1602 0.2793,0.0115 0.4353,-0.0511 0.3473,-0.13901 -0.044,-0.0439 -0.1231,-0.0686 -0.215,-0.0723 z m -4.3873,0.0165 c -8.6099,0.0654 -17.0627,3.32331 -23.9985,9.32346 -2.9431,2.54603 -5.5332,5.99807 -8.9478,11.92641 -1.0896,1.89176 -5.7326,9.92849 -10.3172,17.85937 -6.3792,11.03537 -10.6285,18.39129 -14.6467,25.35349 10.5054,-18.33298 22.2755,-38.7772 22.6617,-39.26582 0.1367,-0.17302 0.097,-0.2911 -0.1002,-0.2961 -0.1796,-0.005 -1.0409,-0.41777 -1.9141,-0.91778 -2.4851,-1.42313 -5.9735,-2.83398 -8.7499,-3.53828 -12.6464,-3.20803 -25.727,0.36123 -34.8904,9.52035 -1.4647,1.46409 -3.2705,3.55482 -4.0132,4.64622 -1.5585,2.29029 -42.4357,73.0383 -43.9858,76.12817 -1.2671,2.52574 -2.4951,6.08214 -3.1306,9.06767 -0.6785,3.1877 -0.6697,10.86499 0.016,14.02291 2.4817,11.42801 9.4958,20.57663 19.6587,25.64133 2.925,1.45769 6.8548,2.75707 10.0082,3.30936 2.9119,0.5101 9.2223,0.51557 12.1078,0.0109 7.9037,-1.38255 15.3855,-5.34257 20.5588,-10.88202 2.4748,-2.65007 3.6723,-4.35124 6.5805,-9.34827 1.7742,-3.04855 2.5102,-4.09075 2.8686,-4.06125 0.4547,0.0375 0.4537,0.0227 -0.016,-0.26458 -0.1472,-0.09 -0.9332,-0.68608 -1.4939,-1.10071 4.0025,2.83798 8.6114,4.90598 13.6033,6.01307 -0.052,0.008 -0.1019,0.007 -0.1514,0.0264 -0.2111,0.0845 -0.1486,0.14749 0.1596,0.16019 0.2466,0.0101 0.3862,-0.0388 0.3576,-0.11058 0.3141,0.0665 0.6288,0.13184 0.9457,0.19068 -0.048,0.009 -0.094,0.006 -0.14,0.0243 -0.2111,0.0845 -0.1485,0.1475 0.1597,0.1602 0.2571,0.0106 0.4005,-0.0429 0.3545,-0.11989 0.2436,0.0428 0.486,0.0884 0.7312,0.12661 0.1846,0.0288 0.4118,0.0523 0.6563,0.0739 -0.066,0.008 -0.1353,0.006 -0.1938,0.0217 -0.2575,0.0671 -0.1105,0.12677 0.3261,0.13177 0.4123,0.005 0.6114,-0.0445 0.4816,-0.1111 2.5882,0.148 7.0965,0.0113 9.7074,-0.29249 -0.018,0.005 -0.035,0.002 -0.052,0.009 -0.211,0.0845 -0.1486,0.1475 0.1597,0.1602 0.2792,0.0115 0.4353,-0.0511 0.3473,-0.13901 -0.037,-0.0367 -0.1068,-0.0516 -0.1794,-0.0605 0.409,-0.0521 0.7664,-0.10857 1.0449,-0.16899 0.4209,-0.0913 0.8371,-0.1972 1.2537,-0.3023 -0.1501,0.0736 -0.1024,0.12998 0.1793,0.14159 0.2793,0.0115 0.4353,-0.0511 0.3473,-0.13901 -0.057,-0.0568 -0.1742,-0.0681 -0.3003,-0.0574 5.6842,-1.47074 10.9365,-4.21754 15.2146,-7.87755 -0.054,0.0547 -0.1028,0.096 -0.1581,0.15709 -0.2636,0.29104 -0.4198,0.52917 -0.3468,0.52917 0.073,0 0.348,-0.23813 0.6114,-0.52917 0.2636,-0.29104 0.4192,-0.52917 0.3462,-0.52917 -0.01,0 -0.041,0.03 -0.055,0.0362 1.0106,-0.89044 1.9568,-1.83808 2.8453,-2.82722 -0.053,0.0849 -0.078,0.14521 -0.044,0.14521 0.073,0 0.348,-0.23813 0.6113,-0.52917 0.2637,-0.29103 0.4193,-0.52916 0.3463,-0.52916 -0.042,0 -0.1565,0.09 -0.292,0.21291 0.7455,-0.87866 1.4426,-1.7903 2.0826,-2.73472 2.8111,-4.14857 43.7832,-75.41257 44.8582,-78.02315 5.5125,-13.38819 2.6859,-28.55634 -7.26,-38.95989 -6.3,-6.58991 -14.0153,-10.34278 -23.119,-11.24583 -1.2325,-0.12225 -2.4654,-0.17833 -3.6954,-0.16898 z m 24.121,8.54987 0.5039,0.59531 c 0.2772,0.32742 0.5453,0.59531 0.5953,0.59531 0.2117,0 0.056,-0.21312 -0.5039,-0.68678 z m 2.9104,2.91041 0.5039,0.59532 c 0.2772,0.32742 0.5453,0.59531 0.5953,0.59531 0.2117,0 0.056,-0.21311 -0.5039,-0.68678 z m 9.7312,21.39921 c -0.028,0.0278 -0.047,0.1203 -0.053,0.27441 -0.012,0.27887 0.051,0.43516 0.139,0.34726 0.088,-0.0879 0.097,-0.31595 0.021,-0.50694 -0.043,-0.10554 -0.079,-0.14254 -0.1065,-0.11473 z m 0,6.61459 c -0.028,0.0278 -0.047,0.12028 -0.053,0.2744 -0.012,0.27886 0.051,0.43516 0.139,0.34726 0.088,-0.0879 0.097,-0.31594 0.021,-0.50694 -0.043,-0.10553 -0.079,-0.14254 -0.1065,-0.11472 z m -109.7943,51.54982 c -0.4725,0.89205 -0.8213,1.58431 -1.0925,2.15698 0.1497,-0.33994 0.2884,-0.67322 0.4522,-1.02268 0.021,-0.0454 0.573,-1.00923 0.6403,-1.1343 z m -1.9865,4.35736 c -0.104,0.30879 -0.2042,0.60631 -0.3204,0.96221 -0.264,0.80926 -0.4806,1.55244 -0.6697,2.27687 0.2643,-1.08059 0.5905,-2.15309 0.9901,-3.23908 z m -1.1709,3.97185 c -0.012,0.0506 -0.022,0.10093 -0.034,0.15141 0.011,-0.0505 0.023,-0.10101 0.034,-0.15141 z m -0.6749,11.39569 c 0.1093,1.99695 0.3573,3.58353 0.8537,5.44411 -0.4961,-1.85864 -0.7445,-3.44965 -0.8537,-5.44411 z m 8.1132,19.88199 c 0.046,0.0557 0.092,0.11196 0.1379,0.16743 -0.046,-0.0557 -0.092,-0.11145 -0.1379,-0.16743 z m 1.5844,1.79369 c 0.1418,0.15021 0.2819,0.30233 0.4263,0.4501 -0.1441,-0.14817 -0.2847,-0.29923 -0.4263,-0.4501 z m 1.7327,1.71462 c 0.2457,0.22745 0.4936,0.45263 0.7457,0.67334 -0.2523,-0.22014 -0.4995,-0.44526 -0.7457,-0.67334 z m 47.6183,1.80764 c -0.014,-0.0136 -0.1209,0.0664 -0.3308,0.231 -0.2546,0.19973 -0.463,0.40812 -0.463,0.46302 0,0.21778 0.2172,0.0774 0.5628,-0.36329 0.1645,-0.20982 0.2446,-0.31707 0.231,-0.33073 z m -45.2913,0.17622 c 0.058,0.0456 0.1165,0.0912 0.1751,0.13642 -0.044,-0.0332 -0.053,-0.0379 -0.097,-0.0713 -0.027,-0.0206 -0.052,-0.0444 -0.078,-0.0651 z m 26.7704,7.53132 c -0.1199,0 -0.2398,0.0181 -0.3307,0.0548 -0.1819,0.0734 -0.033,0.13332 0.3307,0.13332 0.3638,0 0.5126,-0.0599 0.3307,-0.13332 -0.091,-0.0367 -0.2108,-0.0548 -0.3307,-0.0548 z m -4.2623,0.25942 c -0.3836,-4.8e-4 -0.7776,0.0134 -1.0888,0.0413 v 0.001 c -0.6223,0.0559 -0.1787,0.10335 0.9855,0.10335 1.1645,9.5e-4 1.673,-0.0444 1.1312,-0.10128 -0.271,-0.029 -0.6442,-0.044 -1.0279,-0.0444 z" /><g
       id="g7368"
       transform="translate(-588.94181,-203.23055)"><path
         style="fill:#d7e8f2;stroke-width:0.264583"
         d="m 658.56001,226.86487 c 0.1819,-0.0734 0.47955,-0.0734 0.66146,0 0.1819,0.0734 0.0331,0.13345 -0.33073,0.13345 -0.36381,0 -0.51263,-0.0601 -0.33073,-0.13345 z"
         id="path7335" /><path
         style="fill:#d7e8f2;stroke-width:0.264583"
         d="m 651.15167,226.86487 c 0.18191,-0.0734 0.47956,-0.0734 0.66146,0 0.18191,0.0734 0.0331,0.13345 -0.33073,0.13345 -0.3638,0 -0.51262,-0.0601 -0.33073,-0.13345 z"
         id="path7333" /><path
         style="fill:#d7e8f2;stroke-width:0.264583"
         d="m 660.69321,227.12394 c 0.19101,-0.0764 0.41921,-0.067 0.50712,0.0209 0.0879,0.0879 -0.0684,0.15045 -0.34726,0.13897 -0.30823,-0.0127 -0.37092,-0.0754 -0.15986,-0.15986 z"
         id="path7331" /><path
         style="fill:#d7e8f2;stroke-width:0.264583"
         d="m 649.31614,227.12394 c 0.19099,-0.0764 0.4192,-0.067 0.50712,0.0209 0.0879,0.0879 -0.0684,0.15045 -0.34727,0.13897 -0.30823,-0.0127 -0.37092,-0.0754 -0.15985,-0.15986 z"
         id="path7329" /><path
         style="fill:#d7e8f2;stroke-width:0.264583"
         d="m 630.84491,235.93603 c 0,-0.0549 0.20835,-0.26329 0.46302,-0.46302 0.41965,-0.3291 0.42901,-0.31974 0.0999,0.0999 -0.34564,0.44073 -0.56292,0.58089 -0.56292,0.36313 z"
         id="path7327" /><path
         style="fill:#d7e8f2;stroke-width:0.264583"
         d="m 627.14075,239.6402 c 0,-0.0549 0.20835,-0.2633 0.46302,-0.46302 0.41964,-0.32911 0.429,-0.31975 0.0999,0.0999 -0.34564,0.44073 -0.56291,0.58089 -0.56291,0.36313 z"
         id="path7325" /><path
         style="fill:#d7e8f2;stroke-width:0.264583"
         d="m 577.68455,330.86701 c 0.0127,-0.30823 0.0754,-0.37092 0.15985,-0.15985 0.0764,0.19099 0.067,0.4192 -0.0209,0.50712 -0.0879,0.0879 -0.15046,-0.0684 -0.13897,-0.34727 z"
         id="path7323" /><path
         style="fill:#d7e8f2;stroke-width:0.264583"
         d="m 577.68455,337.74618 c 0.0127,-0.30823 0.0754,-0.37092 0.15985,-0.15986 0.0764,0.191 0.067,0.4192 -0.0209,0.50712 -0.0879,0.0879 -0.15046,-0.0684 -0.13897,-0.34726 z"
         id="path7321" /><path
         style="fill:url(#radialGradient7835);fill-opacity:1;stroke-width:0.264583"
         d="m 670.40012,348.33024 c -5.81029,-1.01762 -12.12847,-3.85207 -16.54741,-7.42349 l -0.93697,-0.75728 16.7586,-28.97187 c 9.21723,-15.93453 17.3342,-30.10297 18.03772,-31.48542 1.51115,-2.96947 2.7235,-6.46061 3.36839,-9.69982 0.64081,-3.2187 0.6426,-10.18142 0.003,-13.39034 -1.42783,-7.16843 -5.03405,-14.02609 -9.97509,-18.96885 l -2.25591,-2.25669 4.01467,-6.94078 c 4.90356,-8.47755 5.85015,-9.83413 9.12004,-13.0702 5.14089,-5.08772 11.27333,-8.32963 18.79462,-9.93576 3.45756,-0.73835 10.60577,-0.66885 14.23287,0.13837 16.53555,3.68004 28.00242,17.12179 29.03561,34.03629 0.34819,5.70025 -1.09439,12.57177 -3.75004,17.86278 -1.40819,2.80561 -42.1039,73.2331 -43.64995,75.54006 -5.3241,7.94441 -14.22813,13.5997 -24.14279,15.33399 -2.88547,0.50474 -9.19583,0.49901 -12.1078,-0.011 z"
         id="path7319" /><path
         style="fill:#d7e8f2;stroke-width:0.264583"
         d="m 637.72407,362.14229 c 0,-0.0549 0.20836,-0.2633 0.46302,-0.46302 0.41966,-0.32911 0.429,-0.31975 0.0999,0.0999 -0.34565,0.44073 -0.56292,0.58089 -0.56292,0.36313 z"
         id="path7317" /><path
         style="fill:#d7e8f2;stroke-width:0.264583"
         d="m 618.09529,370.52811 c 0.191,-0.0764 0.4192,-0.067 0.50712,0.0209 0.0879,0.0879 -0.0684,0.15045 -0.34726,0.13896 -0.30823,-0.0127 -0.37092,-0.0754 -0.15986,-0.15985 z"
         id="path7315" /><path
         style="fill:#d7e8f2;stroke-width:0.264583"
         d="m 613.58084,370.78671 c 0.32742,-0.0631 0.8632,-0.0631 1.19063,0 0.32742,0.0631 0.0595,0.11466 -0.59532,0.11466 -0.65484,0 -0.92273,-0.0516 -0.59531,-0.11466 z"
         id="path7313" /><path
         style="fill:#d7e8f2;stroke-width:0.264583"
         d="m 881.88488,412.86124 c 0.191,-0.0764 0.4192,-0.067 0.50712,0.0209 0.0879,0.0879 -0.0684,0.15045 -0.34726,0.13896 -0.30824,-0.0127 -0.37092,-0.0754 -0.15986,-0.15985 z"
         id="path7311" /><path
         style="fill:#d7e8f2;stroke-width:0.264583"
         d="m 874.21196,412.86124 c 0.191,-0.0764 0.41921,-0.067 0.50713,0.0209 0.0879,0.0879 -0.0684,0.15045 -0.34727,0.13896 -0.30824,-0.0127 -0.37092,-0.0754 -0.15986,-0.15985 z"
         id="path7309" /><path
         style="fill:#d7e8f2;stroke-width:0.264583"
         d="m 902.41456,421.97167 -0.50403,-0.59531 0.59532,0.50403 c 0.55944,0.47366 0.71574,0.68659 0.50402,0.68659 -0.0502,0 -0.31811,-0.26789 -0.59531,-0.59531 z"
         id="path7307" /><path
         style="fill:#d7e8f2;stroke-width:0.264583"
         d="m 905.32498,424.88209 -0.50404,-0.59531 0.59532,0.50402 c 0.55943,0.47367 0.71575,0.6866 0.50403,0.6866 -0.0502,0 -0.31811,-0.26789 -0.59531,-0.59531 z"
         id="path7305" /><path
         style="fill:#d7e8f2;stroke-width:0.264583"
         d="m 914.49911,445.96056 c 0.0127,-0.30822 0.0754,-0.37092 0.15986,-0.15985 0.0764,0.19099 0.067,0.4192 -0.0209,0.50712 -0.0879,0.0879 -0.15047,-0.0684 -0.13898,-0.34727 z"
         id="path7303" /><path
         style="fill:#d7e8f2;stroke-width:0.264583"
         d="m 914.49911,452.57515 c 0.0127,-0.30823 0.0754,-0.37092 0.15986,-0.15986 0.0764,0.191 0.067,0.4192 -0.0209,0.50712 -0.0879,0.0879 -0.15047,-0.0684 -0.13898,-0.34726 z"
         id="path7301" /><path
         style="fill:#d7e8f2;stroke-width:0.264583"
         d="m 864.60428,544.27532 c 0.26339,-0.29104 0.53843,-0.52917 0.61119,-0.52917 0.0728,0 -0.0832,0.23813 -0.34661,0.52917 -0.26339,0.29104 -0.53843,0.52917 -0.61119,0.52917 -0.0728,0 0.0832,-0.23813 0.34661,-0.52917 z"
         id="path7299" /><path
         style="fill:#d7e8f2;stroke-width:0.264583"
         d="m 860.90012,547.97949 c 0.26338,-0.29104 0.53842,-0.52917 0.61118,-0.52917 0.0728,0 -0.0832,0.23813 -0.34661,0.52917 -0.26339,0.29104 -0.53842,0.52916 -0.61118,0.52916 -0.0728,0 0.0832,-0.23812 0.34661,-0.52916 z"
         id="path7297" /><path
         style="fill:#d7e8f2;stroke-width:0.264583"
         d="m 859.18033,549.46708 c 0,-0.0549 0.20835,-0.26329 0.46302,-0.46302 0.41966,-0.32909 0.429,-0.31975 0.0999,0.0999 -0.34565,0.44071 -0.56293,0.58089 -0.56293,0.36311 z"
         id="path7295" /><path
         style="fill:#d7e8f2;stroke-width:0.264583"
         d="m 845.63697,555.73633 c 0.191,-0.0764 0.41921,-0.067 0.50712,0.0209 0.0879,0.0879 -0.0684,0.15047 -0.34727,0.13899 -0.30823,-0.0127 -0.37091,-0.0754 -0.15985,-0.15986 z"
         id="path7293" /><path
         style="fill:#d7e8f2;stroke-width:0.264583"
         d="m 829.49738,556.00091 c 0.191,-0.0764 0.41921,-0.067 0.50712,0.0209 0.0879,0.0879 -0.0684,0.15047 -0.34726,0.13899 -0.30823,-0.0127 -0.37092,-0.0754 -0.15986,-0.15986 z"
         id="path7291" /><path
         style="fill:#d7e8f2;stroke-width:0.264583"
         d="m 842.99113,556.2655 c 0.19101,-0.0764 0.41921,-0.067 0.50712,0.0209 0.0879,0.0879 -0.0684,0.15047 -0.34726,0.13898 -0.30824,-0.0127 -0.37092,-0.0754 -0.15986,-0.15986 z"
         id="path7289" /><path
         style="fill:#d7e8f2;stroke-width:0.264583"
         d="m 830.82029,556.2655 c 0.19101,-0.0764 0.41921,-0.067 0.50712,0.0209 0.0879,0.0879 -0.0684,0.15047 -0.34726,0.13898 -0.30823,-0.0127 -0.37092,-0.0754 -0.15986,-0.15986 z"
         id="path7287" /><path
         style="fill:#d7e8f2;stroke-width:0.264583"
         d="m 841.12252,556.53558 c 0.1819,-0.0734 0.47955,-0.0734 0.66146,0 0.1819,0.0734 0.0331,0.13346 -0.33073,0.13346 -0.36381,0 -0.51263,-0.0601 -0.33073,-0.13346 z"
         id="path7285" /><path
         style="fill:#d7e8f2;stroke-width:0.264583"
         d="m 832.52859,556.52758 c 0.25743,-0.0671 0.61461,-0.0627 0.79375,0.01 0.17914,0.0725 -0.0315,0.12734 -0.46805,0.12197 -0.43656,-0.005 -0.58313,-0.0647 -0.3257,-0.13179 z"
         id="path7283" /><path
         style="fill:#d7e8f2;stroke-width:0.264583"
         d="m 836.10243,556.78145 c 0.6223,-0.0559 1.5748,-0.0551 2.11666,0.003 0.54186,0.0569 0.0327,0.10258 -1.13147,0.10163 -1.16417,0 -1.6075,-0.0475 -0.98519,-0.10337 z"
         id="path7281" /><path
         style="fill:url(#radialGradient7837);fill-opacity:1;stroke-width:0.264583"
         d="m 775.4397,575.60732 c -3.1534,-0.55229 -7.08316,-1.85174 -10.00818,-3.30943 -10.16287,-5.06471 -17.17673,-14.2131 -19.65843,-25.64112 -0.68577,-3.15793 -0.69451,-10.83522 -0.016,-14.02292 0.6355,-2.98553 1.8633,-6.54206 3.13041,-9.0678 1.55012,-3.08988 42.42733,-73.83774 43.98582,-76.12803 0.74266,-1.09141 2.54876,-3.18228 4.01352,-4.64637 9.16337,-9.15913 22.24373,-12.7283 34.89014,-9.52027 2.77643,0.7043 6.26502,2.11485 8.75016,3.53798 0.87313,0.50001 1.73446,0.91318 1.91404,0.91818 0.1971,0.005 0.23674,0.1227 0.1,0.29572 -0.68069,0.86117 -37.59158,65.18715 -38.42326,66.96163 -2.41675,5.15636 -3.26967,9.1629 -3.26686,15.34584 0.002,5.03293 0.33817,7.16362 1.8419,11.68402 2.22265,6.68161 6.55633,12.78605 12.06848,16.99972 1.25431,0.95883 2.50457,1.88029 2.77836,2.04767 0.46983,0.28725 0.47071,0.3021 0.0157,0.26458 -0.35838,-0.0295 -1.09462,1.01274 -2.86883,4.0613 -2.90817,4.99703 -4.10551,6.69795 -6.5804,9.34802 -5.17322,5.53945 -12.65499,9.49973 -20.5588,10.88229 -2.88547,0.50472 -9.19583,0.499 -12.10779,-0.0111 z"
         id="path7186" /><path
         style="fill:url(#radialGradient7823);fill-opacity:1;stroke-width:0.264583"
         d="m 832.0661,556.4322 c -13.8031,-2.15117 -25.08632,-11.53073 -29.37311,-24.41745 -1.50374,-4.5204 -1.83962,-6.65109 -1.84191,-11.68402 -0.002,-4.85942 0.35349,-7.34068 1.59991,-11.16071 1.34816,-4.13189 0.37727,-2.39948 32.07544,-57.23408 4.5846,-7.93089 9.22716,-15.96761 10.31678,-17.85938 3.41463,-5.92834 6.00468,-9.38069 8.94776,-11.92672 7.9267,-6.85732 17.83465,-10.13243 27.69412,-9.15441 9.10376,0.90305 16.81922,4.65615 23.11921,11.24606 9.94588,10.40356 12.77224,25.57158 7.25967,38.95979 -1.07492,2.61058 -42.04692,73.8745 -44.8581,78.02307 -4.98176,7.35187 -13.31327,12.80982 -22.64222,14.83293 -2.34767,0.50914 -9.94934,0.74089 -12.29755,0.37492 z"
         id="path7182" /><path
         style="fill:url(#linearGradient7813);fill-opacity:1;stroke-width:0.264583"
         d="m 609.13498,370.34938 c -13.8031,-2.15117 -25.08632,-11.53072 -29.37311,-24.41745 -1.50374,-4.5204 -1.83962,-6.65109 -1.84191,-11.68402 -0.002,-4.85942 0.35349,-7.34068 1.59991,-11.16071 1.34816,-4.13189 0.37727,-2.39948 32.07544,-57.23408 4.5846,-7.93089 9.22716,-15.96761 10.31678,-17.85938 3.41463,-5.92834 6.00468,-9.38069 8.94776,-11.92672 7.9267,-6.85732 17.83465,-10.13243 27.69412,-9.15441 9.10376,0.90305 16.81922,4.65615 23.11921,11.24606 9.94588,10.40356 12.77224,25.57158 7.25967,38.95979 -1.07492,2.61058 -42.04692,73.8745 -44.8581,78.02307 -4.98176,7.35187 -13.31327,12.80982 -22.64222,14.83293 -2.34767,0.50914 -9.94934,0.7409 -12.29755,0.37492 z"
         id="path7182-7" /></g></g></svg>
